<svg xmlns="http://www.w3.org/2000/svg" width="33" height="32" viewBox="0 0 33 32" fill="none">
  <g clip-path="url(#clip0_306_4760)">
    <path d="M22.6583 0.00012207C22.7328 0.00012207 22.8073 0.00012207 22.8859 0.00012207C23.0686 2.25683 22.2072 3.94304 21.1604 5.16413C20.1332 6.3768 18.7266 7.55293 16.4517 7.37447C16.2999 5.15008 17.1627 3.58893 18.2081 2.37065C19.1777 1.23527 20.9552 0.22495 22.6583 0.00012207Z" fill="white"/>
    <path d="M29.5451 23.4889C29.5451 23.5114 29.5451 23.5311 29.5451 23.5522C28.9058 25.4885 27.9938 27.148 26.8809 28.6881C25.865 30.0862 24.62 31.9677 22.397 31.9677C20.4761 31.9677 19.2002 30.7326 17.2316 30.6989C15.1491 30.6651 14.0039 31.7317 12.0999 32.0001C11.8821 32.0001 11.6643 32.0001 11.4507 32.0001C10.0525 31.7977 8.92419 30.6904 8.10217 29.6928C5.67824 26.7447 3.80515 22.9367 3.45667 18.0635C3.45667 17.5858 3.45667 17.1094 3.45667 16.6317C3.60421 13.144 5.29885 10.3084 7.55134 8.93414C8.74012 8.20345 10.3743 7.58096 12.194 7.85918C12.9739 7.98003 13.7706 8.24701 14.469 8.51118C15.1308 8.76552 15.9585 9.21658 16.7426 9.19269C17.2737 9.17723 17.8021 8.90041 18.3374 8.7051C19.9056 8.13881 21.4429 7.48962 23.4691 7.79454C25.9043 8.1627 27.6327 9.24468 28.7006 10.914C26.6406 12.2251 25.012 14.2007 25.2902 17.5745C25.5376 20.6392 27.3193 22.4322 29.5451 23.4889Z" fill="white"/>
  </g>
  <defs>
    <clipPath id="clip0_306_4760">
      <rect width="32" height="32" fill="white" transform="translate(0.5)"/>
    </clipPath>
  </defs>
</svg>