<svg
	xmlns="http://www.w3.org/2000/svg"
	width="16"
	height="13"
	viewBox="0 0 16 13"
	fill="none"
>
	<path
		d="M0.85791 5.75C0.443697 5.75 0.10791 6.08579 0.10791 6.5C0.10791 6.91421 0.443697 7.25 0.85791 7.25V5.75ZM15.5304 7.03033C15.8233 6.73744 15.8233 6.26256 15.5304 5.96967L10.7574 1.1967C10.4645 0.903806 9.98964 0.903806 9.69674 1.1967C9.40385 1.48959 9.40385 1.96447 9.69674 2.25736L13.9394 6.5L9.69674 10.7426C9.40385 11.0355 9.40385 11.5104 9.69674 11.8033C9.98964 12.0962 10.4645 12.0962 10.7574 11.8033L15.5304 7.03033ZM0.85791 7.25H15V5.75H0.85791V7.25Z"
		fill="#000000"
	/>
</svg>