<svg width="24" height="24" viewBox="0 0 24 24" fill="none" xmlns="http://www.w3.org/2000/svg">
<g id="Type=Symbol Mark, Size=24px, Light/Dark=Off">
<path id="Vector" d="M24 0V23.9377H17.0709V11.4551H15.7372C15.6253 11.9217 15.4526 12.596 15.2207 13.4029C14.7825 14.9209 14.5538 15.7214 14.1716 16.6019C13.3609 18.4985 12.2783 19.7688 11.8177 20.3105C11.0197 21.2469 10.121 21.9835 9.12154 22.5236C8.6274 22.7888 8.10128 23.0173 7.54637 23.1979C6.58689 23.575 5.56983 23.8274 4.51759 23.9377C4.11301 23.976 3.70203 24 3.28145 24C2.86088 24 2.45309 23.976 2.05011 23.9377C1.35608 23.8642 0.684436 23.7348 0.0415794 23.5494C0.0271871 23.5462 0.0143923 23.543 0 23.5382V14.678C0.0143923 14.6892 0.0271871 14.6988 0.0415794 14.7084C3.78838 17.5142 9.14712 16.6961 12.0448 13.077C12.8427 12.0799 13.4568 10.947 13.919 9.76458C13.9973 9.56485 14.4531 7.93342 14.7074 6.92836H0.0415794V0H24Z" fill="#02E56A"/>
</g>
</svg>
