<svg width="24" height="25" viewBox="0 0 24 25" fill="none" xmlns="http://www.w3.org/2000/svg">
<g id="apple-logo 1" clip-path="url(#clip0_6037_37385)">
<g id="Group">
<g id="Group_2">
<path id="Vector" d="M16.6172 0.5C16.6731 0.5 16.729 0.5 16.788 0.5C16.925 2.19253 16.279 3.45719 15.4938 4.37301C14.7234 5.28251 13.6685 6.1646 11.9623 6.03076C11.8484 4.36247 12.4955 3.19161 13.2796 2.27789C14.0068 1.42636 15.3399 0.668621 16.6172 0.5Z" fill="white"/>
<path id="Vector_2" d="M21.7831 18.1164C21.7831 18.1332 21.7831 18.148 21.7831 18.1638C21.3036 19.6161 20.6196 20.8607 19.785 22.0157C19.023 23.0643 18.0893 24.4755 16.422 24.4755C14.9814 24.4755 14.0245 23.5491 12.548 23.5238C10.9861 23.4985 10.1272 24.2984 8.69921 24.4997C8.53586 24.4997 8.37251 24.4997 8.21232 24.4997C7.16371 24.348 6.31744 23.5175 5.70092 22.7693C3.88298 20.5582 2.47816 17.7022 2.2168 14.0474C2.2168 13.689 2.2168 13.3318 2.2168 12.9735C2.32745 10.3577 3.59843 8.23099 5.2878 7.2003C6.17938 6.65228 7.40505 6.18541 8.76982 6.39408C9.35472 6.48471 9.95227 6.68495 10.4761 6.88308C10.9724 7.07383 11.5932 7.41213 12.1812 7.39421C12.5796 7.38262 12.9759 7.17501 13.3774 7.02852C14.5535 6.6038 15.7065 6.11691 17.2262 6.3456C19.0525 6.62172 20.3488 7.43321 21.1497 8.68521C19.6048 9.66848 18.3833 11.1502 18.592 13.6806C18.7775 15.9791 20.1138 17.3239 21.7831 18.1164Z" fill="white"/>
</g>
</g>
</g>
<defs>
<clipPath id="clip0_6037_37385">
<rect width="24" height="24" fill="white" transform="translate(0 0.5)"/>
</clipPath>
</defs>
</svg>
