<svg width="24" height="24" viewBox="0 0 24 24" fill="none" xmlns="http://www.w3.org/2000/svg">
<path fill-rule="evenodd" clip-rule="evenodd" d="M18.7599 5.98952C18.7599 5.7906 18.6809 5.59984 18.5402 5.45919C18.3996 5.31853 18.2088 5.23952 18.0099 5.23952L9.42564 5.23952C9.01142 5.23952 8.67564 5.5753 8.67564 5.98952C8.67564 6.40373 9.01142 6.73952 9.42564 6.73952L16.1997 6.73952L5.45904 17.4802C5.16615 17.7731 5.16615 18.2479 5.45904 18.5408C5.75194 18.8337 6.22681 18.8337 6.5197 18.5408L17.2599 7.80062V14.5738C17.2599 14.988 17.5957 15.3238 18.0099 15.3238C18.4241 15.3238 18.7599 14.988 18.7599 14.5738L18.7599 5.98952Z" fill="#111111"/>
</svg>
