<svg xmlns="http://www.w3.org/2000/svg" width="24" height="24" viewBox="0 0 24 24" fill="none">
  <path fill-rule="evenodd" clip-rule="evenodd" d="M5.00049 17.5869C4.60999 17.9775 4.61005 18.6106 5.00061 19.0011C5.39117 19.3916 6.02433 19.3916 6.41482 19.001L12.0001 13.4148L17.5858 19.0005C17.9763 19.391 18.6095 19.391 19 19.0005C19.3905 18.61 19.3905 17.9768 19 17.5863L13.4142 12.0005L18.9996 6.41408C19.39 6.02352 19.39 5.39036 18.9994 4.99987C18.6089 4.60937 17.9757 4.60943 17.5852 4.99999L11.9999 10.5863L6.41414 5.00047C6.02362 4.60995 5.39045 4.60995 4.99993 5.00047C4.6094 5.391 4.6094 6.02416 4.99993 6.41469L10.5859 12.0006L5.00049 17.5869Z" fill="black"/>
</svg>