<svg width="686" height="561" viewBox="0 0 686 561" fill="none" xmlns="http://www.w3.org/2000/svg">
<path d="M8.71133 421.708C-1.57044 417.965 -1.57044 411.84 8.71133 408.097L104.031 373.425C114.313 369.682 131.141 369.682 141.387 373.425L236.698 408.097C246.989 411.84 246.989 417.965 236.698 421.708L141.423 456.379C131.141 460.122 114.313 460.122 104.067 456.379L8.71133 421.708Z" fill="#585858" fill-opacity="0.4" stroke="black" stroke-width="0.952515" stroke-miterlimit="10"/>
<path d="M146.839 471.919C136.557 468.176 136.557 462.06 146.839 458.317L242.15 423.646C252.432 419.912 269.26 419.912 279.551 423.646L374.862 458.317C385.143 462.06 385.143 468.176 374.862 471.919L279.551 506.591C269.26 510.333 252.432 510.333 242.15 506.591L146.839 471.919Z" fill="#585858" fill-opacity="0.4" stroke="black" stroke-width="0.952515" stroke-miterlimit="10"/>
<path d="M285.12 522.228C274.838 518.486 274.838 512.36 285.12 508.627L380.439 473.955C390.721 470.212 407.549 470.212 417.795 473.955L513.106 508.627C523.397 512.36 523.397 518.486 513.106 522.228L417.795 556.9C407.514 560.643 390.686 560.643 380.439 556.9L285.12 522.228Z" fill="#0CF175" stroke="black" stroke-width="0.952515" stroke-miterlimit="10"/>
<path d="M139.128 261.685V364.615C139.128 367.087 141.698 369.549 146.839 371.416L242.15 406.088C252.432 409.831 269.26 409.831 279.551 406.088L452.144 343.297C457.285 341.43 459.855 338.958 459.855 336.496V233.583L139.128 261.685Z" fill="#585858" fill-opacity="0.4" stroke="black" stroke-width="0.952515" stroke-miterlimit="10"/>
<path d="M139.128 359.414L154.319 364.935C158.34 366.402 161.63 364.099 161.63 359.823V341.767C161.521 339.515 160.777 337.34 159.483 335.494C158.189 333.647 156.399 332.203 154.319 331.33L145.238 328.023C142.574 327.002 140.392 325.015 139.128 322.458" stroke="black" stroke-width="0.952515" stroke-miterlimit="10"/>
<path d="M260.846 408.897C267.632 408.897 274.41 408.008 279.524 406.097L452.117 343.306C457.258 341.439 459.829 338.967 459.829 336.505V242.198L274.472 309.763C266.965 312.501 260.819 321.276 260.819 329.259L260.846 408.897Z" fill="#EBE9E9"/>
<path d="M139.128 261.685V364.615C139.128 367.087 141.698 369.549 146.839 371.416L242.15 406.088C252.432 409.831 269.26 409.831 279.551 406.088L452.144 343.297C457.285 341.43 459.855 338.958 459.855 336.496V233.583L139.128 261.685Z" stroke="black" stroke-width="0.952515" stroke-miterlimit="10"/>
<path d="M146.839 268.495C136.557 264.752 136.557 258.636 146.839 254.893L319.433 192.102C329.714 188.359 346.542 188.359 356.788 192.102L452.108 226.774C462.39 230.507 462.39 236.633 452.108 240.375L279.551 303.175C269.26 306.909 252.432 306.909 242.15 303.175L146.839 268.495Z" fill="#585858" fill-opacity="0.4"/>
<path d="M452.144 240.348C462.425 236.606 462.425 230.48 452.144 226.747L389.973 204.121L257.297 247.638L231.503 288.666H258.978C265.699 288.47 272.356 287.299 278.741 285.19L326.957 267.641C333.341 265.53 339.998 264.356 346.72 264.156H386.824L452.144 240.348Z" fill="#403C3C"/>
<path d="M146.839 268.495C136.557 264.752 136.557 258.636 146.839 254.893L319.433 192.102C329.714 188.359 346.542 188.359 356.788 192.102L452.108 226.774C462.39 230.507 462.39 236.633 452.108 240.375L279.551 303.175C269.26 306.909 252.432 306.909 242.15 303.175L146.839 268.495Z" stroke="black" stroke-width="0.952515" stroke-miterlimit="10"/>
<path d="M408.518 223.892V142.832H306.679V223.892C306.679 225.724 308.591 227.555 312.415 228.951L343.688 240.348C351.337 243.131 363.86 243.131 371.509 240.348L402.781 228.969C406.606 227.555 408.518 225.724 408.518 223.892Z" fill="#0CF175" stroke="black" stroke-width="0.952515" stroke-miterlimit="10"/>
<path d="M358.656 242.393C363.021 242.391 367.358 241.701 371.508 240.348L402.78 228.969C406.605 227.573 408.517 225.742 408.517 223.91V142.832L358.656 161.315V242.393Z" fill="black"/>
<path d="M408.518 223.892V142.832H306.679V223.892C306.679 225.724 308.591 227.555 312.415 228.951L343.688 240.348C351.337 243.131 363.86 243.131 371.509 240.348L402.781 228.969C406.606 227.555 408.518 225.724 408.518 223.892Z" stroke="black" stroke-width="0.952515" stroke-miterlimit="10"/>
<path d="M312.416 147.891C304.766 145.099 304.766 140.547 312.416 137.765L343.688 126.385C351.337 123.603 363.86 123.603 371.509 126.385L402.781 137.765C410.43 140.547 410.43 145.099 402.781 147.891L371.509 159.27C363.86 162.053 351.337 162.053 343.688 159.27L312.416 147.891Z" fill="#0CF175" stroke="black" stroke-width="0.952515" stroke-miterlimit="10"/>
<path d="M355.553 161.324V242.375" stroke="black" stroke-width="0.952515" stroke-miterlimit="10"/>
<path d="M344.923 247.025V139.303H243.083V247.025C243.083 248.865 244.996 250.697 248.82 252.092L280.093 263.463C287.742 266.246 300.265 266.246 307.914 263.463L339.186 252.092C343.011 250.697 344.923 248.865 344.923 247.025Z" fill="#0CF175" stroke="black" stroke-width="0.952515" stroke-miterlimit="10"/>
<path d="M295.061 265.534C299.427 265.528 303.765 264.829 307.913 263.463L339.185 252.092C343.01 250.697 344.922 248.865 344.922 247.025V139.303L295.061 157.777V265.534Z" fill="black"/>
<path d="M344.923 247.025V139.303H243.083V247.025C243.083 248.865 244.996 250.697 248.82 252.092L280.093 263.463C287.742 266.246 300.265 266.246 307.914 263.463L339.186 252.092C343.011 250.697 344.923 248.865 344.923 247.025Z" stroke="black" stroke-width="0.952515" stroke-miterlimit="10"/>
<path d="M248.82 144.335C241.171 141.552 241.171 137.001 248.82 134.209L280.093 122.865C287.742 120.083 300.265 120.083 307.914 122.865L339.186 134.236C346.835 137.027 346.835 141.579 339.186 144.362L307.914 155.741C300.265 158.524 287.742 158.524 280.093 155.741L248.82 144.335Z" fill="#0CF175" stroke="black" stroke-width="0.952515" stroke-miterlimit="10"/>
<path d="M281.33 270.166V233.557H179.491V270.166C179.491 271.998 181.403 273.829 185.228 275.225L216.491 286.577C224.149 289.36 236.663 289.36 244.321 286.577L275.584 275.198C279.409 273.829 281.33 271.998 281.33 270.166Z" fill="#0CF175" stroke="black" stroke-width="0.952515" stroke-miterlimit="10"/>
<path d="M231.468 288.667C235.835 288.649 240.172 287.944 244.32 286.577L275.583 275.198C279.408 273.802 281.329 271.971 281.329 270.14V233.557L231.468 252.039V288.667Z" fill="black"/>
<path d="M281.33 270.166V233.557H179.491V270.166C179.491 271.998 181.403 273.829 185.228 275.225L216.491 286.577C224.149 289.36 236.663 289.36 244.321 286.577L275.584 275.198C279.409 273.829 281.33 271.998 281.33 270.166Z" stroke="black" stroke-width="0.952515" stroke-miterlimit="10"/>
<path d="M185.228 238.624C177.578 235.832 177.578 231.281 185.228 228.498L216.491 217.119C224.149 214.336 236.663 214.336 244.321 217.119L275.584 228.498C283.242 231.281 283.242 235.832 275.584 238.624L244.321 249.994C236.663 252.777 224.149 252.777 216.491 249.994L185.228 238.624Z" fill="#0CF175" stroke="black" stroke-width="0.952515" stroke-miterlimit="10"/>
<path d="M292.083 157.795V265.517" stroke="black" stroke-width="0.952515" stroke-miterlimit="10"/>
<path d="M228.685 252.057V288.685" stroke="black" stroke-width="0.952515" stroke-miterlimit="10"/>
<path opacity="0.7" d="M340.948 245.176C345.128 256.644 354.707 263.783 364.562 260.191L447.892 229.841C456.787 226.605 460.487 214.621 456.306 203.17L388.407 16.9305C384.227 5.46217 374.488 -1.62328 364.784 1.915L281.463 32.3193C272.106 35.7242 268.86 47.5303 273.04 58.9897L340.948 245.176Z" fill="#888888"/>
<path d="M279.346 33.0301C269.989 36.435 266.742 48.25 270.923 59.7005L338.795 245.94C342.975 257.408 352.554 264.538 362.409 260.947L364.508 260.191C354.662 263.747 345.092 256.635 340.912 245.176L273.04 58.9893C268.859 47.521 272.106 35.7149 281.462 32.3188L279.346 33.0301Z" fill="#585858" fill-opacity="0.4"/>
<path d="M393.397 249.692L447.892 229.84C456.786 226.604 460.486 214.621 456.306 203.17L388.407 16.9305C384.227 5.46217 374.487 -1.62328 364.784 1.915L310.333 21.7667L393.397 249.692Z" fill="black"/>
<path d="M396.207 212.834C402.961 212.834 408.437 205.773 408.437 197.063C408.437 188.352 402.961 181.292 396.207 181.292C389.453 181.292 383.978 188.352 383.978 197.063C383.978 205.773 389.453 212.834 396.207 212.834Z" fill="#585858" fill-opacity="0.4" stroke="black" stroke-width="0.952515" stroke-miterlimit="10"/>
<path d="M411.639 206.771C418.393 206.771 423.868 199.71 423.868 191C423.868 182.289 418.393 175.229 411.639 175.229C404.885 175.229 399.409 182.289 399.409 191C399.409 199.71 404.885 206.771 411.639 206.771Z" fill="#0CF175"/>
<path d="M396.207 212.834C402.961 212.834 408.437 205.773 408.437 197.063C408.437 188.352 402.961 181.292 396.207 181.292C389.453 181.292 383.978 188.352 383.978 197.063C383.978 205.773 389.453 212.834 396.207 212.834Z" stroke="black" stroke-width="0.952515" stroke-miterlimit="10"/>
<path d="M340.948 245.176C345.128 256.644 354.707 263.783 364.562 260.191L447.892 229.841C456.787 226.605 460.487 214.621 456.306 203.17L388.407 16.9305C384.227 5.46217 374.488 -1.62328 364.784 1.915L281.463 32.3193C272.106 35.7242 268.86 47.5303 273.04 58.9897L340.948 245.176Z" stroke="black" stroke-width="0.952515" stroke-miterlimit="10"/>
<path d="M336.268 74.9209C337.638 78.6725 340.777 81.0107 343.997 79.8283L356.04 75.4454C358.948 74.3875 360.158 70.4669 358.788 66.7153L351.566 46.8992C350.196 43.1475 347.012 40.8272 343.837 41.9829L331.803 46.3746C328.734 47.4859 327.676 51.3531 329.046 55.1048L336.268 74.9209Z" fill="#0CF175"/>
<path d="M351.246 46.0282C349.725 42.801 346.799 40.9252 343.881 41.9832L331.847 46.3749C328.779 47.4862 327.72 51.3534 329.09 55.105L332.568 64.6886L351.246 46.0282Z" fill="#585858" fill-opacity="0.4"/>
<path d="M347.492 53.9135L353.326 51.7266" stroke="black" stroke-width="0.952515" stroke-miterlimit="10"/>
<path d="M351.209 64.1104L357.044 61.9146" stroke="black" stroke-width="0.952515" stroke-miterlimit="10"/>
<path d="M330.841 60.0387L337.067 57.7095" stroke="black" stroke-width="0.952515" stroke-miterlimit="10"/>
<path d="M334.559 70.2271L340.785 67.9067" stroke="black" stroke-width="0.952515" stroke-miterlimit="10"/>
<path d="M340.244 67.6307C340.902 69.4087 342.405 70.5555 343.962 69.9954L349.734 67.8796C351.13 67.3728 351.717 65.4881 351.059 63.6834L347.59 54.171C346.932 52.393 345.402 51.255 343.882 51.8151L338.1 53.9221C336.633 54.4555 336.117 56.3135 336.775 58.1093L340.244 67.6307Z" stroke="black" stroke-width="0.952515" stroke-miterlimit="10"/>
<path d="M247.246 468.976C245.467 468.327 245.467 467.27 247.246 466.621L264.972 460.166C267.085 459.517 269.343 459.517 271.456 460.166L274.453 461.26C276.232 461.909 276.232 462.967 274.453 463.616L256.727 470.07C254.614 470.719 252.356 470.719 250.243 470.07L247.246 468.976Z" fill="black"/>
<path d="M245.904 432.376V463.491C245.904 463.918 246.349 464.38 247.247 464.673L250.245 465.767C252.357 466.416 254.616 466.416 256.729 465.767L274.455 459.313C275.344 458.984 275.798 458.557 275.798 458.13V427.042L245.904 432.376Z" fill="#585858" fill-opacity="0.4" stroke="black" stroke-width="0.952515" stroke-miterlimit="10"/>
<path d="M247.248 433.549C245.469 432.9 245.469 431.842 247.248 431.193L264.974 424.739C267.087 424.09 269.345 424.09 271.458 424.739L274.455 425.833C276.234 426.482 276.234 427.539 274.455 428.188L256.729 434.643C254.616 435.292 252.358 435.292 250.245 434.643L247.248 433.549Z" fill="#585858" fill-opacity="0.4" stroke="black" stroke-width="0.952515" stroke-miterlimit="10"/>
<path d="M261.363 430.58C263.082 430.58 264.476 430.031 264.476 429.353C264.476 428.676 263.082 428.126 261.363 428.126C259.644 428.126 258.25 428.676 258.25 429.353C258.25 430.031 259.644 430.58 261.363 430.58Z" stroke="black" stroke-width="0.952515" stroke-miterlimit="10"/>
<path d="M557.487 543.574C544.208 543.574 530.928 541.733 520.825 538.053L510.454 534.283L512.58 528.434L522.95 532.212C541.993 539.137 572.981 539.137 592.023 532.212L624.665 520.335C659.077 507.808 678.813 490.81 678.813 473.697C678.813 456.583 659.077 439.577 624.665 427.041L489.739 377.968L367.95 422.276C361.482 424.602 354.493 425.076 347.771 423.646C341.048 422.215 334.859 418.935 329.9 414.177C321.771 406.31 309.39 396.05 296.547 391.845C289.583 389.561 283.481 390.263 278.411 393.935C268.841 400.869 264.474 417.156 264.474 429.353H258.248C258.248 415.129 263.353 397.153 274.756 388.894C281.444 384.058 289.645 383.035 298.495 385.933C312.45 390.512 325.631 401.385 334.232 409.706C338.348 413.655 343.485 416.376 349.066 417.564C354.646 418.751 360.447 418.357 365.815 416.427L489.739 371.345L626.8 421.21C664.36 434.874 685.039 453.507 685.039 473.661C685.039 493.815 664.36 512.476 626.8 526.113L594.149 538.053C584.045 541.724 570.766 543.574 557.487 543.574Z" fill="#585858" fill-opacity="0.4"/>
<path d="M258.248 429.353C258.248 415.129 263.353 397.153 274.756 388.894C281.444 384.058 289.645 383.035 298.495 385.933C312.45 390.512 325.631 401.385 334.232 409.706C338.348 413.655 343.485 416.376 349.066 417.564C354.646 418.751 360.447 418.357 365.815 416.427L489.739 371.345L626.8 421.21C664.36 434.874 685.039 453.507 685.039 473.661C685.039 493.815 664.36 512.476 626.8 526.113L594.149 538.053C584.045 541.733 570.766 543.574 557.487 543.574C544.208 543.574 530.911 541.724 520.825 538.053L510.454 534.283" stroke="black" stroke-width="0.952515" stroke-miterlimit="10"/>
<path d="M512.58 528.434L522.951 532.212C541.994 539.138 572.981 539.138 592.024 532.212L624.666 520.335C659.078 507.809 678.814 490.811 678.814 473.697C678.814 456.584 659.078 439.577 624.666 427.042L489.74 377.968L367.951 422.277C361.483 424.603 354.494 425.077 347.771 423.646C341.049 422.215 334.859 418.936 329.901 414.178C321.771 406.31 309.391 396.051 296.547 391.846C289.583 389.561 283.482 390.263 278.412 393.935C268.842 400.869 264.475 417.156 264.475 429.353" stroke="black" stroke-width="0.952515" stroke-miterlimit="10"/>
<path d="M671.646 165.316C677.33 149.731 672.918 133.676 660.208 129.044L571.034 96.5504C557.853 91.7497 544.618 101.369 538.935 116.953L469.72 306.785L537.414 416.898L423.407 458.37C413.125 462.113 413.125 468.238 423.407 471.981L518.718 506.653C529 510.396 545.828 510.396 556.119 506.653L639.191 476.426C656.206 470.203 662.316 452.565 652.879 437.141L617.089 378.981C609.03 365.868 606.745 343.314 612.01 328.859L671.646 165.316Z" fill="#585858" fill-opacity="0.4" stroke="black" stroke-width="0.952515" stroke-miterlimit="10"/>
<path d="M593.527 362.304L521.27 336.842L503.482 350.738L537.431 416.898L450.632 448.476L576.93 494.438C588.955 489.566 605.926 482.756 631.034 473.253C641.04 469.465 651.278 464.363 651.278 452.29C651.278 442.822 649.063 442.919 613.095 383.924C609.181 377.444 602.404 365.433 593.527 362.304Z" fill="#403C3C"/>
<path d="M517.954 503.746C524.038 505.441 530.316 506.337 536.632 506.413C553.584 506.413 552.161 503.106 631.089 473.235C641.095 469.448 651.332 464.345 651.332 452.272C651.332 442.804 649.117 442.902 613.149 383.907C609.209 377.426 602.476 365.415 593.582 362.286L521.325 336.825" stroke="black" stroke-width="0.952515" stroke-miterlimit="10"/>
<path d="M560.671 437.479C554.996 453.063 541.993 462.762 528.571 457.926L415.285 416.631C401.544 411.626 398.164 395.944 403.847 380.359L525.334 47.2725C531.017 31.688 544.252 22.06 557.442 26.8251L670.693 68.0843C683.403 72.7161 687.814 88.7716 682.131 104.356L560.671 437.479Z" fill="#403C3C" stroke="black" stroke-width="0.952515" stroke-miterlimit="10"/>
<path d="M684.018 84.0686C684.018 84.0686 681.946 76.9565 679.286 74.2361L667.395 69.791L668.631 78.6101L684.018 84.0686Z" fill="black"/>
<path d="M682.114 104.392C683.185 101.465 683.916 98.4259 684.293 95.3327L671.37 90.7632L538.187 448.485L550.933 452.654C555.35 448.441 558.703 443.24 560.716 437.479L682.114 104.392Z" fill="black"/>
<path d="M549.385 433.371C543.701 448.956 530.707 458.655 517.285 453.819L404.026 412.568C391.947 408.168 386.913 391.881 392.597 376.297L514.012 43.165C519.696 27.5806 532.93 17.9526 546.112 22.7177L659.362 63.9769C672.081 68.6086 676.484 84.6642 670.801 100.249L549.385 433.371Z" fill="#403C3C" stroke="black" stroke-width="0.952515" stroke-miterlimit="10"/>
<path d="M657.209 167.838C657.74 166.37 656.981 164.75 655.512 164.22C654.044 163.689 652.423 164.448 651.892 165.916L640.255 198.072C639.724 199.54 640.484 201.16 641.952 201.691C643.421 202.222 645.042 201.463 645.573 199.995L657.209 167.838Z" fill="#403C3C" stroke="black" stroke-width="0.952134" stroke-miterlimit="10"/>
<path d="M657.21 68.8844L648.316 65.6484C647.167 65.2981 645.945 65.2627 644.778 65.5458C643.611 65.8288 642.541 66.42 641.681 67.2575L637.643 71.6314C636.201 73.0317 634.409 74.0183 632.454 74.4876C630.499 74.9569 628.454 74.8915 626.534 74.2985L563.465 51.3441C561.642 50.5847 560.081 49.3089 558.975 47.674C557.869 46.039 557.265 44.1164 557.239 42.1428L557.408 36.6843C557.393 35.5054 557.034 34.3567 556.373 33.3801C555.712 32.4036 554.779 31.6422 553.69 31.1902L544.733 27.9186C533.873 23.9714 522.987 31.8925 518.308 44.721L396.857 377.808C392.179 390.636 396.323 404.034 406.267 407.661L518.709 448.609C529.729 452.627 540.446 444.644 545.125 431.816L666.576 98.7286C671.254 85.9001 667.625 72.6894 657.21 68.8844Z" fill="#585858" fill-opacity="0.4"/>
<path d="M406.268 407.661L518.709 448.609C529.729 452.627 540.446 444.644 545.125 431.815L552.418 411.821L666.576 98.7283C671.255 85.8998 667.626 72.6891 657.166 68.8841L648.272 65.6481C647.123 65.2979 645.901 65.2624 644.734 65.5455C643.567 65.8285 642.497 66.4197 641.637 67.2572L637.643 71.6312C636.201 73.0315 634.409 74.018 632.454 74.4873C630.5 74.9566 628.455 74.8913 626.534 74.2982L569.077 53.3708L563.483 51.3261C561.66 50.5666 560.099 49.2908 558.993 47.6559C557.887 46.021 557.283 44.0983 557.257 42.1248L557.426 36.6662C557.411 35.4874 557.052 34.3386 556.391 33.3621C555.73 32.3855 554.797 31.6241 553.708 31.1721L544.751 27.9005C533.891 23.9533 523.005 31.8744 518.326 44.7029" stroke="black" stroke-width="0.952515" stroke-miterlimit="10"/>
<path d="M582.401 301.095C577.687 314.003 566.898 322.04 555.798 317.986L461.954 283.821C451.939 280.176 447.724 266.681 452.482 253.764L496.722 132.422C501.427 119.514 512.394 111.539 523.325 115.531L617.186 149.669C627.717 153.51 631.372 166.809 626.658 179.718L582.401 301.095Z" fill="#0CF175"/>
<path d="M606.512 56.2691C606.399 56.5975 606.219 56.899 605.983 57.1547C605.748 57.4103 605.462 57.6146 605.144 57.7548C604.826 57.895 604.482 57.9681 604.134 57.9694C603.787 57.9708 603.443 57.9004 603.123 57.7627L588.057 52.2774C587.401 52.053 586.862 51.5778 586.556 50.956C586.251 50.3343 586.205 49.6169 586.429 48.9614L586.473 48.837C586.588 48.5093 586.769 48.2087 587.004 47.9538C587.24 47.6989 587.526 47.4951 587.843 47.355C588.161 47.215 588.504 47.1417 588.852 47.1397C589.199 47.1377 589.543 47.207 589.862 47.3434L604.92 52.8375C605.249 52.9426 605.553 53.1128 605.815 53.338C606.077 53.5631 606.29 53.8387 606.443 54.1482C606.596 54.4577 606.684 54.7947 606.704 55.1393C606.723 55.4838 606.673 55.8288 606.557 56.1535L606.512 56.2691Z" stroke="black" stroke-width="0.952515" stroke-miterlimit="10" stroke-linecap="round"/>
<path d="M616.227 59.8396C616.879 58.0862 616.232 56.2278 614.782 55.6887C613.332 55.1496 611.627 56.134 610.975 57.8873C610.322 59.6406 610.969 61.499 612.419 62.0382C613.87 62.5773 615.574 61.5929 616.227 59.8396Z" stroke="black" stroke-width="0.952515" stroke-miterlimit="10"/>
<path d="M520.966 381.097C518.209 388.654 511.618 393.25 504.681 390.725L445.979 369.389C439.753 367.104 436.96 359.094 439.753 351.538C442.51 343.981 449.207 339.42 456.038 341.909L514.696 363.246C521.286 365.637 523.723 373.532 520.966 381.088V381.097Z" fill="black"/>
<path d="M468.081 356.143L473.106 357.983L472.626 359.281L470.749 358.596L468.437 364.926L467.165 364.464L469.478 358.134L467.601 357.449L468.081 356.143Z" fill="#585858" fill-opacity="0.4"/>
<path d="M473.506 361.566C474.004 361.05 474.395 360.837 474.956 361.032C475.054 361.06 475.145 361.109 475.223 361.174L474.751 362.446C474.013 362.063 473.266 362.366 472.848 363.512L471.869 366.18L470.687 365.744L472.688 360.268L473.826 360.685L473.506 361.566Z" fill="#585858" fill-opacity="0.4"/>
<path d="M476.967 367.353C476.762 367.556 476.498 367.691 476.213 367.737C475.927 367.783 475.634 367.739 475.375 367.611C475.153 367.542 474.949 367.425 474.777 367.269C474.605 367.112 474.469 366.921 474.378 366.707C474.287 366.493 474.245 366.261 474.252 366.029C474.26 365.797 474.319 365.569 474.424 365.362C474.868 364.161 475.811 364.064 476.869 364.259C477.661 364.401 478.026 364.455 478.177 364.037C478.328 363.619 478.177 363.29 477.67 363.148C477.567 363.089 477.452 363.055 477.334 363.046C477.216 363.038 477.098 363.056 476.988 363.1C476.878 363.143 476.779 363.211 476.698 363.298C476.618 363.385 476.558 363.488 476.523 363.601L475.464 363.21C475.55 362.959 475.688 362.73 475.869 362.536C476.05 362.342 476.27 362.188 476.514 362.085C476.758 361.982 477.021 361.931 477.286 361.937C477.552 361.942 477.813 362.004 478.052 362.117C479.404 362.606 479.671 363.539 479.209 364.784L478.186 367.575C478.035 367.993 477.999 368.251 478.07 368.384V368.438L476.932 368.02C476.901 367.797 476.913 367.571 476.967 367.353ZM477.457 366.037L477.759 365.21C477.444 365.26 477.122 365.26 476.807 365.21C476.131 365.157 475.758 365.21 475.571 365.726C475.523 365.816 475.497 365.916 475.495 366.018C475.492 366.119 475.513 366.22 475.556 366.312C475.599 366.405 475.663 366.486 475.743 366.549C475.823 366.612 475.916 366.656 476.016 366.677C476.152 366.734 476.298 366.763 476.446 366.761C476.593 366.759 476.739 366.727 476.874 366.667C477.009 366.607 477.13 366.521 477.23 366.412C477.33 366.304 477.407 366.176 477.457 366.037Z" fill="#585858" fill-opacity="0.4"/>
<path d="M479.839 365.993C480.461 364.286 481.697 363.397 482.809 363.806C483.078 363.9 483.314 364.071 483.488 364.296C483.661 364.522 483.766 364.793 483.788 365.077L484.819 362.259L486.011 362.695L483.218 370.332L482.08 369.914L482.338 369.194C482.13 369.413 481.863 369.567 481.569 369.637C481.275 369.706 480.967 369.688 480.684 369.585C479.554 369.167 479.189 367.771 479.839 365.993ZM483.067 367.211C483.45 366.162 483.423 365.353 482.667 365.077C481.911 364.802 481.413 365.424 481.048 366.438C480.684 367.451 480.772 368.216 481.386 368.465C482 368.714 482.694 368.216 483.067 367.211Z" fill="#585858" fill-opacity="0.4"/>
<path d="M485.229 367.948C485.825 366.33 487.186 365.397 488.493 365.877C489.943 366.402 490.219 368.028 489.507 369.984L486.252 368.793C486.03 369.682 486.252 370.34 486.892 370.571C487.089 370.656 487.31 370.666 487.515 370.601C487.719 370.536 487.893 370.399 488.004 370.215L489.178 370.642C488.94 371.114 488.537 371.483 488.045 371.678C487.553 371.873 487.007 371.881 486.51 371.7C485.007 371.167 484.66 369.584 485.229 367.948ZM486.634 367.797L488.627 368.526C488.849 367.824 488.627 367.202 488.102 367.006C487.577 366.811 486.999 367.122 486.634 367.797Z" fill="#585858" fill-opacity="0.4"/>
<path d="M422.665 391.121C424.358 386.491 422.584 381.588 418.704 380.171C414.824 378.754 410.306 381.359 408.614 385.989C406.921 390.62 408.695 395.522 412.575 396.939C416.455 398.356 420.973 395.751 422.665 391.121Z" fill="#EBE9E9"/>
<path d="M449.499 400.892C451.192 396.262 449.418 391.359 445.538 389.942C441.658 388.525 437.14 391.13 435.448 395.76C433.755 400.391 435.529 405.293 439.409 406.71C443.289 408.127 447.807 405.522 449.499 400.892Z" fill="#EBE9E9"/>
<path d="M476.351 410.657C478.043 406.027 476.269 401.125 472.389 399.708C468.509 398.291 463.991 400.895 462.299 405.526C460.606 410.156 462.38 415.058 466.26 416.475C470.14 417.892 474.658 415.287 476.351 410.657Z" fill="#EBE9E9"/>
<path d="M503.194 420.419C504.886 415.789 503.113 410.886 499.232 409.469C495.352 408.052 490.835 410.657 489.142 415.287C487.45 419.917 489.223 424.82 493.103 426.237C496.984 427.654 501.501 425.049 503.194 420.419Z" fill="#EBE9E9"/>
<path d="M530.036 430.184C531.728 425.554 529.954 420.651 526.074 419.234C522.194 417.817 517.676 420.422 515.984 425.052C514.291 429.683 516.065 434.585 519.945 436.002C523.826 437.419 528.343 434.814 530.036 430.184Z" fill="#EBE9E9"/>
<path d="M470.741 251.078L466.02 249.359L460.356 264.895L465.078 266.615L470.741 251.078Z" fill="black"/>
<path d="M481.332 251.37L476.611 249.651L473.898 257.093L478.619 258.813L481.332 251.37Z" fill="black"/>
<path d="M498.599 233.362L493.877 231.642L483.348 260.527L488.069 262.246L498.599 233.362Z" fill="black"/>
<path d="M510.533 229.994L505.811 228.274L500.425 243.05L505.146 244.77L510.533 229.994Z" fill="black"/>
<path d="M515.223 246.505L510.501 244.786L504.527 261.174L509.249 262.894L515.223 246.505Z" fill="black"/>
<path d="M528.928 238.244L524.207 236.524L513.677 265.409L518.399 267.128L528.928 238.244Z" fill="black"/>
<path d="M550.137 209.444L545.415 207.725L528.467 254.217L533.188 255.937L550.137 209.444Z" fill="black"/>
<path d="M550.674 238.571L545.951 236.863L540.396 252.214L545.119 253.922L550.674 238.571Z" fill="black"/>
<path d="M561.498 236.984L556.776 235.264L546.247 264.149L550.969 265.868L561.498 236.984Z" fill="black"/>
<path d="M588.364 192.641L583.642 190.922L566.396 238.233L571.117 239.953L588.364 192.641Z" fill="black"/>
<path d="M582.023 239.437L577.302 237.717L572.183 251.759L576.905 253.478L582.023 239.437Z" fill="black"/>
<path d="M594.157 236.648L589.434 234.94L576.79 269.88L581.514 271.588L594.157 236.648Z" fill="black"/>
<path d="M510.454 534.284L503.89 531.892C497.237 529.474 494.24 525.918 491.589 522.771C488.939 519.624 486.795 517.081 481.201 515.045L461.758 507.933C458.136 506.615 454.814 504.589 451.985 501.972C449.156 499.355 446.878 496.2 445.284 492.693C443.69 489.186 442.811 485.395 442.7 481.545C442.589 477.694 443.247 473.859 444.636 470.266L452.579 449.685L458.387 451.925L450.444 472.506C449.347 475.331 448.826 478.347 448.911 481.376C448.997 484.405 449.687 487.387 450.941 490.146C452.196 492.905 453.989 495.385 456.216 497.441C458.444 499.497 461.059 501.088 463.91 502.119L483.353 509.231C490.468 511.836 493.635 515.534 496.383 518.797C498.838 521.713 500.955 524.229 506.042 526.087L512.606 528.47L510.454 534.284Z" fill="#585858" fill-opacity="0.4"/>
<path d="M510.454 534.284L503.89 531.892C497.237 529.474 494.24 525.918 491.589 522.771C488.939 519.624 486.795 517.081 481.201 515.045L461.758 507.933C458.136 506.615 454.814 504.589 451.985 501.972C449.156 499.355 446.878 496.2 445.284 492.693C443.69 489.186 442.811 485.395 442.7 481.545C442.589 477.694 443.247 473.859 444.636 470.266L452.579 449.685L458.387 451.925L450.444 472.506C449.347 475.331 448.826 478.347 448.911 481.376C448.997 484.405 449.687 487.387 450.941 490.146C452.196 492.905 453.989 495.385 456.216 497.441C458.444 499.497 461.059 501.088 463.91 502.119L483.353 509.231C490.468 511.836 493.635 515.534 496.383 518.797C498.838 521.713 500.955 524.229 506.042 526.087L512.606 528.47" stroke="black" stroke-width="0.952515" stroke-miterlimit="10"/>
<path d="M447.649 428.346L475.168 438.395L466.582 461.884C466.031 463.39 464.905 464.616 463.45 465.292C461.995 465.968 460.332 466.038 458.825 465.488L442.668 459.588C441.162 459.038 439.935 457.912 439.259 456.458C438.583 455.004 438.513 453.341 439.063 451.835L447.649 428.346Z" fill="#585858" fill-opacity="0.4" stroke="black" stroke-width="0.952515" stroke-miterlimit="10"/>
<path d="M470.75 436.776L460.54 463.162" stroke="black" stroke-width="0.952515" stroke-miterlimit="10"/>
<path d="M119.997 378.857C119.997 377.754 119.276 351.662 142.375 342.754L145.256 350.222C137.91 353.058 132.804 358.578 130.02 366.633C128.706 370.48 128.024 374.515 128.001 378.581L119.997 378.857Z" fill="black"/>
<path d="M147.431 351.715C149.691 350.994 150.666 347.725 149.608 344.413C148.55 341.102 145.86 339.002 143.6 339.724C141.34 340.445 140.365 343.714 141.423 347.026C142.481 350.337 145.171 352.437 147.431 351.715Z" fill="black"/>
<path d="M133.044 356.347C132.532 356.339 132.033 356.185 131.607 355.902C131.181 355.618 130.845 355.219 130.64 354.75C130.435 354.282 130.369 353.764 130.449 353.259C130.53 352.754 130.755 352.283 131.096 351.902C134.362 348.416 138.385 345.725 142.854 344.034C143.181 343.908 143.53 343.848 143.88 343.856C144.231 343.865 144.576 343.942 144.896 344.084C145.217 344.226 145.506 344.43 145.748 344.684C145.989 344.938 146.179 345.236 146.305 345.563C146.431 345.89 146.492 346.239 146.483 346.589C146.474 346.939 146.397 347.284 146.255 347.605C146.113 347.925 145.909 348.214 145.655 348.456C145.401 348.697 145.102 348.887 144.775 349.013C141.06 350.417 137.715 352.649 134.991 355.538C134.739 355.798 134.436 356.004 134.101 356.143C133.766 356.282 133.406 356.352 133.044 356.347Z" fill="#0CF175"/>
<path d="M123.989 381.497C127.875 381.497 131.025 380.252 131.025 378.715C131.025 377.178 127.875 375.932 123.989 375.932C120.104 375.932 116.954 377.178 116.954 378.715C116.954 380.252 120.104 381.497 123.989 381.497Z" fill="black"/>
<path d="M84.0083 427.042C71.1828 422.384 71.1828 414.747 84.0083 410.08L117.326 397.989C130.152 393.322 151.124 393.322 163.968 397.989C176.811 402.657 176.793 410.293 163.968 414.961L130.668 427.042C117.824 431.745 96.8694 431.745 84.0083 427.042Z" fill="#403C3C"/>
<path d="M159.058 403.928C148.011 399.909 129.947 399.909 118.901 403.928L89.2649 414.703C81.0288 417.699 78.9386 421.815 82.9855 425.549C84.0439 426.109 85.6538 427.46 87.0057 427.913C98.168 431.469 118.918 431.416 130.81 427.087L161.7 415.849C163.434 415.244 165.096 414.448 166.654 413.476C168.682 410.151 166.147 406.497 159.058 403.928Z" fill="#0CF175"/>
<path d="M84.0083 427.042C71.1828 422.384 71.1828 414.747 84.0083 410.08L117.326 397.989C130.152 393.322 151.124 393.322 163.968 397.989C176.811 402.657 176.793 410.293 163.968 414.961L130.668 427.042C117.824 431.745 96.8694 431.745 84.0083 427.042Z" stroke="black" stroke-width="0.952515" stroke-miterlimit="10"/>
<path d="M168.915 400.301C163.142 396.816 152.647 394.478 140.649 394.478C128.65 394.478 118.146 396.816 112.374 400.301H107.678V409.191C107.678 415.814 122.433 421.184 140.649 421.184C143.188 421.183 145.725 421.025 148.244 420.712C157.486 417.29 167.447 413.431 172.259 410.115C173.091 409.063 173.57 407.775 173.629 406.435V400.265L168.915 400.301Z" fill="#585858" fill-opacity="0.4"/>
<path d="M140.631 394.478V421.219C143.031 421.216 145.43 421.089 147.817 420.837L164.654 414.712C168.399 413.351 173.549 410.08 173.549 406.47V400.301H168.915C163.124 396.816 152.629 394.478 140.631 394.478Z" fill="#403C3C"/>
<path d="M168.915 400.301C163.142 396.816 152.647 394.478 140.649 394.478C128.65 394.478 118.146 396.816 112.374 400.301H107.678V409.191C107.678 415.814 122.433 421.184 140.649 421.184C141.769 421.184 145.621 421.023 147.835 420.801L164.672 414.676C170.703 412.009 173.566 409.582 173.566 406.435V400.265L168.915 400.301Z" stroke="black" stroke-width="0.952515" stroke-miterlimit="10"/>
<path d="M140.63 412.293C158.84 412.293 173.601 406.924 173.601 400.3C173.601 393.677 158.84 388.308 140.63 388.308C122.421 388.308 107.659 393.677 107.659 400.3C107.659 406.924 122.421 412.293 140.63 412.293Z" fill="#585858" fill-opacity="0.4" stroke="black" stroke-width="0.952515" stroke-miterlimit="10"/>
<path d="M160.679 469.741C167.664 469.741 173.327 467.504 173.327 464.745C173.327 461.985 167.664 459.749 160.679 459.749C153.694 459.749 148.032 461.985 148.032 464.745C148.032 467.504 153.694 469.741 160.679 469.741Z" stroke="black" stroke-width="0.952515" stroke-miterlimit="10"/>
<path d="M168.026 464.745H153.306V458.335C153.31 456.412 154.077 454.57 155.437 453.211C156.797 451.851 158.64 451.085 160.563 451.081C162.547 451.088 164.448 451.879 165.851 453.281C167.254 454.683 168.045 456.583 168.052 458.566L168.026 464.745Z" fill="#0CF175"/>
<path d="M160.679 467.661C164.756 467.661 168.061 466.355 168.061 464.745C168.061 463.135 164.756 461.829 160.679 461.829C156.602 461.829 153.296 463.135 153.296 464.745C153.296 466.355 156.602 467.661 160.679 467.661Z" fill="#0CF175"/>
<path d="M163.917 461.295C165.175 461.295 166.194 460.276 166.194 459.02C166.194 457.763 165.175 456.744 163.917 456.744C162.66 456.744 161.64 457.763 161.64 459.02C161.64 460.276 162.66 461.295 163.917 461.295Z" fill="#585858" fill-opacity="0.4"/>
<path d="M307.435 329.072C305.552 329.865 303.931 331.173 302.76 332.847C301.589 334.521 300.916 336.491 300.817 338.531V361.255C300.817 365.131 303.797 367.22 307.435 365.895L326.237 359.05C328.122 358.261 329.745 356.955 330.917 355.282C332.09 353.61 332.765 351.64 332.863 349.6V326.867C332.863 322.991 329.884 320.911 326.237 322.236L307.435 329.072Z" fill="black"/>
<path d="M317.797 351.306V353.556L315.68 354.373V352.178C315.264 352.307 314.821 352.326 314.395 352.233C313.97 352.139 313.576 351.936 313.252 351.644C312.584 350.855 312.241 349.841 312.292 348.808L314.649 347.919C314.737 348.684 314.933 349.164 315.262 349.368C315.492 349.466 315.741 349.51 315.991 349.498C316.24 349.486 316.484 349.417 316.703 349.297C317.24 349.132 317.707 348.792 318.029 348.331C318.352 347.871 318.511 347.316 318.482 346.755C318.506 346.55 318.488 346.342 318.429 346.145C318.369 345.948 318.269 345.765 318.135 345.608C317.971 345.499 317.784 345.427 317.589 345.398C317.394 345.369 317.195 345.383 317.006 345.439L315.992 345.608C315.564 345.734 315.114 345.766 314.673 345.7C314.232 345.634 313.811 345.472 313.439 345.226C313.126 344.897 312.89 344.503 312.745 344.073C312.601 343.643 312.552 343.187 312.603 342.736C312.592 341.607 312.877 340.494 313.43 339.509C313.961 338.546 314.733 337.737 315.671 337.162V335.269L317.788 334.451V336.362C318.164 336.285 318.554 336.302 318.922 336.412C319.29 336.522 319.624 336.722 319.896 336.993C320.484 337.706 320.799 338.604 320.786 339.527L318.34 340.469C318.35 340.23 318.313 339.99 318.229 339.766C318.145 339.541 318.016 339.336 317.85 339.162C317.661 339.057 317.449 339.002 317.232 339.002C317.016 339.002 316.803 339.057 316.614 339.162C316.142 339.329 315.734 339.64 315.449 340.051C315.17 340.495 315.027 341.012 315.04 341.536C315.015 341.729 315.037 341.925 315.104 342.107C315.17 342.29 315.28 342.453 315.422 342.585C315.819 342.785 316.276 342.829 316.703 342.71L317.868 342.523C318.263 342.41 318.68 342.394 319.082 342.476C319.485 342.558 319.861 342.736 320.181 342.994C320.471 343.34 320.689 343.742 320.82 344.174C320.952 344.606 320.994 345.061 320.946 345.51C320.97 346.69 320.682 347.856 320.11 348.888C319.562 349.881 318.765 350.715 317.797 351.306Z" fill="#585858" fill-opacity="0.4"/>
<path d="M371.465 305.78C369.58 306.571 367.957 307.879 366.785 309.553C365.612 311.227 364.937 313.198 364.838 315.239V337.98C364.838 341.856 367.818 343.946 371.465 342.621L390.258 335.776C392.143 334.987 393.766 333.681 394.938 332.008C396.111 330.336 396.786 328.365 396.884 326.325V303.575C396.884 299.699 393.905 297.619 390.258 298.944L371.465 305.78Z" fill="black"/>
<path d="M371.91 322.849V319.471C371.874 318.493 372.118 317.524 372.613 316.68C373.103 315.922 373.828 315.344 374.676 315.035C375.628 314.67 376.322 314.679 376.766 315.035C377.027 315.349 377.221 315.712 377.335 316.104C377.45 316.495 377.484 316.906 377.433 317.311V320.698C377.472 321.715 377.242 322.723 376.766 323.623C376.29 324.416 375.55 325.017 374.676 325.321C373.724 325.694 373.022 325.667 372.577 325.241C372.054 324.56 371.815 323.703 371.91 322.849ZM375.317 321.418V318.458C375.341 318.054 375.302 317.649 375.201 317.257C375.13 317.062 374.952 317.017 374.676 317.124C374.553 317.169 374.441 317.242 374.348 317.335C374.256 317.429 374.186 317.542 374.142 317.666C374.047 318.089 374.008 318.523 374.027 318.955V321.916C374.006 322.31 374.042 322.705 374.134 323.089C374.214 323.285 374.392 323.32 374.676 323.214C374.8 323.178 374.914 323.112 375.007 323.022C375.1 322.933 375.17 322.821 375.21 322.698C375.299 322.278 375.335 321.848 375.317 321.418ZM385.34 310.937L377.416 330.584L375.397 331.366L383.304 311.719L385.34 310.937ZM383.268 324.903V321.516C383.23 320.537 383.474 319.569 383.971 318.724C384.459 317.965 385.184 317.387 386.034 317.08C386.986 316.715 387.68 316.724 388.124 317.08C388.386 317.393 388.58 317.757 388.695 318.148C388.81 318.54 388.843 318.951 388.791 319.355V322.743C388.83 323.759 388.6 324.768 388.124 325.667C387.648 326.461 386.908 327.062 386.034 327.366C385.082 327.73 384.38 327.703 383.935 327.286C383.414 326.607 383.175 325.753 383.268 324.903ZM386.674 323.472V320.511C386.699 320.108 386.66 319.703 386.559 319.311C386.488 319.115 386.31 319.071 386.034 319.178C385.911 319.223 385.799 319.295 385.706 319.389C385.614 319.483 385.544 319.596 385.5 319.72C385.404 320.143 385.365 320.576 385.385 321.009V323.969C385.364 324.364 385.4 324.759 385.492 325.143C385.572 325.339 385.749 325.374 386.034 325.267C386.158 325.232 386.272 325.166 386.365 325.076C386.458 324.986 386.528 324.875 386.568 324.752C386.662 324.332 386.704 323.902 386.692 323.472H386.674Z" fill="#585858" fill-opacity="0.4"/>
</svg>
