<svg xmlns="http://www.w3.org/2000/svg" width="24" height="25" viewBox="0 0 24 25" fill="none">
  <g clip-path="url(#clip0_870_2220)">
    <path d="M6 5.3001C6 4.63738 6.53728 4.1001 7.2 4.1001H22.8C23.4627 4.1001 24 4.63738 24 5.3001C24 5.96282 23.4627 6.5001 22.8 6.5001H7.2C6.53728 6.5001 6 5.96277 6 5.3001ZM22.8 11.3001H1.2C0.537281 11.3001 0 11.8374 0 12.5001C0 13.1628 0.537281 13.7001 1.2 13.7001H22.8C23.4627 13.7001 24 13.1628 24 12.5001C24 11.8374 23.4627 11.3001 22.8 11.3001ZM22.8 18.5001H12C11.3373 18.5001 10.8 19.0374 10.8 19.7001C10.8 20.3628 11.3373 20.9001 12 20.9001H22.8C23.4627 20.9001 24 20.3628 24 19.7001C24 19.0374 23.4627 18.5001 22.8 18.5001Z" fill="black"/>
  </g>
  <defs>
    <clipPath id="clip0_870_2220">
      <rect width="24" height="24" fill="white" transform="translate(0 0.5)"/>
    </clipPath>
  </defs>
</svg>