<svg xmlns="http://www.w3.org/2000/svg" width="24" height="25" viewBox="0 0 24 25" fill="none">
  <path d="M21.97 19.1542C21.97 19.5142 21.89 19.8842 21.72 20.2442C21.55 20.6042 21.33 20.9442 21.04 21.2642C20.55 21.8042 20.01 22.1942 19.4 22.4442C18.8 22.6942 18.15 22.8242 17.45 22.8242C16.43 22.8242 15.34 22.5842 14.19 22.0942C13.04 21.6042 11.89 20.9442 10.75 20.1142C9.6 19.2742 8.51 18.3442 7.47 17.3142C6.44 16.2742 5.51 15.1842 4.68 14.0442C3.86 12.9042 3.2 11.7642 2.72 10.6342C2.24 9.49422 2 8.40422 2 7.36422C2 6.68422 2.12 6.03422 2.36 5.43422C2.6 4.82422 2.98 4.26422 3.51 3.76422C4.15 3.13422 4.85 2.82422 5.59 2.82422C5.87 2.82422 6.15 2.88422 6.4 3.00422C6.66 3.12422 6.89 3.30422 7.07 3.56422L9.39 6.83422C9.57 7.08422 9.7 7.31422 9.79 7.53422C9.88 7.74422 9.93 7.95422 9.93 8.14422C9.93 8.38422 9.86 8.62422 9.72 8.85422C9.59 9.08422 9.4 9.32422 9.16 9.56422L8.4 10.3542C8.29 10.4642 8.24 10.5942 8.24 10.7542C8.24 10.8342 8.25 10.9042 8.27 10.9842C8.3 11.0642 8.33 11.1242 8.35 11.1842C8.53 11.5142 8.84 11.9442 9.28 12.4642C9.73 12.9842 10.21 13.5142 10.73 14.0442C11.27 14.5742 11.79 15.0642 12.32 15.5142C12.84 15.9542 13.27 16.2542 13.61 16.4342C13.66 16.4542 13.72 16.4842 13.79 16.5142C13.87 16.5442 13.95 16.5542 14.04 16.5542C14.21 16.5542 14.34 16.4942 14.45 16.3842L15.21 15.6342C15.46 15.3842 15.7 15.1942 15.93 15.0742C16.16 14.9342 16.39 14.8642 16.64 14.8642C16.83 14.8642 17.03 14.9042 17.25 14.9942C17.47 15.0842 17.7 15.2142 17.95 15.3842L21.26 17.7342C21.52 17.9142 21.7 18.1242 21.81 18.3742C21.91 18.6242 21.97 18.8742 21.97 19.1542Z" stroke="#111111" stroke-width="1.5" stroke-miterlimit="10"/>
</svg>