<svg xmlns="http://www.w3.org/2000/svg" width="24" height="25" viewBox="0 0 24 25" fill="none">
  <path d="M22 17.2402V5.17019C22 3.97019 21.02 3.08019 19.83 3.18019H19.77C17.67 3.36019 14.48 4.43019 12.7 5.55019L12.53 5.66019C12.24 5.84019 11.76 5.84019 11.47 5.66019L11.22 5.51019C9.44 4.40019 6.26 3.34019 4.16 3.17019C2.97 3.07019 2 3.97019 2 5.16019V17.2402C2 18.2002 2.78 19.1002 3.74 19.2202L4.03 19.2602C6.2 19.5502 9.55 20.6502 11.47 21.7002L11.51 21.7202C11.78 21.8702 12.21 21.8702 12.47 21.7202C14.39 20.6602 17.75 19.5502 19.93 19.2602L20.26 19.2202C21.22 19.1002 22 18.2002 22 17.2402Z" stroke="black" stroke-opacity="0.79" stroke-width="1.5" stroke-linecap="round" stroke-linejoin="round"/>
  <path d="M12 5.99023V20.9902" stroke="#00BF52" stroke-width="1.5" stroke-linecap="round" stroke-linejoin="round"/>
  <path d="M7.75 8.99023H5.5" stroke="#00BF52" stroke-width="1.5" stroke-linecap="round" stroke-linejoin="round"/>
  <path d="M8.5 11.9902H5.5" stroke="#00BF52" stroke-width="1.5" stroke-linecap="round" stroke-linejoin="round"/>
</svg>