<svg width="10" height="10" viewBox="0 0 10 10" fill="none" xmlns="http://www.w3.org/2000/svg">
<path id="Vector 292" d="M0.602252 8.60225C0.382583 8.82192 0.382583 9.17808 0.602252 9.39775C0.821922 9.61742 1.17808 9.61742 1.39775 9.39775L0.602252 8.60225ZM9.0625 1.5C9.0625 1.18934 8.81066 0.9375 8.5 0.9375L3.4375 0.9375C3.12684 0.9375 2.875 1.18934 2.875 1.5C2.875 1.81066 3.12684 2.0625 3.4375 2.0625H7.9375V6.5625C7.9375 6.87316 8.18934 7.125 8.5 7.125C8.81066 7.125 9.0625 6.87316 9.0625 6.5625L9.0625 1.5ZM1.39775 9.39775L8.89775 1.89775L8.10225 1.10225L0.602252 8.60225L1.39775 9.39775Z" fill="#02E56A"/>
</svg>
