<svg width="24" height="25" viewBox="0 0 24 25" fill="none" xmlns="http://www.w3.org/2000/svg">
<g id="vuesax/linear/wallet-money">
<path id="Vector" d="M10.7516 17.4336V19.4636C10.7516 21.1836 9.15158 22.5736 7.18158 22.5736C5.21158 22.5736 3.60156 21.1836 3.60156 19.4636V17.4336C3.60156 19.1536 5.20158 20.3736 7.18158 20.3736C9.15158 20.3736 10.7516 19.1436 10.7516 17.4336Z" stroke="#111111" stroke-width="1.5" stroke-linecap="round" stroke-linejoin="round"/>
<path id="Vector_2" d="M10.7498 14.684C10.7498 15.184 10.6098 15.6439 10.3698 16.0439C9.77981 17.0139 8.5698 17.624 7.1698 17.624C5.7698 17.624 4.55979 17.0039 3.96979 16.0439C3.72979 15.6439 3.58984 15.184 3.58984 14.684C3.58984 13.824 3.98982 13.054 4.62982 12.494C5.27982 11.924 6.16979 11.584 7.15979 11.584C8.14979 11.584 9.03982 11.934 9.68982 12.494C10.3498 13.044 10.7498 13.824 10.7498 14.684Z" stroke="#111111" stroke-width="1.5" stroke-linecap="round" stroke-linejoin="round"/>
<path id="Vector_3" d="M10.7516 14.6842V17.4342C10.7516 19.1542 9.15158 20.3742 7.18158 20.3742C5.21158 20.3742 3.60156 19.1442 3.60156 17.4342V14.6842C3.60156 12.9642 5.20158 11.5742 7.18158 11.5742C8.17158 11.5742 9.06161 11.9242 9.71161 12.4842C10.3516 13.0442 10.7516 13.8242 10.7516 14.6842Z" stroke="#111111" stroke-width="1.5" stroke-linecap="round" stroke-linejoin="round"/>
<path id="Vector_4" d="M22.0002 11.5434V13.6035C22.0002 14.1535 21.5602 14.6034 21.0002 14.6234H19.0402C17.9602 14.6234 16.9702 13.8334 16.8802 12.7534C16.8202 12.1234 17.0602 11.5334 17.4802 11.1234C17.8502 10.7434 18.3602 10.5234 18.9202 10.5234H21.0002C21.5602 10.5434 22.0002 10.9934 22.0002 11.5434Z" stroke="#111111" stroke-width="1.5" stroke-linecap="round" stroke-linejoin="round"/>
<path id="Vector_5" d="M2 11.0742V9.07422C2 6.35422 3.64 4.45422 6.19 4.13422C6.45 4.09422 6.72 4.07422 7 4.07422H16C16.26 4.07422 16.51 4.08421 16.75 4.12421C19.33 4.42421 21 6.33422 21 9.07422V10.5242H18.92C18.36 10.5242 17.85 10.7442 17.48 11.1242C17.06 11.5342 16.82 12.1242 16.88 12.7542C16.97 13.8342 17.96 14.6242 19.04 14.6242H21V16.0742C21 19.0742 19 21.0742 16 21.0742H13.5" stroke="#111111" stroke-width="1.5" stroke-linecap="round" stroke-linejoin="round"/>
</g>
</svg>
