<svg xmlns="http://www.w3.org/2000/svg" width="24" height="24" viewBox="0 0 24 24" fill="none">
  <g clip-path="url(#clip0_894_20721)">
    <path d="M12 23.7188C18.4721 23.7188 23.7188 18.4721 23.7188 12C23.7188 5.52791 18.4721 0.28125 12 0.28125C5.52791 0.28125 0.28125 5.52791 0.28125 12C0.28125 18.4721 5.52791 23.7188 12 23.7188Z" fill="url(#paint0_linear_894_20721)"/>
    <path opacity="0.49" d="M23.7154 11.6603L18.0608 6.00565C17.241 5.19471 16.1372 4.89255 15.0123 4.83691H8.99148C7.86648 4.89255 6.76277 5.19457 5.94297 6.00565C5.131 6.80899 4.81797 7.90765 4.76172 9.02177V14.9786C4.81797 16.0928 5.13105 17.1914 5.94297 17.9947L11.662 23.7137C11.7749 23.7169 11.8882 23.719 12.0019 23.719C18.474 23.719 23.7206 18.4723 23.7206 12.0002C23.7206 11.8864 23.7186 11.7732 23.7154 11.6603ZM9.06752 17.8062C8.30434 17.7853 7.43917 17.5953 6.89542 17.0145C6.33039 16.4108 6.12002 15.6813 6.09522 14.8655C6.09522 14.8655 6.05716 10.5671 6.09522 9.13488C6.11687 8.31898 6.33039 7.5896 6.89542 6.9859C7.43917 6.40493 8.30434 6.21513 9.06752 6.19418C10.534 6.15391 13.4694 6.15391 14.9359 6.19418C15.6991 6.21513 16.5642 6.40512 17.108 6.9859C17.673 7.5896 17.8865 8.31898 17.9082 9.13488V9.20712L16.372 7.67079C16.3012 7.59995 16.2171 7.54375 16.1245 7.50541C16.032 7.46707 15.9328 7.44733 15.8326 7.44733C15.7324 7.44733 15.6332 7.46706 15.5407 7.5054C15.4481 7.54373 15.364 7.59993 15.2931 7.67076C15.2223 7.7416 15.1661 7.8257 15.1278 7.91826C15.0894 8.01082 15.0697 8.11002 15.0697 8.21021C15.0697 8.41254 15.1501 8.60659 15.2931 8.74966L17.9084 11.3649V12.5122L14.6991 9.30298C13.983 8.59153 13.014 8.19299 12.0045 8.19465C10.9951 8.19632 10.0274 8.59807 9.3136 9.31188C8.5998 10.0257 8.19805 10.9933 8.19638 12.0028C8.19471 13.0123 8.59326 13.9812 9.3047 14.6974L12.4431 17.8359C11.2027 17.8389 9.89917 17.829 9.06752 17.8062Z" fill="url(#paint1_linear_894_20721)"/>
    <path d="M19.2434 9.02177C19.1872 7.90765 18.8741 6.80899 18.0622 6.00565C17.2424 5.19471 16.1385 4.89255 15.0137 4.83691H8.9928C7.8678 4.89255 6.76408 5.19457 5.94428 6.00565C5.13231 6.80899 4.81928 7.90765 4.76303 9.02177V14.9786C4.81928 16.0928 5.13236 17.1914 5.94428 17.9947C6.76408 18.8057 7.86794 19.1078 8.9928 19.1635H15.0136C16.1386 19.1078 17.2423 18.8059 18.0621 17.9947C18.8741 17.1914 19.1871 16.0928 19.2434 14.9786L19.2434 9.02177ZM6.09695 9.13493C6.11861 8.31898 6.33212 7.5896 6.89716 6.9859C7.44091 6.40493 8.30608 6.21513 9.06925 6.19418C10.5358 6.15396 13.4711 6.15396 14.9376 6.19418C15.7008 6.21513 16.566 6.40512 17.1097 6.9859C17.6747 7.5896 17.8883 8.31898 17.9099 9.13493V14.8655C17.8883 15.6814 17.6747 16.4108 17.1097 17.0145C16.566 17.5955 15.7008 17.7853 14.9376 17.8062C13.4711 17.8465 10.5358 17.8465 9.06925 17.8062C8.30608 17.7853 7.44091 17.5953 6.89716 17.0145C6.33212 16.4108 6.12175 15.6814 6.09695 14.8655C6.09695 14.8655 6.05866 10.5671 6.09695 9.13493Z" fill="white"/>
    <path d="M15.8345 8.97305C16.2558 8.97305 16.5974 8.63149 16.5974 8.21016C16.5974 7.78882 16.2558 7.44727 15.8345 7.44727C15.4132 7.44727 15.0716 7.78882 15.0716 8.21016C15.0716 8.63149 15.4132 8.97305 15.8345 8.97305Z" fill="white"/>
    <path d="M12.0032 8.18555C11.2488 8.18555 10.5113 8.40926 9.88398 8.8284C9.2567 9.24753 8.76779 9.84326 8.47908 10.5403C8.19038 11.2373 8.11483 12.0042 8.26201 12.7441C8.40919 13.4841 8.77248 14.1637 9.30593 14.6972C9.83939 15.2307 10.5191 15.594 11.259 15.7412C11.9989 15.8883 12.7659 15.8128 13.4629 15.5241C14.1599 15.2354 14.7556 14.7465 15.1748 14.1192C15.5939 13.492 15.8176 12.7545 15.8176 12C15.8176 11.4991 15.719 11.0031 15.5273 10.5403C15.3356 10.0775 15.0546 9.657 14.7004 9.30279C14.3462 8.94858 13.9257 8.66761 13.4629 8.47591C13.0001 8.28421 12.5041 8.18555 12.0032 8.18555ZM12.0032 14.461C11.5164 14.461 11.0407 14.3167 10.636 14.0462C10.2313 13.7758 9.91583 13.3915 9.72957 12.9418C9.5433 12.4921 9.49457 11.9973 9.58952 11.5199C9.68448 11.0426 9.91886 10.6041 10.263 10.2599C10.6072 9.91573 11.0457 9.68135 11.5231 9.5864C12.0004 9.49144 12.4953 9.54017 12.9449 9.72644C13.3946 9.9127 13.779 10.2281 14.0494 10.6328C14.3198 11.0375 14.4641 11.5133 14.4641 12C14.4641 12.6527 14.2048 13.2787 13.7433 13.7402C13.2818 14.2017 12.6559 14.461 12.0032 14.461Z" fill="white"/>
  </g>
  <defs>
    <linearGradient id="paint0_linear_894_20721" x1="3.71358" y1="20.2864" x2="20.2864" y2="3.71358" gradientUnits="userSpaceOnUse">
      <stop stop-color="#D6B43D"/>
      <stop offset="0.051" stop-color="#DBA93F"/>
      <stop offset="0.143" stop-color="#E88A45"/>
      <stop offset="0.164" stop-color="#EB8246"/>
      <stop offset="0.211" stop-color="#E7774D"/>
      <stop offset="0.294" stop-color="#DD5860"/>
      <stop offset="0.31" stop-color="#DB5164"/>
      <stop offset="0.464" stop-color="#D2466C"/>
      <stop offset="0.567" stop-color="#C93B73"/>
      <stop offset="0.607" stop-color="#CB3179"/>
      <stop offset="0.733" stop-color="#A23394"/>
      <stop offset="0.856" stop-color="#7F35AB"/>
      <stop offset="0.91" stop-color="#7D35AB"/>
      <stop offset="0.94" stop-color="#7537AA"/>
      <stop offset="0.964" stop-color="#673AA9"/>
      <stop offset="0.985" stop-color="#533DA8"/>
      <stop offset="1" stop-color="#4041A6"/>
    </linearGradient>
    <linearGradient id="paint1_linear_894_20721" x1="5.97513" y1="5.97344" x2="20.2883" y2="20.2866" gradientUnits="userSpaceOnUse">
      <stop stop-color="#1D1D1B"/>
      <stop offset="0.369" stop-color="#1D1D1B" stop-opacity="0.856"/>
      <stop offset="0.75" stop-color="#1D1D1B" stop-opacity="0.429"/>
      <stop offset="1" stop-color="#1D1D1B" stop-opacity="0"/>
    </linearGradient>
    <clipPath id="clip0_894_20721">
      <rect width="24" height="24" fill="white"/>
    </clipPath>
  </defs>
</svg>