<svg xmlns="http://www.w3.org/2000/svg" width="24" height="24" viewBox="0 0 24 24" fill="none">
  <g clip-path="url(#clip0_894_20742)">
    <path d="M12 24C18.6274 24 24 18.6274 24 12C24 5.37258 18.6274 0 12 0C5.37258 0 0 5.37258 0 12C0 18.6274 5.37258 24 12 24Z" fill="url(#paint0_linear_894_20742)"/>
    <path fill-rule="evenodd" clip-rule="evenodd" d="M5.43189 11.873C8.93014 10.3488 11.2628 9.34403 12.43 8.85856C15.7626 7.47245 16.455 7.23167 16.9064 7.22372C17.0056 7.22197 17.2276 7.24657 17.3714 7.36323C17.4928 7.46174 17.5262 7.59481 17.5422 7.68821C17.5581 7.7816 17.578 7.99436 17.5622 8.16061C17.3816 10.0581 16.6002 14.6628 16.2027 16.788C16.0345 17.6872 15.7032 17.9888 15.3826 18.0183C14.6857 18.0824 14.1566 17.5577 13.4816 17.1153C12.4255 16.423 11.8288 15.992 10.8036 15.3164C9.61884 14.5357 10.3869 14.1066 11.0621 13.4053C11.2388 13.2217 14.3092 10.429 14.3686 10.1756C14.376 10.144 14.3829 10.0258 14.3128 9.96348C14.2426 9.90111 14.139 9.92244 14.0643 9.9394C13.9584 9.96344 12.2712 11.0786 9.00264 13.285C8.52373 13.6138 8.08994 13.7741 7.70129 13.7657C7.27283 13.7564 6.44864 13.5234 5.83594 13.3242C5.08444 13.08 4.48716 12.9508 4.53917 12.5359C4.56626 12.3198 4.86383 12.0989 5.43189 11.873Z" fill="white"/>
  </g>
  <defs>
    <linearGradient id="paint0_linear_894_20742" x1="12" y1="0" x2="12" y2="23.822" gradientUnits="userSpaceOnUse">
      <stop stop-color="#2AABEE"/>
      <stop offset="1" stop-color="#229ED9"/>
    </linearGradient>
    <clipPath id="clip0_894_20742">
      <rect width="24" height="24" fill="white"/>
    </clipPath>
  </defs>
</svg>