<svg width="385" height="292" viewBox="0 0 385 292" fill="none" xmlns="http://www.w3.org/2000/svg">
<path d="M383.573 227.13L354.234 178.88C352.995 177.046 349.416 176.138 346.257 176.849L344.852 177.167L340.732 171.083C339.493 169.248 335.909 168.34 332.755 169.052L244.094 189.058C240.935 189.77 239.374 191.837 240.618 193.671L275.446 245.092C275.81 245.599 276.284 246.017 276.833 246.314L284.841 250.944C286.519 251.915 289.091 252.286 291.431 251.749L380.092 231.743C383.264 231.031 384.812 228.964 383.573 227.13Z" fill="black" stroke="black" stroke-width="0.447378" stroke-miterlimit="10" stroke-linecap="round"/>
<path d="M383.998 209.087L369.002 205.616L348.749 175.708C347.505 173.879 343.926 172.97 340.772 173.682L285.199 186.208L248.205 177.672V197.013C248.212 197.477 248.358 197.93 248.626 198.31L283.454 249.7C284.698 251.535 288.272 252.443 291.431 251.731L380.092 231.725C382.513 231.179 383.993 229.837 383.989 228.41L383.998 209.087Z" fill="white"/>
<path d="M288.089 232.584V251.96" stroke="#EBE9E9" stroke-width="0.447378" stroke-miterlimit="10"/>
<path d="M248.205 177.673V197.013C248.212 197.478 248.358 197.93 248.626 198.31L283.454 249.701C284.186 250.627 285.206 251.282 286.353 251.562V230.535L250.352 178.151L248.205 177.673Z" fill="#EBE9E9"/>
<path d="M383.998 209.087L369.002 205.616L348.749 175.708C347.505 173.879 343.926 172.97 340.772 173.682L285.199 186.208L248.205 177.672V197.013C248.212 197.477 248.358 197.93 248.626 198.31L283.454 249.7C284.698 251.535 288.272 252.443 291.431 251.731L380.092 231.725C382.513 231.179 383.993 229.837 383.989 228.41L383.998 209.087Z" stroke="black" stroke-width="0.447378" stroke-miterlimit="10" stroke-linecap="round"/>
<path d="M383.573 207.79C384.812 209.62 383.251 211.691 380.093 212.402L291.431 232.405C288.273 233.121 284.698 232.208 283.454 230.378L248.63 178.956C247.391 177.122 248.948 175.055 252.111 174.339L340.764 154.337C343.918 153.626 347.497 154.534 348.74 156.368L383.573 207.79Z" fill="white" stroke="black" stroke-width="0.447378" stroke-miterlimit="10" stroke-linecap="round"/>
<path d="M297.162 179.99C297.159 179.715 297.071 179.448 296.911 179.225L292.885 173.261C292.151 172.183 290.048 171.646 288.192 172.067L279.271 174.094C277.844 174.416 276.976 175.207 276.976 176.044V178.657C276.979 178.931 277.067 179.198 277.227 179.422L281.253 185.385C281.987 186.464 284.089 186.996 285.946 186.58L294.858 184.567C296.28 184.245 297.153 183.453 297.153 182.616V180.008L297.162 179.99Z" fill="#02E56A" stroke="black" stroke-width="0.447378" stroke-miterlimit="10" stroke-linecap="round"/>
<path d="M283.204 173.199L279.271 174.093C277.844 174.416 276.976 175.207 276.976 176.044V178.657C276.979 178.931 277.067 179.198 277.227 179.422L281.253 185.385C281.743 185.989 282.431 186.399 283.195 186.544L283.204 173.199Z" fill="black"/>
<path d="M296.92 179.225C297.65 180.303 296.733 181.52 294.876 181.936L285.955 183.936C284.099 184.356 281.996 183.819 281.262 182.741L277.236 176.778C276.502 175.7 277.419 174.483 279.28 174.062L288.192 172.053C290.049 171.633 292.151 172.17 292.885 173.248L296.92 179.225Z" fill="white"/>
<path d="M297.162 179.99C297.159 179.715 297.071 179.448 296.911 179.225L292.885 173.261C292.151 172.183 290.048 171.646 288.192 172.067L279.271 174.094C277.844 174.416 276.976 175.207 276.976 176.044V178.657C276.979 178.931 277.067 179.198 277.227 179.422L281.253 185.385C281.987 186.464 284.089 186.996 285.946 186.58L294.858 184.567C296.28 184.245 297.153 183.453 297.153 182.616V180.008L297.162 179.99Z" stroke="black" stroke-width="0.447378" stroke-miterlimit="10" stroke-linecap="round"/>
<path d="M287.069 181.341C290.422 181.341 293.14 179.77 293.14 177.833C293.14 175.896 290.422 174.326 287.069 174.326C283.716 174.326 280.998 175.896 280.998 177.833C280.998 179.77 283.716 181.341 287.069 181.341Z" fill="#EBE9E9"/>
<path d="M287.651 195.568C287.648 195.295 287.563 195.03 287.405 194.807L283.379 188.844C282.65 187.765 280.542 187.229 278.686 187.649L269.774 189.658C268.351 189.98 267.479 190.772 267.483 191.608V194.226C267.485 194.5 267.571 194.767 267.729 194.991L271.756 200.954C272.485 202.032 274.588 202.565 276.444 202.144L285.356 200.135C286.783 199.813 287.651 199.022 287.651 198.185V195.568Z" fill="#02E56A" stroke="black" stroke-width="0.447378" stroke-miterlimit="10" stroke-linecap="round"/>
<path d="M273.692 188.754L269.76 189.649C268.337 189.971 267.465 190.763 267.469 191.599V194.225C267.471 194.499 267.557 194.766 267.715 194.99L271.742 200.954C272.23 201.557 272.916 201.968 273.679 202.113L273.692 188.754Z" fill="black"/>
<path d="M287.405 194.789C288.134 195.867 287.212 197.084 285.356 197.5L276.444 199.513C274.587 199.93 272.485 199.397 271.755 198.319L267.729 192.355C267 191.277 267.917 190.06 269.774 189.64L278.685 187.631C280.542 187.211 282.649 187.747 283.378 188.826L287.405 194.789Z" fill="white"/>
<path d="M277.557 196.843C280.91 196.843 283.628 195.272 283.628 193.335C283.628 191.398 280.91 189.828 277.557 189.828C274.204 189.828 271.486 191.398 271.486 193.335C271.486 195.272 274.204 196.843 277.557 196.843Z" fill="#EBE9E9"/>
<path d="M287.651 195.568C287.648 195.295 287.563 195.03 287.405 194.807L283.379 188.844C282.65 187.765 280.542 187.229 278.686 187.649L269.774 189.658C268.351 189.98 267.479 190.772 267.483 191.608V194.226C267.485 194.5 267.571 194.767 267.729 194.991L271.756 200.954C272.485 202.032 274.588 202.565 276.444 202.144L285.356 200.135C286.783 199.813 287.651 199.022 287.651 198.185V195.568Z" stroke="black" stroke-width="0.447378" stroke-miterlimit="10" stroke-linecap="round"/>
<path d="M364.474 205.222C365.025 206.036 364.331 206.949 362.935 207.266L298.048 221.909C296.652 222.222 295.064 221.82 294.518 221.014C293.972 220.209 294.656 219.288 296.057 218.97L360.953 204.327C362.354 204.01 363.937 204.412 364.474 205.222Z" fill="black" stroke="black" stroke-width="0.447378" stroke-miterlimit="10" stroke-linecap="round"/>
<path d="M318.583 215.011L296.057 220.093C295.448 220.188 294.896 220.507 294.509 220.988C295.055 221.797 296.643 222.2 298.039 221.882L320.565 216.8C321.174 216.704 321.725 216.385 322.113 215.905C321.567 215.1 319.979 214.697 318.583 215.011Z" fill="#02E56A" stroke="black" stroke-width="0.447378" stroke-miterlimit="10" stroke-linecap="round"/>
<path d="M332.921 210.689L313.339 213.87V216.147C313.341 216.353 313.405 216.554 313.522 216.724C314.073 217.538 315.656 217.941 317.057 217.619L331.189 214.429C332.258 214.187 332.916 213.592 332.916 212.962L332.921 210.689Z" fill="white" stroke="black" stroke-width="0.447378" stroke-miterlimit="10" stroke-linecap="round"/>
<path d="M332.733 210.112C333.283 210.926 332.59 211.843 331.194 212.156L317.052 215.346C315.652 215.659 314.068 215.257 313.518 214.451C312.968 213.646 313.661 212.725 315.061 212.407L329.19 209.217C330.599 208.899 332.183 209.302 332.733 210.112Z" fill="white" stroke="black" stroke-width="0.447378" stroke-miterlimit="10" stroke-linecap="round"/>
<path d="M348.749 156.368C347.506 154.534 343.927 153.626 340.773 154.337L292.42 165.249L313.621 196.565C316.981 201.527 324.926 203.424 331.718 201.889L373.225 192.525L348.749 156.368Z" fill="white" stroke="black" stroke-width="0.447378" stroke-miterlimit="10" stroke-linecap="round"/>
<path d="M359.831 183.453C361.62 186.07 359.383 189.022 354.865 190.038L330.165 195.612C325.651 196.632 320.546 195.33 318.775 192.713L305.555 173.199C303.765 170.581 306.002 167.629 310.521 166.613L335.225 161.039C339.73 160.023 344.843 161.321 346.615 163.938L359.831 183.453Z" fill="#02E56A" stroke="black" stroke-width="0.447378" stroke-miterlimit="10" stroke-linecap="round"/>
<path d="M323.893 195.63L331.945 185.291" stroke="black" stroke-width="0.447378" stroke-miterlimit="10" stroke-linecap="round"/>
<path d="M305.327 169.87L331.946 185.291L359.692 187.358" stroke="black" stroke-width="0.447378" stroke-miterlimit="10" stroke-linecap="round"/>
<path d="M331.945 189.273C338.633 189.273 344.056 186.142 344.056 182.281C344.056 178.419 338.633 175.288 331.945 175.288C325.257 175.288 319.834 178.419 319.834 182.281C319.834 186.142 325.257 189.273 331.945 189.273Z" fill="black" stroke="black" stroke-width="0.447378" stroke-miterlimit="10" stroke-linecap="round"/>
<path d="M326.858 180.938C326.858 182.562 329.136 183.877 331.945 183.877C334.755 183.877 337.036 182.562 337.036 180.938V169.781H326.858V180.938Z" fill="#02E56A" stroke="black" stroke-width="0.447378" stroke-miterlimit="10" stroke-linecap="round"/>
<path d="M331.945 172.881C337.149 172.881 341.367 168.663 341.367 163.459C341.367 158.256 337.149 154.038 331.945 154.038C326.742 154.038 322.523 158.256 322.523 163.459C322.523 168.663 326.742 172.881 331.945 172.881Z" fill="#EBE9E9" stroke="black" stroke-width="0.447378" stroke-miterlimit="10" stroke-linecap="round"/>
<path d="M334.947 158.279C331.337 159.361 328.46 162.82 327.538 165.701C326.68 168.385 324.805 168.121 324.121 166.555C323.43 164.863 323.318 162.989 323.804 161.226C324.289 159.464 325.344 157.911 326.805 156.811C328.004 155.88 329.433 155.29 330.94 155.103C332.447 154.917 333.977 155.14 335.368 155.751C337.22 156.592 336.96 157.67 334.947 158.279Z" fill="black"/>
<path d="M326.908 159.967C327.644 158.922 327.885 157.825 327.446 157.517C327.008 157.208 326.056 157.804 325.321 158.849C324.585 159.893 324.344 160.99 324.782 161.299C325.221 161.607 326.172 161.011 326.908 159.967Z" fill="white"/>
<path d="M240.515 202.394L254.285 201.191C255.211 200.981 255.52 198.847 254.974 196.418C254.428 193.988 253.229 192.19 252.29 192.391L239.316 197.218L240.515 202.394Z" fill="#02E56A" stroke="black" stroke-width="0.447378" stroke-miterlimit="10" stroke-linecap="round"/>
<path d="M253.592 196.762C253.364 195.656 252.95 194.597 252.366 193.63C252.146 193.268 251.862 192.948 251.529 192.686L250.259 193.16C250.311 193.214 250.377 193.254 250.449 193.276C250.52 193.298 250.597 193.301 250.67 193.286C250.84 193.246 251.212 193.487 251.614 194.113C252.14 194.993 252.514 195.955 252.719 196.959C253.296 199.504 252.84 201.066 252.442 201.155C252.381 201.17 252.324 201.198 252.275 201.237C252.226 201.275 252.185 201.324 252.156 201.379L253.498 201.258C254.008 200.256 253.972 198.462 253.592 196.762Z" fill="black"/>
<path d="M251.471 197.223C251.259 196.204 250.881 195.226 250.353 194.328L250.308 194.266C250.11 193.943 249.859 193.656 249.565 193.416L248.331 193.863C248.413 193.932 248.519 193.966 248.626 193.957C248.818 193.986 248.996 194.077 249.131 194.217C249.284 194.363 249.419 194.527 249.534 194.704C250.037 195.522 250.394 196.422 250.59 197.362C250.59 197.46 250.635 197.558 250.652 197.657C251.1 199.867 250.702 201.236 250.362 201.312C250.298 201.328 250.239 201.357 250.188 201.398C250.137 201.439 250.095 201.49 250.066 201.549L251.409 201.433C251.865 200.489 251.829 198.811 251.471 197.223Z" fill="black"/>
<path d="M249.35 197.683C249.15 196.725 248.793 195.806 248.295 194.963L248.254 194.901C248.076 194.618 247.856 194.365 247.601 194.149L246.407 194.597C246.46 194.629 246.52 194.65 246.581 194.659C246.753 194.705 246.915 194.78 247.06 194.883C247.215 195.008 247.347 195.159 247.449 195.33C247.929 196.09 248.27 196.929 248.456 197.809C248.478 197.898 248.5 197.992 248.518 198.082C248.966 200.14 248.581 201.419 248.277 201.513C248.212 201.528 248.151 201.558 248.1 201.6C248.048 201.642 248.006 201.695 247.977 201.755L249.292 201.643C249.722 200.721 249.682 199.146 249.35 197.683Z" fill="black"/>
<path d="M247.23 198.149C247.041 197.249 246.706 196.386 246.237 195.594L246.197 195.536C246.042 195.292 245.853 195.071 245.637 194.878L244.474 195.326L244.541 195.362L244.989 195.545C245.138 195.647 245.266 195.778 245.364 195.93C245.82 196.63 246.145 197.408 246.322 198.225C246.322 198.31 246.362 198.395 246.38 198.484C246.783 200.39 246.456 201.589 246.188 201.683C246.121 201.698 246.058 201.729 246.006 201.773C245.954 201.818 245.913 201.874 245.888 201.938L247.181 201.826C247.579 200.936 247.534 199.5 247.23 198.149Z" fill="black"/>
<path d="M245.109 198.61C244.932 197.771 244.617 196.967 244.179 196.23L244.138 196.172C244.012 195.968 243.862 195.78 243.691 195.612L242.528 196.06C242.654 196.132 242.794 196.178 242.939 196.194C243.085 196.274 243.208 196.389 243.297 196.529C243.727 197.171 244.031 197.89 244.192 198.646C244.214 198.722 244.232 198.802 244.25 198.883C244.631 200.636 244.34 201.759 244.107 201.853C244.039 201.871 243.976 201.904 243.923 201.951C243.87 201.998 243.829 202.056 243.803 202.122L245.078 202.01C245.431 201.191 245.387 199.849 245.109 198.61Z" fill="black"/>
<path d="M242.989 199.07C242.825 198.291 242.531 197.544 242.121 196.86C242.002 196.675 241.864 196.502 241.709 196.346L240.537 196.793C240.633 196.85 240.746 196.869 240.855 196.847C241.069 196.847 241.75 197.675 242.116 199.281C242.483 200.887 242.215 201.925 242.027 202.023C241.956 202.041 241.89 202.076 241.835 202.125C241.78 202.174 241.739 202.236 241.714 202.305L242.966 202.193C243.289 201.424 243.235 200.193 242.989 199.07Z" fill="black"/>
<path d="M240.502 202.414C241.047 202.292 241.227 201.035 240.905 199.608C240.584 198.182 239.881 197.124 239.336 197.247C238.792 197.37 238.611 198.626 238.933 200.053C239.255 201.48 239.957 202.537 240.502 202.414Z" fill="black" stroke="black" stroke-width="0.447378" stroke-miterlimit="10" stroke-linecap="round"/>
<path d="M242.649 200.466L240.913 200.677L241.02 201.565L242.757 201.354L242.649 200.466Z" fill="black"/>
<path d="M247.003 199.946L244.772 200.208L244.877 201.096L247.107 200.834L247.003 199.946Z" fill="black"/>
<path d="M251.333 199.435L249.152 199.691L249.256 200.58L251.438 200.324L251.333 199.435Z" fill="black"/>
<path d="M255.154 198.989L253.381 199.197L253.485 200.085L255.258 199.877L255.154 198.989Z" fill="black"/>
<path d="M85.2168 173.324L40.3179 147.403C36.9357 145.453 36.9357 142.254 40.3179 140.299L68.2611 124.166L85.2168 173.324Z" fill="black" stroke="black" stroke-width="0.447378" stroke-miterlimit="10" stroke-linecap="round"/>
<path d="M107.595 103.564C111.621 105.891 118.216 105.891 122.242 103.564L173.583 73.9255C177.609 71.5992 177.609 67.7965 173.583 65.4701L129.955 40.2782C125.928 37.9519 119.334 37.9519 115.308 40.2782L63.9754 69.9305C59.949 72.2568 59.949 76.0595 63.9754 78.3859L107.595 103.564Z" fill="white" stroke="black" stroke-width="0.447378" stroke-miterlimit="10"/>
<path d="M169.959 113.049L170.599 112.977L156.193 1.00732L140.611 1.53076C137.3 1.77375 134.074 2.69665 131.136 4.24187L89.2744 28.4003C85.2479 30.7267 81.9508 36.4531 81.9508 41.0879V77.8222C81.9508 83.8305 77.6917 86.291 72.4887 83.2847L63.9662 78.3635C61.953 77.2003 60.9419 75.6792 60.9419 74.1358V154.216C60.9419 155.751 61.953 157.281 63.9662 158.444L130.796 197.031C134.822 199.357 141.416 199.357 145.443 197.031L191.227 170.599C192.343 170.012 193.259 169.105 193.858 167.996L202.662 149.859L169.959 113.049Z" fill="white"/>
<path d="M147.357 177.887L138.177 198.704L139.506 198.659L148.297 178.688L147.357 177.887Z" fill="#EBE9E9"/>
<path d="M147.161 173.597L123.221 40.8509L105.393 32.825L84.0624 33.9479C82.7605 36.2295 81.9508 38.784 81.9508 41.1059V77.8401C81.9508 83.8484 77.6917 86.309 72.4887 83.3026L63.9662 78.3815C61.953 77.2183 60.9419 75.6972 60.9419 74.1538V154.234C60.9419 155.769 61.953 157.299 63.9662 158.462L130.796 197.049C132.526 197.987 134.434 198.551 136.397 198.704L147.161 173.597Z" fill="#EBE9E9"/>
<path d="M169.959 113.049L170.599 112.977L156.193 1.00732L140.835 1.52628C137.376 1.77808 134.007 2.74223 130.939 4.35819L89.2744 28.4092C85.2479 30.7356 81.9508 36.462 81.9508 41.0969V77.8311C81.9508 83.8394 77.6917 86.3 72.4887 83.2936L63.9662 78.3724C61.953 77.2093 60.9419 75.6882 60.9419 74.1447V154.225C60.9419 155.76 61.953 157.29 63.9662 158.453L130.796 197.04C134.822 199.366 141.416 199.366 145.443 197.04L191.227 170.608C192.343 170.021 193.259 169.114 193.858 168.005L202.662 149.859L169.959 113.049Z" stroke="black" stroke-width="0.447378" stroke-miterlimit="10"/>
<path d="M126.89 32.4758C122.318 35.1153 119.45 41.6247 120.515 46.9395L146.016 174.263C147.08 179.578 151.693 181.766 156.265 179.126L197.983 155.044C202.555 152.404 205.423 145.895 204.358 140.576L178.858 13.2564C177.793 7.93709 173.18 5.74941 168.608 8.38894L126.89 32.4758Z" fill="#02E56A" stroke="black" stroke-width="0.447378" stroke-miterlimit="10"/>
<path d="M110.641 26.2616C106.069 28.9011 103.564 35.2092 105.072 40.2601L145.219 174.729C146.731 179.788 151.706 181.766 156.278 179.126L197.996 155.044C202.569 152.404 205.074 146.096 203.562 141.045L163.414 6.57696C161.906 1.51711 156.927 -0.460297 152.355 2.17923L110.641 26.2616Z" fill="white" stroke="black" stroke-width="0.447378" stroke-miterlimit="10"/>
<path d="M113.29 34.1987C109.658 36.2969 107.667 41.3031 108.866 45.325L147.161 173.597C148.324 177.494 152.158 179.02 155.661 176.984L197.022 153.107C200.699 150.982 202.717 145.914 201.495 141.842L163.526 14.5857C162.211 10.179 157.876 8.45658 153.894 10.7561L113.29 34.1987Z" fill="black" stroke="black" stroke-width="0.447378" stroke-miterlimit="10"/>
<path d="M12.9741 208.224L7.4087 205.012C4.02653 203.057 4.02653 199.858 7.4087 197.907L17.6671 191.984L12.9741 208.224Z" fill="black" stroke="black" stroke-width="0.447378" stroke-miterlimit="10" stroke-linecap="round"/>
<path d="M117.003 192.105L78.9397 170.143C74.9133 167.817 68.3234 167.817 64.2925 170.143L26.234 192.118H9.93604V204.01C9.93604 205.544 10.9426 207.074 12.9558 208.237L64.2925 237.876C68.3189 240.203 74.9133 240.203 78.9397 237.876L130.276 208.224C132.29 207.065 133.296 205.54 133.296 203.996V192.105H117.003Z" fill="white"/>
<path d="M72.9539 227.716H71.4194V239.464H72.9539V227.716Z" fill="#EBE9E9"/>
<path d="M9.93604 192.105V203.996C9.93604 205.531 10.9426 207.061 12.9558 208.224L64.2925 237.863C65.8664 238.733 67.5964 239.285 69.3837 239.487V224.048L17.9352 192.105H9.93604Z" fill="#EBE9E9"/>
<path d="M33.6835 210.381C34.191 210.713 34.6133 211.159 34.9164 211.685C35.2195 212.21 35.3948 212.799 35.4283 213.405V221.198L19.354 211.92V204.144C19.354 203.039 20.1414 202.583 21.0988 203.137L33.6835 210.381Z" fill="black" stroke="black" stroke-width="0.447378" stroke-miterlimit="10"/>
<path d="M117.003 192.105L78.9397 170.143C74.9133 167.817 68.3234 167.817 64.2925 170.143L26.234 192.118H9.93604V204.01C9.93604 205.544 10.9426 207.074 12.9558 208.237L64.2925 237.876C68.3189 240.203 74.9133 240.203 78.9397 237.876L130.276 208.224C132.29 207.065 133.296 205.54 133.296 203.996V192.105H117.003Z" stroke="black" stroke-width="0.447378" stroke-miterlimit="10"/>
<path d="M64.2927 225.971C68.3191 228.298 74.9134 228.298 78.9398 225.971L130.276 196.333C134.303 194.006 134.303 190.204 130.276 187.877L78.9398 158.238C74.9134 155.912 68.3235 155.912 64.2927 158.238L12.9739 187.877C8.9475 190.204 8.9475 194.006 12.9739 196.333L64.2927 225.971Z" fill="white" stroke="black" stroke-width="0.447378" stroke-miterlimit="10"/>
<path d="M71.6165 170.054C50.5226 170.054 33.4238 179.927 33.4238 192.105C33.4238 204.283 50.5226 214.156 71.6165 214.156C92.7104 214.156 109.809 204.283 109.809 192.105C109.809 179.927 92.7104 170.054 71.6165 170.054Z" fill="white" stroke="black" stroke-width="0.447378" stroke-miterlimit="10"/>
<path d="M71.6164 213.297C90.6045 213.297 105.997 204.41 105.997 193.447C105.997 182.484 90.6045 173.597 71.6164 173.597C52.6283 173.597 37.2354 182.484 37.2354 193.447C37.2354 204.41 52.6283 213.297 71.6164 213.297Z" fill="#EBE9E9"/>
<path d="M89.5117 187.953C89.7865 187.83 90.0237 187.635 90.1989 187.39C90.3742 187.145 90.4813 186.858 90.5093 186.558V183.35H86.3756L84.3132 182.155C83.5621 181.776 82.7322 181.578 81.8906 181.578C81.049 181.578 80.2191 181.776 79.4681 182.155L71.8626 186.558L64.2572 182.155C63.5061 181.776 62.6763 181.578 61.8346 181.578C60.993 181.578 60.1632 181.776 59.4121 182.155L57.3497 183.35H53.2159V186.558C53.243 186.858 53.3498 187.146 53.5251 187.391C53.7005 187.636 53.9381 187.83 54.2135 187.953L61.819 192.356L57.3452 194.941H53.2114V198.149C53.2378 198.45 53.3442 198.739 53.5196 198.985C53.695 199.231 53.9331 199.426 54.2091 199.549L59.4076 202.551C60.1587 202.931 60.9885 203.129 61.8302 203.129C62.6718 203.129 63.5016 202.931 64.2527 202.551L71.8581 198.149L79.4636 202.551C80.2146 202.931 81.0445 203.129 81.8861 203.129C82.7278 203.129 83.5576 202.931 84.3087 202.551L89.5072 199.549C89.7827 199.425 90.0202 199.23 90.1955 198.984C90.3708 198.738 90.4776 198.45 90.5049 198.149V194.941H86.3711L81.8973 192.356L89.5117 187.953Z" fill="#02E56A" stroke="black" stroke-width="0.447378" stroke-miterlimit="10"/>
<path d="M70.5249 198.914L71.867 198.149L79.4725 202.551C80.1973 202.934 81.0059 203.131 81.8257 203.124V198.413L71.8536 194.941L70.5249 198.914Z" fill="black"/>
<path d="M61.5599 197.88L55.744 194.928H53.1895V198.135C53.2158 198.437 53.3222 198.725 53.4976 198.971C53.673 199.218 53.9111 199.412 54.1871 199.536L59.3856 202.538C60.0565 202.893 60.8011 203.086 61.5599 203.101V197.88Z" fill="black"/>
<path d="M89.5118 196.342C90.8539 195.572 90.8539 194.315 89.5118 193.545L81.9063 189.148L89.5118 184.746C90.8539 183.976 90.8539 182.719 89.5118 181.949L84.3132 178.948C83.5622 178.568 82.7323 178.37 81.8907 178.37C81.0491 178.37 80.2192 178.568 79.4681 178.948L71.8627 183.35L64.2573 178.948C63.5062 178.568 62.6764 178.37 61.8347 178.37C60.9931 178.37 60.1632 178.568 59.4122 178.948L54.2136 181.949C52.8715 182.719 52.8715 183.976 54.2136 184.746L61.8191 189.148L54.2136 193.545C52.8715 194.315 52.8715 195.572 54.2136 196.342L59.4122 199.344C60.1632 199.723 60.9931 199.921 61.8347 199.921C62.6764 199.921 63.5062 199.723 64.2573 199.344L71.8627 194.941L79.4681 199.344C80.2192 199.723 81.0491 199.921 81.8907 199.921C82.7323 199.921 83.5622 199.723 84.3132 199.344L89.5118 196.342Z" fill="black" stroke="black" stroke-width="0.447378" stroke-miterlimit="10"/>
<path d="M71.7645 190.669C73.2198 190.669 74.3995 189.988 74.3995 189.148C74.3995 188.308 73.2198 187.627 71.7645 187.627C70.3091 187.627 69.1294 188.308 69.1294 189.148C69.1294 189.988 70.3091 190.669 71.7645 190.669Z" fill="#02E56A"/>
<path d="M78.7881 182.902L82.1971 184.871L83.1277 182.365L78.7881 182.902Z" fill="white"/>
<path d="M64.4183 195.246L61.0092 193.277L60.0742 195.782L64.4183 195.246Z" fill="white"/>
<path d="M78.7881 195.246L82.1971 193.277L83.1277 195.782L78.7881 195.246Z" fill="white"/>
<path d="M64.4183 182.902L61.0092 184.871L60.0742 182.365L64.4183 182.902Z" fill="white"/>
<path d="M154.297 167.777L152.605 168.752L153.339 171.212L155.03 170.242V170.237L154.297 167.777Z" fill="#02E56A"/>
<path d="M154.52 161.876L152.829 162.855L153.567 165.316L155.254 164.341L155.258 164.336L154.52 161.876Z" fill="#02E56A"/>
<path d="M152.834 162.855L151.138 163.835L151.876 166.296L153.563 165.321L153.567 165.316L152.834 162.855Z" fill="#02E56A"/>
<path d="M155.987 166.801L154.296 167.777L155.035 170.237L156.721 169.262V169.257L155.987 166.801Z" fill="#02E56A"/>
<path d="M157.678 165.826L155.987 166.801L156.725 169.262L158.412 168.287L158.417 168.282L157.678 165.826Z" fill="#02E56A"/>
<path d="M156.212 160.9L154.521 161.88L155.254 164.341L156.945 163.365V163.361L156.212 160.9Z" fill="#02E56A"/>
<path d="M192.35 143.569L190.659 144.544L191.393 147.005L193.084 146.034V146.025L192.35 143.569Z" fill="#02E56A"/>
<path d="M193.308 140.133L191.617 141.108L192.35 143.569L194.037 142.594L194.041 142.589L193.308 140.133Z" fill="#02E56A"/>
<path d="M195.733 141.614L194.042 142.589L194.775 145.05L196.462 144.075L196.466 144.07L195.733 141.614Z" fill="#02E56A"/>
<path d="M194.776 145.054L193.084 146.034L193.818 148.495L195.505 147.519L195.509 147.515L194.776 145.054Z" fill="#02E56A"/>
<path d="M174.357 156.064L172.662 157.039L173.4 159.5L175.086 158.529L175.091 158.525L174.357 156.064Z" fill="#02E56A"/>
<path d="M174.576 150.168L172.885 151.143L173.619 153.604L175.31 152.629V152.624L174.576 150.168Z" fill="#02E56A"/>
<path d="M176.043 155.084L174.352 156.06L175.09 158.525L176.777 157.55V157.545L176.043 155.084Z" fill="#02E56A"/>
<path d="M173.619 153.604L171.928 154.579L172.661 157.039L174.353 156.069V156.06L173.619 153.604Z" fill="#02E56A"/>
<path d="M177.001 151.653L175.31 152.628L176.043 155.089L177.73 154.114L177.734 154.109L177.001 151.653Z" fill="#02E56A"/>
<path d="M177.735 154.114L176.044 155.089L176.778 157.55L178.469 156.574V156.57L177.735 154.114Z" fill="#02E56A"/>
<path d="M160.739 111.501L159.043 112.476L159.781 114.937L161.468 113.966L161.472 113.957L160.739 111.501Z" fill="white"/>
<path d="M161.472 113.961L159.781 114.937L160.515 117.402L162.202 116.426L162.206 116.422L161.472 113.961Z" fill="white"/>
<path d="M159.267 106.584L157.576 107.56L158.309 110.02L160 109.045V109.04L159.267 106.584Z" fill="white"/>
<path d="M160.001 109.045L158.31 110.02L159.048 112.481L160.734 111.506L160.739 111.501L160.001 109.045Z" fill="white"/>
<path d="M160.515 117.402L158.824 118.377L159.557 120.838L161.249 119.862V119.858L160.515 117.402Z" fill="white"/>
<path d="M158.824 118.377L157.133 119.352L157.867 121.813L159.553 120.838L159.558 120.833L158.824 118.377Z" fill="white"/>
<path d="M156.403 116.887L154.712 117.867L155.446 120.328L157.133 119.353L157.137 119.348L156.403 116.887Z" fill="white"/>
<path d="M155.67 114.431L153.979 115.406L154.713 117.867L156.399 116.892L156.404 116.887L155.67 114.431Z" fill="white"/>
<path d="M154.937 111.971L153.246 112.95L153.979 115.411L155.666 114.436L155.67 114.431L154.937 111.971Z" fill="white"/>
<path d="M154.203 109.515L152.507 110.49L153.245 112.951L154.932 111.98L154.937 111.971L154.203 109.515Z" fill="white"/>
<path d="M151.774 108.02L150.083 109L150.821 111.461L152.507 110.485V110.481L151.774 108.02Z" fill="white"/>
<path d="M150.087 109L148.391 109.98L149.129 112.44L150.816 111.465L150.82 111.461L150.087 109Z" fill="white"/>
<path d="M149.859 114.901L148.167 115.876L148.901 118.337L150.592 117.361V117.357L149.859 114.901Z" fill="white"/>
<path d="M149.125 112.44L147.434 113.416L148.167 115.881L149.858 114.905V114.901L149.125 112.44Z" fill="white"/>
<path d="M148.901 118.337L147.21 119.312L147.944 121.773L149.635 120.797V120.793L148.901 118.337Z" fill="white"/>
<path d="M147.21 119.317L145.519 120.296L146.252 122.757L147.939 121.782L147.943 121.777L147.21 119.317Z" fill="white"/>
<path d="M146.253 122.757L144.562 123.732L145.295 126.193L146.986 125.217V125.213L146.253 122.757Z" fill="white"/>
<path d="M145.295 126.193L143.604 127.168L144.338 129.633L146.029 128.658V128.653L145.295 126.193Z" fill="white"/>
<path d="M143.604 127.173L141.913 128.148L142.647 130.613L144.338 129.638V129.633L143.604 127.173Z" fill="white"/>
<path d="M140.445 123.236L138.754 124.211L139.488 126.671L141.179 125.696V125.692L140.445 123.236Z" fill="white"/>
<path d="M138.021 121.755L136.33 122.73L137.063 125.191L138.75 124.215L138.754 124.211L138.021 121.755Z" fill="white"/>
<path d="M141.179 125.692L139.488 126.667L140.222 129.128L141.913 128.152V128.148L141.179 125.692Z" fill="white"/>
<path d="M160.224 103.139L158.533 104.119L159.267 106.58L160.954 105.604L160.958 105.6L160.224 103.139Z" fill="white"/>
<path d="M159.491 100.683L157.8 101.658L158.533 104.119L160.22 103.148L160.225 103.139L159.491 100.683Z" fill="white"/>
<path d="M158.757 98.2273L157.066 99.2026L157.8 101.663L159.486 100.688L159.491 100.683L158.757 98.2273Z" fill="white"/>
<path d="M159.715 94.7778L158.023 95.7576L158.757 98.2182L160.444 97.2429L160.448 97.2384L159.715 94.7778Z" fill="white"/>
<path d="M165.521 94.3081L163.826 95.2879L164.564 97.7484L166.25 96.7732L166.255 96.7687L165.521 94.3081Z" fill="white"/>
<path d="M156.784 84.9402L155.093 85.9155L155.826 88.376L157.513 87.4008L157.518 87.3963L156.784 84.9402Z" fill="white"/>
<path d="M162.587 84.4702L160.896 85.4455L161.634 87.9061L163.32 86.9308V86.9263L162.587 84.4702Z" fill="white"/>
<path d="M161.857 82.0054L160.166 82.9807L160.9 85.4457L162.586 84.4704L162.591 84.466L161.857 82.0054Z" fill="white"/>
<path d="M156.05 82.4792L154.354 83.459L155.093 85.9196L156.779 84.9443L156.784 84.9398L156.05 82.4792Z" fill="white"/>
<path d="M158.699 78.064L157.008 79.0393L157.742 81.4998L159.433 80.5245V80.5201L158.699 78.064Z" fill="white"/>
<path d="M157.003 79.0437L155.312 80.019L156.05 82.4796L157.737 81.5043V81.4998L157.003 79.0437Z" fill="white"/>
<path d="M161.124 79.5493L159.433 80.5246L160.166 82.9852L161.853 82.0099L161.857 82.0054L161.124 79.5493Z" fill="white"/>
<path d="M153.174 66.5574L151.482 67.5327L152.216 69.9932L153.907 69.018V69.0135L153.174 66.5574Z" fill="#02E56A"/>
<path d="M154.641 71.4695L152.95 72.4492L153.683 74.9098L155.374 73.9345V73.9301L154.641 71.4695Z" fill="#02E56A"/>
<path d="M151.711 61.6316L150.02 62.6069L150.753 65.0675L152.444 64.0922V64.0877L151.711 61.6316Z" fill="#02E56A"/>
<path d="M158.981 92.3218L157.29 93.2971L158.023 95.7576L159.714 94.7868V94.7779L158.981 92.3218Z" fill="white"/>
<path d="M158.247 89.8611L156.556 90.8364L157.289 93.2969L158.98 92.3217V92.3172L158.247 89.8611Z" fill="white"/>
<path d="M157.513 87.4006L155.822 88.3804L156.555 90.841L158.247 89.8657V89.8612L157.513 87.4006Z" fill="white"/>
<path d="M164.788 91.8477L163.097 92.8229L163.83 95.2835L165.521 94.3082V94.3038L164.788 91.8477Z" fill="white"/>
<path d="M164.054 89.3826L162.363 90.3623L163.096 92.8229L164.788 91.8476V91.8431L164.054 89.3826Z" fill="white"/>
<path d="M163.32 86.9263L161.629 87.9016L162.367 90.3621L164.054 89.3868V89.3824L163.32 86.9263Z" fill="white"/>
<path d="M166.255 96.7688L164.564 97.7486L165.298 100.209L166.984 99.2339L166.989 99.2294L166.255 96.7688Z" fill="white"/>
<path d="M168.68 98.2585L166.984 99.2338L167.723 101.694L169.409 100.719L169.414 100.715L168.68 98.2585Z" fill="white"/>
<path d="M171.105 99.7393L169.414 100.715L170.147 103.175L171.834 102.2L171.838 102.195L171.105 99.7393Z" fill="white"/>
<path d="M172.796 98.7598L171.104 99.7395L171.838 102.2L173.525 101.225L173.529 101.22L172.796 98.7598Z" fill="white"/>
<path d="M173.753 95.3237L172.062 96.299L172.796 98.7596L174.482 97.7843L174.487 97.7798L173.753 95.3237Z" fill="white"/>
<path d="M173.015 92.863L171.324 93.8383L172.062 96.2989L173.749 95.3236V95.3191L173.015 92.863Z" fill="white"/>
<path d="M183.895 89.4631L182.204 90.4384L182.942 92.899L184.629 91.9237V91.9192L183.895 89.4631Z" fill="white"/>
<path d="M185.586 88.4878L183.895 89.4631L184.633 91.9237L186.32 90.9484L186.324 90.9439L185.586 88.4878Z" fill="white"/>
<path d="M181.47 87.9778L179.779 88.9531L180.513 91.4181L182.204 90.4428V90.4384L181.47 87.9778Z" fill="white"/>
<path d="M173.238 86.9622L171.547 87.9419L172.281 90.4025L173.972 89.4272V89.4227L173.238 86.9622Z" fill="white"/>
<path d="M173.972 89.4272L172.277 90.4025L173.015 92.8631L174.702 91.8878L174.706 91.8834L173.972 89.4272Z" fill="white"/>
<path d="M179.046 86.4968L177.354 87.4721L178.088 89.9327L179.779 88.9574V88.9529L179.046 86.4968Z" fill="white"/>
<path d="M178.312 84.0361L176.621 85.0114L177.354 87.472L179.041 86.4967L179.045 86.4922L178.312 84.0361Z" fill="white"/>
<path d="M174.196 83.5264L172.505 84.5017L173.239 86.9622L174.925 85.9914L174.93 85.9825L174.196 83.5264Z" fill="white"/>
<path d="M175.887 82.551L174.196 83.5263L174.93 85.9869L176.621 85.0116V85.0071L175.887 82.551Z" fill="white"/>
<path d="M153.853 48.8455L142.016 55.6993L144.946 65.5506L156.779 58.6967L156.784 58.6923L153.853 48.8455Z" fill="#02E56A"/>
<path d="M197.831 129.494L143.796 160.695" stroke="#02E56A" stroke-width="0.447378" stroke-miterlimit="10"/>
<path d="M34.1038 214.639C34.081 214.233 33.9629 213.838 33.7593 213.486C33.5557 213.134 33.2722 212.835 32.9317 212.613L21.3849 205.947C21.2671 205.86 21.1279 205.806 20.9822 205.792C20.8364 205.778 20.6896 205.804 20.5572 205.866L13.8824 209.718C13.7623 209.803 13.6671 209.918 13.6065 210.052C13.546 210.185 13.5223 210.333 13.5379 210.479V213.49C13.5604 213.896 13.6783 214.292 13.8819 214.645C14.0855 214.998 14.3691 215.298 14.71 215.521L26.2568 222.187C26.3746 222.274 26.5138 222.327 26.6595 222.341C26.8053 222.355 26.9521 222.33 27.0845 222.267L33.7594 218.411C33.8794 218.327 33.9747 218.213 34.0353 218.08C34.0959 217.947 34.1196 217.8 34.1038 217.655V214.639Z" fill="white"/>
<path d="M14.7102 209.799C14.066 209.427 13.5381 209.732 13.5381 210.479V213.49C13.5606 213.896 13.6785 214.292 13.8821 214.645C14.0857 214.998 14.3694 215.298 14.7102 215.521L26.257 222.187C26.9013 222.558 27.4292 222.254 27.4292 221.511V218.496C27.4063 218.09 27.2883 217.695 27.0847 217.343C26.8811 216.991 26.5976 216.691 26.257 216.469L14.7102 209.799Z" fill="#EBE9E9"/>
<path d="M34.1038 214.639C34.081 214.233 33.9629 213.838 33.7593 213.486C33.5557 213.134 33.2722 212.835 32.9317 212.613L21.3849 205.947C21.2671 205.86 21.1279 205.806 20.9822 205.792C20.8364 205.778 20.6896 205.804 20.5572 205.866L13.8824 209.718C13.7623 209.803 13.6671 209.918 13.6065 210.052C13.546 210.185 13.5223 210.333 13.5379 210.479V213.49C13.5604 213.896 13.6783 214.292 13.8819 214.645C14.0855 214.998 14.3691 215.298 14.71 215.521L26.2568 222.187C26.3746 222.274 26.5138 222.327 26.6595 222.341C26.8053 222.355 26.9521 222.33 27.0845 222.267L33.7594 218.411C33.8794 218.327 33.9747 218.213 34.0353 218.08C34.0959 217.947 34.1196 217.8 34.1038 217.655V214.639Z" stroke="black" stroke-width="0.447378" stroke-miterlimit="10"/>
<path d="M21.6027 218.673C22.4303 218.197 22.5985 216.937 21.9783 215.858C21.3581 214.779 20.1845 214.29 19.3569 214.765C18.5293 215.241 18.3611 216.501 18.9813 217.58C19.6015 218.659 20.7751 219.149 21.6027 218.673Z" fill="black"/>
<path d="M133.319 277.706C137.345 280.028 143.939 280.028 147.966 277.706L199.302 248.063C203.329 245.741 203.329 241.934 199.302 239.608L147.943 209.96C143.917 207.633 137.327 207.633 133.296 209.96L81.9641 239.608C77.9377 241.934 77.9377 245.741 81.9641 248.063L133.319 277.706Z" fill="#3F35F5" stroke="black" stroke-width="0.447378" stroke-miterlimit="10"/>
<path d="M157.477 178.438L158.528 177.829L157.477 178.438Z" fill="white" stroke="black" stroke-width="0.447378" stroke-miterlimit="10"/>
<path d="M94.5534 291.168C83.8476 291.168 73.1463 288.814 64.9951 284.113L6.57199 250.371C2.33532 247.924 0 244.555 0 240.873C0 237.192 2.33532 233.827 6.57199 231.38C10.0213 229.389 10.4642 227.224 11.0458 224.49C11.6318 221.614 12.294 218.357 16.6559 215.838L18.7496 214.626C18.9532 214.508 19.1779 214.432 19.411 214.401C19.644 214.371 19.8808 214.386 20.1078 214.447C20.3349 214.508 20.5477 214.613 20.7341 214.756C20.9206 214.899 21.077 215.078 21.1945 215.281C21.312 215.485 21.3883 215.709 21.419 215.943C21.4496 216.176 21.4341 216.412 21.3732 216.639C21.3123 216.866 21.2074 217.079 21.0642 217.266C20.9211 217.452 20.7427 217.609 20.5391 217.726L18.4454 218.938C15.4793 220.647 15.0677 222.661 14.5487 225.202C13.9627 228.092 13.229 231.68 8.38387 234.48C5.30143 236.27 3.6014 238.507 3.6014 240.873C3.6014 243.24 5.30143 245.49 8.38387 247.271L66.7846 281.017C82.0939 289.857 107.008 289.857 122.318 281.017L192.323 240.596C205.445 233.018 209.042 225.099 212.214 218.111C215.699 210.438 218.992 203.195 233.657 199.513L238.506 198.296C238.734 198.238 238.972 198.224 239.205 198.257C239.438 198.29 239.662 198.369 239.865 198.489C240.067 198.608 240.245 198.767 240.386 198.955C240.528 199.143 240.631 199.357 240.689 199.585C240.748 199.813 240.762 200.05 240.729 200.283C240.696 200.516 240.617 200.741 240.497 200.943C240.378 201.146 240.219 201.323 240.031 201.465C239.843 201.606 239.629 201.709 239.401 201.768L234.551 202.985C221.577 206.246 218.893 212.134 215.498 219.592C212.268 226.701 208.25 235.545 194.135 243.696L124.107 284.113C115.96 288.814 105.255 291.168 94.5534 291.168Z" fill="black"/>
<path d="M94.5754 290.734C91.8232 290.734 89.0732 290.576 86.3392 290.26C86.163 290.24 85.9924 290.185 85.8374 290.099C85.6823 290.012 85.5457 289.897 85.4354 289.758C85.3251 289.619 85.2432 289.459 85.1945 289.289C85.1458 289.118 85.1312 288.94 85.1514 288.763C85.1717 288.587 85.2265 288.417 85.3127 288.261C85.3988 288.106 85.5147 287.97 85.6537 287.86C85.7926 287.749 85.9519 287.667 86.1225 287.619C86.2931 287.57 86.4717 287.555 86.6479 287.576C99.774 289.092 113.191 286.779 122.541 281.379L192.547 240.981C205.789 233.335 209.422 225.323 212.621 218.295C216.2 210.398 219.309 203.576 233.764 199.952L238.618 198.735C238.789 198.692 238.967 198.683 239.141 198.709C239.315 198.735 239.483 198.795 239.634 198.886C239.785 198.976 239.917 199.096 240.022 199.237C240.127 199.379 240.203 199.539 240.246 199.71C240.289 199.881 240.298 200.059 240.272 200.234C240.246 200.408 240.186 200.575 240.096 200.727C240.005 200.878 239.886 201.01 239.744 201.115C239.603 201.22 239.442 201.296 239.271 201.339L234.417 202.556C221.215 205.857 218.504 211.839 215.05 219.409C211.681 226.822 207.861 235.228 193.871 243.307L123.883 283.724C116.027 288.26 105.478 290.734 94.5754 290.734Z" fill="#02E56A"/>
<path d="M81.0517 289.41C80.9631 289.41 80.8746 289.401 80.7878 289.383C79.5038 289.124 78.2332 288.824 77.0029 288.488C76.8275 288.448 76.6621 288.372 76.5166 288.266C76.3711 288.159 76.2484 288.025 76.1559 287.871C76.0634 287.716 76.0029 287.544 75.9781 287.366C75.9533 287.188 75.9647 287.006 76.0115 286.832C76.0584 286.658 76.1398 286.495 76.2509 286.354C76.3619 286.212 76.5004 286.094 76.6581 286.007C76.8157 285.92 76.9893 285.865 77.1684 285.846C77.3476 285.828 77.5286 285.845 77.7008 285.898C78.873 286.211 80.0943 286.498 81.3201 286.748C81.6463 286.814 81.9363 286.999 82.1337 287.267C82.3311 287.535 82.4219 287.867 82.3884 288.198C82.355 288.529 82.1997 288.836 81.9526 289.059C81.7056 289.282 81.3846 289.406 81.0517 289.406V289.41Z" fill="#02E56A"/>
<path d="M155.849 179.359C151.42 181.627 147.062 179.413 146.029 174.264L120.528 46.9397C119.464 41.6249 122.318 35.1155 126.904 32.476L168.622 8.38912C170.765 7.15436 172.916 6.97541 174.706 7.68674L159.034 1.4816C157.03 0.685272 154.641 0.850802 152.355 2.17057L110.641 26.2619C106.069 28.9014 103.564 35.2095 105.072 40.2604L145.219 174.729C146.682 179.632 151.398 181.641 155.849 179.359Z" fill="white"/>
<path d="M146.029 174.264L120.528 46.9397C120.111 44.5845 120.319 42.1609 121.132 39.9114L105.402 32.8384C104.515 35.2162 104.399 37.813 105.071 40.2604L145.219 174.729C145.398 175.33 145.638 175.912 145.935 176.465L146.355 175.48C146.221 175.082 146.112 174.676 146.029 174.264Z" fill="#EBE9E9"/>
<path d="M155.849 179.359C151.42 181.627 147.062 179.413 146.029 174.264L120.528 46.9397C119.464 41.6249 122.318 35.1155 126.904 32.476L168.622 8.38912C170.765 7.15436 172.916 6.97541 174.706 7.68674L159.034 1.4816C157.03 0.685272 154.641 0.850802 152.355 2.17057L110.641 26.2619C106.069 28.9014 103.564 35.2095 105.072 40.2604L145.219 174.729C146.682 179.632 151.398 181.641 155.849 179.359Z" stroke="black" stroke-width="0.447378" stroke-miterlimit="10"/>
<path d="M60.9419 85.9421L101.081 109.116" stroke="black" stroke-width="0.447378" stroke-miterlimit="10" stroke-linecap="round"/>
<path d="M64.1768 87.8254V90.3889C64.185 90.5465 64.2297 90.7001 64.3073 90.8375C64.3849 90.9749 64.4934 91.0924 64.6241 91.1808L81.8079 101.099C82.0585 101.247 82.2553 101.126 82.2553 100.835V98.2717L64.1768 87.8254Z" stroke="black" stroke-width="0.447378" stroke-miterlimit="10" stroke-linecap="round"/>
<path d="M65.416 89.6643C65.4242 89.8213 65.469 89.9742 65.5466 90.1109C65.6243 90.2476 65.7327 90.3643 65.8634 90.4517L82.2732 99.9048V98.2406L65.416 88.5056V89.6643Z" fill="black" stroke="black" stroke-width="0.447378" stroke-miterlimit="10" stroke-linecap="round"/>
<path d="M60.9419 94.7197L104.002 119.581" stroke="black" stroke-width="0.447378" stroke-miterlimit="10" stroke-linecap="round"/>
<path d="M64.1768 96.5898V99.1533C64.185 99.3109 64.2297 99.4645 64.3073 99.6019C64.3849 99.7393 64.4934 99.8568 64.6241 99.9452L81.8079 109.864C82.0585 110.011 82.2553 109.89 82.2553 109.6V107.036L64.1768 96.5898Z" stroke="black" stroke-width="0.447378" stroke-miterlimit="10" stroke-linecap="round"/>
<path d="M65.4157 98.4418C65.4239 98.5988 65.4686 98.7517 65.5463 98.8884C65.624 99.0251 65.7324 99.1418 65.8631 99.2292L82.264 108.7V107.036L65.4067 97.301L65.4157 98.4418Z" fill="black" stroke="black" stroke-width="0.447378" stroke-miterlimit="10" stroke-linecap="round"/>
<path d="M60.9419 103.502L106.928 130.049" stroke="black" stroke-width="0.447378" stroke-miterlimit="10" stroke-linecap="round"/>
<path d="M64.1768 105.367V107.931C64.185 108.088 64.2297 108.242 64.3073 108.379C64.3849 108.517 64.4934 108.634 64.6241 108.723L81.8079 118.641C82.0585 118.789 82.2553 118.668 82.2553 118.381V115.813L64.1768 105.367Z" stroke="black" stroke-width="0.447378" stroke-miterlimit="10" stroke-linecap="round"/>
<path d="M65.4157 107.22C65.4239 107.377 65.4686 107.529 65.5463 107.666C65.624 107.803 65.7324 107.92 65.8631 108.007L82.264 117.478V115.814L65.4067 106.083L65.4157 107.22Z" fill="black" stroke="black" stroke-width="0.447378" stroke-miterlimit="10" stroke-linecap="round"/>
<path d="M60.9419 112.279L109.849 140.513" stroke="black" stroke-width="0.447378" stroke-miterlimit="10" stroke-linecap="round"/>
<path d="M64.1768 114.145V116.713C64.185 116.87 64.2297 117.023 64.3074 117.159C64.385 117.296 64.4935 117.413 64.6241 117.5L81.8079 127.418C82.0585 127.566 82.2553 127.445 82.2553 127.159V124.591L64.1768 114.145Z" stroke="black" stroke-width="0.447378" stroke-miterlimit="10" stroke-linecap="round"/>
<path d="M65.416 116.01C65.4235 116.168 65.468 116.321 65.5457 116.457C65.6234 116.594 65.7322 116.711 65.8634 116.798L82.2732 126.255V124.591L65.416 114.861V116.01Z" fill="black" stroke="black" stroke-width="0.447378" stroke-miterlimit="10" stroke-linecap="round"/>
<path d="M60.9419 121.057L112.771 150.978" stroke="black" stroke-width="0.447378" stroke-miterlimit="10" stroke-linecap="round"/>
<path d="M64.1768 122.922V125.49C64.185 125.647 64.2297 125.8 64.3074 125.937C64.385 126.074 64.4935 126.19 64.6241 126.278L81.8079 136.201C82.0585 136.344 82.2553 136.223 82.2553 135.937V133.369L64.1768 122.922Z" stroke="black" stroke-width="0.447378" stroke-miterlimit="10" stroke-linecap="round"/>
<path d="M65.4157 124.775C65.4232 124.932 65.4676 125.085 65.5454 125.222C65.6231 125.358 65.7319 125.475 65.8631 125.562L82.264 135.033V133.369L65.4067 123.638L65.4157 124.775Z" fill="black" stroke="black" stroke-width="0.447378" stroke-miterlimit="10" stroke-linecap="round"/>
<path d="M60.9419 129.834L115.697 161.442" stroke="black" stroke-width="0.447378" stroke-miterlimit="10" stroke-linecap="round"/>
<path d="M64.1768 131.7V134.268C64.185 134.425 64.2297 134.578 64.3074 134.714C64.385 134.851 64.4935 134.968 64.6241 135.055L81.8079 144.978C82.0585 145.121 82.2553 145.005 82.2553 144.714V142.146L64.1768 131.7Z" stroke="black" stroke-width="0.447378" stroke-miterlimit="10" stroke-linecap="round"/>
<path d="M65.4157 133.552C65.4232 133.709 65.4676 133.863 65.5454 133.999C65.6231 134.136 65.7319 134.253 65.8631 134.34L82.264 143.811V142.146L65.4067 132.416L65.4157 133.552Z" fill="black" stroke="black" stroke-width="0.447378" stroke-miterlimit="10" stroke-linecap="round"/>
<path d="M60.9419 138.612L118.618 171.91" stroke="black" stroke-width="0.447378" stroke-miterlimit="10" stroke-linecap="round"/>
<path d="M64.1768 140.478V143.045C64.185 143.202 64.2297 143.355 64.3074 143.492C64.385 143.629 64.4935 143.745 64.6241 143.833L81.8079 153.756C82.0585 153.899 82.2553 153.783 82.2553 153.492V150.906L64.1768 140.478Z" stroke="black" stroke-width="0.447378" stroke-miterlimit="10" stroke-linecap="round"/>
<path d="M65.4157 142.33C65.4239 142.487 65.4686 142.641 65.5462 142.778C65.6239 142.915 65.7323 143.033 65.8631 143.121L82.264 152.588V150.906L65.4067 141.175L65.4157 142.33Z" fill="black" stroke="black" stroke-width="0.447378" stroke-miterlimit="10" stroke-linecap="round"/>
<path d="M158.215 181.149L193.849 160.578" stroke="black" stroke-width="0.447378" stroke-miterlimit="10" stroke-linecap="round"/>
<path d="M156.752 181.994L150.57 185.573C150.098 185.88 149.714 186.304 149.456 186.803L149.214 187.336C149.153 187.481 149.147 187.644 149.195 187.794C149.243 187.944 149.344 188.072 149.478 188.155L152.265 189.765L153.138 187.926L159.132 183.377L156.752 181.994Z" fill="white" stroke="black" stroke-width="0.447378" stroke-linecap="round" stroke-linejoin="round"/>
<path d="M152.256 187.528L149.836 186.217C149.686 186.392 149.559 186.584 149.456 186.79L149.214 187.322C149.153 187.468 149.147 187.63 149.195 187.78C149.243 187.93 149.344 188.058 149.478 188.141L152.265 189.747L152.592 189.063L152.256 187.528Z" fill="black"/>
<path d="M159.486 184.128C159.486 183.381 158.963 183.086 158.323 183.466L153.129 186.548C152.791 186.776 152.51 187.078 152.308 187.432C152.106 187.786 151.989 188.182 151.966 188.588V189.036C151.966 189.778 152.489 190.083 153.138 189.711L158.314 186.696C158.655 186.473 158.938 186.173 159.142 185.82C159.345 185.467 159.463 185.072 159.486 184.665V184.128Z" fill="white" stroke="black" stroke-width="0.447378" stroke-linecap="round" stroke-linejoin="round"/>
<path d="M142.807 229.404C141.271 228.609 138.821 228.613 136.693 229.327C136.187 229.491 135.788 229.633 135.521 229.729C135.289 229.814 135.08 229.893 134.887 229.969C133.928 230.346 133.009 230.815 131.962 231.108C131.403 231.264 130.747 231.364 130.156 231.226C129.35 231.036 128.9 230.549 129.104 230.059C129.44 229.25 130.846 228.511 132.157 228.22C132.589 228.124 132.998 228.08 133.419 228.079C133.674 228.082 133.945 228.111 134.203 228.16C134.447 228.206 134.68 228.269 134.879 228.347L134.912 228.315L135.001 228.213L136.616 226.335L136.671 226.278L136.715 226.227C135.863 225.914 134.934 225.761 133.938 225.747C133.109 225.741 132.279 225.837 131.416 226.028C131.238 226.067 131.073 226.111 130.896 226.162C129.867 226.437 128.849 226.871 127.842 227.453C126.736 228.091 125.961 228.73 125.497 229.369C125.353 229.567 125.231 229.765 125.143 229.956C124.977 230.346 124.933 230.716 124.999 231.061C125.042 231.22 125.115 231.377 125.216 231.53C125.222 231.541 125.229 231.552 125.236 231.562C125.422 231.856 125.709 232.124 126.103 232.351C126.126 232.365 126.148 232.377 126.172 232.389C126.186 232.398 126.2 232.405 126.215 232.413C128.053 233.474 130.796 232.91 132.67 232.215C132.823 232.159 132.973 232.101 133.123 232.043C133.683 231.826 134.23 231.597 134.764 231.36C135.861 230.872 137.479 230.065 138.933 230.616C139.053 230.661 139.164 230.714 139.265 230.773C139.753 231.054 139.926 231.459 139.802 231.872C139.799 231.888 139.794 231.903 139.789 231.918C139.736 232.098 139.624 232.273 139.481 232.434C139.182 232.759 138.729 233.072 138.254 233.321C137.756 233.583 137.203 233.788 136.638 233.922C136.351 233.986 136.063 234.037 135.786 234.069C135.509 234.1 134.613 234.183 133.695 233.934C133.617 233.915 133.551 233.89 133.507 233.877C133.496 233.896 133.474 233.909 133.473 233.922C133.46 233.937 133.447 233.957 133.434 233.976C133.424 233.989 133.416 234.001 133.407 234.011C133.374 234.068 133.319 234.126 133.285 234.183L131.936 236.099C132.544 236.323 133.197 236.47 133.905 236.534C134.613 236.597 135.354 236.578 136.129 236.476C136.571 236.412 137.037 236.323 137.501 236.195C137.833 236.106 138.176 235.997 138.519 235.876C139.338 235.582 140.156 235.199 140.975 234.726C141.547 234.396 142.038 234.071 142.452 233.751C142.455 233.749 142.456 233.747 142.458 233.746C144.493 232.364 144.75 230.519 142.963 229.487C142.912 229.458 142.861 229.43 142.807 229.402L142.807 229.404Z" fill="white"/>
<path d="M128.255 234.631C126.947 233.891 125.617 233.354 124.233 233.036C122.85 232.711 121.5 232.621 120.194 232.762C119.507 232.836 118.847 232.979 118.219 233.189C117.653 233.378 117.112 233.622 116.599 233.918C115.869 234.339 115.36 234.799 115.083 235.278C114.796 235.764 114.763 236.268 114.983 236.792C115.176 237.297 115.594 237.826 116.22 238.367C116.242 238.387 116.265 238.407 116.289 238.427L115.931 238.612L112.532 236.649L109.673 238.299L126.007 247.729L128.866 246.079L121.427 241.784L121.783 241.578C122.72 241.94 123.636 242.181 124.511 242.292C125.418 242.42 126.292 242.4 127.133 242.235C127.962 242.075 128.759 241.781 129.489 241.359C130.002 241.063 130.424 240.751 130.751 240.424C131.203 240.007 131.478 239.57 131.579 239.117C131.745 238.37 131.534 237.609 130.959 236.843C130.384 236.077 129.488 235.342 128.282 234.646C128.273 234.641 128.264 234.635 128.255 234.631ZM126.39 237.986C126.733 238.44 126.866 238.861 126.789 239.264C126.7 239.66 126.379 240.024 125.815 240.35C125.627 240.458 125.427 240.551 125.217 240.629C125.106 240.67 124.993 240.707 124.876 240.741C124.771 240.771 124.663 240.798 124.554 240.822C124.089 240.924 123.613 240.969 123.137 240.963C122.662 240.956 122.197 240.918 121.721 240.835C121.256 240.758 120.825 240.65 120.427 240.509C120.379 240.492 120.332 240.475 120.286 240.458C120.252 240.445 120.218 240.432 120.184 240.419C119.887 240.306 119.623 240.186 119.387 240.049L118.944 239.794C118.686 239.644 118.448 239.477 118.227 239.29C118.204 239.271 118.182 239.251 118.16 239.231C118.084 239.163 118.01 239.094 117.938 239.021C117.639 238.721 117.417 238.401 117.307 238.057C117.185 237.718 117.196 237.38 117.34 237.041C117.407 236.882 117.518 236.729 117.67 236.581C117.842 236.413 118.066 236.252 118.336 236.096C118.878 235.783 119.508 235.598 120.217 235.534C120.924 235.47 121.666 235.54 122.452 235.738C123.206 235.925 123.982 236.233 124.737 236.662C124.757 236.673 124.777 236.684 124.797 236.696C125.516 237.098 126.047 237.533 126.39 237.986Z" fill="white"/>
<path d="M108.302 239.103L120.505 246.148L117.646 247.798L114.289 245.86L113.971 246.043C115.232 247.229 115.635 248.26 115.187 249.137C115.058 249.392 114.857 249.634 114.585 249.862C114.404 250.014 114.192 250.16 113.947 250.301C113.596 250.504 113.229 250.675 112.848 250.812C112.846 250.813 112.844 250.814 112.841 250.814C111.719 251.251 110.521 251.419 109.254 251.319C107.551 251.178 105.714 250.539 103.733 249.396L97.0839 245.557L100.469 243.603L106.698 247.199C108.123 248.022 110.333 249.015 112.196 248.001C113.066 247.527 113.322 246.763 112.989 246.115C112.488 245.14 111.386 244.298 110.154 243.589C109.308 243.101 108.461 242.614 107.616 242.127C106.88 241.702 106.076 241.238 105.34 240.813L108.302 239.103Z" fill="white"/>
<path d="M140.114 216.001L148.133 220.63L145.812 221.97L141.631 219.556L141.184 219.814C141.303 219.925 141.471 220.089 141.663 220.29C142.025 220.668 142.217 220.867 142.383 221.112C142.747 221.635 142.81 222.09 142.837 222.284C142.884 222.619 142.829 222.936 142.675 223.233C142.599 223.38 142.499 223.526 142.374 223.668C142.179 223.927 141.922 224.172 141.607 224.397C141.484 224.483 141.355 224.567 141.214 224.648C141.073 224.73 140.928 224.804 140.78 224.874C140.523 224.994 140.255 225.099 139.977 225.188C139.972 225.19 139.966 225.192 139.96 225.193L136.992 223.48C137 223.479 137.008 223.479 137.016 223.478C139.211 223.296 140.732 222.101 140.49 220.841C140.424 220.494 140.25 220.156 140.008 219.838C139.968 219.785 139.574 219.381 139.322 219.137L134.41 221.973L132.089 220.634L140.114 216.001Z" fill="#02E56A"/>
</svg>
