<svg width="60" height="60" viewBox="0 0 60 60" fill="none" xmlns="http://www.w3.org/2000/svg">
<g clip-path="url(#clip0_3084_22329)">
<path d="M0 30C0 13.4315 13.4315 0 30 0C46.5685 0 60 13.4315 60 30C60 46.5685 46.5685 60 30 60C13.4315 60 0 46.5685 0 30Z" fill="#1D1D1D"/>
<circle cx="30" cy="30" r="30" fill="#1D1D1D"/>
<path d="M33.166 14.33C33.322 14.2 33.528 14.232 33.718 14.232C33.222 14.562 32.738 14.914 32.276 15.29C30.984 16.328 29.732 17.456 28.804 18.842C28.126 19.858 27.666 21.1 27.898 22.332C28.154 23.722 29.106 24.846 30.1 25.796C31.728 27.324 33.604 28.552 35.294 30.006C36.456 31.018 37.594 32.152 38.2 33.596C38.664 34.664 38.688 35.894 38.338 36.998C37.928 38.304 37.138 39.452 36.25 40.48C34.532 42.424 32.48 44.034 30.368 45.522C30.206 45.64 30.044 45.79 29.828 45.776C29.176 45.778 28.524 45.806 27.874 45.744C29.324 44.806 30.698 43.75 31.998 42.612C33.15 41.58 34.24 40.446 35.048 39.118C35.734 37.984 36.15 36.628 35.92 35.298C35.674 33.838 34.816 32.566 33.81 31.514C32.428 30.092 30.812 28.928 29.296 27.656C28.332 26.822 27.366 25.958 26.666 24.882C26.276 24.282 25.994 23.594 25.968 22.872C25.918 21.87 26.308 20.904 26.834 20.07C27.5 19.02 28.376 18.124 29.292 17.29C30.504 16.204 31.816 15.236 33.164 14.328L33.166 14.33Z" fill="#F58634"/>
<path d="M12.276 21.726C12.286 19.228 12.258 16.728 12.29 14.23C17.13 14.238 21.972 14.23 26.812 14.234C27.216 14.234 27.62 14.222 28.024 14.25C26.954 15.036 25.846 15.778 24.852 16.664C23.74 17.632 22.684 18.716 22.006 20.038C21.486 21.042 21.33 22.26 21.73 23.332C22.12 24.412 22.882 25.302 23.684 26.102C24.942 27.332 26.352 28.392 27.662 29.562C28.466 30.272 29.224 31.046 29.842 31.928C30.486 32.86 30.924 33.978 30.86 35.126C30.812 36.622 30.048 37.986 29.148 39.14C28.14 40.432 26.922 41.542 25.654 42.572C24.284 43.682 22.834 44.688 21.36 45.654C21.168 45.802 20.914 45.78 20.686 45.78C17.882 45.762 15.078 45.804 12.276 45.758C12.282 37.746 12.276 29.734 12.276 21.724V21.726Z" fill="#F58634"/>
<path d="M30.338 14.3421C30.472 14.2401 30.64 14.2221 30.806 14.2161C30.756 14.3301 30.658 14.4081 30.56 14.4761C29.596 15.1561 28.67 15.8901 27.786 16.6721C26.844 17.5381 25.936 18.4621 25.258 19.5541C24.78 20.3381 24.422 21.2341 24.466 22.1681C24.496 23.0821 24.96 23.9101 25.51 24.6141C26.9 26.3641 28.774 27.6281 30.468 29.0601C31.814 30.2021 33.182 31.4301 33.93 33.0641C34.456 34.1621 34.608 35.4441 34.292 36.6241C33.892 38.1381 32.942 39.4341 31.9 40.5741C30.098 42.5001 27.96 44.0741 25.778 45.5381C25.606 45.6541 25.43 45.7901 25.21 45.7741C24.672 45.7761 24.134 45.7881 23.596 45.7481C24.982 44.8521 26.312 43.8701 27.588 42.8221C28.898 41.7121 30.16 40.5141 31.132 39.0881C31.836 38.0521 32.37 36.8401 32.342 35.5661C32.322 34.2721 31.684 33.0781 30.876 32.1001C29.28 30.2001 27.196 28.8081 25.406 27.1081C24.41 26.1521 23.436 25.0521 23.094 23.6801C22.826 22.6641 23.034 21.5761 23.51 20.6541C24.062 19.5481 24.902 18.6201 25.792 17.7741C27.186 16.4761 28.742 15.3681 30.338 14.3361V14.3421Z" fill="#F58634"/>
<path d="M32.14 17.3861C33.358 16.2121 34.724 15.2041 36.106 14.2341C39.976 14.2341 43.844 14.2361 47.712 14.2341C47.742 24.7441 47.712 35.2541 47.728 45.7641C46.168 45.8101 44.606 45.7701 43.046 45.7841C40.032 45.7841 37.016 45.7841 34.002 45.7841C33.492 45.7841 32.98 45.7921 32.472 45.7601C33.874 44.7501 35.236 43.6821 36.49 42.4921C37.704 41.3221 38.86 40.0381 39.58 38.4961C40.128 37.3481 40.32 35.9881 39.906 34.7661C39.49 33.4801 38.59 32.4221 37.632 31.4961C36.214 30.1661 34.618 29.0521 33.106 27.8341C31.83 26.7881 30.51 25.6761 29.794 24.1541C29.282 23.1081 29.27 21.8601 29.692 20.7821C30.204 19.4641 31.144 18.3681 32.14 17.3881V17.3861Z" fill="#F58634"/>
</g>
<defs>
<clipPath id="clip0_3084_22329">
<path d="M0 30C0 13.4315 13.4315 0 30 0C46.5685 0 60 13.4315 60 30C60 46.5685 46.5685 60 30 60C13.4315 60 0 46.5685 0 30Z" fill="white"/>
</clipPath>
</defs>
</svg>
