<svg width="60" height="60" viewBox="0 0 60 60" fill="none" xmlns="http://www.w3.org/2000/svg">
<g id="Group">
<g id="Group_2">
<path id="Vector" d="M16.748 20.942C14.254 20.942 12.138 22.568 11.398 24.826C11.384 24.878 11.364 24.93 11.35 24.976L11.226 25.462L8.09802 39.058H15.978C18.332 39.058 20.338 37.56 21.102 35.462L21.4 34.166L24.444 20.938H16.75V20.942H16.748Z" fill="#08509F"/>
<path id="Vector_2" d="M31.61 16.4099C29.036 16.4099 26.864 18.1479 26.194 20.5179C26.142 20.6939 26.102 20.8759 26.07 21.0599L20.888 43.5899H28.582C31.218 43.5899 33.43 41.7719 34.046 39.3159H34.05L39.312 16.4099H31.61Z" fill="#F27123"/>
<path id="Vector_3" d="M44.406 20.9419C42 20.9419 39.946 22.4579 39.14 24.5899C39.1 24.6999 38.956 25.1499 38.956 25.1499L35.754 39.0639H43.448C46.092 39.0639 48.31 37.2339 48.916 34.7679V34.7719L52.096 20.9479H44.406V20.9439V20.9419Z" fill="#51B748"/>
<path id="Vector_4" d="M13.314 25.9578C12.882 26.3178 12.602 26.7558 12.518 27.1058L10.89 34.4818H10.982C11.488 34.4818 11.964 34.3018 12.398 33.9438C12.834 33.5878 13.11 33.1478 13.216 32.6438L13.634 30.7698H17.128C17.634 30.7698 18.114 30.5898 18.55 30.2318C18.986 29.8738 19.266 29.4338 19.376 28.9258L19.394 28.8338H14.066L14.392 27.3578H19.442C19.948 27.3578 20.424 27.1778 20.862 26.8238C21.294 26.4658 21.562 26.0218 21.68 25.5178L21.702 25.4258H14.73C14.224 25.4178 13.748 25.5978 13.314 25.9558V25.9578Z" fill="white"/>
<path id="Vector_5" d="M48.89 25.8598C48.612 25.5798 48.244 25.4358 47.804 25.4358H40.836L40.824 25.4978C40.798 25.6338 40.784 25.7638 40.784 25.8838C40.784 26.3098 40.928 26.6678 41.206 26.9518C41.488 27.2318 41.852 27.3758 42.296 27.3758H43.8L42.29 34.4838H42.386C42.892 34.4838 43.366 34.3038 43.798 33.9498C44.23 33.5918 44.498 33.1538 44.604 32.6458L45.722 27.3718H49.264L49.274 27.3098C49.3 27.1818 49.314 27.0438 49.314 26.9118C49.31 26.4918 49.168 26.1398 48.888 25.8598H48.89Z" fill="white"/>
<path id="Vector_6" d="M33.606 25.4218H28.898L28.902 25.4138H26.966L25.044 34.4838H25.136C25.642 34.4838 26.118 34.3038 26.548 33.9458C26.978 33.5878 27.248 33.1498 27.354 32.6458L27.746 30.7838H32.498C33.004 30.7838 33.478 30.6038 33.91 30.2498C34.34 29.8958 34.614 29.4538 34.728 28.9398L35.084 27.3018C35.11 27.1738 35.124 27.0398 35.124 26.9038C35.124 26.4838 34.98 26.1318 34.694 25.8478C34.416 25.5638 34.044 25.4218 33.604 25.4218H33.606ZM28.48 27.3618H33.144L32.822 28.8458H28.158L28.48 27.3618Z" fill="white"/>
</g>
</g>
</svg>
