<svg width="60" height="60" viewBox="0 0 60 60" fill="none" xmlns="http://www.w3.org/2000/svg">
<g clip-path="url(#clip0_3084_21842)">
<path d="M0 30C0 13.4315 13.4315 0 30 0C46.5685 0 60 13.4315 60 30C60 46.5685 46.5685 60 30 60C13.4315 60 0 46.5685 0 30Z" fill="#1D1D1D"/>
<circle cx="30" cy="30" r="30" fill="#1D1D1D"/>
<path d="M35.272 7.33407C36.106 7.12407 37.038 7.31208 37.696 7.87208C38.806 8.75008 38.996 10.5361 38.09 11.6261C36.346 13.6581 34.596 15.6821 32.85 17.7121C32.394 18.2481 31.648 18.5201 30.956 18.3961C30.258 18.2901 29.642 17.7881 29.39 17.1301C29.144 16.5281 29.22 15.8141 29.57 15.2681C30.904 13.0721 32.238 10.8781 33.568 8.68008C33.924 8.02608 34.546 7.52208 35.272 7.33608V7.33407Z" fill="#EB2D4B"/>
<path d="M36.846 15.7742C37.518 15.5442 38.316 15.7162 38.802 16.2422C39.1 16.5462 39.27 16.9622 39.304 17.3842C39.584 20.3282 39.87 23.2702 40.148 26.2142C40.242 27.0382 39.96 27.9042 39.352 28.4782C38.492 29.3562 37.006 29.4902 35.988 28.8122C35.166 28.2822 34.668 27.2882 34.77 26.3122C35.058 23.3062 35.344 20.2982 35.636 17.2902C35.704 16.6062 36.2 15.9962 36.846 15.7742Z" fill="#EB2D4B"/>
<path d="M11.972 15.88C13.066 15.58 14.328 16.026 14.94 16.994C16.32 19.264 17.696 21.538 19.076 23.808C19.35 24.246 19.466 24.788 19.36 25.296C19.24 26.002 18.71 26.616 18.032 26.846C17.26 27.128 16.328 26.888 15.8 26.258C14.068 24.244 12.332 22.234 10.6 20.222C9.79801 19.29 9.77203 17.804 10.536 16.842C10.892 16.376 11.404 16.032 11.97 15.882L11.972 15.88Z" fill="#EB2D4B"/>
<path d="M19.768 17.6441C20.1 17.5361 20.46 17.5361 20.8 17.6121C23.738 18.2681 26.676 18.9101 29.612 19.5741C30.926 19.8821 31.842 21.2881 31.596 22.6141C31.428 23.8661 30.274 24.8781 29.014 24.8961C28.594 24.9141 28.178 24.8181 27.796 24.6501C25.062 23.4601 22.326 22.2741 19.59 21.0861C18.912 20.8021 18.468 20.0721 18.498 19.3421C18.508 18.5841 19.044 17.8721 19.766 17.6441H19.768Z" fill="#EB2D4B"/>
<path d="M43.064 25.0581C43.766 24.7981 44.49 25.0922 45.182 25.2382C47.408 25.7642 49.636 26.2861 51.864 26.8101C52.414 26.9381 52.928 27.2261 53.3 27.6541C53.896 28.3061 54.124 29.2642 53.9 30.1182C53.722 30.8702 53.188 31.5241 52.5 31.8701C51.8 32.2221 50.95 32.2541 50.23 31.9481C47.784 30.9181 45.332 29.8941 42.884 28.8641C42.15 28.5481 41.65 27.7622 41.684 26.9622C41.678 26.1182 42.264 25.3181 43.066 25.0581H43.064Z" fill="#EB2D4B"/>
<path d="M21.514 26.3342C22.734 26.0162 24.104 26.6822 24.61 27.8342C25.044 28.7642 24.89 29.9362 24.216 30.7122C22.314 32.8642 20.412 35.0142 18.512 37.1662C18.296 37.4102 18.09 37.6742 17.804 37.8402C17.102 38.2782 16.1 38.1682 15.53 37.5602C14.958 37.0042 14.83 36.0642 15.224 35.3722C16.75 32.7822 18.276 30.1902 19.806 27.6022C20.168 26.9682 20.8 26.4962 21.51 26.3322L21.514 26.3342Z" fill="#EB2D4B"/>
<path d="M44.076 31.43C44.788 31.242 45.608 31.512 46.034 32.122C46.496 32.736 46.506 33.64 46.068 34.27C45.868 34.57 45.568 34.792 45.24 34.932C42.528 36.108 39.816 37.286 37.104 38.466C36.34 38.814 35.414 38.794 34.676 38.392C33.804 37.93 33.232 36.964 33.26 35.976C33.248 34.77 34.154 33.636 35.332 33.378C38.246 32.728 41.164 32.086 44.078 31.434L44.076 31.43Z" fill="#EB2D4B"/>
<path d="M25.7101 34.9122C26.8281 34.5622 28.1481 35.0222 28.7681 36.0262C30.3121 38.6282 31.844 41.2402 33.382 43.8462C33.7 44.3742 33.7321 45.0602 33.4621 45.6142C33.1801 46.2082 32.5541 46.6242 31.8941 46.6402C31.3521 46.6762 30.8061 46.4482 30.4401 46.0502C28.6421 44.0122 26.8401 41.9802 25.0421 39.9422C24.5661 39.4082 24.0161 38.8782 23.8701 38.1482C23.5041 36.8042 24.364 35.2782 25.708 34.9102L25.7101 34.9122Z" fill="#EB2D4B"/>
<path d="M20.712 38.8181C21.732 38.5601 22.866 39.2261 23.132 40.2441C23.426 41.1881 22.92 42.2961 22.008 42.6821C19.542 43.7181 17.076 44.7542 14.606 45.7842C13.488 46.2482 12.088 45.8422 11.406 44.8382C10.852 44.0702 10.754 43.0062 11.148 42.1462C11.478 41.3982 12.172 40.8301 12.968 40.6421C15.55 40.0361 18.132 39.4261 20.712 38.8201V38.8181Z" fill="#EB2D4B"/>
<path d="M36.954 40.1181C37.594 39.9481 38.312 40.1181 38.81 40.5561C39.232 40.9181 39.484 41.4582 39.51 42.0122C39.704 44.3602 39.898 46.7082 40.094 49.0542C40.132 49.4882 40.182 49.9242 40.146 50.3622C40.068 51.1462 39.608 51.8762 38.952 52.3042C38.192 52.8122 37.17 52.8861 36.34 52.5061C35.346 52.0681 34.686 50.9862 34.764 49.9002C34.958 47.5142 35.162 45.1281 35.356 42.7421C35.416 42.2181 35.38 41.6621 35.628 41.1821C35.886 40.6561 36.382 40.2581 36.952 40.1181H36.954Z" fill="#EB2D4B"/>
</g>
<defs>
<clipPath id="clip0_3084_21842">
<path d="M0 30C0 13.4315 13.4315 0 30 0C46.5685 0 60 13.4315 60 30C60 46.5685 46.5685 60 30 60C13.4315 60 0 46.5685 0 30Z" fill="white"/>
</clipPath>
</defs>
</svg>
