<svg width="60" height="60" viewBox="0 0 60 60" fill="none" xmlns="http://www.w3.org/2000/svg">
<g clip-path="url(#clip0_3084_21500)">
<path d="M0 30C0 13.4315 13.4315 0 30 0C46.5685 0 60 13.4315 60 30C60 46.5685 46.5685 60 30 60C13.4315 60 0 46.5685 0 30Z" fill="#1D1D1D"/>
<circle cx="30" cy="30" r="30" fill="#1D1D1D"/>
<path d="M19.926 44.0579H21.136V51.1459H19.926V44.0579ZM20.492 47.2359H21.744C21.842 47.2359 21.926 47.2139 21.998 47.1679C22.07 47.1219 22.124 47.0559 22.164 46.9679C22.204 46.8799 22.222 46.7759 22.222 46.6559V45.8219C22.222 45.6959 22.204 45.5859 22.166 45.4959C22.128 45.4059 22.074 45.3359 22.002 45.2879C21.93 45.2399 21.844 45.2179 21.744 45.2179H20.492V44.0579H21.778C22.128 44.0579 22.43 44.1199 22.68 44.2439C22.93 44.3679 23.12 44.5479 23.25 44.7879C23.38 45.0259 23.444 45.3139 23.444 45.6479V46.8419C23.444 47.1699 23.378 47.4499 23.246 47.6819C23.114 47.9139 22.924 48.0919 22.674 48.2139C22.424 48.3359 22.124 48.3959 21.776 48.3959H20.49V47.2359H20.492Z" fill="#EB2227"/>
<path d="M25.028 51.0218C24.756 50.8898 24.55 50.6998 24.406 50.4518C24.264 50.2038 24.192 49.9038 24.192 49.5518V45.6518C24.192 45.3018 24.264 44.9998 24.406 44.7498C24.548 44.4998 24.756 44.3098 25.028 44.1798C25.3 44.0498 25.626 43.9858 26.006 43.9858C26.386 43.9858 26.712 44.0518 26.984 44.1798C27.256 44.3098 27.462 44.4998 27.606 44.7498C27.748 44.9998 27.82 45.2998 27.82 45.6518V49.5518C27.82 49.9018 27.748 50.2018 27.606 50.4518C27.462 50.6998 27.256 50.8898 26.984 51.0218C26.712 51.1538 26.386 51.2198 26.006 51.2198C25.626 51.2198 25.3 51.1538 25.028 51.0218ZM26.324 49.9378C26.414 49.8898 26.48 49.8198 26.526 49.7278C26.572 49.6378 26.594 49.5258 26.594 49.3958V45.7978C26.594 45.6718 26.572 45.5618 26.526 45.4718C26.48 45.3818 26.414 45.3118 26.324 45.2618C26.234 45.2138 26.128 45.1878 26.004 45.1878C25.88 45.1878 25.774 45.2118 25.688 45.2618C25.6 45.3098 25.534 45.3798 25.488 45.4718C25.442 45.5638 25.42 45.6718 25.42 45.7978V49.3958C25.42 49.5258 25.442 49.6358 25.488 49.7278C25.534 49.8198 25.6 49.8878 25.688 49.9378C25.776 49.9858 25.882 50.0118 26.004 50.0118C26.126 50.0118 26.234 49.9878 26.324 49.9378Z" fill="#EB2227"/>
<path d="M30.5 44.0579H31.436L32.202 48.9759L32.558 44.0579H33.786L32.88 51.1459H31.72L30.998 46.5639L30.222 51.1459H29.062L28.15 44.0579H29.378L29.734 48.9759L30.5 44.0579Z" fill="#EB2227"/>
<path d="M34.216 44.0579H35.426V51.1459H34.216V44.0579ZM34.752 44.0579H37.364V45.2379H34.752V44.0579ZM34.752 47.0359H37.122V48.2099H34.752V47.0359ZM34.752 49.9659H37.364V51.1459H34.752V49.9659Z" fill="#EB2227"/>
<path d="M37.988 44.0518H39.172V51.1458H37.988V44.0518ZM38.53 46.9858H39.808C39.912 46.9858 40.002 46.9678 40.078 46.9298C40.154 46.8918 40.212 46.8398 40.252 46.7698C40.292 46.6998 40.31 46.6158 40.31 46.5178V45.7278C40.31 45.6198 40.29 45.5278 40.252 45.4498C40.214 45.3718 40.156 45.3118 40.078 45.2718C40.002 45.2318 39.912 45.2118 39.808 45.2118H38.53V44.0518H39.734C40.118 44.0518 40.444 44.1138 40.716 44.2398C40.988 44.3658 41.194 44.5478 41.338 44.7898C41.48 45.0318 41.552 45.3218 41.552 45.6598V46.4878C41.552 46.8358 41.48 47.1338 41.338 47.3818C41.194 47.6298 40.986 47.8198 40.714 47.9498C40.44 48.0798 40.114 48.1458 39.734 48.1458H38.53V46.9858ZM39.514 47.9258L40.62 47.7018L41.752 51.1438H40.456L39.516 47.9258H39.514Z" fill="#EB2227"/>
<mask id="mask0_3084_21500" style="mask-type:luminance" maskUnits="userSpaceOnUse" x="8" y="6" width="45" height="37">
<path d="M52.84 6.53589H8.84V42.7399H52.84V6.53589Z" fill="white"/>
</mask>
<g mask="url(#mask0_3084_21500)">
<path d="M36.84 6.64989L36.5 6.76189C31.736 8.30389 30.17 10.5259 29.536 15.3519L29.51 15.6839L29.486 16.0259L29.468 16.3819C29.368 19.4159 30.064 21.1219 30.864 23.8759L30.928 24.1539L30.99 24.4479C31.49 26.9579 31.404 29.7959 29.83 31.9319L29.554 32.2859L29.248 32.6259L28.912 32.9539L28.668 32.5259L28.488 32.0719C27.794 29.9299 28.824 27.0059 29.092 24.8099L29.17 24.1979L29.22 23.5899C29.458 20.2359 28.12 18.0359 25.192 16.4059L24.322 15.9619L23.344 15.5439L23.564 15.9379L23.75 16.3099C25.604 19.9259 23.086 21.1699 23.486 24.8099L23.534 25.2999L23.604 25.7719C24.236 29.7719 27.35 32.0319 28.63 35.6259L28.76 36.0259L28.87 36.4359L29.022 35.9359L29.194 35.4579L29.386 34.9999C31.504 30.4859 35.876 28.7379 36.932 23.2799L37.044 22.6139L37.11 21.9639C37.82 17.0579 32.29 12.0219 36.214 7.5559L36.666 7.04989L37.188 6.53589L36.836 6.64989H36.84Z" fill="#EB2227"/>
<path d="M8.84 35.3678V42.6218H10.116V39.7438H10.934C11.896 39.6858 12.148 38.7478 12.18 37.9458V37.8198C12.16 36.2818 12.106 35.3818 10.338 35.3658H8.84V35.3678ZM10.116 36.6558H10.262L10.352 36.6618L10.432 36.6658C10.84 36.6818 10.85 36.9298 10.892 37.2658L10.902 37.3958L10.906 37.5358C10.878 37.8498 10.958 38.4278 10.498 38.4498L10.432 38.4538H10.116V36.6558ZM12.692 35.3678V42.6218H15.594V41.2218H13.972V39.6038H15.336V38.2078H13.972V36.7678H15.532V35.3678H12.692ZM15.958 35.3678V36.7678H16.78V42.6218H18.056V36.7678H18.882V35.3678H15.96H15.958ZM19.244 35.3678V42.6218H20.52V39.4938H20.756C21.704 39.3458 20.984 41.7438 21.372 42.5938L21.39 42.6218H22.652L22.624 42.5738C22.236 41.5278 23.074 39.2118 21.82 38.8098L21.774 38.8018L21.836 38.7738L21.89 38.7478C22.662 38.3878 22.552 37.3718 22.52 36.6698L22.508 36.5718L22.494 36.4738C22.346 35.6478 21.818 35.3998 21.036 35.3678H19.248H19.244ZM20.52 36.5998H20.85L20.924 36.6158C21.254 36.6758 21.242 36.9158 21.264 37.2038L21.268 37.2978V37.3998C21.262 37.7578 21.312 38.2118 20.864 38.2538H20.518V36.5998H20.52ZM23.104 37.2198L23.1 37.3458V40.6418L23.104 40.7598L23.108 40.8778L23.116 40.9918L23.128 41.1018C23.252 42.0378 23.83 42.7918 24.842 42.7338L24.932 42.7258L25.02 42.7178C26.02 42.5558 26.406 41.5478 26.394 40.6398V37.3438L26.39 37.2178L26.384 37.0958C26.346 35.8478 25.548 35.2358 24.748 35.2358C23.948 35.2358 23.076 35.9058 23.104 37.2198ZM24.38 40.8658V37.1418L24.384 37.0858V37.0278L24.392 36.9738C24.396 36.6998 24.56 36.4698 24.856 36.5538L24.878 36.5618L24.904 36.5758C25.124 36.6818 25.102 36.9998 25.112 37.2038V40.8378L25.106 40.8918C25.12 41.2638 24.928 41.4578 24.736 41.4578C24.544 41.4578 24.356 41.2658 24.378 40.8678M31.626 42.5618H32.908V35.3278H31.626V42.5618ZM33.418 35.3278V42.5618H36.314V41.1638H34.698V39.5558H36.064V38.1598H34.698V36.7218H36.256V35.3278H33.42H33.418ZM36.678 35.3278V36.7218H37.5V42.5618H38.774V36.7218H39.6V35.3278H36.678ZM42.396 35.3278L42.382 39.5938L41.354 35.3278H39.962V42.5618H41.196L41.212 38.0898L42.244 42.5618H43.628V35.3278H42.396ZM44.99 35.3278L43.962 42.5618H45.238L45.368 41.2798H46.264L46.378 42.5618H47.716L46.68 35.3278H44.99ZM45.842 36.4498L46.138 39.9878H45.502L45.842 36.4498ZM50.832 35.3278L50.458 38.9118L50.094 35.3278H48.084V42.5618H49.318L49.33 36.9358L50.05 42.5618H50.878L51.608 36.9358V42.5618H52.838V35.3278H50.83H50.832Z" fill="#23699B"/>
<path d="M28.902 40.1559L28.012 35.3259H26.602L28.158 42.6619H29.476L31.248 35.3259H29.766L28.902 40.1559Z" fill="#23699B"/>
</g>
</g>
<defs>
<clipPath id="clip0_3084_21500">
<path d="M0 30C0 13.4315 13.4315 0 30 0C46.5685 0 60 13.4315 60 30C60 46.5685 46.5685 60 30 60C13.4315 60 0 46.5685 0 30Z" fill="white"/>
</clipPath>
</defs>
</svg>
