<svg width="60" height="60" viewBox="0 0 60 60" fill="none" xmlns="http://www.w3.org/2000/svg">
<g clip-path="url(#clip0_3084_22185)">
<path d="M0 30C0 13.4315 13.4315 0 30 0C46.5685 0 60 13.4315 60 30C60 46.5685 46.5685 60 30 60C13.4315 60 0 46.5685 0 30Z" fill="#1D1D1D"/>
<circle cx="30" cy="30" r="30" fill="#1D1D1D"/>
<path fillRule="evenodd" clipRule="evenodd" d="M22.9765 11.4658C20.0844 12.0536 19.0249 13.3639 19.1279 15.2508C19.272 17.9014 22.1884 22.9574 23.583 25.2093C26.0165 29.1497 28.8973 32.7025 32.102 35.9727C34.6983 38.5372 36.3213 39.0913 39.0954 35.3063C41.4615 32.1877 43.6479 29.0841 45.5235 25.2187C46.3472 23.519 47.1053 21.6658 47.7866 19.5861C48.5167 17.1583 48.2509 15.0093 45.8773 13.4276C48.176 14.5413 49.1662 16.6023 49.3141 18.8711C49.4545 21.0631 48.7975 23.4535 48.2958 25.2112C47.0472 29.5914 45.4524 34.0072 43.4307 37.9756C41.9033 40.9725 39.9565 44.5816 38.0172 47.249C33.7212 53.1605 29.5974 51.2493 24.766 47.249C21.7036 44.7145 18.7572 41.5004 16.2302 37.9944C13.6788 34.4546 10.8578 29.217 9.19371 25.1924C6.91374 19.6778 8.68644 16.855 11.5018 15.0655C14.596 13.0981 19.229 11.9843 22.9784 11.4658H22.9765Z" fill="url(#paint0_linear_3084_22185)"/>
<path fillRule="evenodd" clipRule="evenodd" d="M22.8774 24.0414C27.3513 23.3731 38.9795 22.6487 43.0602 24.7639C44.4249 25.4715 44.4623 26.428 44.3275 27.5119C44.7375 26.7762 45.1362 26.0125 45.5218 25.2188C46.3454 23.5191 47.1035 21.6659 47.7849 19.5863C48.515 17.1584 48.2491 15.0095 45.8756 13.4277L45.8643 13.4221C44.9808 12.9597 43.9625 12.6228 43.0509 12.3589C40.3591 11.5802 37.3772 11.2619 34.3803 11.0448C33.1411 10.9549 31.8457 10.9643 30.5335 10.968C28.1655 10.9755 25.5636 11.1197 22.9748 11.4678C20.0846 12.0556 19.0251 13.3659 19.128 15.2528C19.2516 17.5103 21.3874 21.5143 22.8774 24.0432V24.0414Z" fill="url(#paint1_linear_3084_22185)"/>
</g>
<defs>
<linearGradient id="paint0_linear_3084_22185" x1="44.3124" y1="36.6578" x2="11.4718" y2="13.6634" gradientUnits="userSpaceOnUse">
<stop stop-color="#006840"/>
<stop offset="0.4" stop-color="#007A48"/>
<stop offset="1" stop-color="#86C440"/>
</linearGradient>
<linearGradient id="paint1_linear_3084_22185" x1="23.7142" y1="11.2675" x2="43.1482" y2="24.8744" gradientUnits="userSpaceOnUse">
<stop stop-color="#006840"/>
<stop offset="0.3" stop-color="#007A48"/>
<stop offset="1" stop-color="#86C440"/>
</linearGradient>
<clipPath id="clip0_3084_22185">
<path d="M0 30C0 13.4315 13.4315 0 30 0C46.5685 0 60 13.4315 60 30C60 46.5685 46.5685 60 30 60C13.4315 60 0 46.5685 0 30Z" fill="white"/>
</clipPath>
</defs>
</svg>
