<svg width="16" height="16" viewBox="0 0 16 16" fill="none" xmlns="http://www.w3.org/2000/svg">
<g clip-path="url(#clip0_1630_16076)">
<path d="M12.5145 9.43982C12.4874 8.94084 12.0704 8.52197 11.499 8.36912C11.365 8.33128 11.2552 8.30506 11.1817 8.28789C11.1174 8.27313 11.0587 8.26094 11.0035 8.25042C10.7298 8.19781 10.4356 8.17972 10.1718 8.08723C10.031 8.03794 9.89013 7.95524 9.83049 7.81272C9.74945 7.61852 9.81622 7.39681 9.99495 7.28623C10.29 7.10366 10.7461 7.12526 11.0545 7.26353C11.156 7.30894 11.2385 7.36598 11.3101 7.43798C11.3525 7.48265 11.39 7.53766 11.4195 7.59637C11.4473 7.65175 11.4683 7.71045 11.4793 7.76768L11.4943 7.7638L11.5393 7.74867L12.3658 7.46807L12.3921 7.4605L12.4146 7.45293C12.362 7.21405 12.2493 7.00933 12.0841 6.83488C11.945 6.69089 11.776 6.57698 11.5731 6.48598C11.5318 6.46696 11.4904 6.45182 11.4454 6.43669C11.1899 6.34198 10.8893 6.29639 10.5474 6.29639C10.1717 6.29639 9.85226 6.35324 9.58554 6.46327C9.50285 6.49742 9.42401 6.53526 9.35266 6.57698C9.20997 6.66412 9.09344 6.76657 9.00326 6.88029C8.96374 6.93493 8.93008 6.99401 8.90228 7.05659C8.90008 7.06083 8.89807 7.06526 8.89624 7.06951C8.84136 7.18858 8.81136 7.31743 8.81136 7.45238C8.81136 7.46031 8.81136 7.46788 8.81172 7.47545C8.81172 7.48044 8.81209 7.48487 8.81209 7.48985C8.81209 8.1199 9.44395 8.42229 9.96641 8.53729C10.0089 8.54671 10.0513 8.55539 10.0939 8.56388C10.2529 8.59526 10.413 8.6211 10.5736 8.64215C10.9032 8.68553 11.4153 8.72301 11.5003 9.1356C11.5073 9.16956 11.5106 9.20445 11.5106 9.23916C11.5106 9.40641 11.4207 9.55612 11.2784 9.65729C11.2731 9.66153 11.2678 9.66522 11.2627 9.66873C11.2007 9.71304 11.1301 9.74608 11.0587 9.76916C10.9122 9.81457 10.7432 9.82989 10.5891 9.82232C10.4276 9.81475 10.2736 9.7806 10.1382 9.72374C10.0705 9.69347 10.0067 9.65932 9.95031 9.62129C9.89397 9.58326 9.71744 9.45441 9.63475 9.2231C9.62725 9.20408 9.62341 9.18525 9.61975 9.17381C9.61225 9.17769 9.60475 9.17769 9.60091 9.18138C9.59414 9.18359 9.58591 9.18747 9.57804 9.19079C9.57274 9.19301 9.56798 9.19504 9.56341 9.19651C9.5409 9.20796 9.51456 9.21553 9.49206 9.22679L8.69922 9.56425C8.73672 9.73482 8.80441 9.89026 8.90594 10.0306C9.00746 10.1709 9.13881 10.2921 9.30053 10.3946C9.39437 10.4515 9.49974 10.5046 9.61609 10.5463C9.69878 10.5766 9.78896 10.6032 9.88281 10.6259C10.1082 10.6791 10.3599 10.7055 10.638 10.7055C10.8322 10.7055 11.0113 10.6933 11.1756 10.6691C11.1767 10.6691 11.1774 10.6687 11.1782 10.6687C11.93 10.6073 12.5165 10.1035 12.5165 9.49114C12.5165 9.47379 12.5162 9.45662 12.5151 9.43927L12.5145 9.43982Z" fill="#014227"/>
<path d="M8.50668 8.49736C8.50211 8.05376 8.43442 7.66627 8.29265 7.33491C8.15362 7.00133 7.95074 6.74344 7.68768 6.56142C7.5492 6.46561 7.39517 6.39509 7.2265 6.34986C7.07485 6.30888 6.91149 6.28857 6.73715 6.28857C6.48927 6.28857 6.26755 6.33786 6.07968 6.43257C5.88815 6.52745 5.73411 6.67144 5.61758 6.86472C5.5016 7.04767 5.41709 7.27621 5.36422 7.54407C5.36221 7.55385 5.36019 7.56382 5.35837 7.57379L5.2433 7.56733V6.40229H4.27246V11.9999H5.2433V9.45047H5.36422C5.41709 9.71833 5.5016 9.94687 5.61758 10.1298C5.73411 10.3231 5.88815 10.4671 6.07968 10.562C6.26755 10.6567 6.48927 10.706 6.73715 10.706C6.91149 10.706 7.07485 10.6857 7.2265 10.6447C7.4259 10.5982 7.60115 10.5156 7.75153 10.3984C7.99959 10.2051 8.18746 9.94336 8.31515 9.61735C8.44302 9.29134 8.50687 8.91973 8.50687 8.50641C8.50687 8.50345 8.50687 8.50031 8.50668 8.49736ZM7.20309 9.17375C7.1279 9.36722 7.02655 9.51508 6.89502 9.62123C6.76349 9.7235 6.60196 9.77667 6.41024 9.77667C6.3464 9.77667 6.2853 9.77002 6.22658 9.75728C6.19566 9.75045 6.16548 9.74196 6.13584 9.73199C6.10913 9.72276 6.08297 9.71242 6.05718 9.70079C5.94815 9.6515 5.8543 9.5832 5.77527 9.49976C5.69643 9.4165 5.62874 9.32549 5.5724 9.21935C5.51606 9.11689 5.47471 9.01074 5.44855 8.90072C5.44544 8.88761 5.44233 8.87451 5.43959 8.86158C5.43758 8.85199 5.43556 8.8422 5.43373 8.8326C5.41654 8.74805 5.40721 8.66701 5.40721 8.58616V8.43441C5.40721 8.3458 5.41599 8.25534 5.43373 8.16194C5.43538 8.15234 5.43739 8.14274 5.43959 8.13295C5.44654 8.09991 5.45441 8.0665 5.46355 8.03253C5.50106 7.89223 5.5574 7.7595 5.64009 7.63821C5.71893 7.51693 5.82046 7.41835 5.94449 7.34248C6.00266 7.30685 6.06651 7.28045 6.13584 7.26254C6.21432 7.24224 6.29975 7.23264 6.39158 7.23264C6.57562 7.23264 6.73715 7.28562 6.87618 7.38808C7.01521 7.49035 7.1204 7.63821 7.19559 7.83168C7.26876 8.01628 7.30992 8.24058 7.31193 8.49736C7.31211 8.50419 7.31212 8.51102 7.31212 8.51785C7.31577 8.76042 7.27827 8.98047 7.20309 9.17375Z" fill="#014227"/>
<path d="M3.80323 6.40588V10.5877H2.83239V9.43726H2.72446C2.58982 10.0051 2.35511 10.3802 2.02089 10.5639C1.92411 10.6174 1.81893 10.6547 1.70551 10.6759C1.63014 10.69 1.55111 10.697 1.46806 10.697C1.3486 10.697 1.23628 10.6848 1.13127 10.6601C1.13054 10.6601 1.12999 10.6601 1.12926 10.6597C0.810404 10.5971 0.557587 10.4415 0.371908 10.1947C0.12403 9.86111 0 9.35677 0 8.67817V6.39941H1.14957V8.53399C1.14957 9.02227 1.2328 9.69589 1.8471 9.71416C2.13431 9.72265 2.40267 9.53971 2.53658 9.29031C2.73818 8.91501 2.79891 8.47621 2.79836 8.05476C2.798 7.76493 2.79763 7.47529 2.79745 7.18583C2.79745 6.93366 2.79745 6.65804 2.79745 6.40588H3.80323Z" fill="#014227"/>
<path d="M15.9997 5V7.74791H15.2115V6.31498H15.0597C15.047 6.36854 15.0274 6.44595 15.001 6.53858C14.9511 6.71283 14.9251 6.80473 14.8816 6.9058C14.7894 7.12352 14.6663 7.26935 14.6139 7.33153C14.5231 7.43902 14.4209 7.52358 14.3072 7.58557C14.251 7.61602 14.1911 7.64225 14.128 7.66298C14.0188 7.70627 13.9031 7.73525 13.7834 7.74791C13.7374 7.75231 13.6907 7.75506 13.6428 7.75506C13.595 7.75506 13.5486 7.75231 13.5027 7.74791C13.4238 7.73947 13.3474 7.72461 13.2743 7.70333C13.2726 7.70297 13.2712 7.7026 13.2695 7.70205V6.68495C13.2712 6.68624 13.2726 6.68734 13.2743 6.68844C13.7005 7.01053 14.3101 6.91662 14.6397 6.50116C14.7305 6.3867 14.8003 6.25665 14.8529 6.12092C14.8618 6.09799 14.9137 5.91071 14.9426 5.79534H13.2743V5H15.9997Z" fill="#02E56A"/>
</g>
<defs>
<clipPath id="clip0_1630_16076">
<rect width="16" height="7" fill="white" transform="translate(0 5)"/>
</clipPath>
</defs>
</svg>
