<svg xmlns="http://www.w3.org/2000/svg" width="44" height="44" viewBox="0 0 44 44" fill="none">
  <path d="M22.2934 19.9283C22.1101 19.91 21.8901 19.91 21.6884 19.9283C17.3251 19.7817 13.8601 16.2067 13.8601 11.8067C13.8601 7.315 17.4901 3.66666 22.0001 3.66666C26.4918 3.66666 30.1401 7.315 30.1401 11.8067C30.1218 16.2067 26.6568 19.7817 22.2934 19.9283Z" stroke="white" stroke-width="2.75" stroke-linecap="round" stroke-linejoin="round"/>
  <path d="M13.1266 26.6933C8.68991 29.6633 8.68991 34.5033 13.1266 37.455C18.1682 40.8283 26.4366 40.8283 31.4782 37.455C35.9149 34.485 35.9149 29.645 31.4782 26.6933C26.4549 23.3383 18.1866 23.3383 13.1266 26.6933Z" stroke="white" stroke-width="2.75" stroke-linecap="round" stroke-linejoin="round"/>
</svg>