<svg xmlns="http://www.w3.org/2000/svg" width="44" height="44" viewBox="0 0 44 44" fill="none">
  <path d="M36.6667 22.3666V25.4834C36.6667 31.2584 33.3667 33.7334 28.4167 33.7334H11.9167C6.96675 33.7334 3.66675 31.2584 3.66675 25.4834V15.5833C3.66675 9.80834 6.96675 7.33334 11.9167 7.33334H16.8667C16.6284 8.03001 16.5001 8.80001 16.5001 9.62501V16.7751C16.5001 18.5534 17.0867 20.0567 18.1317 21.1017C19.1767 22.1467 20.6801 22.7334 22.4584 22.7334V25.2817C22.4584 26.2167 23.5217 26.7849 24.3101 26.2716L29.6084 22.7334H34.3751C35.2001 22.7334 35.9701 22.6049 36.6667 22.3666Z" stroke="white" stroke-width="2.75" stroke-miterlimit="10" stroke-linecap="round" stroke-linejoin="round"/>
  <path d="M40.3333 9.62499V16.775C40.3333 19.5067 38.94 21.5599 36.6667 22.3666C35.97 22.6049 35.2 22.7334 34.375 22.7334H29.6083L24.31 26.2716C23.5217 26.7849 22.4583 26.2167 22.4583 25.2817V22.7334C20.68 22.7334 19.1767 22.1467 18.1317 21.1017C17.0867 20.0567 16.5 18.5534 16.5 16.775V9.62499C16.5 8.79999 16.6283 8.02999 16.8667 7.33332C17.6733 5.05999 19.7267 3.66666 22.4583 3.66666H34.375C37.95 3.66666 40.3333 6.04999 40.3333 9.62499Z" stroke="white" stroke-width="2.75" stroke-miterlimit="10" stroke-linecap="round" stroke-linejoin="round"/>
  <path d="M13.5664 40.3333H26.7664" stroke="white" stroke-width="2.75" stroke-miterlimit="10" stroke-linecap="round" stroke-linejoin="round"/>
  <path d="M20.1667 33.7332V40.3331" stroke="white" stroke-width="2.75" stroke-miterlimit="10" stroke-linecap="round" stroke-linejoin="round"/>
  <path d="M33.9084 13.2917H33.9249" stroke="white" stroke-width="2.75" stroke-linecap="round" stroke-linejoin="round"/>
  <path d="M28.7754 13.2917H28.7919" stroke="white" stroke-width="2.75" stroke-linecap="round" stroke-linejoin="round"/>
  <path d="M23.6416 13.2917H23.6581" stroke="white" stroke-width="2.75" stroke-linecap="round" stroke-linejoin="round"/>
</svg>