<svg xmlns="http://www.w3.org/2000/svg" width="44" height="44" viewBox="0 0 44 44" fill="none">
  <path d="M31.6987 7.58999L31.5704 14.5383C31.552 15.4916 32.1571 16.7567 32.9271 17.325L37.4737 20.7716C40.3887 22.9716 39.9121 25.6666 36.4287 26.7666L30.5071 28.6183C29.5171 28.9299 28.4721 30.0117 28.2154 31.02L26.8037 36.4099C25.6854 40.6633 22.8987 41.085 20.5887 37.345L17.362 32.1199C16.7754 31.1666 15.382 30.4517 14.282 30.5067L8.15876 30.8183C3.77709 31.0383 2.53041 28.5083 5.39041 25.1717L9.02037 20.955C9.69871 20.1666 10.0104 18.7 9.6987 17.71L7.84713 11.7883C6.76546 8.30495 8.70876 6.37998 12.1738 7.51664L17.5821 9.29498C18.4988 9.58831 19.8738 9.38663 20.6438 8.8183L26.2905 4.74829C29.3338 2.54829 31.772 3.83166 31.6987 7.58999Z" stroke="white" stroke-width="2.75" stroke-linecap="round" stroke-linejoin="round"/>
  <path d="M40.1687 40.333L34.6138 34.778" stroke="white" stroke-width="2.75" stroke-linecap="round" stroke-linejoin="round"/>
</svg>