<svg width="64" height="64" viewBox="0 0 64 64" fill="none" xmlns="http://www.w3.org/2000/svg">
<path d="M64 0V63.8338H45.5224V30.547H41.9659C41.6674 31.7912 41.2068 33.5894 40.5885 35.7411C39.4201 39.7891 38.8103 41.9238 37.7911 44.2716C35.629 49.3294 32.742 52.7169 31.5139 54.1614C29.3859 56.6583 26.9894 58.6226 24.3241 60.0629C23.0064 60.7702 21.6034 61.3795 20.1237 61.861C17.565 62.8666 14.8529 63.5398 12.0469 63.8338C10.968 63.9361 9.87208 64 8.75054 64C7.62901 64 6.54158 63.9361 5.46695 63.8338C3.61621 63.6378 1.82516 63.2927 0.110878 62.7984C0.0724988 62.7899 0.0383795 62.7814 0 62.7686V39.1414C0.0383795 39.1712 0.0724988 39.1968 0.110878 39.2224C10.1023 46.7047 24.3923 44.523 32.1194 34.8719C34.2473 32.2131 35.8849 29.192 37.1173 26.0389C37.3262 25.5063 38.5416 21.1558 39.2196 18.4756H0.110878V0H64Z" fill="#02E56A"/>
</svg>
