<?xml version="1.0" encoding="UTF-8"?>
<svg id="Layer_1" data-name="Layer 1" xmlns="http://www.w3.org/2000/svg" viewBox="0 0 1000 1000">
  <defs>
    <style>
      .cls-1 {
        fill: #02e56a;
      }

      .cls-2 {
        fill: #014227;
      }
    </style>
  </defs>
  <g>
    <path class="cls-2" d="M746.8,550.95c-1.5-27-24.3-49.7-55.5-58-7.3-2.1-13.3-3.5-17.4-4.4-3.5-.8-6.7-1.5-9.7-2-15-2.9-31-3.8-45.5-8.8-7.7-2.7-15.4-7.1-18.7-14.9-4.4-10.5-.8-22.5,9-28.5,16.1-9.9,41.1-8.7,57.9-1.2,5.5,2.5,10.1,5.5,14,9.4,2.3,2.4,4.4,5.4,6,8.6,1.5,3,2.7,6.2,3.3,9.3l.8-.2,2.5-.8,45.2-15.2,1.4-.4,1.2-.4c-2.9-12.9-9-24-18.1-33.5-7.6-7.8-16.8-14-27.9-18.9-2.3-1-4.5-1.8-7-2.7-14-5.1-30.4-7.6-49.1-7.6-20.5,0-38,3.1-52.6,9-4.5,1.8-8.8,3.9-12.7,6.2-7.8,4.7-14.2,10.3-19.1,16.4-2.2,3-4,6.2-5.5,9.6-.1,.2-.2,.5-.3,.7-3,6.4-4.6,13.4-4.6,20.7v2.1c0,34.1,34.5,50.5,63.1,56.7,2.3,.5,4.6,1,7,1.4,8.7,1.7,17.4,3.1,26.2,4.2,18,2.3,46,4.4,50.7,26.7,.4,1.8,.6,3.7,.6,5.6,0,9.1-4.9,17.2-12.7,22.7-.3,.2-.6,.4-.9,.6-3.4,2.4-7.2,4.2-11.2,5.4-8,2.5-17.3,3.3-25.7,2.9-8.8-.4-17.3-2.3-24.6-5.3-3.7-1.6-7.2-3.5-10.3-5.5-3.1-2.1-12.7-9-17.3-21.6-.4-1-.6-2.1-.8-2.7-.4,.2-.8,.2-1,.4-.4,.1-.8,.3-1.3,.5-.3,.1-.6,.2-.8,.3-1.2,.6-2.7,1-3.9,1.6l-43.3,18.3c2.1,9.2,5.8,17.7,11.3,25.3s12.7,14.2,21.6,19.7c5.1,3.1,10.9,6,17.3,8.2,4.5,1.6,9.4,3.1,14.6,4.3,12.3,2.9,26.1,4.3,41.3,4.3,10.6,0,20.4-.7,29.4-2h.1c41.1-3.3,73.2-30.6,73.2-63.8-.1-.9-.1-1.8-.2-2.7Z"/>
    <path class="cls-2" d="M527.7,499.85c-.2-24-4-45-11.7-63-7.6-18.1-18.7-32-33.1-41.9-7.6-5.2-16-9-25.2-11.5-8.3-2.2-17.2-3.3-26.8-3.3-13.5,0-25.7,2.7-35.9,7.8-10.5,5.1-18.9,12.9-25.3,23.4-6.3,9.9-11,22.3-13.8,36.8-.1,.5-.2,1.1-.3,1.6l-6.3-.3v-63.1h-53.1v303.2h53.1v-138.1h6.6c2.9,14.5,7.5,26.9,13.8,36.8,6.4,10.5,14.8,18.3,25.3,23.4,10.3,5.1,22.4,7.8,35.9,7.8,9.5,0,18.5-1.1,26.8-3.3,10.9-2.5,20.5-7,28.7-13.3,13.6-10.5,23.8-24.6,30.8-42.3s10.5-37.8,10.5-60.2v-.5Zm-71.3,36.7c-4.1,10.5-9.7,18.5-16.8,24.2-7.2,5.5-16,8.4-26.5,8.4-3.5,0-6.8-.4-10-1.1-1.7-.4-3.3-.8-5-1.4-1.5-.5-2.9-1.1-4.3-1.7-6-2.7-11.1-6.4-15.4-10.9s-8-9.4-11.1-15.2c-3.1-5.6-5.3-11.3-6.8-17.3-.2-.7-.3-1.4-.5-2.1-.1-.5-.2-1-.3-1.6-.9-4.6-1.5-9-1.5-13.4v-8.2c0-4.8,.5-9.7,1.5-14.8,.1-.5,.2-1,.3-1.6,.4-1.8,.8-3.6,1.3-5.4,2.1-7.6,5.1-14.8,9.6-21.4,4.3-6.6,9.9-11.9,16.6-16,3.2-1.9,6.7-3.4,10.5-4.3,4.3-1.1,9-1.6,14-1.6,10.1,0,18.9,2.9,26.5,8.4s13.4,13.5,17.5,24c4,10,6.2,22.1,6.4,36.1v1.1c.2,13.4-1.9,25.3-6,35.8Z"/>
    <path class="cls-2" d="M270.6,386.55v226.5h-53.1v-62.3h-5.9c-7.4,30.8-20.2,51.1-38.5,61-5.3,2.9-11,4.9-17.2,6.1-4.1,.8-8.4,1.1-13,1.1-6.5,0-12.7-.7-18.4-2h-.1c-17.4-3.4-31.2-11.8-41.4-25.2-13.5-18.1-20.3-45.4-20.3-82.1v-123.4h62.8v115.6c0,26.4,4.5,62.9,38.1,63.9,15.7,.5,30.4-9.5,37.7-23,11-20.3,14.3-44.1,14.3-66.9v-89.3h55Z"/>
  </g>
  <path class="cls-1" d="M937.3,310.45v149.8h-43.3v-78.1h-8.3c-.7,2.9-1.8,7.1-3.2,12.2-2.7,9.5-4.2,14.5-6.6,20-5.1,11.9-11.8,19.8-14.7,23.2-5,5.9-10.6,10.5-16.9,13.8-3.1,1.7-6.4,3.1-9.9,4.2-6,2.4-12.4,3.9-18.9,4.6-2.5,.2-5.1,.4-7.7,.4s-5.2-.1-7.7-.4c-4.3-.5-8.5-1.3-12.6-2.4-.1,0-.2,0-.3-.1v-55.4c.1,.1,.2,.1,.3,.2,23.4,17.6,56.9,12.4,75.1-10.2,5-6.2,8.8-13.3,11.7-20.7,.5-1.2,3.3-11.5,4.9-17.7h-91.7v-43.4h149.8Z"/>
</svg>