<?xml version="1.0" encoding="UTF-8"?>
<svg id="Layer_1" data-name="Layer 1" xmlns="http://www.w3.org/2000/svg" viewBox="0 0 1000 1000">
  <defs>
    <style>
      .cls-1 {
        fill: #02e56a;
      }

      .cls-2 {
        fill: #014227;
      }
    </style>
  </defs>
  <g>
    <path class="cls-2" d="M453.09,499.55c-2.37-1.99-5.77-3-10.11-3h-11.8v41.29h4.63v-17.75h7.17c4.34,0,7.74-1.03,10.11-3.06,2.39-2.05,3.6-4.99,3.6-8.74s-1.21-6.73-3.61-8.74Zm-17.28,1.28h6.76c3.06,0,5.43,.64,7.04,1.91,1.61,1.26,2.39,3.07,2.39,5.55s-.8,4.4-2.44,5.66c-1.65,1.27-4.01,1.91-6.99,1.91h-6.76v-15.03Z"/>
    <path class="cls-2" d="M478.3,509.13c-.77-.4-1.58-.7-2.4-.88-.82-.18-1.64-.27-2.44-.27-1.33,0-2.74,.33-4.18,1-1.44,.66-2.72,1.62-3.8,2.86-.12,.14-.23,.28-.34,.42v-3.88h-4.58v29.46h4.58v-14.41c0-1.49,.05-2.66,.14-3.49,.09-.83,.22-1.53,.36-2.08,.36-1.31,.94-2.37,1.72-3.15,.78-.78,1.66-1.37,2.6-1.73,.95-.37,1.92-.55,2.86-.55,.54,0,1.11,.07,1.69,.22,.59,.15,1.13,.33,1.61,.55l.37,.17,2.2-4.05-.39-.2Z"/>
    <path class="cls-2" d="M499.67,509.92c-2.09-1.29-4.54-1.95-7.27-1.95s-5.2,.66-7.33,1.95c-2.13,1.29-3.8,3.1-4.97,5.36-1.17,2.26-1.76,4.88-1.76,7.8s.6,5.55,1.79,7.83c1.19,2.29,2.87,4.1,5,5.39,2.13,1.29,4.57,1.95,7.27,1.95s5.14-.66,7.24-1.95c2.11-1.29,3.79-3.1,5-5.39,1.21-2.28,1.82-4.91,1.82-7.83s-.61-5.54-1.82-7.8c-1.21-2.26-2.88-4.06-4.97-5.36Zm-2.26,22.83c-1.41,.92-3.1,1.38-5.01,1.38s-3.62-.46-5.04-1.38c-1.43-.92-2.56-2.21-3.35-3.86-.8-1.65-1.2-3.61-1.2-5.82s.4-4.21,1.2-5.84c.79-1.62,1.92-2.91,3.35-3.83,1.43-.92,3.13-1.38,5.04-1.38s3.61,.46,5.02,1.35c1.41,.9,2.52,2.19,3.29,3.82,.78,1.66,1.18,3.63,1.18,5.88s-.4,4.16-1.18,5.82c-.77,1.64-1.88,2.94-3.3,3.85Z"/>
    <path class="cls-2" d="M528.87,522.62c-1.05-.61-2.21-1.12-3.45-1.52-1.23-.39-2.48-.72-3.72-1-1.33-.3-2.5-.65-3.48-1.03-.94-.36-1.66-.82-2.15-1.37-.47-.52-.7-1.19-.7-2.06,0-1.17,.5-2.08,1.52-2.77,1.06-.72,2.43-1.09,4.08-1.09,1.55,0,2.97,.33,4.24,.97,1.25,.63,2.27,1.67,3.03,3.1l.24,.44,3.08-2.25-.17-.33c-1-1.93-2.44-3.39-4.27-4.33-1.82-.94-3.84-1.41-6.03-1.41-2.91,0-5.31,.73-7.14,2.18-1.86,1.47-2.8,3.42-2.8,5.79,0,1.39,.27,2.57,.81,3.52,.53,.95,1.27,1.73,2.2,2.33,.9,.58,1.91,1.06,3.02,1.44,1.09,.37,2.19,.69,3.29,.97,1.37,.31,2.65,.67,3.8,1.09,1.12,.4,2.04,.95,2.75,1.62,.67,.64,1,1.53,1,2.73,0,1.45-.55,2.56-1.68,3.39-1.16,.85-2.73,1.28-4.67,1.28-2.07,0-3.87-.49-5.36-1.47-1.49-.97-2.6-2.25-3.29-3.79l-.23-.51-3.32,2.66,.16,.31c.64,1.24,1.54,2.38,2.68,3.4,1.14,1.02,2.51,1.84,4.08,2.43,1.57,.6,3.35,.9,5.29,.9,2.14,0,4.03-.36,5.63-1.08,1.62-.73,2.89-1.79,3.78-3.14,.89-1.36,1.35-2.97,1.35-4.79,0-1.62-.32-2.98-.96-4.05-.63-1.06-1.51-1.92-2.59-2.56Z"/>
    <path class="cls-2" d="M558.3,509.99c-2.02-1.34-4.37-2.02-7-2.02-1.91,0-3.66,.35-5.22,1.05-1.56,.7-2.9,1.73-3.99,3.05-.16,.19-.31,.39-.45,.59v-4.29h-4.52v41.29h4.52v-16.2c.13,.19,.27,.37,.42,.55,1.06,1.32,2.4,2.37,3.98,3.11,1.58,.74,3.35,1.11,5.26,1.11,2.51,0,4.8-.64,6.81-1.89,2.01-1.25,3.63-3.05,4.82-5.33,1.19-2.28,1.79-4.93,1.79-7.89s-.57-5.48-1.7-7.73c-1.13-2.26-2.72-4.08-4.73-5.42Zm-12.44,3.62c1.39-.93,3.03-1.41,4.86-1.41s3.48,.47,4.89,1.41c1.42,.94,2.55,2.24,3.36,3.86,.82,1.63,1.23,3.54,1.23,5.67s-.41,4.03-1.23,5.66c-.81,1.62-1.94,2.91-3.36,3.83-1.41,.92-3.06,1.38-4.9,1.38s-3.48-.46-4.87-1.38c-1.4-.92-2.51-2.21-3.3-3.83-.8-1.63-1.2-3.54-1.2-5.67s.4-4.04,1.2-5.67c.79-1.62,1.91-2.92,3.3-3.86Z"/>
    <path class="cls-2" d="M591.99,512.35c-1.02-1.34-2.36-2.42-3.98-3.2-1.62-.78-3.56-1.17-5.78-1.17-2.11,0-3.99,.41-5.61,1.21-1.62,.8-3,1.92-4.09,3.34-1.09,1.41-1.93,3.06-2.48,4.9-.55,1.83-.83,3.81-.83,5.9s.29,4,.86,5.81c.57,1.82,1.43,3.43,2.54,4.79,1.12,1.36,2.55,2.44,4.25,3.19,1.69,.76,3.65,1.14,5.83,1.14,1.53,0,2.97-.17,4.26-.51,1.29-.34,2.53-.86,3.68-1.56,1.15-.69,2.29-1.62,3.39-2.77l.31-.32-3.27-2.9-.29,.32c-1.15,1.26-2.36,2.18-3.59,2.71-1.23,.54-2.75,.81-4.5,.81-2.72,0-4.91-.87-6.5-2.59-1.53-1.65-2.37-3.98-2.51-6.93h21.07l.08-.34c.08-.38,.13-.82,.16-1.35,.02-.51,.03-.92,.03-1.23,0-1.62-.25-3.24-.74-4.83-.5-1.59-1.26-3.07-2.27-4.4Zm-1.39,7.95v.61h-16.91c.15-1.61,.55-3.07,1.2-4.36,.7-1.39,1.69-2.53,2.96-3.37,1.26-.84,2.75-1.26,4.43-1.26,1.47,0,2.76,.26,3.81,.77,1.06,.51,1.93,1.18,2.58,1.97,.66,.8,1.15,1.71,1.46,2.7,.31,1,.47,1.99,.47,2.94Z"/>
    <path class="cls-2" d="M615.07,508.24c-.82-.18-1.64-.27-2.44-.27-1.33,0-2.74,.33-4.18,1-1.44,.66-2.72,1.62-3.8,2.86-.12,.14-.23,.28-.34,.42v-3.88h-4.58v29.46h4.58v-14.41c0-1.49,.05-2.66,.14-3.49,.09-.83,.22-1.53,.36-2.08,.36-1.31,.94-2.37,1.72-3.15,.78-.78,1.66-1.37,2.6-1.73,.95-.37,1.92-.55,2.86-.55,.54,0,1.11,.07,1.69,.22,.59,.15,1.13,.33,1.61,.55l.37,.17,2.2-4.05-.39-.2c-.77-.4-1.58-.7-2.4-.88Z"/>
    <rect class="cls-2" x="620.55" y="496.55" width="5.22" height="7.13"/>
    <rect class="cls-2" x="620.9" y="508.38" width="4.52" height="29.46"/>
    <path class="cls-2" d="M640.45,497.74l-4.58,2.65v8h-6.32v3.76h6.32v18.54c0,1.68,.28,3.1,.83,4.22,.56,1.14,1.38,2,2.42,2.54,1.02,.53,2.22,.8,3.56,.8,.68,0,1.39-.06,2.1-.18,.72-.12,1.44-.3,2.15-.54l.3-.1v-3.77l-.54,.13c-.62,.15-1.19,.28-1.71,.37-.51,.09-.99,.14-1.43,.14-1.16,0-1.94-.36-2.38-1.09-.48-.8-.72-1.94-.72-3.4v-17.67h6.79v-3.76h-6.79v-10.64Z"/>
    <polygon class="cls-2" points="663.62 531.57 654.7 508.38 649.75 508.38 661.24 536.48 655.78 549.61 660.72 549.61 677.55 508.38 672.61 508.38 663.62 531.57"/>
    <path class="cls-2" d="M707.23,496.55l-15.34,41.29h5.16l3.67-10.38h16.88l3.67,10.38h5.05l-15.29-41.29h-3.79Zm-5,26.62l6.93-19.62,6.93,19.62h-13.85Z"/>
    <path class="cls-2" d="M733.95,497.74l-4.58,2.65v8h-6.32v3.76h6.32v18.54c0,1.68,.28,3.1,.83,4.22,.56,1.14,1.38,2,2.42,2.54,1.02,.53,2.22,.8,3.56,.8,.68,0,1.39-.06,2.1-.18,.72-.12,1.44-.3,2.15-.54l.3-.1v-3.77l-.54,.13c-.62,.15-1.19,.28-1.71,.37-.51,.09-.99,.14-1.43,.14-1.16,0-1.94-.36-2.38-1.09-.48-.8-.72-1.94-.72-3.4v-17.67h6.79v-3.76h-6.79v-10.64Z"/>
    <path class="cls-2" d="M781.82,499.55c-2.37-1.99-5.77-3-10.11-3h-11.8v41.29h4.63v-17.75h7.17c4.34,0,7.74-1.03,10.11-3.06,2.39-2.05,3.6-4.99,3.6-8.74s-1.21-6.73-3.61-8.74Zm-17.28,1.28h6.76c3.06,0,5.43,.64,7.04,1.91,1.61,1.26,2.39,3.07,2.39,5.55s-.8,4.4-2.44,5.66c-1.65,1.27-4.01,1.91-6.99,1.91h-6.76v-15.03Z"/>
    <path class="cls-2" d="M797.61,533.88c-1.31,.28-2.27,.14-2.89-.58-.43-.5-.65-1.36-.65-2.56v-34.19h-4.52v34.83c0,2.35,.53,4.1,1.57,5.2,1.05,1.11,2.46,1.67,4.2,1.67,.56,0,1.21-.07,1.91-.21,.69-.14,1.39-.33,2.06-.57l.29-.1v-4.02l-.56,.17c-.49,.15-.96,.27-1.41,.37Z"/>
    <path class="cls-2" d="M815.32,507.97c-2.45,0-4.68,.45-6.65,1.34-1.97,.89-3.76,2.31-5.34,4.21l-.27,.33,3.34,2.83,.28-.35c1.23-1.56,2.54-2.68,3.91-3.33,1.37-.65,2.89-.97,4.51-.97,2.5,0,4.4,.64,5.67,1.9,1.26,1.26,1.9,3.17,1.9,5.67v.79h-8.67c-1.57,0-3.05,.14-4.41,.41-1.38,.28-2.64,.79-3.71,1.51-1.02,.66-1.86,1.56-2.49,2.68-.63,1.12-.96,2.51-.96,4.13,0,1.82,.44,3.43,1.32,4.79,.87,1.36,2.14,2.44,3.78,3.2,1.62,.76,3.54,1.14,5.72,1.14s4-.47,5.71-1.38c1.51-.81,2.79-1.94,3.81-3.36l.15,4.34h4.21v-18.24c0-3.74-1.04-6.64-3.09-8.63-2.05-1.99-4.98-2.99-8.71-2.99Zm2.8,25.2c-1.36,.79-2.88,1.19-4.54,1.19-2.05,0-3.69-.48-4.86-1.44-1.16-.95-1.73-2.19-1.73-3.81,0-.86,.15-1.6,.45-2.22,.29-.6,.72-1.1,1.3-1.5,.67-.53,1.52-.89,2.51-1.07,1.03-.19,2.11-.28,3.2-.28h8.21s0,0,0,0v1.13c0,1.73-.42,3.32-1.24,4.71-.83,1.4-1.94,2.51-3.3,3.3Z"/>
    <polygon class="cls-2" points="851.66 508.38 842.68 531.57 833.75 508.38 828.81 508.38 840.3 536.48 834.84 549.61 839.78 549.61 856.61 508.38 851.66 508.38"/>
  </g>
  <g>
    <g>
      <path class="cls-2" d="M233.94,429.95c-.07-8.43-1.41-15.81-4.11-22.13-2.67-6.36-6.57-11.24-11.63-14.72-2.67-1.83-5.62-3.16-8.85-4.04-2.92-.77-6.04-1.16-9.41-1.16-4.74,0-9.03,.95-12.61,2.74-3.69,1.79-6.64,4.53-8.89,8.22-2.21,3.48-3.86,7.83-4.85,12.93-.04,.18-.07,.39-.11,.56l-2.21-.11v-22.16h-18.65v106.5h18.65v-48.51h2.32c1.02,5.09,2.63,9.45,4.85,12.93,2.25,3.69,5.2,6.43,8.89,8.22,3.62,1.79,7.87,2.74,12.61,2.74,3.34,0,6.5-.39,9.41-1.16,3.83-.88,7.2-2.46,10.08-4.67,4.78-3.69,8.36-8.64,10.82-14.86,2.46-6.22,3.69-13.28,3.69-21.15v-.18Zm-25.04,12.89c-1.44,3.69-3.41,6.5-5.9,8.5-2.53,1.93-5.62,2.95-9.31,2.95-1.23,0-2.39-.14-3.51-.39-.6-.14-1.16-.28-1.76-.49-.53-.18-1.02-.39-1.51-.6-2.11-.95-3.9-2.25-5.41-3.83-1.51-1.58-2.81-3.3-3.9-5.34-1.09-1.97-1.86-3.97-2.39-6.08-.07-.25-.11-.49-.18-.74-.04-.18-.07-.35-.11-.56-.32-1.62-.53-3.16-.53-4.71v-2.88c0-1.69,.18-3.41,.53-5.2,.04-.18,.07-.35,.11-.56,.14-.63,.28-1.26,.46-1.9,.74-2.67,1.79-5.2,3.37-7.52,1.51-2.32,3.48-4.18,5.83-5.62,1.12-.67,2.35-1.19,3.69-1.51,1.51-.39,3.16-.56,4.92-.56,3.55,0,6.64,1.02,9.31,2.95,2.67,1.93,4.71,4.74,6.15,8.43,1.41,3.51,2.18,7.76,2.25,12.68v.39c.07,4.71-.67,8.89-2.11,12.57Z"/>
      <path class="cls-2" d="M143.63,390.16v79.56h-18.65v-21.88h-2.07c-2.6,10.82-7.1,17.95-13.52,21.43-1.86,1.02-3.86,1.72-6.04,2.14-1.44,.28-2.95,.39-4.57,.39-2.28,0-4.46-.25-6.46-.7h-.04c-6.11-1.19-10.96-4.14-14.54-8.85-4.74-6.36-7.13-15.95-7.13-28.84v-43.34h22.06v40.6c0,9.27,1.58,22.09,13.38,22.44,5.51,.18,10.68-3.34,13.24-8.08,3.86-7.13,5.02-15.49,5.02-23.5v-31.37h19.32Z"/>
    </g>
    <path class="cls-1" d="M929.4,361.27v52.62h-15.21v-27.43h-2.92c-.25,1.02-.63,2.49-1.12,4.29-.95,3.34-1.48,5.09-2.32,7.03-1.79,4.18-4.14,6.95-5.16,8.15-1.76,2.07-3.72,3.69-5.94,4.85-1.09,.6-2.25,1.09-3.48,1.48-2.11,.84-4.36,1.37-6.64,1.62-.88,.07-1.79,.14-2.7,.14s-1.83-.04-2.7-.14c-1.51-.18-2.99-.46-4.43-.84-.04,0-.07,0-.11-.04v-19.46s.07,.04,.11,.07c8.22,6.18,19.99,4.36,26.38-3.58,1.76-2.18,3.09-4.67,4.11-7.27,.18-.42,1.16-4.04,1.72-6.22h-32.21v-15.24h52.62Z"/>
    <g>
      <path class="cls-2" d="M326.73,447.9c-.11-1.58-.39-3.16-.88-4.69-.34-1.07-.76-2.07-1.24-3-2.73-5.23-7.63-8.19-13.44-10.05-.7-.23-1.42-.44-2.13-.64-3.88-1.08-7.91-2.05-12.11-2.91-4.3-.86-8.26-1.83-11.86-2.9-6.15-1.84-11.92-5.78-11.92-12.87,0-3.92,1.7-7.02,5.11-9.29,.85-.57,1.78-1.07,2.79-1.49,.01,0,.02-.01,.04-.01,.57-.23,1.15-.46,1.77-.65,.2-.07,.41-.13,.62-.19,1.12-.32,2.32-.57,3.59-.75,.63-.09,1.28-.15,1.94-.21,1.02-.08,2.1-.12,3.21-.12,.68,0,1.34,.01,1.99,.05,.66,.03,1.31,.07,1.93,.14,.7,.07,1.37,.15,2.03,.25,1.96,.3,3.75,.78,5.35,1.42,3.1,1.24,5.54,3.1,7.35,5.57,1.8,2.48,2.76,5.73,2.86,9.75l10.22-2.47c-.1-4.85-1.39-9.13-3.87-12.85-2.47-3.71-5.98-6.6-10.53-8.66-3.24-1.47-6.97-2.42-11.2-2.84-.43-.04-.86-.08-1.3-.11-.3-.02-.6-.04-.9-.06-.22-.02-.44-.03-.67-.04-.38-.02-.75-.03-1.13-.04-.44-.01-.89-.02-1.35-.02h-.04c-1.6,0-3.14,.06-4.63,.18-1.12,.09-2.2,.21-3.26,.37-3.15,.47-6.02,1.25-8.63,2.31-4.64,1.91-8.2,4.57-10.68,7.97-2.47,3.4-3.71,7.53-3.71,12.38,0,.99,.05,1.94,.15,2.85,0,.06,.02,.11,.02,.17,1.02,6.76,5.54,11.5,12.13,14.18,5.06,2.05,10.93,3.42,16.28,4.41,4.62,.86,8.77,1.83,12.43,2.9,3.66,1.08,6.48,2.53,8.48,4.36,.57,.52,1.05,1.1,1.45,1.73,1.73,1.72,2.59,4.06,2.59,7,0,3.92-1.81,7.04-5.41,9.37-1.2,.76-2.55,1.41-4.06,1.92-.5,.17-1.01,.33-1.55,.47-1.81,.48-3.84,.81-6.05,.97-.31,.02-.62,.04-.94,.06-.83,.04-1.68,.06-2.57,.06-5.16,0-9.62-.7-13.39-2.08-3.77-1.39-6.6-3.43-8.52-6.12-1.91-2.68-2.66-5.93-2.24-9.75h-.04s-3.06,.56-3.06,.56l-7.11,1.29c-.1,3.82,.54,7.33,1.94,10.53,1.39,3.2,3.5,5.93,6.34,8.2,2.84,2.27,6.39,4.03,10.68,5.27,2.57,.74,5.4,1.26,8.48,1.56,.77,.08,1.56,.14,2.37,.18,.31,.02,.62,.04,.93,.05,.44,.02,.9,.04,1.36,.04,.57,.02,1.14,.02,1.73,.02h.03c1.97,0,3.87-.08,5.69-.25,1-.09,1.99-.21,2.96-.35,2.9-.43,5.6-1.07,8.11-1.95,4.85-1.71,8.64-4.26,11.37-7.66,.86-1.06,1.58-2.21,2.16-3.46,.04-.07,.07-.14,.1-.22,1.23-2.69,1.85-5.8,1.85-9.32,0-.18,0-.37,0-.55Z"/>
      <path class="cls-2" d="M369.77,471.66c-6.19,0-11.63-.96-16.33-2.86-4.7-1.91-8.62-4.64-11.76-8.2-3.15-3.56-5.52-7.84-7.12-12.85-1.6-5-2.4-10.5-2.4-16.48s.82-11.92,2.48-17.18c1.65-5.26,4.02-9.83,7.12-13.7,3.1-3.87,6.89-6.86,11.38-8.98,4.49-2.11,9.67-3.17,15.55-3.17,5.05,0,9.65,.83,13.77,2.48,4.13,1.65,7.66,4.26,10.6,7.82,2.94,3.56,5.21,8.05,6.81,13.46,1.6,5.42,2.24,11.84,1.93,19.27l-62.37,.46v-8.82l55.25-.31-3.87,6.65c.41-6.91-.28-12.64-2.09-17.18-1.81-4.54-4.44-7.97-7.89-10.29-3.46-2.32-7.56-3.48-12.3-3.48-5.06,0-9.47,1.32-13.23,3.95-3.77,2.63-6.68,6.37-8.74,11.22-2.07,4.85-3.1,10.78-3.1,17.8,0,9.7,2.19,17.21,6.58,22.52,4.38,5.32,11.07,7.97,20.04,7.97,3.41,0,6.4-.39,8.98-1.16,2.58-.77,4.77-1.88,6.58-3.33,1.8-1.44,3.3-3.15,4.49-5.11,1.19-1.96,2.09-4.07,2.71-6.35l10.21,2.32c-1.03,3.71-2.5,7.02-4.41,9.9-1.91,2.89-4.26,5.37-7.04,7.43-2.79,2.07-5.96,3.61-9.52,4.64-3.56,1.03-7.66,1.55-12.3,1.55Z"/>
      <path class="cls-2" d="M447.14,471.66c-7.02,0-12.92-1.14-17.72-3.4-4.8-2.27-8.62-5.36-11.45-9.29-2.84-3.92-4.93-8.3-6.27-13.16-1.34-4.85-2.01-9.91-2.01-15.17,0-5.67,.75-11.07,2.24-16.17,1.49-5.11,3.77-9.65,6.81-13.62,3.04-3.97,6.83-7.07,11.38-9.29,4.54-2.22,9.9-3.33,16.1-3.33s11.24,1.03,15.79,3.1c4.54,2.07,8.25,5.01,11.14,8.82,2.89,3.82,4.69,8.36,5.42,13.62l-11.14,2.79c-.1-2.79-.93-5.57-2.48-8.36s-3.85-5.11-6.89-6.96c-3.04-1.86-6.94-2.79-11.68-2.79-4.33,0-8.05,.83-11.14,2.48-3.1,1.65-5.68,3.97-7.74,6.96-2.07,2.99-3.61,6.4-4.64,10.21-1.03,3.82-1.55,8-1.55,12.54,0,6.09,.9,11.48,2.71,16.17,1.8,4.7,4.62,8.36,8.43,10.99,3.82,2.63,8.77,3.95,14.86,3.95,4.23,0,7.94-.75,11.14-2.24,3.2-1.49,5.75-3.64,7.66-6.42,1.91-2.79,3.22-6.19,3.95-10.21l10.68,2.32c-.83,4.54-2.22,8.51-4.18,11.92-1.96,3.4-4.44,6.17-7.43,8.28-2.99,2.12-6.32,3.69-9.98,4.72-3.66,1.03-7.66,1.55-11.99,1.55Z"/>
      <path class="cls-2" d="M513.38,471.66c-8.77,0-15.38-3.02-19.81-9.05-4.44-6.04-6.65-15.09-6.65-27.16v-45.35h11.45v44.73c0,8.77,1.39,15.35,4.18,19.73,2.79,4.39,7.27,6.58,13.46,6.58,3.3,0,6.29-.77,8.98-2.32,2.68-1.55,5.05-3.82,7.12-6.81,2.06-2.99,3.77-6.55,5.11-10.68,1.34-4.13,2.32-8.67,2.94-13.62v-37.61h11.3v46.12l.15,33.58h-10.83l1.86-25.69h-2.48c-1.24,6.29-3.1,11.51-5.57,15.63-2.48,4.13-5.52,7.15-9.13,9.05-3.61,1.91-7.64,2.86-12.07,2.86Z"/>
      <path class="cls-2" d="M563.13,469.8v-44.73l.15-34.98h10.99l-1.86,28.01h2.48c1.03-5.88,2.5-11.04,4.41-15.48,1.91-4.44,4.46-7.94,7.66-10.52,3.2-2.58,7.07-3.87,11.61-3.87,1.13,0,2.42,.08,3.87,.23,1.44,.15,2.99,.54,4.64,1.16l-.46,12.07c-1.55-.72-3.04-1.24-4.49-1.55-1.45-.31-2.89-.46-4.33-.46-4.13,0-7.64,1.42-10.52,4.26-2.89,2.84-5.37,6.65-7.43,11.45-2.07,4.8-3.77,9.98-5.11,15.55v38.85h-11.61Z"/>
      <path class="cls-2" d="M621.29,375.55c-2.89,0-5.06-.57-6.5-1.7-1.45-1.13-2.17-2.89-2.17-5.26s.72-4.02,2.17-5.26c1.44-1.24,3.56-1.86,6.35-1.86,2.99,0,5.18,.59,6.58,1.78,1.39,1.19,2.09,2.97,2.09,5.34s-.72,4-2.17,5.18c-1.45,1.19-3.56,1.78-6.35,1.78Zm-5.88,94.25v-79.7h11.45v79.7h-11.45Z"/>
      <path class="cls-2" d="M668.14,471.35c-6.71,0-11.76-1.91-15.17-5.73-3.4-3.82-5.11-9.49-5.11-17.02v-48.6h-12.23l.15-9.75h7.43c2.27-.1,3.95-.59,5.03-1.47,1.08-.88,1.73-2.35,1.93-4.41l1.39-12.23h7.43v17.95h23.52v10.06h-23.52v48.44c0,4.33,.95,7.4,2.86,9.21,1.91,1.81,4.67,2.71,8.28,2.71,1.96,0,4.05-.26,6.27-.77,2.22-.52,4.41-1.65,6.58-3.4v11.92c-2.79,1.14-5.44,1.93-7.97,2.4-2.53,.46-4.82,.7-6.89,.7Z"/>
      <path class="cls-2" d="M698,375.55c-2.89,0-5.06-.57-6.5-1.7-1.45-1.13-2.17-2.89-2.17-5.26s.72-4.02,2.17-5.26c1.44-1.24,3.56-1.86,6.35-1.86,2.99,0,5.18,.59,6.58,1.78,1.39,1.19,2.09,2.97,2.09,5.34s-.72,4-2.17,5.18c-1.45,1.19-3.56,1.78-6.35,1.78Zm-5.88,94.25v-79.7h11.45v79.7h-11.45Z"/>
      <path class="cls-2" d="M750.81,471.66c-6.19,0-11.63-.96-16.33-2.86-4.7-1.91-8.62-4.64-11.76-8.2-3.15-3.56-5.52-7.84-7.12-12.85-1.6-5-2.4-10.5-2.4-16.48s.82-11.92,2.48-17.18c1.65-5.26,4.02-9.83,7.12-13.7,3.1-3.87,6.89-6.86,11.38-8.98,4.49-2.11,9.67-3.17,15.55-3.17,5.05,0,9.65,.83,13.77,2.48,4.13,1.65,7.66,4.26,10.6,7.82,2.94,3.56,5.21,8.05,6.81,13.46,1.6,5.42,2.24,11.84,1.93,19.27l-62.37,.46v-8.82l55.25-.31-3.87,6.65c.41-6.91-.28-12.64-2.09-17.18-1.81-4.54-4.44-7.97-7.89-10.29-3.46-2.32-7.56-3.48-12.3-3.48-5.06,0-9.47,1.32-13.23,3.95-3.77,2.63-6.68,6.37-8.74,11.22-2.07,4.85-3.1,10.78-3.1,17.8,0,9.7,2.19,17.21,6.58,22.52,4.38,5.32,11.07,7.97,20.04,7.97,3.41,0,6.4-.39,8.98-1.16,2.58-.77,4.77-1.88,6.58-3.33,1.8-1.44,3.3-3.15,4.49-5.11,1.19-1.96,2.09-4.07,2.71-6.35l10.21,2.32c-1.03,3.71-2.5,7.02-4.41,9.9-1.91,2.89-4.26,5.37-7.04,7.43-2.79,2.07-5.96,3.61-9.52,4.64-3.56,1.03-7.66,1.55-12.3,1.55Z"/>
      <path class="cls-2" d="M856.63,447.77c-.11-1.54-.39-3.08-.86-4.56-.34-1.07-.76-2.07-1.24-3-2.73-5.23-7.63-8.19-13.44-10.05-.7-.23-1.42-.44-2.13-.64-3.88-1.08-7.91-2.05-12.11-2.91-4.3-.86-8.26-1.83-11.86-2.9-6.15-1.84-11.93-5.78-11.93-12.87,0-3.92,1.7-7.02,5.11-9.29,.85-.57,1.78-1.07,2.79-1.49,.01,0,.02-.01,.04-.01,.25-.1,.51-.21,.76-.3,.25-.09,.5-.18,.76-.27,.02,0,.04-.01,.06-.02,.06-.02,.12-.04,.18-.06,.2-.07,.41-.13,.62-.19,1.12-.32,2.32-.57,3.59-.75,.63-.09,1.28-.15,1.94-.21,.25-.02,.51-.04,.76-.05,.26-.02,.52-.03,.79-.04,.26-.02,.53-.02,.8-.02,.14,0,.28,0,.43,0,.14,0,.28,0,.43,0,.68,0,1.34,.01,1.99,.05,.33,0,.66,.03,.98,.06,.32,.02,.64,.04,.95,.08,.7,.06,1.37,.15,2.02,.25h.01c.25,.04,.49,.08,.73,.12,.21,.04,.42,.08,.62,.12,.41,.08,.8,.17,1.19,.28t.01,0c.99,.25,1.91,.55,2.79,.89,3.1,1.24,5.55,3.1,7.36,5.57,1.8,2.48,2.76,5.73,2.86,9.75l10.22-2.47c-.1-4.85-1.39-9.13-3.87-12.85-2.48-3.71-5.99-6.6-10.53-8.66-3.24-1.47-6.97-2.42-11.2-2.84-.43-.04-.86-.08-1.3-.11-.3-.02-.6-.04-.9-.06-.22-.02-.44-.03-.67-.04-.38-.02-.75-.03-1.13-.04-.44-.01-.89-.02-1.35-.02h-.04c-1.6,0-3.14,.06-4.63,.18-.36,.03-.72,.07-1.07,.1-.36,.04-.73,.08-1.09,.12-.72,.09-1.42,.2-2.12,.31-2.76,.48-5.3,1.2-7.62,2.15-4.64,1.91-8.2,4.57-10.68,7.97-2.48,3.4-3.71,7.53-3.71,12.38,0,.99,.05,1.94,.15,2.85,0,.06,.02,.11,.02,.17,1.02,6.76,5.54,11.5,12.13,14.18,5.06,2.05,10.93,3.42,16.28,4.41,4.62,.86,8.77,1.83,12.43,2.9,3.66,1.08,6.48,2.53,8.48,4.36,.56,.51,1.05,1.09,1.44,1.72,0,0,.01,0,.01,.01,1.73,1.73,2.59,4.06,2.59,7,0,3.92-1.81,7.04-5.41,9.37-1.04,.67-2.2,1.24-3.48,1.71-.19,.07-.39,.14-.59,.21-.04,.01-.09,.03-.14,.04-.2,.07-.41,.14-.62,.2-.02,0-.03,0-.04,.01-.25,.07-.5,.14-.75,.21-.23,.06-.46,.12-.69,.17-.17,.04-.33,.08-.49,.11-.78,.17-1.6,.31-2.46,.43-.26,.04-.52,.07-.78,.1-.25,.03-.51,.06-.77,.08-.28,.03-.57,.06-.86,.07-.15,.01-.31,.02-.46,.03-.22,.01-.44,.02-.67,.04-.38,.02-.77,.04-1.17,.04-.39,0-.8,.01-1.2,.01-5.16,0-9.62-.7-13.39-2.08-3.77-1.39-6.6-3.43-8.52-6.12-1.91-2.68-2.66-5.93-2.24-9.75h-.04s-3.06,.56-3.06,.56l-7.11,1.29c-.1,3.82,.54,7.33,1.93,10.53,1.39,3.2,3.51,5.93,6.35,8.2,2.84,2.27,6.39,4.03,10.67,5.27,2.53,.73,5.29,1.24,8.3,1.54,.06,.01,.12,.01,.18,.02,.32,.03,.65,.06,.98,.09,.46,.04,.92,.07,1.39,.09,.31,.02,.62,.04,.93,.05h.04c.34,.02,.68,.03,1.02,.04,.1,0,.2,0,.3,0,.57,.02,1.14,.02,1.73,.02h.03c.41,0,.81,0,1.21-.01,.38,0,.75-.01,1.12-.03h.07c.28,0,.55-.02,.83-.04,.36-.01,.73-.04,1.09-.06,.46-.03,.92-.07,1.38-.11,1.01-.09,1.99-.21,2.96-.35,.01,0,.02,0,.04,0,.53-.08,1.05-.17,1.56-.26h.02c.52-.1,1.04-.2,1.54-.31,.43-.09,.86-.2,1.28-.3,1.26-.31,2.49-.67,3.66-1.09,4.85-1.71,8.64-4.26,11.38-7.66,.75-.93,1.39-1.93,1.93-3,.07-.15,.15-.3,.23-.46,.04-.07,.07-.14,.1-.22,1.23-2.69,1.84-5.8,1.84-9.32,0-.23,0-.46-.01-.68Z"/>
    </g>
  </g>
</svg>