<svg xmlns="http://www.w3.org/2000/svg" width="24" height="24" viewBox="0 0 24 24" fill="none">
  <path d="M9.24913 9.45218V8.51698C8.92537 8.46554 8.59836 8.43735 8.2706 8.43263C5.09751 8.42591 2.28819 10.4878 1.33534 13.5228C0.382507 16.5579 1.50722 19.8617 4.11195 21.6789C2.16081 19.585 1.61902 16.5369 2.72862 13.896C3.83823 11.2551 6.39199 9.51468 9.24913 9.45218Z" fill="#25F4EE"/>
  <path d="M9.42513 20.0457C11.1993 20.0433 12.6576 18.6418 12.7353 16.8645V1.00421H15.625C15.566 0.672807 15.5378 0.336625 15.5409 0L11.5886 0V15.8449C11.5229 17.6313 10.0611 19.0463 8.27845 19.0492C7.74572 19.0447 7.22169 18.9133 6.74951 18.6659C7.05552 19.091 7.4574 19.4376 7.92239 19.6774C8.38737 19.9172 8.90226 20.0434 9.42513 20.0457ZM21.0221 6.38552V5.50395C19.9586 5.50431 18.9187 5.18962 18.033 4.59939C18.8095 5.5045 19.8587 6.13148 21.0221 6.38552Z" fill="#25F4EE"/>
  <path d="M18.033 4.59896C17.1605 3.60267 16.6795 2.32199 16.6799 0.996094H15.6249C15.7612 1.72917 16.045 2.42671 16.459 3.04616C16.873 3.6656 17.4086 4.19395 18.033 4.59896ZM8.2708 12.3949C6.74833 12.4028 5.42656 13.4487 5.06498 14.9317C4.70337 16.4147 5.39475 17.9541 6.74186 18.6655C6.01194 17.655 5.90882 16.3193 6.47493 15.2082C7.04111 14.0971 8.18081 13.3982 9.42514 13.3992C9.75693 13.4033 10.0864 13.4549 10.4037 13.5525V9.52029C10.0797 9.47163 9.75271 9.44602 9.42514 9.44365H9.2493V12.5099C8.93042 12.4242 8.60081 12.3855 8.2708 12.3949Z" fill="#FE2C55"/>
  <path d="M21.0221 6.38574V9.45199C19.0533 9.44817 17.1357 8.8233 15.5408 7.66589V15.7225C15.5324 19.7427 12.2799 22.9972 8.27077 22.9972C6.78186 22.9999 5.32881 22.5392 4.11206 21.6787C6.14265 23.8687 9.30284 24.5895 12.0783 23.4959C14.8538 22.4023 16.6792 19.717 16.6798 16.7267V8.69309C18.2801 9.84292 20.2001 10.4597 22.1687 10.4562V6.50838C21.7833 6.50716 21.3991 6.46606 21.0221 6.38574Z" fill="#FE2C55"/>
  <path d="M15.5407 15.7219V7.66524C17.1404 8.816 19.0607 9.43283 21.0295 9.42835V6.36207C19.8664 6.11578 18.8146 5.49697 18.0328 4.59896C17.4084 4.19395 16.8729 3.6656 16.4588 3.04616C16.0448 2.42671 15.761 1.72917 15.6248 0.996094H12.7351V16.864C12.6773 18.2797 11.7317 19.5033 10.379 19.9129C9.02634 20.3224 7.56342 19.8279 6.73403 18.6808C5.38695 17.9694 4.69557 16.43 5.05715 14.947C5.41876 13.464 6.7405 12.4181 8.26297 12.4103C8.59483 12.4133 8.92451 12.4649 9.2415 12.5636V9.49733C6.36829 9.54613 3.79523 11.2926 2.68251 13.9493C1.56977 16.606 2.12753 19.671 4.10429 21.7624C5.33304 22.5945 6.78819 23.0256 8.27063 22.9966C12.2798 22.9966 15.5322 19.742 15.5407 15.7219Z" fill="black"/>
</svg>