<svg xmlns="http://www.w3.org/2000/svg" width="24" height="24" viewBox="0 0 24 24" fill="none">
  <g clip-path="url(#clip0_894_20734)">
    <path d="M24.0006 12C24.0006 18.6272 18.6278 24 12 24H11.9775C5.36041 23.9876 0 18.6183 0 12C0 5.3817 5.36041 0.0118279 11.9775 0H12C18.6278 0 24.0006 5.37105 24.0006 12Z" fill="black"/>
    <path d="M11.9775 0V24C5.36041 23.9876 0 18.6183 0 12C0 5.3817 5.36041 0.0118279 11.9775 0Z" fill="#0C0C0C"/>
    <path d="M18.5312 8.67792L18.5164 11.1363C18.0373 11.1305 17.5607 11.0665 17.0971 10.9459C16.3817 10.7591 15.7071 10.4417 15.107 10.0097C15.107 10.2611 15.1106 10.636 15.1106 11.092C15.1106 11.6988 15.1106 12.0435 15.107 12.4096C15.0964 14.6711 15.1526 15.1087 14.9539 16.0029C14.9125 16.2186 14.856 16.431 14.7847 16.6387C14.4027 17.7032 13.57 18.556 12.7213 19.0096C12.4845 19.1355 12.2359 19.2379 11.9791 19.3153C10.3753 19.8015 8.44792 19.3745 7.45319 18.1917L7.44668 18.1846L7.439 18.1745C6.59389 17.155 6.40938 15.5653 6.39164 15.1584C6.39164 15.1064 6.38809 15.0555 6.38809 15.0555C6.37507 14.4997 6.45502 13.9456 6.62465 13.4162C6.79615 12.8685 7.36093 11.7254 8.62947 11.0311C9.42063 10.6049 10.3236 10.4321 11.2162 10.5361L11.1873 13.0241C11.137 13.0111 9.92167 12.7231 9.12388 13.551C8.4012 14.3009 8.44792 15.5091 8.96066 16.1934C8.98786 16.23 9.01684 16.2655 9.047 16.2986C9.33383 16.6186 9.69753 16.7386 9.94296 16.8226C10.2684 16.9298 10.61 16.9799 10.9525 16.9705C11.3194 16.9647 11.6763 16.8501 11.978 16.6411C12.8118 16.0745 12.9242 15.0656 12.9283 15.0082C12.9181 11.7603 12.9084 8.51233 12.8993 5.26438V5.26143L14.4624 5.23363H14.4878L14.7143 5.22949C14.8814 5.83056 15.1644 6.39311 15.5476 6.8854C15.6683 7.03938 15.7987 7.18555 15.9379 7.32303C16.4639 7.83499 17.0958 8.22541 17.789 8.46679H17.7937C18.0342 8.55467 18.2807 8.62522 18.5312 8.67792Z" fill="#FD2854"/>
    <path d="M17.8229 9.79045H17.8181C16.9764 9.92531 16.1147 9.85987 15.3029 9.59943C14.7361 9.41513 14.204 9.1375 13.7286 8.77798C14.0137 10.501 14.0137 12.2592 13.7286 13.9823C13.391 16.0072 13.1792 17.2763 12.0491 18.0883C12.0254 18.1055 12.0012 18.1226 11.9769 18.1386C10.4162 19.1954 8.23576 18.6708 7.43679 18.1735L7.42496 18.1664L7.40248 18.1522C7.13913 17.9777 6.8921 17.7798 6.66442 17.5608C6.25629 17.1649 5.93061 16.6921 5.70618 16.1696C5.48176 15.6472 5.36303 15.0855 5.35685 14.5169C5.34166 13.928 5.43943 13.3416 5.64486 12.7894C5.77792 12.4346 6.27233 11.1725 7.64969 10.4043C8.53166 9.92072 9.5508 9.74822 10.5428 9.91464C10.5388 10.1118 10.5351 10.3089 10.5316 10.506V10.5102L10.5085 11.758C10.0768 11.6563 9.63057 11.6315 9.19027 11.6847C8.83543 11.7285 8.48769 11.7693 8.11807 12.0017C7.64469 12.3064 7.30965 12.7845 7.18485 13.3335C7.10588 13.5994 7.08968 13.88 7.13754 14.1532C7.15173 14.2312 7.25582 14.7735 7.69345 15.1627C7.84071 15.2934 7.9034 15.2987 8.11807 15.4992C8.30732 15.6766 8.35463 15.7618 8.52791 15.909C8.52791 15.909 8.57049 15.9451 8.64027 15.996C8.64475 15.9998 8.64949 16.0034 8.65447 16.0066C8.7499 16.0764 8.85008 16.1394 8.9543 16.1953C9.3878 16.4224 10.1637 16.4466 10.7326 16.1704C11.5198 15.7878 11.9491 14.9078 11.9474 14.385C11.9379 11.1359 11.9282 7.88695 11.9184 4.63822H11.9728L14.3869 4.62402C14.3851 4.81233 14.4112 4.99985 14.4643 5.18053C14.4702 5.20004 14.4762 5.21838 14.4827 5.23967C14.4892 5.26096 14.4933 5.27101 14.4986 5.28579C14.5361 5.38408 14.5793 5.48005 14.6281 5.57321L14.6619 5.64122V5.64655C14.6613 5.64808 14.6613 5.64975 14.6619 5.65128L14.6672 5.66251L14.6725 5.67316C14.6757 5.68004 14.6793 5.68675 14.6831 5.69327C14.6867 5.70095 14.6908 5.70864 14.695 5.71633C14.7175 5.7595 14.7482 5.81628 14.7831 5.88015C14.805 5.91977 14.828 5.95939 14.8517 5.99843L14.8771 6.04041C14.8895 6.0617 14.9026 6.083 14.9156 6.10369L14.9629 6.1788C15.1468 6.46918 15.4697 6.95826 15.9274 7.32788C16.5709 7.84713 17.3101 7.99379 17.7738 8.03756C17.7767 8.18304 17.7803 8.32852 17.7832 8.47401C17.8006 8.91322 17.8138 9.35203 17.8229 9.79045Z" fill="#24F6FA"/>
    <path d="M17.8305 10.4853C16.612 10.5301 15.4155 10.1512 14.4448 9.41315V14.6174C14.433 14.8167 14.2585 17.0149 12.2726 18.2249C12.1744 18.2841 12.0757 18.3391 11.9769 18.3899C10.1087 19.3433 8.28306 18.5963 8.10269 18.5189C7.92334 18.4602 7.75146 18.3808 7.59054 18.2823C7.54027 18.251 7.49119 18.2184 7.44447 18.1847L7.40248 18.1534C6.1842 17.2284 6.13393 15.3442 6.12625 15.0663C6.11323 14.5105 6.19318 13.9564 6.3628 13.4269C6.56388 12.7853 7.16414 11.7036 8.36763 11.0418C9.0317 10.6805 9.77799 10.4971 10.5339 10.5096V10.5137C10.5241 11.1386 10.5142 11.7637 10.5043 12.389C10.3772 12.3547 9.59774 12.1584 8.83602 12.638C8.36264 12.9427 8.02759 13.4209 7.9028 13.9698C7.82813 14.2363 7.81199 14.5157 7.85549 14.7889C7.92302 15.1263 8.08221 15.4386 8.31559 15.6914C8.4137 15.8044 8.52331 15.9069 8.64263 15.9971C8.64711 16.001 8.65185 16.0046 8.65683 16.0078C8.75053 16.0801 8.85093 16.1433 8.95666 16.1964L8.96021 16.1994C9.17155 16.5185 9.47639 16.7645 9.83297 16.9036C10.1895 17.0427 10.5804 17.0682 10.952 16.9765C11.1252 16.9404 11.2933 16.8836 11.4529 16.8074C11.6463 16.7154 11.8234 16.5928 11.9775 16.4442C12.576 15.8688 12.6635 15.0728 12.6677 15.0249L12.6416 5.27338L12.9019 5.26806L14.4649 5.2373H14.4874C14.4933 5.25268 14.4998 5.26806 14.5063 5.28343C14.5424 5.37037 14.5856 5.46677 14.6358 5.57085L14.6695 5.63886V5.64418C14.669 5.64572 14.669 5.64739 14.6695 5.64892L14.6749 5.66015L14.6802 5.6708C14.6834 5.67768 14.6869 5.68439 14.6908 5.69091C14.6944 5.69859 14.6985 5.70628 14.7027 5.71397C14.7299 5.7672 14.7618 5.82219 14.7908 5.87779C14.8127 5.91741 14.8357 5.95703 14.8594 5.99606L14.8848 6.03805L14.9232 6.10133L14.9706 6.17644C15.2411 6.59954 15.5653 6.98578 15.9351 7.32552C16.4748 7.81965 17.1028 8.20767 17.7862 8.46928H17.7909C17.7986 8.9075 17.8063 9.34691 17.8134 9.78513L17.8305 10.4853Z" fill="white"/>
    <path opacity="0.17" d="M18.5286 8.67804L18.5138 11.1365C18.0348 11.1306 17.5582 11.0667 17.0945 10.946C16.3792 10.7592 15.7045 10.4418 15.1045 10.0099C15.1045 10.2612 15.108 10.6361 15.108 11.0921C15.108 11.6989 15.108 12.0437 15.1045 12.4097C15.0938 14.6712 15.15 15.1089 14.9513 16.0031C14.9099 16.2187 14.8534 16.4311 14.7821 16.6388C14.4001 17.7033 13.5674 18.5561 12.7188 19.0097C12.4819 19.1356 12.2333 19.238 11.9766 19.3155V4.63822L14.3906 4.62402C14.3889 4.81233 14.415 4.99985 14.4681 5.18053C14.474 5.20004 14.4799 5.21838 14.4864 5.23967L14.7129 5.23553C14.88 5.83659 15.1631 6.39914 15.5462 6.89143C15.667 7.04541 15.7973 7.19158 15.9365 7.32907C16.58 7.84831 17.3192 7.99498 17.7829 8.03874C17.7858 8.18422 17.7894 8.32971 17.7923 8.47519C18.0326 8.56021 18.2787 8.62799 18.5286 8.67804Z" fill="black"/>
  </g>
  <defs>
    <clipPath id="clip0_894_20734">
      <rect width="24" height="24" fill="white"/>
    </clipPath>
  </defs>
</svg>