<svg xmlns="http://www.w3.org/2000/svg" width="24" height="24" viewBox="0 0 24 24" fill="none">
  <g clip-path="url(#clip0_894_20728)">
    <path d="M12 24C18.6274 24 24 18.6274 24 12C24 5.37258 18.6274 0 12 0C5.37258 0 0 5.37258 0 12C0 18.6274 5.37258 24 12 24Z" fill="#03A9F4"/>
    <path d="M19.772 7.18C19.1874 7.43536 18.5689 7.605 17.9357 7.68368C18.6032 7.28789 19.1021 6.66087 19.3378 5.92158C18.7131 6.29237 18.0296 6.55351 17.3168 6.69368C16.88 6.22655 16.3127 5.90167 15.6888 5.7613C15.0649 5.62092 14.4131 5.67155 13.8183 5.9066C13.2236 6.14165 12.7133 6.55024 12.3539 7.07922C11.9945 7.6082 11.8026 8.2331 11.8031 8.87263C11.8009 9.11674 11.8257 9.36034 11.8773 9.59895C10.6094 9.53667 9.36884 9.20761 8.23673 8.63326C7.10462 8.0589 6.10642 7.25218 5.30731 6.26579C4.89656 6.96749 4.76931 7.79956 4.95156 8.59195C5.13381 9.38434 5.6118 10.0772 6.28784 10.5289C5.78324 10.5153 5.28933 10.3805 4.84784 10.1358V10.1705C4.84926 10.906 5.10384 11.6186 5.5688 12.1886C6.03376 12.7585 6.68074 13.1509 7.401 13.3C7.12843 13.3716 6.84754 13.4067 6.56573 13.4042C6.36281 13.408 6.16008 13.39 5.96099 13.3505C6.16734 13.9831 6.56461 14.5362 7.09816 14.9337C7.6317 15.3313 8.27531 15.5537 8.94047 15.5705C7.8133 16.4516 6.42374 16.9301 4.9931 16.93C4.73819 16.9322 4.48342 16.9174 4.23047 16.8858C5.68921 17.8263 7.38956 18.3232 9.12521 18.3163C14.991 18.3163 18.1978 13.4579 18.1978 9.24684C18.1978 9.10632 18.1978 8.97053 18.1868 8.83474C18.8113 8.38401 19.3485 7.82328 19.772 7.18Z" fill="white"/>
  </g>
  <defs>
    <clipPath id="clip0_894_20728">
      <rect width="24" height="24" fill="white"/>
    </clipPath>
  </defs>
</svg>