<svg width="116" height="37" viewBox="0 0 116 37" fill="none" xmlns="http://www.w3.org/2000/svg">
<g id="Airbnb_Logo_Be&#204;&#129;lo 1" clip-path="url(#clip0_3535_2494)">
<path id="Vector" d="M61.1338 9.74426C61.1338 11.0416 60.0828 12.0866 58.7782 12.0866C57.4737 12.0866 56.4227 11.0416 56.4227 9.74426C56.4227 8.44697 57.4374 7.40192 58.7782 7.40192C60.1191 7.43796 61.1338 8.483 61.1338 9.74426ZM51.4218 14.465C51.4218 14.6812 51.4218 15.0416 51.4218 15.0416C51.4218 15.0416 50.2984 13.6001 47.9066 13.6001C43.9566 13.6001 40.8763 16.5911 40.8763 20.7353C40.8763 24.8434 43.9204 27.8704 47.9066 27.8704C50.3346 27.8704 51.4218 26.3929 51.4218 26.3929V27.0055C51.4218 27.2938 51.6392 27.51 51.9291 27.51H54.8645V13.9605C54.8645 13.9605 52.1828 13.9605 51.9291 13.9605C51.6392 13.9605 51.4218 14.2127 51.4218 14.465ZM51.4218 23.1497C50.8782 23.9425 49.7911 24.6271 48.4865 24.6271C46.1672 24.6271 44.3915 23.1857 44.3915 20.7353C44.3915 18.2848 46.1672 16.8434 48.4865 16.8434C49.7548 16.8434 50.9145 17.5641 51.4218 18.3208V23.1497ZM57.0388 13.9605H60.5177V27.51H57.0388V13.9605ZM109.005 13.6001C106.613 13.6001 105.49 15.0416 105.49 15.0416V7.43796H102.011V27.51C102.011 27.51 104.693 27.51 104.946 27.51C105.236 27.51 105.454 27.2578 105.454 27.0055V26.3929C105.454 26.3929 106.577 27.8704 108.969 27.8704C112.919 27.8704 115.999 24.8434 115.999 20.7353C115.999 16.6271 112.919 13.6001 109.005 13.6001ZM108.425 24.5911C107.084 24.5911 106.033 23.9064 105.49 23.1136V18.2848C106.033 17.5641 107.193 16.8073 108.425 16.8073C110.745 16.8073 112.52 18.2488 112.52 20.6992C112.52 23.1497 110.745 24.5911 108.425 24.5911ZM100.199 19.474V27.5461H96.7201V19.8704C96.7201 17.6362 95.9954 16.7353 94.0385 16.7353C92.9876 16.7353 91.9004 17.2758 91.2119 18.0686V27.51H87.7329V13.9605H90.4871C90.777 13.9605 90.9944 14.2127 90.9944 14.465V15.0416C92.0091 13.9965 93.3499 13.6001 94.6908 13.6001C96.2128 13.6001 97.4811 14.0326 98.4958 14.8974C99.7279 15.9064 100.199 17.2037 100.199 19.474ZM79.2893 13.6001C76.8976 13.6001 75.7742 15.0416 75.7742 15.0416V7.43796H72.2953V27.51C72.2953 27.51 74.9769 27.51 75.2306 27.51C75.5205 27.51 75.7379 27.2578 75.7379 27.0055V26.3929C75.7379 26.3929 76.8613 27.8704 79.2531 27.8704C83.2031 27.8704 86.2834 24.8434 86.2834 20.7353C86.3196 16.6271 83.2394 13.6001 79.2893 13.6001ZM78.7095 24.5911C77.3687 24.5911 76.3178 23.9064 75.7742 23.1136V18.2848C76.3178 17.5641 77.4774 16.8073 78.7095 16.8073C81.0288 16.8073 82.8045 18.2488 82.8045 20.6992C82.8045 23.1497 81.0288 24.5911 78.7095 24.5911ZM69.2875 13.6001C70.3384 13.6001 70.882 13.7803 70.882 13.7803V16.9875C70.882 16.9875 67.9829 16.0145 66.1709 18.0686V27.5461H62.692V13.9605C62.692 13.9605 65.3737 13.9605 65.6274 13.9605C65.9173 13.9605 66.1347 14.2127 66.1347 14.465V15.0416C66.787 14.2848 68.2003 13.6001 69.2875 13.6001ZM33.1575 26.2848C32.9763 25.8524 32.7951 25.3839 32.6139 24.9875C32.324 24.3389 32.0341 23.7262 31.7804 23.1497L31.7442 23.1136C29.2437 17.7082 26.5621 12.2308 23.7354 6.82534L23.6267 6.60913C23.3368 6.06859 23.0469 5.49201 22.757 4.91543C22.3946 4.26679 22.0322 3.5821 21.4524 2.93345C20.2928 1.49201 18.6258 0.699219 16.8501 0.699219C15.0382 0.699219 13.4074 1.49201 12.2115 2.86138C11.668 3.51003 11.2693 4.19471 10.907 4.84336C10.617 5.41994 10.3271 5.99652 10.0372 6.53706L9.92851 6.75327C7.13813 12.1587 4.42023 17.6362 1.91976 23.0416L1.88352 23.1136C1.62985 23.6902 1.33994 24.3028 1.05004 24.9515C0.868842 25.3479 0.687648 25.7803 0.506455 26.2488C0.0353523 27.5821 -0.109602 28.8434 0.071591 30.1407C0.470216 32.8434 2.28215 35.1136 4.78262 36.1226C5.72482 36.519 6.70327 36.6992 7.71795 36.6992C8.00786 36.6992 8.37025 36.6632 8.66016 36.6271C9.85603 36.483 11.0882 36.0866 12.284 35.4019C13.7698 34.5731 15.1831 33.3839 16.7776 31.6542C18.3721 33.3839 19.8217 34.5731 21.2712 35.4019C22.4671 36.0866 23.6992 36.483 24.8951 36.6271C25.185 36.6632 25.5474 36.6992 25.8373 36.6992C26.852 36.6992 27.8667 36.519 28.7726 36.1226C31.3093 35.1136 33.085 32.8073 33.4837 30.1407C33.7736 28.8794 33.6286 27.6181 33.1575 26.2848ZM16.8139 28.1587C14.857 25.7082 13.5886 23.4019 13.1538 21.456C12.9726 20.6271 12.9363 19.9064 13.045 19.2578C13.1175 18.6812 13.3349 18.1767 13.6249 17.7443C14.3134 16.7713 15.473 16.1587 16.8139 16.1587C18.1547 16.1587 19.3506 16.7353 20.0029 17.7443C20.2928 18.1767 20.5102 18.6812 20.5827 19.2578C20.6914 19.9064 20.6552 20.6632 20.474 21.456C20.0391 23.3659 18.7708 25.6722 16.8139 28.1587ZM31.2731 29.8524C31.0194 31.7262 29.7511 33.3479 27.9754 34.0686C27.1056 34.4289 26.1634 34.5371 25.2212 34.4289C24.3153 34.3208 23.4093 34.0326 22.4671 33.492C21.1625 32.7713 19.8579 31.6542 18.3359 29.9965C20.7276 27.0776 22.1772 24.4109 22.7208 22.0326C22.9744 20.9154 23.0107 19.9064 22.902 18.9695C22.757 18.0686 22.4309 17.2398 21.9235 16.519C20.8001 14.8974 18.9157 13.9605 16.8139 13.9605C14.712 13.9605 12.8276 14.9335 11.7042 16.519C11.1969 17.2398 10.8707 18.0686 10.7258 18.9695C10.5808 19.9064 10.617 20.9515 10.907 22.0326C11.4505 24.4109 12.9363 27.1136 15.2918 30.0326C13.8061 31.6902 12.4652 32.8073 11.1606 33.528C10.2184 34.0686 9.31245 34.3569 8.40649 34.465C7.42804 34.5731 6.48584 34.4289 5.65235 34.1046C3.87665 33.3839 2.6083 31.7623 2.35463 29.8884C2.24591 28.9875 2.31839 28.0866 2.68078 27.0776C2.78949 26.7172 2.97069 26.3569 3.15188 25.9244C3.40555 25.3479 3.69546 24.7353 3.98537 24.1226L4.02161 24.0506C6.52208 18.6812 9.20374 13.2037 11.9941 7.87039L12.1028 7.65417C12.3927 7.11363 12.6827 6.53706 12.9726 5.99652C13.2625 5.41994 13.5886 4.8794 13.9872 4.41093C14.7483 3.54607 15.7629 3.0776 16.8863 3.0776C18.0097 3.0776 19.0244 3.54607 19.7854 4.41093C20.1841 4.8794 20.5102 5.41994 20.8001 5.99652C21.09 6.53706 21.3799 7.11363 21.6698 7.65417L21.7786 7.87039C24.5327 13.2398 27.2144 18.7172 29.7148 24.0866V24.1226C30.0047 24.6992 30.2584 25.3479 30.5483 25.9244C30.7295 26.3569 30.9107 26.7172 31.0194 27.0776C31.3093 28.0145 31.418 28.9154 31.2731 29.8524Z" fill="#161519"/>
</g>
<defs>
<clipPath id="clip0_3535_2494">
<rect width="116" height="36" fill="white" transform="translate(0 0.699219)"/>
</clipPath>
</defs>
</svg>
