<svg width="110" height="33" viewBox="0 0 110 33" fill="none" xmlns="http://www.w3.org/2000/svg">
<g id="Amazon_logo" clip-path="url(#clip0_3535_2511)">
<g id="Vector">
<path fill-rule="evenodd" clip-rule="evenodd" d="M68.2418 25.7242C61.8496 30.2725 52.5843 32.6992 44.6071 32.6992C33.4218 32.6992 23.3522 28.7056 15.7341 22.0634C15.1356 21.5411 15.6719 20.8292 16.3901 21.236C24.6115 25.8536 34.7769 28.6316 45.2775 28.6316C52.3593 28.6316 60.1497 27.2172 67.3129 24.2821C68.3951 23.8383 69.3 24.9662 68.2418 25.7242Z" fill="#161519"/>
<path fill-rule="evenodd" clip-rule="evenodd" d="M70.8993 22.7891C70.0853 21.7814 65.4982 22.313 63.4393 22.5487C62.812 22.6227 62.7162 22.0957 63.2812 21.7167C66.9346 19.2346 72.9295 19.951 73.6286 20.783C74.3277 21.6196 73.4466 27.4206 70.0135 30.1893C69.4868 30.6146 68.984 30.3881 69.2186 29.8242C69.9895 27.966 71.7181 23.8014 70.8993 22.7891Z" fill="#161519"/>
<path fill-rule="evenodd" clip-rule="evenodd" d="M63.5829 4.19369V1.78086C63.5829 1.4157 63.8702 1.17072 64.215 1.17072H75.405C75.7642 1.17072 76.0515 1.42033 76.0515 1.78086V3.84702C76.0467 4.19369 75.745 4.64667 75.2087 5.36312L69.4102 13.355C71.5649 13.3042 73.8393 13.6139 75.7929 14.677C76.2334 14.9174 76.3531 15.2686 76.3866 15.6153V18.1899C76.3866 18.5412 75.9844 18.9526 75.563 18.74C72.1203 16.9974 67.5476 16.8079 63.7409 18.7585C63.3531 18.9618 62.9461 18.5551 62.9461 18.2038V15.7586C62.9461 15.3657 62.9509 14.6955 63.3579 14.0992L70.0757 4.79921H64.2293C63.8702 4.79921 63.5829 4.55423 63.5829 4.19369Z" fill="#161519"/>
<path fill-rule="evenodd" clip-rule="evenodd" d="M22.7633 19.2484H19.3588C19.0332 19.2253 18.7747 18.9896 18.7507 18.6891V1.82247C18.7507 1.48504 19.0428 1.21695 19.4067 1.21695H22.5813C22.9117 1.23081 23.175 1.4758 23.199 1.78087V3.98569H23.2612C24.0896 1.85482 25.6458 0.861034 27.743 0.861034C29.8738 0.861034 31.2049 1.85482 32.1625 3.98569C32.9861 1.85482 34.8583 0.861034 36.8646 0.861034C38.2915 0.861034 39.8524 1.42957 40.8053 2.70532C41.8827 4.12436 41.6624 6.18589 41.6624 7.9932L41.6576 18.6383C41.6576 18.9757 41.3655 19.2484 41.0016 19.2484H37.602C37.262 19.2253 36.9891 18.9618 36.9891 18.6383V9.69881C36.9891 8.98698 37.0561 7.21203 36.8933 6.53718C36.6395 5.40473 35.8782 5.08579 34.8918 5.08579C34.0683 5.08579 33.2064 5.61735 32.8568 6.46785C32.5073 7.31835 32.5408 8.742 32.5408 9.69881V18.6383C32.5408 18.9757 32.2487 19.2484 31.8848 19.2484H28.4852C28.1404 19.2253 27.8723 18.9618 27.8723 18.6383L27.8675 9.69881C27.8675 7.81755 28.1883 5.04881 25.7703 5.04881C23.3235 5.04881 23.4192 7.74821 23.4192 9.69881V18.6383C23.4192 18.9757 23.1272 19.2484 22.7633 19.2484Z" fill="#161519"/>
<path fill-rule="evenodd" clip-rule="evenodd" d="M85.6854 0.861034C90.7369 0.861034 93.471 5.04881 93.471 10.3737C93.471 15.5183 90.4496 19.5997 85.6854 19.5997C80.7248 19.5997 78.0242 15.4119 78.0242 10.1934C78.0242 4.9425 80.7583 0.861034 85.6854 0.861034ZM85.7141 4.30463C83.2051 4.30463 83.0471 7.60493 83.0471 9.66184C83.0471 11.7234 83.0135 16.1238 85.6854 16.1238C88.3237 16.1238 88.4482 12.5739 88.4482 10.4106C88.4482 8.98699 88.3859 7.28599 87.9406 5.93629C87.5576 4.76223 86.7962 4.30463 85.7141 4.30463Z" fill="#161519"/>
<path fill-rule="evenodd" clip-rule="evenodd" d="M100.021 19.2484H96.6313C96.2913 19.2253 96.0184 18.9618 96.0184 18.6383L96.0136 1.767C96.0423 1.45731 96.3248 1.21695 96.6696 1.21695H99.825C100.122 1.23081 100.366 1.42495 100.433 1.68842V4.26765H100.495C101.448 1.96113 102.784 0.861034 105.135 0.861034C106.663 0.861034 108.152 1.3926 109.109 2.84861C110 4.19831 110 6.46785 110 8.09951V18.7169C109.962 19.0127 109.679 19.2484 109.344 19.2484H105.93C105.619 19.2253 105.36 19.0034 105.327 18.7169V9.55552C105.327 7.71124 105.547 5.01183 103.196 5.01183C102.368 5.01183 101.606 5.54802 101.228 6.36153C100.749 7.3923 100.687 8.41845 100.687 9.55552V18.6383C100.682 18.9757 100.385 19.2484 100.021 19.2484Z" fill="#161519"/>
<path fill-rule="evenodd" clip-rule="evenodd" d="M54.6624 11.1918C54.6624 12.4722 54.6959 13.5399 54.0256 14.677C53.4845 15.6015 52.6226 16.17 51.6698 16.17C50.3626 16.17 49.5965 15.2086 49.5965 13.7895C49.5965 10.9884 52.1965 10.48 54.6624 10.48V11.1918ZM58.0956 19.2022C57.8705 19.3963 57.5449 19.4102 57.2912 19.2808C56.1611 18.3748 55.9552 17.9542 55.3376 17.0898C53.4701 18.9295 52.1438 19.4795 49.7257 19.4795C46.8576 19.4795 44.6311 17.7739 44.6311 14.3581C44.6311 11.691 46.125 9.87446 48.2606 8.98699C50.1088 8.2012 52.6897 8.06253 54.6624 7.84529V7.42004C54.6624 6.63887 54.7247 5.71442 54.2458 5.03957C53.8341 4.43405 53.0392 4.18445 52.3353 4.18445C51.0377 4.18445 49.8838 4.82694 49.6013 6.15815C49.5438 6.45398 49.3188 6.74518 49.0075 6.75905L45.7084 6.417C45.4307 6.35691 45.1195 6.13966 45.2009 5.72829C45.9574 1.86407 49.5773 0.699254 52.8142 0.699254C54.4709 0.699254 56.6352 1.1245 57.9424 2.33554C59.5991 3.82853 59.4411 5.82073 59.4411 7.98857V13.11C59.4411 14.6493 60.1019 15.3241 60.7243 16.1561C60.9398 16.4519 60.9877 16.8079 60.7099 17.0297C60.0157 17.589 58.7803 18.629 58.1004 19.2114L58.0956 19.2022Z" fill="#161519"/>
<path fill-rule="evenodd" clip-rule="evenodd" d="M10.0313 11.1919C10.0313 12.4723 10.0649 13.5401 9.39451 14.6771C8.85343 15.6016 7.99634 16.1701 7.0387 16.1701C5.73151 16.1701 4.97018 15.2087 4.97018 13.7897C4.97018 10.9886 7.57019 10.4801 10.0313 10.4801V11.1919ZM13.4645 19.2023C13.2395 19.3965 12.9139 19.4103 12.6601 19.2809C11.5301 18.3749 11.3289 17.9543 10.7065 17.09C8.83907 18.9296 7.51752 19.4797 5.09467 19.4797C2.23131 19.4797 0 17.7741 0 14.3582C0 11.6911 1.49872 9.87459 3.62948 8.98712C5.47773 8.20133 8.05859 8.06266 10.0313 7.84542V7.42017C10.0313 6.639 10.0936 5.71455 9.61955 5.0397C9.20297 4.43418 8.40813 4.18458 7.70905 4.18458C6.41144 4.18458 5.25269 4.82707 4.97018 6.15829C4.91272 6.45411 4.68767 6.74532 4.38123 6.75918L1.07735 6.41713C0.799634 6.35705 0.493187 6.1398 0.569798 5.72842C1.33113 1.8642 4.94624 0.699386 8.18308 0.699386C9.83981 0.699386 12.0041 1.12464 13.3113 2.33567C14.968 3.82866 14.81 5.82086 14.81 7.98871V13.1102C14.81 14.6494 15.4708 15.3242 16.0932 16.1563C16.3135 16.4521 16.3614 16.808 16.0837 17.0299C15.3894 17.5892 14.154 18.6292 13.4741 19.2116L13.4645 19.2023Z" fill="#161519"/>
</g>
</g>
<defs>
<clipPath id="clip0_3535_2511">
<rect width="110" height="32" fill="white" transform="translate(0 0.699219)"/>
</clipPath>
</defs>
</svg>
