<svg width="24" height="25" viewBox="0 0 24 25" fill="none" xmlns="http://www.w3.org/2000/svg">
<g id="apple-logo 1" clip-path="url(#clip0_3050_26971)">
<g id="Group">
<g id="Group_2">
<path id="Vector" d="M16.6187 0.676758C16.6746 0.676758 16.7304 0.676758 16.7895 0.676758C16.9265 2.36929 16.2804 3.63394 15.4953 4.54976C14.7249 5.45926 13.67 6.34136 11.9637 6.20752C11.8499 4.53923 12.497 3.36837 13.2811 2.45465C14.0083 1.60312 15.3414 0.845379 16.6187 0.676758Z" fill="white"/>
<path id="Vector_2" d="M21.7838 18.2931C21.7838 18.31 21.7838 18.3248 21.7838 18.3406C21.3043 19.7928 20.6203 21.0374 19.7856 22.1925C19.0237 23.2411 18.0899 24.6523 16.4227 24.6523C14.982 24.6523 14.0251 23.7259 12.5486 23.7006C10.9868 23.6753 10.1279 24.4752 8.69987 24.6765C8.53652 24.6765 8.37316 24.6765 8.21297 24.6765C7.16436 24.5247 6.3181 23.6943 5.70158 22.946C3.88364 20.735 2.47882 17.879 2.21745 14.2241C2.21745 13.8658 2.21745 13.5085 2.21745 13.1502C2.32811 10.5345 3.59909 8.40775 5.28846 7.37706C6.18004 6.82904 7.4057 6.36217 8.77048 6.57084C9.35538 6.66147 9.95293 6.86171 10.4767 7.05984C10.9731 7.25059 11.5938 7.58889 12.1819 7.57097C12.5803 7.55938 12.9765 7.35176 13.378 7.20527C14.5542 6.78056 15.7071 6.29367 17.2268 6.52236C19.0532 6.79848 20.3495 7.60996 21.1504 8.86197C19.6054 9.84524 18.384 11.327 18.5926 13.8574C18.7781 16.1559 20.1144 17.5006 21.7838 18.2931Z" fill="white"/>
</g>
</g>
</g>
<defs>
<clipPath id="clip0_3050_26971">
<rect width="24" height="24" fill="white" transform="translate(0 0.676758)"/>
</clipPath>
</defs>
</svg>
