<svg width="16" height="12" viewBox="0 0 16 12" fill="none" xmlns="http://www.w3.org/2000/svg">
<path id="Vector 292" d="M0.398625 5.46967C0.105732 5.76256 0.105732 6.23744 0.398625 6.53033L5.1716 11.3033C5.46449 11.5962 5.93936 11.5962 6.23226 11.3033C6.52515 11.0104 6.52515 10.5355 6.23226 10.2426L1.98962 6L6.23226 1.75736C6.52515 1.46447 6.52515 0.989593 6.23226 0.696699C5.93936 0.403806 5.46449 0.403806 5.1716 0.696699L0.398625 5.46967ZM15.0711 6.75C15.4853 6.75 15.8211 6.41421 15.8211 6C15.8211 5.58579 15.4853 5.25 15.0711 5.25V6.75ZM0.928955 6.75H15.0711V5.25H0.928955V6.75Z" fill="#15171E"/>
</svg>
