<svg width="16" height="16" viewBox="0 0 16 16" fill="none" xmlns="http://www.w3.org/2000/svg">
<g clip-path="url(#clip0_429_2052)">
<path d="M7.99992 8.00001H7.24992C7.24992 8.32283 7.45649 8.60944 7.76275 8.71152L7.99992 8.00001ZM8.74992 4.66668C8.74992 4.25246 8.41413 3.91668 7.99992 3.91668C7.58571 3.91668 7.24992 4.25246 7.24992 4.66668H8.74992ZM9.76275 9.37819C10.1557 9.50918 10.5804 9.29681 10.7114 8.90385C10.8424 8.51089 10.63 8.08615 10.2371 7.95516L9.76275 9.37819ZM8.74992 8.00001V4.66668H7.24992V8.00001H8.74992ZM7.76275 8.71152L9.76275 9.37819L10.2371 7.95516L8.23709 7.2885L7.76275 8.71152ZM13.9166 8.00001C13.9166 11.2677 11.2676 13.9167 7.99992 13.9167V15.4167C12.096 15.4167 15.4166 12.0961 15.4166 8.00001H13.9166ZM7.99992 13.9167C4.73223 13.9167 2.08325 11.2677 2.08325 8.00001H0.583252C0.583252 12.0961 3.90381 15.4167 7.99992 15.4167V13.9167ZM2.08325 8.00001C2.08325 4.73233 4.73223 2.08334 7.99992 2.08334V0.583344C3.90381 0.583344 0.583252 3.9039 0.583252 8.00001H2.08325ZM7.99992 2.08334C11.2676 2.08334 13.9166 4.73233 13.9166 8.00001H15.4166C15.4166 3.9039 12.096 0.583344 7.99992 0.583344V2.08334Z" fill="#878787"/>
</g>
<defs>
<clipPath id="clip0_429_2052">
<rect width="16" height="16" fill="white"/>
</clipPath>
</defs>
</svg>
