<svg width="52" height="53" viewBox="0 0 52 53" fill="none" xmlns="http://www.w3.org/2000/svg">
<g id="Electronic-Arts-Logo" clip-path="url(#clip0_3535_2501)">
<path id="path6401" fill-rule="evenodd" clip-rule="evenodd" d="M26 52.6996C11.6635 52.6996 0 41.0361 0 26.6997C0 12.3631 11.6635 0.699638 26 0.699638C40.3363 0.699638 52 12.3632 52 26.6997C52 41.036 40.3364 52.6996 26 52.6996ZM30.4007 16.6431H15.7068L13.4773 20.2259H28.1543L30.4007 16.6431ZM33.4035 16.6773L24.4208 30.9805H14.4569L16.7557 27.3946H22.7276L25.0089 23.8105H11.2028L8.92204 27.3946H12.1926L7.65483 34.554H26.5927L33.5875 23.5229L36.1379 27.3946H33.8382L31.6603 30.9805H38.4703L40.835 34.554H45.1791L33.4035 16.6773Z" fill="#161519"/>
</g>
<defs>
<clipPath id="clip0_3535_2501">
<rect width="52" height="52" fill="white" transform="translate(0 0.699219)"/>
</clipPath>
</defs>
</svg>
