<svg width="106" height="37" viewBox="0 0 106 37" fill="none" xmlns="http://www.w3.org/2000/svg">
<g id="Google_2015_logo" clip-path="url(#clip0_3535_2497)">
<g id="Vector">
<path d="M45.1088 19.161C45.1088 24.1579 41.2156 27.8401 36.4378 27.8401C31.66 27.8401 27.7669 24.1579 27.7669 19.161C27.7669 14.1288 31.66 10.4818 36.4378 10.4818C41.2156 10.4818 45.1088 14.1288 45.1088 19.161ZM41.313 19.161C41.313 16.0384 39.0567 13.9018 36.4378 13.9018C33.819 13.9018 31.5626 16.0384 31.5626 19.161C31.5626 22.2523 33.819 24.4201 36.4378 24.4201C39.0567 24.4201 41.313 22.2484 41.313 19.161Z" fill="#161519"/>
<path d="M63.8147 19.161C63.8147 24.1579 59.9215 27.8401 55.1437 27.8401C50.3659 27.8401 46.4728 24.1579 46.4728 19.161C46.4728 14.1327 50.3659 10.4818 55.1437 10.4818C59.9215 10.4818 63.8147 14.1288 63.8147 19.161ZM60.0189 19.161C60.0189 16.0384 57.7625 13.9018 55.1437 13.9018C52.5249 13.9018 50.2685 16.0384 50.2685 19.161C50.2685 22.2523 52.5249 24.4201 55.1437 24.4201C57.7625 24.4201 60.0189 22.2484 60.0189 19.161Z" fill="#161519"/>
<path d="M81.7411 11.0062V26.5879C81.7411 32.9975 77.9766 35.6153 73.5261 35.6153C69.3368 35.6153 66.8154 32.8018 65.8645 30.501L69.1692 29.1197C69.7577 30.5323 71.1996 32.1992 73.5222 32.1992C76.371 32.1992 78.1364 30.4344 78.1364 27.1123V25.864H78.0039C77.1543 26.9166 75.5175 27.8362 73.4521 27.8362C69.1302 27.8362 65.1708 24.0562 65.1708 19.1923C65.1708 14.2931 69.1302 10.4818 73.4521 10.4818C75.5136 10.4818 77.1504 11.4014 78.0039 12.4227H78.1364V11.0101H81.7411V11.0062ZM78.4053 19.1923C78.4053 16.1362 76.3749 13.9018 73.7911 13.9018C71.1723 13.9018 68.9783 16.1362 68.9783 19.1923C68.9783 22.217 71.1723 24.4201 73.7911 24.4201C76.3749 24.4201 78.4053 22.217 78.4053 19.1923Z" fill="#161519"/>
<path d="M87.6842 1.87313V27.3079H83.9819V1.87313H87.6842Z" fill="#161519"/>
<path d="M102.111 22.0175L105.057 23.9897C104.106 25.4023 101.815 27.8362 97.8555 27.8362C92.9452 27.8362 89.278 24.0249 89.278 19.157C89.278 13.9957 92.9764 10.4779 97.4307 10.4779C101.916 10.4779 104.11 14.0623 104.827 15.9992L105.221 16.9853L93.6661 21.7905C94.5508 23.5318 95.9264 24.4201 97.8555 24.4201C99.7884 24.4201 101.129 23.4653 102.111 22.0175ZM93.0426 18.8949L100.767 15.6744C100.342 14.5905 99.0636 13.8353 97.5593 13.8353C95.6302 13.8353 92.9452 15.5453 93.0426 18.8949Z" fill="#161519"/>
<path d="M13.7531 16.9031V13.221H26.1106C26.2314 13.8627 26.2938 14.6218 26.2938 15.4436C26.2938 18.2062 25.5417 21.6223 23.1177 24.0562C20.76 26.5214 17.7475 27.8362 13.7569 27.8362C6.36033 27.8362 0.140625 21.7866 0.140625 14.3597C0.140625 6.9327 6.36033 0.883133 13.7569 0.883133C17.8489 0.883133 20.7639 2.49531 22.954 4.59661L20.3664 7.19487C18.7958 5.71574 16.6681 4.56531 13.7531 4.56531C8.35173 4.56531 4.12732 8.93618 4.12732 14.3597C4.12732 19.7831 8.35173 24.154 13.7531 24.154C17.2565 24.154 19.2518 22.7414 20.53 21.4579C21.5667 20.417 22.2486 18.9301 22.5175 16.8992L13.7531 16.9031Z" fill="#161519"/>
</g>
</g>
<defs>
<clipPath id="clip0_3535_2497">
<rect width="106" height="36" fill="white" transform="translate(0 0.699219)"/>
</clipPath>
</defs>
</svg>
