<svg width="324" height="351" viewBox="0 0 324 351" fill="none" xmlns="http://www.w3.org/2000/svg">
<path d="M0.711426 122.658V128.263C0.711426 131.554 2.87948 134.851 7.20565 137.353L172.49 232.772C181.152 237.774 195.319 237.774 203.982 232.772L316.502 167.815C320.833 165.328 322.996 162.017 322.996 158.725V153.121L272.465 153.707L65.1614 122.658H0.711426Z" fill="white"/>
<path d="M187.882 229.017H185.629V236.351H187.882V229.017Z" fill="#B8A9A9"/>
<path d="M191.908 236.351C196.339 235.928 200.585 234.74 203.982 232.775L316.502 167.813C320.833 165.327 322.996 162.015 322.996 158.723V153.119L296.243 153.442L191.908 218.802V236.351Z" fill="#B8A9A9"/>
<path d="M0.711426 122.658V128.263C0.711426 131.554 2.87948 134.851 7.20565 137.353L172.49 232.772C181.152 237.774 195.319 237.774 203.982 232.772L316.502 167.815C320.833 165.328 322.996 162.017 322.996 158.725V153.121L272.465 153.707L65.1614 122.658H0.711426Z" stroke="black" stroke-miterlimit="10" stroke-linecap="round"/>
<path d="M312.41 145.825C319.371 149.853 319.371 156.442 312.41 160.469L200.949 224.815C193.987 228.843 182.55 228.843 175.588 224.815L11.3083 129.963C4.34661 125.935 4.34661 119.346 11.3083 115.318L122.749 50.9776C129.711 46.9547 141.148 46.9547 148.11 50.9776L312.41 145.825Z" fill="#02E56A" stroke="black" stroke-miterlimit="10" stroke-linecap="round"/>
<path d="M316.503 162.213C325.166 157.216 325.166 149.036 316.503 144.033L151.219 48.6088C142.561 43.6063 128.389 43.6063 119.732 48.6088L7.20697 113.571C-1.45034 118.573 -1.45034 126.753 7.20697 131.751L172.492 227.18C181.154 232.178 195.321 232.178 203.983 227.18L316.503 162.213ZM312.391 145.803C319.353 149.831 319.353 156.42 312.391 160.448L200.95 224.818C193.988 228.846 182.551 228.846 175.589 224.818L11.3094 129.966C4.34772 125.938 4.34772 119.349 11.3094 115.321L122.751 50.9807C129.712 46.9579 141.149 46.9579 148.111 50.9807L312.391 145.803Z" fill="white" stroke="black" stroke-miterlimit="10" stroke-linecap="round"/>
<path d="M224.703 66.0432V140.409L158.712 179.593L66.0722 126.107V71.4832H83.6205L224.703 66.0432Z" fill="#02E56A" stroke="black" stroke-miterlimit="10" stroke-linecap="round"/>
<path d="M141.291 169.533L158.71 179.593L224.702 140.409V66.0432L141.291 69.2605V169.533Z" fill="black"/>
<path d="M221.723 62.2604C225.731 64.5776 225.731 68.3667 221.723 70.684L148.348 113.046C144.335 115.363 137.771 115.363 133.758 113.046L69.0793 75.7013C65.0664 73.3841 65.0664 69.595 69.0793 67.2777L142.455 24.9161C146.463 22.6038 153.032 22.6038 157.04 24.9161L221.723 62.2604Z" fill="#02E56A"/>
<path d="M133.758 113.045C137.771 115.362 144.335 115.362 148.348 113.045L221.724 70.6634C225.732 68.3461 225.732 64.557 221.724 62.2398L212.614 56.9788L124.654 107.784L133.758 113.045Z" fill="#EBE9E9"/>
<path d="M221.723 62.2604C225.731 64.5776 225.731 68.3667 221.723 70.684L148.348 113.046C144.335 115.363 137.771 115.363 133.758 113.046L69.0793 75.7013C65.0664 73.3841 65.0664 69.595 69.0793 67.2777L142.455 24.9161C146.463 22.6038 153.032 22.6038 157.04 24.9161L221.723 62.2604Z" stroke="black" stroke-miterlimit="10"/>
<path d="M139.015 114.667V168.595" stroke="black" stroke-miterlimit="10" stroke-linecap="round"/>
<path d="M193.285 45.84C191.217 54.5719 188.73 61.8369 184.946 64.0199C179.64 67.083 176.9 51.101 174.22 34.8605C171.455 18.1227 168.75 1.08154 163.355 4.19936C159.253 6.5166 156.766 14.4728 154.673 23.9207C151.058 40.3303 148.77 61.3346 141.789 65.3625C131.814 71.1207 130.446 46.014 120.72 51.6281C116.195 54.2437 114.529 59.644 112.177 68.8831C109.004 81.3444 107.269 90.3548 105.429 96.7297L124.653 107.824L212.614 56.9985L193.285 45.84Z" fill="white" stroke="black" stroke-miterlimit="10"/>
<path d="M163.356 4.17456V81.4589C163.357 82.6683 163.676 83.8563 164.28 84.9036C164.885 85.951 165.755 86.8208 166.802 87.426L179.761 94.8849" stroke="black" stroke-miterlimit="10"/>
<path d="M184.947 64.0181V68.9907C184.948 70.2002 185.266 71.3884 185.871 72.4358C186.476 73.4832 187.346 74.353 188.393 74.9578L201.352 82.4167" stroke="black" stroke-miterlimit="10"/>
<path d="M206.536 53.4907V53.615C206.536 57.4042 209.221 62.0685 212.503 63.9531L222.946 69.9799" stroke="black" stroke-miterlimit="10"/>
<path d="M141.79 65.3425V93.9102C141.79 95.1196 142.109 96.3076 142.714 97.3549C143.319 98.4023 144.188 99.2721 145.236 99.8773L158.194 107.336" stroke="black" stroke-miterlimit="10"/>
<path d="M122.748 50.9802V106.688" stroke="black" stroke-miterlimit="10"/>
<path d="M165.342 5.32419C166.252 3.74733 166.102 1.95587 165.005 1.32285C163.909 0.68983 162.282 1.45496 161.371 3.03181C160.461 4.60867 160.612 6.40013 161.708 7.03315C162.805 7.66617 164.432 6.90104 165.342 5.32419Z" fill="black"/>
<path d="M164.697 4.95047C165.312 3.88497 165.211 2.67502 164.472 2.24797C163.732 1.82092 162.634 2.33848 162.019 3.40399C161.404 4.4695 161.504 5.67944 162.244 6.10649C162.984 6.53354 164.082 6.01598 164.697 4.95047Z" fill="#02E56A"/>
<path d="M83.0883 69.8838C83.532 69.7373 84.0005 69.6816 84.4661 69.7201C84.9317 69.7585 85.3848 69.8903 85.7984 70.1076C86.3802 70.4457 86.599 70.7888 86.5443 71.1816C86.4896 71.5745 86.1266 71.9972 85.4603 72.385L82.5811 74.0459L76.3455 70.4208L79.155 68.7998C79.7581 68.4365 80.441 68.2265 81.1441 68.1881C81.7269 68.1511 82.3079 68.286 82.8148 68.576C83.4513 68.9489 83.4663 69.4164 83.0784 69.8689L83.0883 69.8838ZM84.2718 71.8728C84.8884 71.5148 84.9183 71.1071 84.411 70.8137C84.1141 70.6563 83.7811 70.5795 83.4452 70.5909C83.1093 70.6022 82.7823 70.7013 82.4966 70.8783L81.0645 71.7038L82.8099 72.6983L84.2718 71.8529M78.6478 70.2816L80.1396 71.1419L81.517 70.3462C82.069 70.028 82.1883 69.6551 81.701 69.3517C81.4427 69.223 81.1552 69.1645 80.8672 69.1819C80.5792 69.1994 80.3008 69.2922 80.06 69.4512L78.6577 70.2617" fill="black"/>
<path d="M91.6725 68.0286C91.9014 68.1915 92.1725 68.2847 92.4532 68.2971H92.493L91.3443 68.9634C91.123 68.9254 90.9086 68.855 90.7078 68.7546C90.8222 69.0828 90.7575 69.4259 89.9868 69.8684C89.5479 70.1406 89.046 70.2943 88.53 70.3143C88.014 70.3343 87.5016 70.2201 87.043 69.9828C86.0485 69.411 86.5457 68.7596 87.4109 68.1032C88.0574 67.6059 88.3359 67.3772 87.9977 67.1783C87.7904 67.0857 87.5625 67.049 87.3366 67.0716C87.1107 67.0943 86.8946 67.1756 86.7098 67.3075C86.1479 67.6308 86.0783 67.9043 86.4711 68.1728L85.407 68.7844C84.6561 68.312 84.5567 67.5711 85.8744 66.7954C87.1922 66.0196 88.3607 66.0495 89.4149 66.6561L91.6725 68.0286ZM89.6337 68.1479L88.9624 67.7551C88.8069 67.9963 88.6138 68.2112 88.3905 68.3916C87.8933 68.8292 87.7391 69.0877 88.1568 69.3314C88.354 69.439 88.5773 69.4891 88.8015 69.4759C89.0257 69.4627 89.2417 69.3868 89.4249 69.2568C90.1111 68.859 90.0713 68.4015 89.6337 68.1479Z" fill="black"/>
<path d="M88.3294 63.5046L94.5601 67.1297L93.3667 67.8159L87.136 64.1958L88.3294 63.5046Z" fill="black"/>
<path d="M98.7821 63.9284C99.017 64.0949 99.295 64.1899 99.5827 64.2019H99.6224L98.4738 64.8633C98.252 64.8275 98.0372 64.757 97.8373 64.6544C97.9517 64.9876 97.887 65.3257 97.1113 65.7732C96.6738 66.0471 96.1722 66.2013 95.6565 66.2205C95.1408 66.2397 94.6291 66.1232 94.1725 65.8826C93.178 65.3108 93.6752 64.6644 94.5404 64.003C95.1819 63.5057 95.4654 63.277 95.1272 63.0831C94.9207 62.9883 94.6927 62.9499 94.4665 62.9717C94.2403 62.9936 94.0239 63.0749 93.8393 63.2074C93.2774 63.5306 93.2078 63.8041 93.5956 64.0726L92.4967 64.6992C91.7458 64.2019 91.6464 63.4809 92.9641 62.7101C94.2819 61.9394 95.4504 61.9642 96.5046 62.5759L98.7821 63.9284ZM96.7433 64.0428L96.072 63.6549C95.9149 63.8935 95.722 64.1065 95.5002 64.2864C95.0029 64.729 94.8488 64.9876 95.2665 65.2312C95.464 65.3382 95.6877 65.3874 95.9119 65.3733C96.1361 65.3593 96.3518 65.2824 96.5345 65.1517C97.2207 64.7588 97.1759 64.2964 96.7433 64.0428Z" fill="black"/>
<path d="M98.3947 59.5932C98.896 59.3341 99.4544 59.2056 100.019 59.2195C100.583 59.2334 101.134 59.3893 101.622 59.6728L104.556 61.3684L103.362 62.0596L100.617 60.4634C100.373 60.3229 100.096 60.249 99.8144 60.249C99.5326 60.249 99.2557 60.3229 99.0113 60.4634C98.4892 60.7667 98.5141 61.2292 99.1307 61.5872L101.667 63.079L100.473 63.7702L95.9979 61.1695L97.1665 60.4932L97.7781 60.8513C97.624 60.3341 97.7831 59.9512 98.3947 59.5932Z" fill="black"/>
<path d="M102.98 56.9441C103.536 56.629 104.157 56.4447 104.796 56.4051C105.434 56.3654 106.073 56.4716 106.664 56.7154L105.496 57.3916C105.252 57.2951 104.991 57.2518 104.729 57.2647C104.468 57.2776 104.212 57.3463 103.979 57.4662C103.263 57.8839 103.442 58.416 104.307 58.9182C104.667 59.1675 105.087 59.3171 105.524 59.352C105.96 59.387 106.398 59.3059 106.794 59.1171C107.291 58.8387 107.365 58.4956 106.938 58.1574L108.091 57.4911C108.962 58.0928 108.972 58.9829 107.768 59.6542C107.049 60.0412 106.245 60.2404 105.428 60.2334C104.612 60.2265 103.811 60.0136 103.099 59.6144C101.761 58.8387 101.607 57.7348 102.98 56.9441Z" fill="black"/>
<path d="M111.766 56.2883C112.234 56.0198 112.293 55.7413 112.085 55.4678L113.263 54.7866C113.89 55.3435 113.85 56.1441 112.691 56.8154C111.969 57.2137 111.157 57.4202 110.333 57.415C109.508 57.4097 108.699 57.193 107.982 56.7856C106.66 56.0148 106.535 54.891 107.853 54.1352C109.3 53.2948 111.17 53.4887 112.766 54.4186L109.499 56.3032C109.851 56.4807 110.24 56.5719 110.634 56.5693C111.029 56.5667 111.417 56.4704 111.766 56.2883ZM108.783 54.6573C108.151 55.0203 108.221 55.4181 108.698 55.8159L110.687 54.6623C110.391 54.5068 110.062 54.4255 109.728 54.4255C109.393 54.4255 109.064 54.5068 108.768 54.6623" fill="black"/>
<path d="M242.023 125.938L177.155 153.705H160.746V216.25L175.584 224.813C182.546 228.841 193.983 228.841 200.944 224.813L256.478 192.75V125.938H242.023Z" fill="#02E56A" stroke="black" stroke-miterlimit="10" stroke-linecap="round"/>
<path d="M182.262 167.37V227.236" stroke="black" stroke-miterlimit="10" stroke-linecap="round"/>
<path d="M184.539 150.562V227.598C190.282 228.294 196.513 227.369 200.949 224.808L256.483 192.745V125.938H242.022L184.539 150.562Z" fill="black"/>
<path d="M276.308 145.748L211.466 173.52H195.056V227.065C197.119 226.604 199.104 225.845 200.948 224.813L290.769 172.948V145.748H276.308Z" fill="#02E56A" stroke="black" stroke-miterlimit="10" stroke-linecap="round"/>
<path d="M216.399 187.14V215.887" stroke="black" stroke-miterlimit="10" stroke-linecap="round"/>
<path d="M218.677 170.422V214.569L290.77 172.948V145.728H276.309L218.677 170.422Z" fill="black"/>
<path d="M287.988 149.807C291.703 147.664 291.703 144.153 287.988 142.01L273.568 133.691C269.853 131.547 263.772 131.547 260.057 133.691L197.835 169.618C194.12 171.761 194.12 175.272 197.835 177.415L212.256 185.734C215.97 187.877 222.047 187.877 225.761 185.734L287.988 149.807Z" fill="white" stroke="black" stroke-miterlimit="10" stroke-linecap="round"/>
<path d="M229.597 158.954C230.263 158.583 231.009 158.379 231.771 158.358C232.532 158.337 233.288 158.501 233.973 158.835L232.745 159.541C232.415 159.372 232.051 159.285 231.681 159.285C231.311 159.285 230.946 159.372 230.617 159.541C229.915 159.949 230.03 160.535 230.746 161.107L232.337 160.187L232.864 160.496L231.218 161.445C231.296 161.5 231.378 161.55 231.462 161.595C231.566 161.659 231.676 161.719 231.785 161.774L233.431 160.819L233.958 161.127L232.352 162.047C232.765 162.247 233.218 162.351 233.677 162.351C234.136 162.351 234.589 162.247 235.002 162.047C235.694 161.644 235.5 161.147 234.873 160.68L236.062 159.993C237.315 160.804 237.444 161.828 236.012 162.654C235.248 163.039 234.408 163.25 233.552 163.273C232.697 163.295 231.847 163.128 231.064 162.783L230.567 163.066L230.04 162.758L230.467 162.514C230.358 162.465 230.249 162.4 230.144 162.34C230.04 162.281 229.975 162.241 229.901 162.186L229.478 162.435L228.951 162.127L229.448 161.848C228.245 160.869 228.23 159.745 229.597 158.954Z" fill="black"/>
<path d="M241.885 156.437L242.825 155.9L243.819 156.467L242.88 157.004L244.212 157.78L243.019 158.471L241.666 157.68L238.817 159.341L237.504 158.575L236.753 154.896L237.996 154.18L241.885 156.437ZM240.692 157.128L238.32 155.746L238.817 158.178H238.847L240.702 157.104" fill="black"/>
<path d="M241.508 152.089C242.124 151.738 242.819 151.547 243.528 151.535C244.237 151.523 244.938 151.689 245.566 152.02C246.719 152.691 246.471 153.462 246.217 154.193C246.048 154.645 245.879 155.187 246.063 155.54L248.912 153.899L249.907 154.481L245.476 157.042C245.073 156.838 244.756 156.498 244.582 156.081C244.407 155.664 244.388 155.199 244.526 154.769C244.69 153.969 245.113 153.228 244.322 152.78C244.053 152.612 243.743 152.518 243.425 152.507C243.108 152.497 242.793 152.57 242.512 152.721C241.891 153.079 241.965 153.551 242.746 154.024L241.602 154.7C240.205 153.869 240.041 152.939 241.508 152.089Z" fill="black"/>
<path d="M246.774 149.047C248.365 148.127 250.573 148.281 252.542 149.425C254.511 150.569 254.77 151.847 253.169 152.772C251.568 153.697 249.34 153.532 247.391 152.399C245.441 151.265 245.203 149.952 246.774 149.047ZM252.139 152.165C253.054 151.633 252.577 150.927 251.264 150.176C249.951 149.425 248.718 149.137 247.808 149.679C246.898 150.221 247.366 150.932 248.669 151.668C249.971 152.404 251.219 152.707 252.149 152.165" fill="black"/>
<path d="M252.458 145.751C254.054 144.831 256.257 144.99 258.226 146.129C260.195 147.267 260.454 148.55 258.852 149.475C257.251 150.4 255.028 150.236 253.074 149.102C251.12 147.968 250.891 146.666 252.458 145.751ZM257.823 148.869C258.743 148.341 258.261 147.63 256.948 146.879C255.635 146.129 254.407 145.84 253.467 146.382C252.527 146.924 253.024 147.635 254.327 148.371C255.63 149.107 256.878 149.406 257.808 148.869" fill="black"/>
<path d="M258.15 142.471C259.742 141.551 261.949 141.71 263.914 142.854C265.878 143.997 266.146 145.275 264.54 146.2C262.934 147.125 260.716 146.956 258.767 145.822C256.818 144.689 256.584 143.376 258.15 142.471ZM263.516 145.589C264.431 145.061 263.953 144.355 262.636 143.6C261.318 142.844 260.095 142.56 259.185 143.102C258.275 143.644 258.737 144.355 260.045 145.091C261.353 145.827 262.596 146.126 263.526 145.589" fill="black"/>
<path d="M285.186 144.353C284.401 143.958 283.535 143.752 282.657 143.752C281.779 143.752 280.913 143.958 280.129 144.353L271.635 149.256C270.243 150.061 270.243 151.374 271.635 152.175C272.419 152.569 273.284 152.775 274.162 152.775C275.039 152.775 275.904 152.569 276.688 152.175L285.186 147.272C286.553 146.466 286.553 145.153 285.186 144.353Z" fill="#B8A9A9"/>
<path d="M245.729 193.313H229.34V208.419L283.586 177.097L245.729 193.313Z" fill="#02E56A" stroke="black" stroke-miterlimit="10" stroke-linecap="round"/>
<path d="M315.593 157.947L307.861 153.471C304.146 151.323 298.07 151.323 294.355 153.471L232.123 189.413C228.409 191.562 228.409 195.067 232.123 197.216L240.432 202.009L312.411 160.468C313.596 159.797 314.669 158.947 315.593 157.947Z" fill="white" stroke="black" stroke-miterlimit="10" stroke-linecap="round"/>
<path d="M240.049 193.432C240.049 195.745 241.879 197.818 244.753 199.181L262.918 188.694C260.551 187.038 256.951 185.979 252.973 185.979C245.827 185.979 240.049 189.315 240.049 193.432Z" fill="black"/>
<path d="M218.677 181.122C226.037 181.122 232.003 177.678 232.003 173.429C232.003 169.181 226.037 165.737 218.677 165.737C211.317 165.737 205.35 169.181 205.35 173.429C205.35 177.678 211.317 181.122 218.677 181.122Z" fill="black"/>
<path d="M221.188 173.303L222.625 172.473C224.146 173.467 224.301 174.695 222.565 175.7C220.929 176.645 218.652 176.694 216.568 175.859L215.976 176.197L215.34 175.824L215.837 175.531C215.708 175.466 215.579 175.391 215.444 175.317C215.31 175.242 215.24 175.198 215.156 175.133L214.659 175.431L214.022 175.058L214.599 174.725C213.107 173.527 213.107 172.164 214.773 171.205C215.579 170.756 216.481 170.508 217.403 170.483C218.325 170.458 219.24 170.656 220.069 171.06L218.577 171.921C218.178 171.716 217.736 171.609 217.287 171.609C216.838 171.609 216.396 171.716 215.996 171.921C215.146 172.418 215.285 173.099 216.15 173.815L218.085 172.701L218.726 173.074L216.737 174.228C216.822 174.288 216.931 174.352 217.026 174.407C217.12 174.462 217.289 174.561 217.418 174.626L219.407 173.472L220.044 173.84L218.125 174.949C219.373 175.446 220.482 175.446 221.332 174.949C222.182 174.452 221.968 173.875 221.188 173.303Z" fill="white"/>
<path d="M253.703 130.015C257.417 127.867 257.417 124.361 253.703 122.213L239.282 113.894C235.568 111.751 229.491 111.751 225.777 113.894L163.549 149.826C159.835 151.969 159.835 155.48 163.549 157.623L177.97 165.942C181.685 168.09 187.766 168.09 191.481 165.942L253.703 130.015Z" fill="white" stroke="black" stroke-miterlimit="10" stroke-linecap="round"/>
<path d="M197.579 140.189C198.971 139.652 200.319 139.289 201.592 140.03C202.785 140.726 202.531 141.651 201.318 142.427L202.074 142.865L201.537 143.178L200.766 142.73C199.21 143.526 197.668 143.591 196.42 142.909L197.643 142.198C197.977 142.358 198.343 142.437 198.713 142.429C199.082 142.421 199.445 142.327 199.772 142.153L198.076 141.159H198.021C196.669 141.656 195.361 142.064 194.078 141.318C192.924 140.647 193.208 139.767 194.406 139.006L193.879 138.697L194.421 138.389L194.958 138.697C195.565 138.379 196.238 138.206 196.923 138.192C197.608 138.178 198.287 138.324 198.906 138.618L197.708 139.309C197.434 139.189 197.139 139.126 196.84 139.121C196.541 139.117 196.245 139.172 195.968 139.284L197.514 140.184L197.579 140.189ZM200.314 141.84C200.781 141.512 200.975 141.129 200.478 140.846C199.981 140.562 199.483 140.677 198.747 140.935L200.314 141.84ZM196.833 140.458L195.376 139.612C194.879 139.97 194.779 140.319 195.172 140.547C195.565 140.776 196.052 140.726 196.833 140.458Z" fill="black"/>
<path d="M201.584 134.904C203.22 133.959 205.164 134.024 207.242 135.232C209.202 136.371 209.868 137.52 208.058 138.564C207.498 138.904 206.866 139.11 206.213 139.166C205.56 139.221 204.903 139.124 204.294 138.882L205.482 138.196C205.745 138.285 206.024 138.317 206.301 138.291C206.578 138.266 206.846 138.182 207.088 138.047C207.476 137.823 207.65 137.589 207.586 137.306C207.521 137.022 207.158 136.62 206.531 136.247C206.581 136.649 206.447 137.072 205.771 137.465C205.102 137.83 204.352 138.021 203.59 138.021C202.828 138.021 202.079 137.83 201.41 137.465C200.147 136.764 200.256 135.67 201.584 134.904ZM204.955 136.799C205.656 136.391 205.731 135.804 205.025 135.401C204.653 135.201 204.237 135.096 203.814 135.096C203.391 135.096 202.975 135.201 202.603 135.401C201.892 135.809 201.897 136.396 202.558 136.784C202.924 136.99 203.337 137.099 203.757 137.099C204.177 137.099 204.589 136.99 204.955 136.784" fill="black"/>
<path d="M206.829 131.877C207.445 131.525 208.139 131.333 208.848 131.32C209.558 131.307 210.259 131.473 210.887 131.803C212.04 132.474 211.797 133.25 211.538 133.976C211.317 134.39 211.262 134.874 211.384 135.328L214.233 133.682L215.228 134.269L210.797 136.825C210.396 136.62 210.08 136.279 209.907 135.862C209.734 135.446 209.715 134.982 209.852 134.552C210.022 133.752 210.434 133.016 209.649 132.563C209.379 132.394 209.068 132.298 208.75 132.287C208.431 132.276 208.115 132.349 207.834 132.499C207.212 132.857 207.292 133.329 208.072 133.802L206.919 134.468C205.526 133.652 205.362 132.722 206.829 131.877Z" fill="black"/>
<path d="M212.089 128.841C213.68 127.921 215.888 128.08 217.852 129.219C219.817 130.358 220.085 131.646 218.484 132.571C216.883 133.496 214.655 133.327 212.706 132.193C210.756 131.059 210.523 129.731 212.089 128.841ZM217.435 131.944C218.355 131.417 217.872 130.706 216.555 129.955C215.237 129.204 214.013 128.916 213.104 129.458C212.194 130 212.656 130.711 213.964 131.472C215.272 132.233 216.515 132.506 217.445 131.969" fill="black"/>
<path d="M217.778 125.539C219.374 124.619 221.577 124.778 223.546 125.922C225.516 127.066 225.779 128.344 224.173 129.269C222.567 130.193 220.349 130.029 218.395 128.896C216.441 127.762 216.212 126.444 217.778 125.539ZM223.144 128.662C224.064 128.13 223.581 127.424 222.268 126.673C220.956 125.922 219.723 125.634 218.818 126.176C217.912 126.718 218.37 127.429 219.673 128.165C220.976 128.901 222.229 129.199 223.154 128.662" fill="black"/>
<path d="M250.9 124.556C250.116 124.161 249.251 123.955 248.374 123.955C247.496 123.955 246.631 124.161 245.848 124.556L237.35 129.464C235.962 130.264 235.962 131.577 237.35 132.378C238.132 132.775 238.998 132.982 239.876 132.982C240.753 132.982 241.619 132.775 242.402 132.378L250.9 127.475C252.287 126.674 252.287 125.361 250.9 124.556Z" fill="#B8A9A9"/>
<path d="M184.539 161.419C191.899 161.419 197.865 157.975 197.865 153.726C197.865 149.478 191.899 146.034 184.539 146.034C177.179 146.034 171.212 149.478 171.212 153.726C171.212 157.975 177.179 161.419 184.539 161.419Z" fill="#02E56A"/>
<path d="M183.445 153.072C184.937 152.5 186.374 152.112 187.736 152.898C189.014 153.644 188.731 154.633 187.443 155.459L188.254 155.956L187.677 156.289L186.856 155.792C185.19 156.642 183.54 156.712 182.207 155.981L183.52 155.225C183.875 155.398 184.267 155.484 184.662 155.475C185.057 155.466 185.445 155.364 185.792 155.175L183.977 154.121L183.917 154.146C182.475 154.668 181.073 155.111 179.706 154.315C178.472 153.599 178.776 152.659 180.054 151.829L179.492 151.5L180.069 151.167L180.645 151.5C181.293 151.159 182.011 150.974 182.743 150.958C183.475 150.943 184.201 151.098 184.862 151.411L183.584 152.147C183.29 152.024 182.974 151.96 182.654 151.96C182.335 151.96 182.019 152.024 181.725 152.147L183.375 153.112L183.445 153.072ZM186.369 154.837C186.866 154.484 187.075 154.076 186.548 153.773C186.021 153.47 185.494 153.594 184.698 153.867L186.369 154.837ZM182.674 153.345L181.133 152.455C180.581 152.838 180.491 153.211 180.914 153.45C181.337 153.688 181.854 153.639 182.689 153.355" fill="black"/>
<path d="M175.479 183.994V224.814L142.411 205.659L175.479 183.994Z" fill="black"/>
<path d="M172.141 179.125C176.616 181.701 176.616 185.918 172.141 188.499L142.409 205.659L20.4861 135.267L50.2123 118.101C54.6877 115.525 61.9825 115.525 66.4479 118.101L172.141 179.125Z" fill="white" stroke="black" stroke-miterlimit="10" stroke-linecap="round"/>
<path d="M19.1908 126.836C23.1867 126.836 26.426 124.966 26.426 122.659C26.426 120.352 23.1867 118.482 19.1908 118.482C15.195 118.482 11.9557 120.352 11.9557 122.659C11.9557 124.966 15.195 126.836 19.1908 126.836Z" fill="black"/>
<path d="M132.77 142.522C132.77 144.128 131.631 144.785 130.239 143.984L120.209 138.191C119.475 137.711 118.864 137.065 118.425 136.306C117.987 135.547 117.732 134.695 117.683 133.82V129.016C117.683 127.41 118.817 126.754 120.209 127.554L130.239 133.323C130.974 133.802 131.587 134.449 132.026 135.209C132.466 135.969 132.721 136.822 132.77 137.699V142.522Z" stroke="black" stroke-miterlimit="10" stroke-linecap="round"/>
<path d="M127.878 139.413C129.867 138.254 129.867 136.355 127.878 135.196L123.129 132.456C122.648 132.214 122.116 132.087 121.578 132.087C121.039 132.087 120.507 132.214 120.026 132.456L114.68 135.539C112.562 136.762 112.562 138.766 114.68 140.015L118.758 142.367C119.385 142.684 120.077 142.849 120.779 142.849C121.482 142.849 122.174 142.684 122.801 142.367L127.878 139.413Z" fill="white" stroke="black" stroke-miterlimit="10" stroke-linecap="round"/>
<path d="M62.3929 264.6L48.9271 244.401C46.6745 241.025 42.8605 237.405 33.2932 239.429L24.3177 241.308C14.1288 243.441 5.00905 240.493 2.64208 234.297C1.68237 231.811 0.697792 225.247 12.1895 218.608L70.1552 185.143C72.2288 183.944 74.4913 180.836 74.9935 178.494L75.5753 175.774C76.2765 172.502 79.0959 168.629 81.995 166.953L98.9018 157.182C101.01 155.963 103.457 152.846 104.138 150.508C105.063 147.336 108.027 143.547 110.891 141.911L116.316 138.778C117.599 138.037 119.339 140.847 117.972 141.642L112.562 144.76C110.458 145.973 108.017 149.086 107.335 151.418C106.406 154.596 103.437 158.38 100.573 160.031L83.6658 169.802C81.5922 171.001 79.3297 174.108 78.8274 176.455L78.2456 179.171C77.5445 182.442 74.725 186.321 71.826 187.992L13.8653 221.458C7.40087 225.182 4.3825 229.533 5.74996 233.098C7.67934 238.151 16.3714 239.563 23.6513 238.071L32.602 236.191C41.4632 234.332 47.5199 236.365 51.667 242.581L65.1378 262.78L62.3929 264.6Z" fill="white" stroke="black" stroke-miterlimit="10" stroke-linecap="round"/>
<path d="M121.613 140.458L129.012 136.187" stroke="black" stroke-miterlimit="10" stroke-linecap="round"/>
<path d="M154.078 304.874L138.245 301.21L116.863 269.629C115.555 267.694 111.776 266.734 108.444 267.485L49.7676 280.727L10.7027 271.682V292.11C10.708 292.602 10.8642 293.081 11.1503 293.482L47.9177 347.778C49.2305 349.712 53.0047 350.672 56.3413 349.921L149.956 328.793C152.512 328.216 154.073 326.804 154.073 325.312L154.078 304.874Z" fill="white"/>
<path d="M154.072 325.291V309.12L55.0877 331.447C54.2764 331.629 53.5513 332.082 53.0316 332.731C52.5119 333.38 52.2286 334.186 52.2284 335.018V350.025C53.5905 350.249 54.9827 350.212 56.3308 349.916L149.955 328.792C152.511 328.215 154.072 326.798 154.072 325.291Z" fill="#B8A9A9"/>
<path d="M154.078 304.874L138.245 301.21L116.863 269.629C115.555 267.694 111.776 266.734 108.444 267.485L49.7676 280.727L10.7027 271.682V292.11C10.708 292.602 10.8642 293.081 11.1503 293.482L47.9177 347.778C49.2305 349.712 53.0047 350.672 56.3413 349.921L149.956 328.793C152.512 328.216 154.073 326.804 154.073 325.312L154.078 304.874Z" stroke="black" stroke-miterlimit="10" stroke-linecap="round"/>
<path d="M153.63 303.495C154.938 305.43 153.287 307.618 149.955 308.368L56.3213 329.492C52.9847 330.243 49.2104 329.283 47.8977 327.349L11.1451 273.048C9.83235 271.114 11.4783 268.931 14.8149 268.18L108.434 247.056C111.771 246.305 115.55 247.265 116.858 249.199L153.63 303.495Z" fill="white" stroke="black" stroke-miterlimit="10" stroke-linecap="round"/>
<path d="M21.8325 273.372C22.1484 273.372 22.4044 273.223 22.4044 273.039C22.4044 272.855 22.1484 272.706 21.8325 272.706C21.5167 272.706 21.2607 272.855 21.2607 273.039C21.2607 273.223 21.5167 273.372 21.8325 273.372Z" fill="black"/>
<path d="M31.4541 271.198C31.7699 271.198 32.0259 271.049 32.0259 270.865C32.0259 270.681 31.7699 270.532 31.4541 270.532C31.1383 270.532 30.8822 270.681 30.8822 270.865C30.8822 271.049 31.1383 271.198 31.4541 271.198Z" fill="black"/>
<path d="M41.0782 269.031C41.394 269.031 41.6501 268.882 41.6501 268.698C41.6501 268.514 41.394 268.365 41.0782 268.365C40.7624 268.365 40.5064 268.514 40.5064 268.698C40.5064 268.882 40.7624 269.031 41.0782 269.031Z" fill="black"/>
<path d="M50.6998 266.857C51.0156 266.857 51.2716 266.708 51.2716 266.524C51.2716 266.34 51.0156 266.191 50.6998 266.191C50.384 266.191 50.1279 266.34 50.1279 266.524C50.1279 266.708 50.384 266.857 50.6998 266.857Z" fill="black"/>
<path d="M60.3154 264.691C60.6312 264.691 60.8872 264.541 60.8872 264.357C60.8872 264.173 60.6312 264.024 60.3154 264.024C59.9995 264.024 59.7435 264.173 59.7435 264.357C59.7435 264.541 59.9995 264.691 60.3154 264.691Z" fill="black"/>
<path d="M69.9369 262.517C70.2528 262.517 70.5088 262.368 70.5088 262.184C70.5088 262 70.2528 261.85 69.9369 261.85C69.6211 261.85 69.3651 262 69.3651 262.184C69.3651 262.368 69.6211 262.517 69.9369 262.517Z" fill="black"/>
<path d="M79.5585 260.35C79.8743 260.35 80.1304 260.201 80.1304 260.017C80.1304 259.833 79.8743 259.683 79.5585 259.683C79.2427 259.683 78.9866 259.833 78.9866 260.017C78.9866 260.201 79.2427 260.35 79.5585 260.35Z" fill="black"/>
<path d="M89.1826 258.176C89.4984 258.176 89.7545 258.027 89.7545 257.843C89.7545 257.659 89.4984 257.51 89.1826 257.51C88.8668 257.51 88.6108 257.659 88.6108 257.843C88.6108 258.027 88.8668 258.176 89.1826 258.176Z" fill="black"/>
<path d="M98.7982 256.009C99.1141 256.009 99.3701 255.86 99.3701 255.676C99.3701 255.492 99.1141 255.343 98.7982 255.343C98.4824 255.343 98.2264 255.492 98.2264 255.676C98.2264 255.86 98.4824 256.009 98.7982 256.009Z" fill="black"/>
<path d="M108.42 253.835C108.736 253.835 108.992 253.686 108.992 253.502C108.992 253.318 108.736 253.169 108.42 253.169C108.104 253.169 107.848 253.318 107.848 253.502C107.848 253.686 108.104 253.835 108.42 253.835Z" fill="black"/>
<path d="M25.7316 279.126C26.0474 279.126 26.3034 278.977 26.3034 278.793C26.3034 278.609 26.0474 278.46 25.7316 278.46C25.4158 278.46 25.1597 278.609 25.1597 278.793C25.1597 278.977 25.4158 279.126 25.7316 279.126Z" fill="black"/>
<path d="M35.354 276.954C35.6698 276.954 35.9258 276.805 35.9258 276.621C35.9258 276.437 35.6698 276.288 35.354 276.288C35.0382 276.288 34.7821 276.437 34.7821 276.621C34.7821 276.805 35.0382 276.954 35.354 276.954Z" fill="black"/>
<path d="M54.5928 272.612C54.9087 272.612 55.1647 272.462 55.1647 272.278C55.1647 272.094 54.9087 271.945 54.5928 271.945C54.277 271.945 54.021 272.094 54.021 272.278C54.021 272.462 54.277 272.612 54.5928 272.612Z" fill="black"/>
<path d="M64.2144 270.445C64.5302 270.445 64.7862 270.296 64.7862 270.112C64.7862 269.928 64.5302 269.778 64.2144 269.778C63.8986 269.778 63.6425 269.928 63.6425 270.112C63.6425 270.296 63.8986 270.445 64.2144 270.445Z" fill="black"/>
<path d="M73.836 268.271C74.1518 268.271 74.4078 268.122 74.4078 267.938C74.4078 267.754 74.1518 267.604 73.836 267.604C73.5202 267.604 73.2641 267.754 73.2641 267.938C73.2641 268.122 73.5202 268.271 73.836 268.271Z" fill="black"/>
<path d="M83.4584 266.104C83.7742 266.104 84.0302 265.955 84.0302 265.771C84.0302 265.587 83.7742 265.438 83.4584 265.438C83.1426 265.438 82.8865 265.587 82.8865 265.771C82.8865 265.955 83.1426 266.104 83.4584 266.104Z" fill="black"/>
<path d="M102.697 261.763C103.013 261.763 103.269 261.614 103.269 261.43C103.269 261.246 103.013 261.097 102.697 261.097C102.381 261.097 102.125 261.246 102.125 261.43C102.125 261.614 102.381 261.763 102.697 261.763Z" fill="black"/>
<path d="M112.319 259.589C112.635 259.589 112.891 259.44 112.891 259.256C112.891 259.072 112.635 258.923 112.319 258.923C112.003 258.923 111.747 259.072 111.747 259.256C111.747 259.44 112.003 259.589 112.319 259.589Z" fill="black"/>
<path d="M29.6289 284.882C29.9447 284.882 30.2007 284.733 30.2007 284.549C30.2007 284.365 29.9447 284.216 29.6289 284.216C29.3131 284.216 29.057 284.365 29.057 284.549C29.057 284.733 29.3131 284.882 29.6289 284.882Z" fill="black"/>
<path d="M39.253 282.71C39.5689 282.71 39.8249 282.561 39.8249 282.377C39.8249 282.193 39.5689 282.044 39.253 282.044C38.9372 282.044 38.6812 282.193 38.6812 282.377C38.6812 282.561 38.9372 282.71 39.253 282.71Z" fill="black"/>
<path d="M48.8686 280.536C49.1844 280.536 49.4405 280.387 49.4405 280.203C49.4405 280.019 49.1844 279.87 48.8686 279.87C48.5528 279.87 48.2968 280.019 48.2968 280.203C48.2968 280.387 48.5528 280.536 48.8686 280.536Z" fill="black"/>
<path d="M58.4902 278.369C58.806 278.369 59.062 278.22 59.062 278.036C59.062 277.852 58.806 277.703 58.4902 277.703C58.1743 277.703 57.9183 277.852 57.9183 278.036C57.9183 278.22 58.1743 278.369 58.4902 278.369Z" fill="black"/>
<path d="M68.1117 276.201C68.4276 276.201 68.6836 276.051 68.6836 275.867C68.6836 275.683 68.4276 275.534 68.1117 275.534C67.7959 275.534 67.5399 275.683 67.5399 275.867C67.5399 276.051 67.7959 276.201 68.1117 276.201Z" fill="black"/>
<path d="M77.7359 274.028C78.0517 274.028 78.3077 273.879 78.3077 273.695C78.3077 273.511 78.0517 273.362 77.7359 273.362C77.42 273.362 77.164 273.511 77.164 273.695C77.164 273.879 77.42 274.028 77.7359 274.028Z" fill="black"/>
<path d="M87.3514 271.855C87.6673 271.855 87.9233 271.705 87.9233 271.521C87.9233 271.337 87.6673 271.188 87.3514 271.188C87.0356 271.188 86.7796 271.337 86.7796 271.521C86.7796 271.705 87.0356 271.855 87.3514 271.855Z" fill="black"/>
<path d="M96.973 269.688C97.2889 269.688 97.5449 269.538 97.5449 269.354C97.5449 269.17 97.2889 269.021 96.973 269.021C96.6572 269.021 96.4012 269.17 96.4012 269.354C96.4012 269.538 96.6572 269.688 96.973 269.688Z" fill="black"/>
<path d="M106.595 267.514C106.91 267.514 107.166 267.365 107.166 267.181C107.166 266.997 106.91 266.847 106.595 266.847C106.279 266.847 106.023 266.997 106.023 267.181C106.023 267.365 106.279 267.514 106.595 267.514Z" fill="black"/>
<path d="M116.213 265.347C116.529 265.347 116.785 265.198 116.785 265.014C116.785 264.83 116.529 264.68 116.213 264.68C115.897 264.68 115.641 264.83 115.641 265.014C115.641 265.198 115.897 265.347 116.213 265.347Z" fill="black"/>
<path d="M33.5279 290.633C33.8438 290.633 34.0998 290.484 34.0998 290.3C34.0998 290.116 33.8438 289.967 33.5279 289.967C33.2121 289.967 32.9561 290.116 32.9561 290.3C32.9561 290.484 33.2121 290.633 33.5279 290.633Z" fill="black"/>
<path d="M43.1461 288.466C43.4619 288.466 43.7179 288.317 43.7179 288.133C43.7179 287.949 43.4619 287.8 43.1461 287.8C42.8303 287.8 42.5742 287.949 42.5742 288.133C42.5742 288.317 42.8303 288.466 43.1461 288.466Z" fill="black"/>
<path d="M52.7676 286.292C53.0835 286.292 53.3395 286.143 53.3395 285.959C53.3395 285.775 53.0835 285.626 52.7676 285.626C52.4518 285.626 52.1958 285.775 52.1958 285.959C52.1958 286.143 52.4518 286.292 52.7676 286.292Z" fill="black"/>
<path d="M62.3892 284.123C62.7051 284.123 62.9611 283.974 62.9611 283.79C62.9611 283.606 62.7051 283.457 62.3892 283.457C62.0734 283.457 61.8174 283.606 61.8174 283.79C61.8174 283.974 62.0734 284.123 62.3892 284.123Z" fill="black"/>
<path d="M72.0074 281.951C72.3232 281.951 72.5792 281.802 72.5792 281.618C72.5792 281.434 72.3232 281.285 72.0074 281.285C71.6915 281.285 71.4355 281.434 71.4355 281.618C71.4355 281.802 71.6915 281.951 72.0074 281.951Z" fill="black"/>
<path d="M81.6289 279.783C81.9448 279.783 82.2008 279.633 82.2008 279.449C82.2008 279.265 81.9448 279.116 81.6289 279.116C81.3131 279.116 81.0571 279.265 81.0571 279.449C81.0571 279.633 81.3131 279.783 81.6289 279.783Z" fill="black"/>
<path d="M91.2505 277.61C91.5663 277.61 91.8224 277.461 91.8224 277.277C91.8224 277.093 91.5663 276.944 91.2505 276.944C90.9347 276.944 90.6786 277.093 90.6786 277.277C90.6786 277.461 90.9347 277.61 91.2505 277.61Z" fill="black"/>
<path d="M100.872 275.442C101.188 275.442 101.444 275.293 101.444 275.109C101.444 274.925 101.188 274.775 100.872 274.775C100.556 274.775 100.3 274.925 100.3 275.109C100.3 275.293 100.556 275.442 100.872 275.442Z" fill="black"/>
<path d="M110.49 273.27C110.806 273.27 111.062 273.12 111.062 272.936C111.062 272.752 110.806 272.603 110.49 272.603C110.174 272.603 109.918 272.752 109.918 272.936C109.918 273.12 110.174 273.27 110.49 273.27Z" fill="black"/>
<path d="M120.112 271.101C120.428 271.101 120.684 270.952 120.684 270.768C120.684 270.584 120.428 270.435 120.112 270.435C119.796 270.435 119.54 270.584 119.54 270.768C119.54 270.952 119.796 271.101 120.112 271.101Z" fill="black"/>
<path d="M37.4218 296.394C37.7377 296.394 37.9937 296.245 37.9937 296.061C37.9937 295.877 37.7377 295.728 37.4218 295.728C37.106 295.728 36.85 295.877 36.85 296.061C36.85 296.245 37.106 296.394 37.4218 296.394Z" fill="black"/>
<path d="M47.0434 294.22C47.3592 294.22 47.6153 294.071 47.6153 293.887C47.6153 293.703 47.3592 293.554 47.0434 293.554C46.7276 293.554 46.4716 293.703 46.4716 293.887C46.4716 294.071 46.7276 294.22 47.0434 294.22Z" fill="black"/>
<path d="M56.665 292.048C56.9808 292.048 57.2368 291.899 57.2368 291.715C57.2368 291.531 56.9808 291.382 56.665 291.382C56.3491 291.382 56.0931 291.531 56.0931 291.715C56.0931 291.899 56.3491 292.048 56.665 292.048Z" fill="black"/>
<path d="M66.2831 289.879C66.5989 289.879 66.855 289.73 66.855 289.546C66.855 289.362 66.5989 289.213 66.2831 289.213C65.9673 289.213 65.7113 289.362 65.7113 289.546C65.7113 289.73 65.9673 289.879 66.2831 289.879Z" fill="black"/>
<path d="M75.9047 287.707C76.2205 287.707 76.4765 287.558 76.4765 287.374C76.4765 287.19 76.2205 287.041 75.9047 287.041C75.5889 287.041 75.3329 287.19 75.3329 287.374C75.3329 287.558 75.5889 287.707 75.9047 287.707Z" fill="black"/>
<path d="M85.5263 285.538C85.8421 285.538 86.0981 285.389 86.0981 285.205C86.0981 285.021 85.8421 284.872 85.5263 284.872C85.2104 284.872 84.9544 285.021 84.9544 285.205C84.9544 285.389 85.2104 285.538 85.5263 285.538Z" fill="black"/>
<path d="M95.1478 283.366C95.4637 283.366 95.7197 283.217 95.7197 283.033C95.7197 282.849 95.4637 282.7 95.1478 282.7C94.832 282.7 94.576 282.849 94.576 283.033C94.576 283.217 94.832 283.366 95.1478 283.366Z" fill="black"/>
<path d="M104.766 281.192C105.082 281.192 105.338 281.043 105.338 280.859C105.338 280.675 105.082 280.526 104.766 280.526C104.45 280.526 104.194 280.675 104.194 280.859C104.194 281.043 104.45 281.192 104.766 281.192Z" fill="black"/>
<path d="M114.388 279.025C114.703 279.025 114.959 278.876 114.959 278.692C114.959 278.508 114.703 278.359 114.388 278.359C114.072 278.359 113.816 278.508 113.816 278.692C113.816 278.876 114.072 279.025 114.388 279.025Z" fill="black"/>
<path d="M124.009 276.852C124.325 276.852 124.581 276.702 124.581 276.518C124.581 276.334 124.325 276.185 124.009 276.185C123.693 276.185 123.437 276.334 123.437 276.518C123.437 276.702 123.693 276.852 124.009 276.852Z" fill="black"/>
<path d="M41.3209 302.145C41.6367 302.145 41.8927 301.995 41.8927 301.811C41.8927 301.627 41.6367 301.478 41.3209 301.478C41.0051 301.478 40.749 301.627 40.749 301.811C40.749 301.995 41.0051 302.145 41.3209 302.145Z" fill="black"/>
<path d="M50.9425 299.971C51.2583 299.971 51.5143 299.822 51.5143 299.638C51.5143 299.454 51.2583 299.304 50.9425 299.304C50.6266 299.304 50.3706 299.454 50.3706 299.638C50.3706 299.822 50.6266 299.971 50.9425 299.971Z" fill="black"/>
<path d="M70.1822 295.63C70.498 295.63 70.754 295.481 70.754 295.297C70.754 295.113 70.498 294.964 70.1822 294.964C69.8663 294.964 69.6103 295.113 69.6103 295.297C69.6103 295.481 69.8663 295.63 70.1822 295.63Z" fill="black"/>
<path d="M79.8037 293.463C80.1195 293.463 80.3756 293.314 80.3756 293.13C80.3756 292.946 80.1195 292.797 79.8037 292.797C79.4879 292.797 79.2319 292.946 79.2319 293.13C79.2319 293.314 79.4879 293.463 79.8037 293.463Z" fill="black"/>
<path d="M89.4253 291.289C89.7411 291.289 89.9971 291.14 89.9971 290.956C89.9971 290.772 89.7411 290.623 89.4253 290.623C89.1095 290.623 88.8535 290.772 88.8535 290.956C88.8535 291.14 89.1095 291.289 89.4253 291.289Z" fill="black"/>
<path d="M99.0409 289.12C99.3567 289.12 99.6127 288.971 99.6127 288.787C99.6127 288.603 99.3567 288.454 99.0409 288.454C98.7251 288.454 98.4691 288.603 98.4691 288.787C98.4691 288.971 98.7251 289.12 99.0409 289.12Z" fill="black"/>
<path d="M118.287 284.781C118.602 284.781 118.858 284.632 118.858 284.448C118.858 284.264 118.602 284.115 118.287 284.115C117.971 284.115 117.715 284.264 117.715 284.448C117.715 284.632 117.971 284.781 118.287 284.781Z" fill="black"/>
<path d="M127.908 282.607C128.224 282.607 128.48 282.458 128.48 282.274C128.48 282.09 128.224 281.941 127.908 281.941C127.592 281.941 127.336 282.09 127.336 282.274C127.336 282.458 127.592 282.607 127.908 282.607Z" fill="black"/>
<path d="M45.2182 307.899C45.5341 307.899 45.7901 307.75 45.7901 307.566C45.7901 307.382 45.5341 307.232 45.2182 307.232C44.9024 307.232 44.6464 307.382 44.6464 307.566C44.6464 307.75 44.9024 307.899 45.2182 307.899Z" fill="black"/>
<path d="M54.8364 305.732C55.1522 305.732 55.4082 305.583 55.4082 305.399C55.4082 305.215 55.1522 305.065 54.8364 305.065C54.5206 305.065 54.2645 305.215 54.2645 305.399C54.2645 305.583 54.5206 305.732 54.8364 305.732Z" fill="black"/>
<path d="M64.4579 303.558C64.7737 303.558 65.0298 303.409 65.0298 303.225C65.0298 303.041 64.7737 302.892 64.4579 302.892C64.1421 302.892 63.8861 303.041 63.8861 303.225C63.8861 303.409 64.1421 303.558 64.4579 303.558Z" fill="black"/>
<path d="M74.0795 301.391C74.3953 301.391 74.6514 301.242 74.6514 301.058C74.6514 300.874 74.3953 300.725 74.0795 300.725C73.7637 300.725 73.5077 300.874 73.5077 301.058C73.5077 301.242 73.7637 301.391 74.0795 301.391Z" fill="black"/>
<path d="M83.6968 299.217C84.0126 299.217 84.2686 299.068 84.2686 298.884C84.2686 298.7 84.0126 298.551 83.6968 298.551C83.381 298.551 83.1249 298.7 83.1249 298.884C83.1249 299.068 83.381 299.217 83.6968 299.217Z" fill="black"/>
<path d="M93.3184 297.05C93.6342 297.05 93.8902 296.901 93.8902 296.717C93.8902 296.533 93.6342 296.384 93.3184 296.384C93.0025 296.384 92.7465 296.533 92.7465 296.717C92.7465 296.901 93.0025 297.05 93.3184 297.05Z" fill="black"/>
<path d="M102.941 294.876C103.257 294.876 103.513 294.727 103.513 294.543C103.513 294.359 103.257 294.21 102.941 294.21C102.625 294.21 102.369 294.359 102.369 294.543C102.369 294.727 102.625 294.876 102.941 294.876Z" fill="black"/>
<path d="M112.562 292.704C112.878 292.704 113.134 292.555 113.134 292.371C113.134 292.187 112.878 292.038 112.562 292.038C112.247 292.038 111.991 292.187 111.991 292.371C111.991 292.555 112.247 292.704 112.562 292.704Z" fill="black"/>
<path d="M122.18 290.535C122.495 290.535 122.751 290.386 122.751 290.202C122.751 290.018 122.495 289.869 122.18 289.869C121.864 289.869 121.608 290.018 121.608 290.202C121.608 290.386 121.864 290.535 122.18 290.535Z" fill="black"/>
<path d="M131.802 288.363C132.118 288.363 132.374 288.214 132.374 288.03C132.374 287.846 132.118 287.697 131.802 287.697C131.486 287.697 131.23 287.846 131.23 288.03C131.23 288.214 131.486 288.363 131.802 288.363Z" fill="black"/>
<path d="M140.17 301.844C141.035 303.122 139.946 304.564 137.743 305.062L61.5282 322.277C59.3204 322.774 56.8291 322.143 55.9589 320.86L52.3786 315.574C51.5134 314.291 52.6024 312.849 54.8052 312.351L131.02 295.156C133.223 294.659 135.72 295.295 136.59 296.573L140.17 301.844Z" fill="white" stroke="black" stroke-miterlimit="10" stroke-linecap="round"/>
<path d="M94.3753 303.406L99.7706 311.372" stroke="black" stroke-miterlimit="10" stroke-linecap="round"/>
<path d="M76.5666 299.824C95.3018 299.824 110.49 291.055 110.49 280.237C110.49 269.42 95.3018 260.65 76.5666 260.65C57.8313 260.65 42.6434 269.42 42.6434 280.237C42.6434 291.055 57.8313 299.824 76.5666 299.824Z" fill="white" stroke="black" stroke-miterlimit="10" stroke-linecap="round"/>
<path d="M76.5915 294.316C90.529 294.316 101.827 287.793 101.827 279.747C101.827 271.7 90.529 265.177 76.5915 265.177C62.6541 265.177 51.3555 271.7 51.3555 279.747C51.3555 287.793 62.6541 294.316 76.5915 294.316Z" fill="black" stroke="black" stroke-miterlimit="10" stroke-linecap="round"/>
<path d="M76.5667 291.8C88.1835 291.8 97.6008 286.363 97.6008 279.657C97.6008 272.95 88.1835 267.513 76.5667 267.513C64.9498 267.513 55.5325 272.95 55.5325 279.657C55.5325 286.363 64.9498 291.8 76.5667 291.8Z" stroke="#B8A9A9" stroke-miterlimit="10" stroke-linecap="round"/>
<path d="M51.9428 257.736V275.638C51.9428 283.494 62.9671 289.859 76.5672 289.859C90.1673 289.859 101.197 283.494 101.197 275.638V257.736H51.9428Z" fill="white"/>
<path d="M76.4968 289.812H77.9339V270.583H76.4968V289.812Z" fill="#B8A9A9"/>
<path d="M72.8275 271.791V289.742" stroke="#B8A9A9" stroke-miterlimit="10"/>
<path d="M79.1977 257.688H101.197V275.64C101.197 282.989 91.5646 289.036 79.1977 289.812V257.688Z" fill="#B8A9A9"/>
<path d="M51.9428 257.736V275.638C51.9428 283.494 62.9671 289.859 76.5672 289.859C90.1673 289.859 101.197 283.494 101.197 275.638V257.736H51.9428Z" stroke="black" stroke-miterlimit="10" stroke-linecap="round"/>
<path d="M76.5672 271.953C90.1669 271.953 101.192 265.588 101.192 257.736C101.192 249.884 90.1669 243.519 76.5672 243.519C62.9675 243.519 51.9428 249.884 51.9428 257.736C51.9428 265.588 62.9675 271.953 76.5672 271.953Z" fill="white" stroke="black" stroke-miterlimit="10" stroke-linecap="round"/>
<path d="M60.6594 254.948C62.623 254.948 64.2148 254.028 64.2148 252.894C64.2148 251.76 62.623 250.841 60.6594 250.841C58.6958 250.841 57.104 251.76 57.104 252.894C57.104 254.028 58.6958 254.948 60.6594 254.948Z" fill="black"/>
<path d="M60.66 254.169C61.8821 254.169 62.8729 253.597 62.8729 252.891C62.8729 252.185 61.8821 251.613 60.66 251.613C59.4379 251.613 58.4472 252.185 58.4472 252.891C58.4472 253.597 59.4379 254.169 60.66 254.169Z" fill="#02E56A"/>
<path d="M232.416 213.558C232.429 213.315 232.5 213.078 232.622 212.867C232.744 212.657 232.913 212.478 233.117 212.344C233.5 212.121 233.818 212.305 233.818 212.747C233.805 212.99 233.734 213.227 233.612 213.438C233.491 213.648 233.321 213.828 233.117 213.961C232.729 214.184 232.416 214.005 232.416 213.558Z" fill="black"/>
<path d="M230.239 214.816C230.252 214.573 230.323 214.336 230.444 214.125C230.566 213.914 230.736 213.735 230.94 213.602C231.328 213.379 231.641 213.562 231.641 214.005C231.628 214.248 231.558 214.485 231.436 214.696C231.314 214.907 231.144 215.086 230.94 215.218C230.557 215.442 230.239 215.258 230.239 214.816Z" fill="black"/>
<path d="M228.065 216.071C228.079 215.829 228.149 215.593 228.269 215.382C228.39 215.171 228.559 214.992 228.761 214.858C229.149 214.639 229.462 214.818 229.462 215.266C229.449 215.509 229.378 215.745 229.256 215.956C229.135 216.167 228.965 216.346 228.761 216.479C228.373 216.698 228.065 216.519 228.065 216.071Z" fill="black"/>
<path d="M225.888 217.33C225.901 217.086 225.972 216.85 226.093 216.639C226.215 216.428 226.385 216.249 226.589 216.116C226.972 215.892 227.29 216.076 227.29 216.519C227.276 216.762 227.206 216.999 227.084 217.209C226.962 217.42 226.793 217.599 226.589 217.732C226.201 217.956 225.888 217.777 225.888 217.33Z" fill="black"/>
<path d="M223.708 218.589C223.718 218.344 223.786 218.106 223.905 217.893C224.024 217.679 224.192 217.497 224.394 217.36C224.782 217.137 225.095 217.321 225.095 217.763C225.082 218.006 225.012 218.243 224.89 218.454C224.768 218.665 224.598 218.844 224.394 218.976C224.026 219.215 223.708 219.031 223.708 218.589Z" fill="black"/>
<path d="M221.537 219.846C221.549 219.603 221.619 219.367 221.74 219.156C221.861 218.945 222.03 218.766 222.233 218.633C222.621 218.409 222.934 218.588 222.934 219.035C222.92 219.279 222.85 219.515 222.728 219.726C222.606 219.937 222.437 220.116 222.233 220.249C221.85 220.473 221.537 220.289 221.537 219.846Z" fill="black"/>
<path d="M219.357 221.098C219.37 220.855 219.441 220.618 219.563 220.407C219.684 220.197 219.854 220.017 220.058 219.884C220.441 219.661 220.759 219.845 220.759 220.292C220.744 220.535 220.673 220.771 220.552 220.982C220.43 221.192 220.261 221.372 220.058 221.505C219.67 221.724 219.357 221.545 219.357 221.098Z" fill="black"/>
<path d="M217.18 222.356C217.194 222.113 217.265 221.877 217.386 221.666C217.508 221.455 217.677 221.276 217.881 221.142C218.269 220.919 218.582 221.103 218.582 221.545C218.569 221.788 218.498 222.025 218.377 222.236C218.255 222.447 218.085 222.626 217.881 222.758C217.498 222.982 217.18 222.798 217.18 222.356Z" fill="black"/>
<path d="M215.006 223.614C215.018 223.372 215.088 223.135 215.209 222.924C215.33 222.714 215.499 222.534 215.702 222.401C216.09 222.177 216.403 222.356 216.403 222.804C216.389 223.047 216.319 223.283 216.197 223.494C216.075 223.705 215.906 223.884 215.702 224.017C215.319 224.241 215.006 224.057 215.006 223.614Z" fill="black"/>
<path d="M212.828 224.867C212.842 224.624 212.912 224.388 213.034 224.177C213.156 223.966 213.326 223.787 213.53 223.654C213.912 223.435 214.231 223.614 214.231 224.062C214.216 224.304 214.145 224.541 214.023 224.751C213.902 224.962 213.733 225.141 213.53 225.275C213.142 225.494 212.828 225.315 212.828 224.867Z" fill="black"/>
<path d="M306.87 170.571C306.884 170.328 306.954 170.092 307.076 169.881C307.198 169.67 307.368 169.491 307.571 169.358C307.954 169.139 308.273 169.318 308.273 169.766C308.258 170.008 308.187 170.244 308.065 170.455C307.944 170.666 307.774 170.845 307.571 170.979C307.184 171.198 306.87 171.019 306.87 170.571Z" fill="black"/>
<path d="M304.692 171.83C304.707 171.587 304.778 171.351 304.899 171.14C305.021 170.929 305.19 170.75 305.393 170.616C305.781 170.392 306.094 170.576 306.094 171.019C306.082 171.262 306.012 171.499 305.89 171.71C305.768 171.921 305.598 172.1 305.393 172.232C305.01 172.456 304.692 172.277 304.692 171.83Z" fill="black"/>
<path d="M302.519 173.103C302.532 172.859 302.602 172.622 302.723 172.411C302.845 172.2 303.016 172.022 303.22 171.889C303.603 171.666 303.917 171.85 303.917 172.292C303.903 172.535 303.833 172.771 303.712 172.981C303.592 173.192 303.423 173.372 303.22 173.505C302.833 173.714 302.519 173.53 302.519 173.103Z" fill="black"/>
<path d="M300.341 174.343C300.355 174.1 300.425 173.863 300.547 173.653C300.669 173.442 300.838 173.263 301.042 173.13C301.425 172.911 301.743 173.09 301.743 173.537C301.729 173.78 301.658 174.016 301.536 174.227C301.414 174.437 301.245 174.617 301.042 174.751C300.654 174.969 300.341 174.79 300.341 174.343Z" fill="black"/>
<path d="M298.164 175.589C298.179 175.346 298.25 175.11 298.371 174.9C298.493 174.689 298.662 174.51 298.865 174.376C299.253 174.152 299.566 174.336 299.566 174.779C299.554 175.022 299.484 175.259 299.362 175.47C299.24 175.681 299.07 175.86 298.865 175.992C298.487 176.226 298.164 176.047 298.164 175.589Z" fill="black"/>
<path d="M296 176.856C296.014 176.613 296.084 176.377 296.204 176.166C296.325 175.956 296.494 175.776 296.696 175.642C297.084 175.419 297.398 175.603 297.398 176.045C297.385 176.288 297.314 176.525 297.192 176.736C297.071 176.947 296.901 177.126 296.696 177.258C296.304 177.482 296 177.298 296 176.856Z" fill="black"/>
<path d="M293.813 178.109C293.826 177.867 293.896 177.631 294.018 177.421C294.14 177.211 294.31 177.033 294.514 176.901C294.897 176.677 295.215 176.856 295.215 177.304C295.2 177.547 295.129 177.783 295.008 177.993C294.886 178.204 294.717 178.383 294.514 178.517C294.126 178.741 293.813 178.572 293.813 178.109Z" fill="black"/>
<path d="M291.636 179.369C291.65 179.127 291.721 178.891 291.843 178.68C291.965 178.469 292.134 178.29 292.337 178.156C292.725 177.932 293.038 178.116 293.038 178.564C293.024 178.807 292.954 179.043 292.832 179.254C292.71 179.465 292.541 179.644 292.337 179.777C291.954 179.996 291.636 179.817 291.636 179.369Z" fill="black"/>
<path d="M289.462 180.627C289.475 180.385 289.545 180.149 289.666 179.938C289.787 179.727 289.955 179.548 290.158 179.414C290.546 179.19 290.859 179.374 290.859 179.817C290.846 180.06 290.776 180.297 290.654 180.507C290.532 180.718 290.362 180.897 290.158 181.03C289.775 181.254 289.462 181.06 289.462 180.627Z" fill="black"/>
<path d="M287.284 181.886C287.297 181.643 287.367 181.406 287.489 181.195C287.611 180.984 287.781 180.805 287.986 180.673C288.369 180.449 288.687 180.628 288.687 181.076C288.672 181.318 288.601 181.554 288.479 181.765C288.358 181.976 288.189 182.155 287.986 182.289C287.598 182.513 287.284 182.329 287.284 181.886Z" fill="black"/>
<path d="M255.798 200.061C255.818 199.718 255.918 199.383 256.091 199.085C256.264 198.787 256.504 198.534 256.793 198.346L263.476 194.487C264.018 194.169 264.47 194.427 264.47 195.059C264.451 195.403 264.35 195.737 264.178 196.035C264.005 196.333 263.765 196.587 263.476 196.775L256.793 200.633C256.246 200.952 255.798 200.693 255.798 200.061Z" fill="black"/>
<path d="M76.7101 160.556C77.5321 160.97 78.4399 161.186 79.3604 161.186C80.281 161.186 81.1888 160.97 82.0109 160.556L101.966 149.034C103.423 148.194 103.423 146.816 101.966 145.976L99.2708 144.42C98.4487 144.005 97.541 143.789 96.6204 143.789C95.6998 143.789 94.792 144.005 93.97 144.42L74.0199 155.941C72.5629 156.782 72.5629 158.159 74.0199 158.999L76.7101 160.556Z" fill="#B8A9A9" stroke="black" stroke-miterlimit="10"/>
<path d="M74.0085 156.832L93.9586 145.311C94.7806 144.897 95.6884 144.681 96.609 144.681C97.5295 144.681 98.4373 144.897 99.2594 145.311L101.955 146.867C102.402 147.102 102.753 147.486 102.949 147.951C103.198 147.26 102.86 146.509 101.955 145.962L99.2594 144.406C98.4373 143.992 97.5295 143.776 96.609 143.776C95.6884 143.776 94.7806 143.992 93.9586 144.406L74.0085 155.927C73.0835 156.46 72.7454 157.21 73.0139 157.917C73.2097 157.451 73.5613 157.068 74.0085 156.832Z" fill="black"/>
<path d="M76.7098 160.558C77.5319 160.972 78.4396 161.188 79.3602 161.188C80.2808 161.188 81.1886 160.972 82.0106 160.558L90.9961 155.371C92.4531 154.531 92.4531 153.154 90.9961 152.313L88.301 150.757C87.4789 150.342 86.5712 150.126 85.6506 150.126C84.73 150.126 83.8222 150.342 83.0002 150.757L74.0196 155.943C72.5627 156.784 72.5627 158.161 74.0196 159.001L76.7098 160.558Z" fill="white"/>
<path d="M76.7098 160.558C77.5319 160.972 78.4396 161.188 79.3602 161.188C80.2808 161.188 81.1886 160.972 82.0106 160.558L90.9961 155.371C92.4531 154.531 92.4531 153.154 90.9961 152.313L88.301 150.757C87.4789 150.342 86.5712 150.126 85.6506 150.126C84.73 150.126 83.8222 150.342 83.0002 150.757L74.0196 155.943C72.5627 156.784 72.5627 158.161 74.0196 159.001L76.7098 160.558Z" stroke="black" stroke-miterlimit="10" stroke-linecap="round"/>
<path d="M64.5582 153.552C65.3803 153.966 66.288 154.182 67.2086 154.182C68.1292 154.182 69.037 153.966 69.859 153.552L89.8141 142.03C91.2711 141.19 91.2711 139.812 89.8141 138.972L87.1189 137.416C86.2976 136.999 85.3895 136.782 84.4685 136.782C83.5475 136.782 82.6395 136.999 81.8181 137.416L61.8631 148.937C60.4061 149.778 60.4061 151.155 61.8631 151.995L64.5582 153.552Z" fill="#B8A9A9" stroke="black" stroke-miterlimit="10"/>
<path d="M61.865 149.827L81.8201 138.295C82.6414 137.878 83.5495 137.661 84.4705 137.661C85.3915 137.661 86.2996 137.878 87.1209 138.295L89.8161 139.851C90.2648 140.084 90.617 140.468 90.8106 140.935C91.0592 140.244 90.726 139.493 89.8161 138.946L87.1209 137.39C86.2996 136.973 85.3915 136.756 84.4705 136.756C83.5495 136.756 82.6414 136.973 81.8201 137.39L61.865 148.936C60.9401 149.468 60.6069 150.219 60.8705 150.925C61.0611 150.453 61.4136 150.063 61.865 149.827Z" fill="black"/>
<path d="M64.5584 153.552C65.3804 153.966 66.2882 154.182 67.2088 154.182C68.1294 154.182 69.0371 153.966 69.8592 153.552L78.8397 148.365C80.3016 147.52 80.3016 146.148 78.8397 145.302L76.1495 143.766C75.3282 143.349 74.4201 143.132 73.4991 143.132C72.5781 143.132 71.6701 143.349 70.8487 143.766L61.8632 148.937C60.4062 149.778 60.4062 151.155 61.8632 151.995L64.5584 153.552Z" fill="white"/>
<path d="M64.5584 153.552C65.3804 153.966 66.2882 154.182 67.2088 154.182C68.1294 154.182 69.0371 153.966 69.8592 153.552L78.8397 148.365C80.3016 147.52 80.3016 146.148 78.8397 145.302L76.1495 143.766C75.3282 143.349 74.4201 143.132 73.4991 143.132C72.5781 143.132 71.6701 143.349 70.8487 143.766L61.8632 148.937C60.4062 149.778 60.4062 151.155 61.8632 151.995L64.5584 153.552Z" stroke="black" stroke-miterlimit="10" stroke-linecap="round"/>
<path d="M52.4206 146.536C53.2426 146.951 54.1504 147.167 55.071 147.167C55.9916 147.167 56.8993 146.951 57.7214 146.536L77.7013 135.015C79.1583 134.174 79.1583 132.797 77.7013 131.957L75.0061 130.4C74.1841 129.986 73.2763 129.77 72.3558 129.77C71.4352 129.77 70.5274 129.986 69.7054 130.4L49.7254 141.922C48.2684 142.762 48.2684 144.139 49.7254 144.98L52.4206 146.536Z" fill="#B8A9A9" stroke="black" stroke-miterlimit="10"/>
<path d="M49.7248 142.813L69.6799 131.291C70.5019 130.877 71.4097 130.661 72.3303 130.661C73.2509 130.661 74.1587 130.877 74.9807 131.291L77.6759 132.848C78.1238 133.082 78.4757 133.465 78.6704 133.932C78.919 133.241 78.5858 132.49 77.6759 131.943L74.9807 130.386C74.1587 129.972 73.2509 129.756 72.3303 129.756C71.4097 129.756 70.5019 129.972 69.6799 130.386L49.7248 141.923C48.7999 142.455 48.4667 143.206 48.7303 143.912C48.9205 143.439 49.2732 143.049 49.7248 142.813Z" fill="black"/>
<path d="M52.4202 146.537C53.2423 146.952 54.15 147.168 55.0706 147.168C55.9912 147.168 56.899 146.952 57.721 146.537L66.7016 141.351C68.1586 140.51 68.1586 139.133 66.7016 138.293L64.0064 136.736C63.1853 136.322 62.2783 136.106 61.3585 136.106C60.4387 136.106 59.5318 136.322 58.7106 136.736L49.7251 141.923C48.2681 142.763 48.2681 144.14 49.7251 144.981L52.4202 146.537Z" fill="white"/>
<path d="M52.4202 146.537C53.2423 146.952 54.15 147.168 55.0706 147.168C55.9912 147.168 56.899 146.952 57.721 146.537L66.7016 141.351C68.1586 140.51 68.1586 139.133 66.7016 138.293L64.0064 136.736C63.1853 136.322 62.2783 136.106 61.3585 136.106C60.4387 136.106 59.5318 136.322 58.7106 136.736L49.7251 141.923C48.2681 142.763 48.2681 144.14 49.7251 144.981L52.4202 146.537Z" stroke="black" stroke-miterlimit="10" stroke-linecap="round"/>
<path d="M40.2824 139.529C41.1036 139.943 42.0105 140.159 42.9303 140.159C43.8501 140.159 44.7571 139.943 45.5782 139.529L65.5333 128.007C66.9903 127.167 66.9903 125.789 65.5333 124.949L62.8381 123.373C62.017 122.958 61.11 122.742 60.1902 122.742C59.2704 122.742 58.3635 122.958 57.5423 123.373L37.5872 134.894C36.1303 135.735 36.1303 137.112 37.5872 137.952L40.2824 139.529Z" fill="#02E56A" stroke="black" stroke-miterlimit="10"/>
<path d="M37.5878 135.804L57.5429 124.283C58.364 123.868 59.271 123.652 60.1908 123.652C61.1106 123.652 62.0175 123.868 62.8387 124.283L65.5339 125.839C65.9821 126.073 66.3341 126.456 66.5284 126.923C66.777 126.232 66.4389 125.481 65.5339 124.934L62.8387 123.373C62.0175 122.958 61.1106 122.742 60.1908 122.742C59.271 122.742 58.364 122.958 57.5429 123.373L37.5878 134.894C36.6629 135.426 36.3247 136.177 36.5933 136.883C36.7886 136.418 37.1404 136.037 37.5878 135.804Z" fill="black"/>
<path d="M51.2506 133.194C52.0726 133.608 52.9804 133.824 53.901 133.824C54.8216 133.824 55.7293 133.608 56.5514 133.194L65.5319 128.007C66.9889 127.167 66.9889 125.79 65.5319 124.949L62.8367 123.373C62.0156 122.959 61.1086 122.743 60.1888 122.743C59.269 122.743 58.3621 122.959 57.5409 123.373L48.5554 128.559C47.0984 129.4 47.0984 130.777 48.5554 131.617L51.2506 133.194Z" fill="white"/>
<path d="M51.2506 133.194C52.0726 133.608 52.9804 133.824 53.901 133.824C54.8216 133.824 55.7293 133.608 56.5514 133.194L65.5319 128.007C66.9889 127.167 66.9889 125.79 65.5319 124.949L62.8367 123.373C62.0156 122.959 61.1086 122.743 60.1888 122.743C59.269 122.743 58.3621 122.959 57.5409 123.373L48.5554 128.559C47.0984 129.4 47.0984 130.777 48.5554 131.617L51.2506 133.194Z" stroke="black" stroke-miterlimit="10" stroke-linecap="round"/>
</svg>
