<svg width="722" height="550" viewBox="0 0 722 550" fill="none" xmlns="http://www.w3.org/2000/svg">
<path d="M116.334 407.045C115.975 406.583 115.391 406.295 114.667 406.295H110.955C109.532 406.308 108.103 407.436 107.776 408.808L94.5 463.872C94.1666 465.244 92.7371 466.372 91.314 466.372L78.737 466.404C78.0126 466.404 77.4293 466.116 77.0703 465.654L86.7627 478.212C87.1217 478.674 87.705 478.962 88.4294 478.962L101.006 478.93C102.43 478.93 103.865 477.802 104.192 476.43L117.468 421.366C117.801 419.994 119.231 418.859 120.648 418.859H124.359C125.084 418.846 125.667 419.135 126.026 419.603L116.334 407.045Z" fill="#32D27E"/>
<path d="M125.43 385.302L115.738 372.744C116.084 373.193 116.219 373.808 116.052 374.481L114.584 380.571L124.276 393.129L125.744 387.039C125.905 386.366 125.776 385.751 125.43 385.302Z" fill="#EBE9E9" stroke="#32D27E" stroke-width="0.904522" stroke-miterlimit="10"/>
<path d="M89.7119 407.109C89.3529 406.648 88.7696 406.359 88.0516 406.359H84.34C82.917 406.372 81.4811 407.5 81.1541 408.872L80.2887 412.462C79.9618 413.827 78.5323 414.956 77.1092 414.962H73.3976C71.9746 414.975 70.5386 416.103 70.2117 417.475L69.3463 421.052C69.013 422.424 67.5835 423.558 66.1668 423.558H62.4552C61.0321 423.571 59.5962 424.699 59.2693 426.065L58.4039 429.654C58.0706 431.026 56.6411 432.161 55.2244 432.161H51.5128C50.7949 432.174 50.2115 431.885 49.8525 431.424L59.5449 443.982C59.9039 444.443 60.4808 444.732 61.2052 444.732H64.9168C66.3399 444.719 67.7694 443.59 68.0963 442.212L68.9617 438.623C69.2886 437.257 70.7245 436.129 72.1476 436.122H75.8592C77.2823 436.11 78.7118 434.981 79.0387 433.603L79.9041 430.026C80.2374 428.654 81.6734 427.52 83.09 427.52H86.8016C88.2247 427.507 89.6542 426.379 89.9811 425.013L90.8465 421.424C91.1799 420.052 92.6158 418.924 94.0325 418.917H97.744C98.462 418.904 99.0453 419.193 99.4043 419.654L89.7119 407.097V407.109Z" fill="#32D27E"/>
<path d="M132.552 395.596C132.712 394.923 132.584 394.307 132.238 393.859L122.545 381.301C122.892 381.75 123.026 382.365 122.86 383.038L121.994 386.628C121.834 387.307 121.962 387.916 122.308 388.365L132.001 400.923C131.654 400.474 131.52 399.859 131.687 399.179L132.552 395.596Z" fill="#EBE9E9" stroke="#32D27E" stroke-width="0.904522" stroke-miterlimit="10"/>
<path d="M139.36 404.161C139.52 403.481 139.392 402.866 139.039 402.417L129.347 389.859C129.693 390.308 129.827 390.924 129.667 391.603L128.802 395.193C128.642 395.872 128.77 396.481 129.116 396.93L138.808 409.488C138.462 409.039 138.328 408.424 138.494 407.751L139.36 404.161Z" fill="#EBE9E9" stroke="#32D27E" stroke-width="0.904522" stroke-miterlimit="10"/>
<path d="M146.154 412.72C146.321 412.04 146.187 411.425 145.834 410.97L136.142 398.412C136.488 398.861 136.622 399.483 136.462 400.162L135.597 403.752C135.436 404.425 135.565 405.04 135.911 405.489L145.603 418.047C145.257 417.598 145.122 416.983 145.289 416.31L146.154 412.72Z" fill="#EBE9E9" stroke="#32D27E" stroke-width="0.904522" stroke-miterlimit="10"/>
<path d="M123.142 415.605C122.783 415.144 122.2 414.855 121.475 414.855H117.764C117.046 414.868 116.462 414.579 116.104 414.118L125.796 426.676C126.155 427.137 126.738 427.426 127.456 427.426H131.168C131.892 427.413 132.475 427.701 132.834 428.169L123.142 415.611V415.605Z" fill="#32D27E"/>
<path d="M129.943 424.162C129.584 423.7 129.001 423.412 128.283 423.412H124.571C123.853 423.425 123.27 423.136 122.911 422.675L132.604 435.233C132.963 435.694 133.539 435.983 134.264 435.983H137.975C138.693 435.97 139.277 436.258 139.636 436.72L129.943 424.162Z" fill="#32D27E"/>
<path d="M152.648 419.533L142.956 406.976C143.302 407.424 143.437 408.046 143.277 408.726L138.277 429.469C137.943 430.841 136.514 431.976 135.097 431.976H131.385C130.661 431.989 130.078 431.7 129.719 431.232L139.411 443.79C139.77 444.252 140.353 444.54 141.078 444.54H144.789C146.212 444.527 147.642 443.399 147.969 442.021L152.969 421.277C153.136 420.598 153.001 419.982 152.648 419.527V419.533Z" fill="#EBE9E9" stroke="#32D27E" stroke-width="0.904522" stroke-miterlimit="10"/>
<path d="M136.827 431.412C136.302 431.758 135.699 431.976 135.09 431.976H131.379C130.654 431.989 130.071 431.7 129.712 431.232L139.404 443.79C139.763 444.252 140.347 444.54 141.071 444.54H144.783C145.366 444.527 145.943 444.335 146.449 444.015L136.827 431.412Z" fill="#32D27E"/>
<path d="M114.071 371.994C115.494 371.994 116.385 373.11 116.058 374.481L115.186 378.09C114.859 379.456 115.738 380.565 117.142 380.565H120.879C122.302 380.552 123.193 381.667 122.866 383.046L122.001 386.635C121.667 388.007 122.558 389.129 123.981 389.122H127.693C129.116 389.11 130.007 390.231 129.674 391.61L128.808 395.2C128.475 396.571 129.366 397.693 130.789 397.687H134.501C135.924 397.674 136.808 398.796 136.475 400.174L135.61 403.764C135.276 405.135 136.174 406.257 137.597 406.251H141.308C142.732 406.238 143.616 407.36 143.283 408.738L138.283 429.482C137.949 430.854 136.52 431.988 135.103 431.988H131.392C129.969 432.001 129.078 430.879 129.411 429.501L130.276 425.911C130.603 424.546 129.719 423.418 128.296 423.424H124.584C123.161 423.437 122.276 422.315 122.61 420.937L123.475 417.36C123.808 415.988 122.911 414.86 121.494 414.866H117.783C116.359 414.879 115.475 413.757 115.802 412.386L116.667 408.796C117.001 407.424 116.103 406.296 114.686 406.302H110.975C109.552 406.315 108.122 407.443 107.795 408.815L94.5195 463.88C94.1862 465.251 92.7567 466.38 91.3336 466.38L78.7566 466.412C77.3335 466.412 76.4425 465.296 76.7694 463.924L90.0452 408.86C90.3785 407.488 89.481 406.36 88.0708 406.366H84.3592C82.9361 406.379 81.5002 407.507 81.1733 408.879L80.3079 412.469C79.9809 413.834 78.5514 414.969 77.1284 414.969H73.4168C71.9937 414.982 70.5578 416.11 70.2309 417.482L69.3655 421.059C69.0321 422.431 67.6026 423.565 66.1859 423.565H62.4744C61.0513 423.578 59.6154 424.706 59.2884 426.072L58.423 429.661C58.0897 431.033 56.6602 432.168 55.2435 432.168H51.532C50.1089 432.181 49.2242 431.059 49.5576 429.681L54.5576 408.937C54.891 407.565 56.3205 406.43 57.7371 406.43H61.4487C62.8718 406.418 64.2949 405.296 64.6282 403.924L65.4936 400.334C65.827 398.962 67.2629 397.828 68.6796 397.828H72.3911C73.8142 397.815 75.2373 396.693 75.5707 395.321L76.436 391.731C76.7694 390.36 78.2053 389.225 79.622 389.225H83.3335C84.7566 389.212 86.1797 388.09 86.5131 386.719L87.3785 383.129C87.7118 381.757 89.1413 380.629 90.5644 380.629H94.276C95.6926 380.616 97.1285 379.488 97.4555 378.116L98.3209 374.526C98.6542 373.154 100.084 372.026 101.507 372.026L114.084 371.994H114.071Z" fill="#EBE9E9" stroke="#32D27E" stroke-width="0.904522" stroke-miterlimit="10"/>
<path d="M260.104 20.4147L257.598 18.0813C257.271 17.7801 256.912 17.6326 256.547 17.6262L233.245 17.2031C233.604 17.2095 233.969 17.357 234.296 17.6583L236.803 19.9916C237.13 20.2929 237.489 20.4403 237.854 20.4467L261.156 20.8698C260.797 20.8634 260.431 20.716 260.104 20.4147Z" fill="#EBE9E9" stroke="#32D27E" stroke-width="0.904522" stroke-linecap="round" stroke-linejoin="round"/>
<path d="M273.708 7.75118L271.201 5.41142C270.881 5.11013 270.515 4.96269 270.163 4.95628L246.861 4.5332C247.22 4.53961 247.579 4.68705 247.9 4.98834L250.406 7.3281C250.727 7.62939 251.092 7.77682 251.451 7.78323L274.753 8.20632C274.394 8.20632 274.035 8.05247 273.708 7.75118Z" fill="#EBE9E9" stroke="#32D27E" stroke-width="0.904522" stroke-linecap="round" stroke-linejoin="round"/>
<path d="M277.944 126.232L254.643 125.809C253.938 125.796 253.239 126.328 252.835 127.29L251.245 131.104C250.841 132.072 250.143 132.597 249.438 132.585L272.739 133.008C273.444 133.02 274.143 132.488 274.547 131.527L276.136 127.713C276.54 126.745 277.239 126.219 277.944 126.232Z" fill="#32D27E"/>
<path d="M293.733 128.285L270.432 127.862C269.727 127.849 269.028 128.381 268.624 129.342L267.034 133.156C266.63 134.124 265.932 134.65 265.227 134.637L288.528 135.06C289.233 135.073 289.932 134.541 290.336 133.58L291.926 129.765C292.329 128.797 293.028 128.272 293.733 128.285Z" fill="#32D27E"/>
<path d="M289.509 9.80778L280.996 1.87821C280.675 1.57693 280.31 1.42949 279.951 1.42308L256.649 1C257.008 1.00641 257.367 1.15385 257.694 1.45513L266.207 9.3847C266.528 9.68598 266.887 9.83342 267.246 9.83983L290.547 10.2629C290.188 10.2565 289.829 10.1091 289.509 9.80778Z" fill="#EBE9E9" stroke="#32D27E" stroke-width="0.904522" stroke-linecap="round" stroke-linejoin="round"/>
<path d="M307.342 115.617L284.04 115.194C283.335 115.181 282.636 115.713 282.233 116.674L276.841 129.617C276.438 130.591 275.732 131.123 275.027 131.11L298.329 131.533C299.034 131.546 299.733 131.014 300.143 130.04L305.534 117.097C305.938 116.129 306.637 115.604 307.342 115.617Z" fill="#32D27E"/>
<path d="M302.797 81.4783C303.759 82.3693 304.041 84.2988 303.439 85.7539L290.445 116.953C289.836 118.421 288.554 118.882 287.592 117.991L285.086 115.652C284.124 114.761 282.842 115.222 282.24 116.677L276.849 129.62C276.24 131.088 274.951 131.549 273.996 130.658L271.489 128.318C270.528 127.421 269.239 127.883 268.637 129.344L267.047 133.158C266.438 134.62 265.156 135.081 264.201 134.184L255.694 126.261C254.733 125.37 253.451 125.831 252.842 127.286L251.252 131.101C250.643 132.556 249.361 133.024 248.4 132.126L227.893 113.023C226.931 112.132 226.649 110.203 227.252 108.748L228.842 104.934C229.451 103.478 229.162 101.549 228.201 100.658L219.688 92.7284C218.726 91.8373 218.444 89.9078 219.047 88.4527L220.636 84.6385C221.245 83.1834 220.957 81.2539 219.995 80.3629L217.489 78.0231C216.527 77.1321 216.245 75.2026 216.854 73.7346L222.245 60.7922C222.854 59.337 222.566 57.4075 221.604 56.5101L219.098 54.1767C218.136 53.2793 217.848 51.3498 218.457 49.8882L231.451 18.6892C232.06 17.234 233.342 16.7661 234.303 17.6635L236.81 19.9969C237.771 20.8943 239.06 20.4328 239.662 18.9712L245.053 6.0288C245.662 4.56083 246.944 4.09929 247.906 4.99032L250.412 7.33009C251.374 8.22113 252.656 7.75958 253.265 6.30444L254.855 2.4903C255.464 1.03516 256.746 0.567204 257.701 1.46465L266.214 9.39421C267.175 10.2852 268.457 9.82371 269.066 8.35574L270.65 4.54801C271.259 3.08005 272.541 2.61851 273.502 3.50954L294.009 22.6123C294.97 23.5097 295.259 25.4392 294.65 26.9008L293.067 30.7085C292.458 32.1765 292.746 34.0996 293.701 34.997L302.208 42.9202C303.169 43.8112 303.451 45.7407 302.849 47.1959L301.259 51.01C300.65 52.4652 300.939 54.3947 301.906 55.2921L304.413 57.6319C305.374 58.5229 305.657 60.4524 305.048 61.9204L299.656 74.8628C299.047 76.3179 299.336 78.2475 300.297 79.1385L302.804 81.4783H302.797Z" fill="#EBE9E9" stroke="#32D27E" stroke-width="0.904522" stroke-linecap="round" stroke-linejoin="round"/>
<path d="M264.598 33.2263C265.56 34.1173 265.842 36.0468 265.239 37.502L262.547 43.97L258.745 53.0919L256.053 59.5599C255.444 61.0278 254.162 61.4894 253.2 60.5984L250.694 58.2586C249.733 57.3676 249.45 55.438 250.059 53.9701L252.752 47.5021L256.553 38.3802L259.245 31.9122C259.854 30.457 261.136 29.9891 262.098 30.8865L264.604 33.2263H264.598Z" fill="#32D27E"/>
<path d="M282.599 49.9953C283.56 50.8927 283.849 52.8222 283.246 54.2774L280.554 60.7454L276.752 69.8673L274.06 76.3353C273.451 77.8032 272.169 78.2648 271.201 77.3673L268.695 75.034C267.733 74.1365 267.445 72.207 268.054 70.7455L270.746 64.2775L274.547 55.1556L277.24 48.6876C277.849 47.2324 279.131 46.7645 280.092 47.6619L282.599 49.9953Z" fill="#32D27E"/>
<path d="M243.399 64.1409C244.361 65.0319 244.643 66.9614 244.034 68.4294L241.342 74.8974L237.092 70.9358C236.13 70.0448 235.848 68.1153 236.457 66.6473L238.04 62.8396C238.649 61.3716 239.931 60.9101 240.893 61.8011L243.399 64.1409Z" fill="#32D27E"/>
<path d="M265.342 97.259L262.65 103.727C262.041 105.182 260.759 105.65 259.798 104.753L255.547 100.791L249.547 95.2013L243.547 89.6115L239.297 85.6499C238.336 84.7589 238.054 82.8294 238.656 81.3743L241.349 74.9062L247.349 80.496L253.349 86.0858L259.349 91.6756L265.349 97.2654L265.342 97.259Z" fill="#32D27E"/>
<path d="M273.4 92.0896C274.362 92.9806 274.644 94.9101 274.035 96.3781L272.451 100.186C271.842 101.654 270.56 102.115 269.599 101.224L265.349 97.2627L268.041 90.7947C268.65 89.3267 269.932 88.8652 270.894 89.7562L273.4 92.096V92.0896Z" fill="#32D27E"/>
<path d="M326.74 86.1753C327.349 84.7202 327.061 82.7907 326.099 81.8997L323.593 79.5599C322.631 78.6689 322.349 76.7394 322.952 75.2842L328.343 62.3418C328.952 60.8738 328.663 58.9507 327.708 58.0533L325.202 55.7135C324.24 54.8161 323.952 52.8866 324.554 51.4314L326.144 47.6173C326.753 46.1621 326.464 44.2326 325.503 43.3416L316.996 35.4184C316.035 34.5274 315.753 32.5979 316.362 31.1299L317.951 27.3222C318.56 25.8542 318.272 23.9311 317.31 23.0337L296.804 3.93095C296.483 3.62966 296.118 3.48223 295.765 3.47582L272.464 3.05273C272.823 3.05914 273.182 3.20658 273.502 3.50787L294.009 22.6106C294.97 23.5081 295.259 25.4376 294.65 26.8991L293.06 30.7069C292.451 32.1748 292.74 34.0979 293.695 34.9954L302.201 42.9185C303.163 43.8095 303.445 45.7391 302.842 47.1942L301.253 51.0083C300.644 52.4635 300.932 54.393 301.9 55.2904L304.406 57.6302C305.368 58.5212 305.65 60.4507 305.041 61.9187L299.65 74.8611C299.041 76.3163 299.33 78.2458 300.291 79.1368L302.797 81.4766C303.759 82.3676 304.041 84.2971 303.439 85.7523L290.445 116.951C290.041 117.926 289.336 118.458 288.631 118.445L311.932 118.868C312.637 118.881 313.336 118.349 313.746 117.381L326.74 86.1818V86.1753Z" fill="#EBE9E9" stroke="#32D27E" stroke-width="0.904522" stroke-linecap="round" stroke-linejoin="round"/>
<path d="M288.631 118.445C289.336 118.457 290.035 117.925 290.445 116.951L303.439 85.752L326.74 86.175L313.746 117.374C313.343 118.348 312.644 118.874 311.932 118.861L288.631 118.438V118.445Z" fill="#32D27E"/>
<path d="M316.996 35.4177C316.034 34.5267 315.752 32.5972 316.361 31.1292L317.951 27.3215L294.65 26.8984L293.06 30.7062C292.451 32.1741 292.739 34.0972 293.694 34.9947L316.996 35.4177Z" fill="#32D27E"/>
<path d="M325.195 55.7185C324.233 54.8211 323.945 52.8916 324.547 51.4364L326.137 47.6223L302.836 47.1992L301.246 51.0134C300.637 52.4685 300.925 54.398 301.893 55.2955L325.195 55.7185Z" fill="#32D27E"/>
<path d="M323.592 79.5592C322.63 78.6681 322.348 76.7386 322.951 75.2835L328.342 62.3411L305.04 61.918L299.649 74.8604C299.04 76.3155 299.329 78.2451 300.29 79.1361L323.592 79.5592Z" fill="#32D27E"/>
<path d="M3.65979 58.0859L10.4932 48.7461C8.06368 52.0666 7.16623 56.5218 8.35855 61.4257L1.52515 70.7655C0.332834 65.8681 1.22387 61.4129 3.65979 58.0859Z" fill="#00843D" stroke="black" stroke-width="0.904522" stroke-miterlimit="10"/>
<path d="M272.746 275.934L265.913 285.273C263.246 288.914 258.739 291.19 253.124 291.19L259.957 281.85C265.573 281.85 270.079 279.575 272.746 275.934Z" fill="#00843D" stroke="black" stroke-width="0.904522" stroke-miterlimit="10"/>
<path d="M57.6029 263.244L50.7695 272.584L1.52539 70.7617L8.35879 61.4219L57.6029 263.244Z" fill="#00843D" stroke="black" stroke-width="0.904522" stroke-miterlimit="10"/>
<path d="M259.957 281.842L253.123 291.181H74.7627L81.5961 281.842H259.957Z" fill="black" stroke="black" stroke-width="0.904522" stroke-miterlimit="10"/>
<path d="M225.636 61.4239C223.13 51.1546 212.386 42.834 201.642 42.834H23.2814C12.5377 42.834 5.85818 51.161 8.36462 61.4239L47.0701 220.066H264.341L225.636 61.4239Z" fill="#FFE600" stroke="black" stroke-width="0.904522" stroke-miterlimit="10"/>
<path d="M225.636 61.4239C223.13 51.1546 212.386 42.834 201.642 42.834H23.2814C12.5377 42.834 5.85818 51.161 8.36462 61.4239L47.0701 220.066H264.341L225.636 61.4239Z" fill="black" stroke="black" stroke-width="0.904522" stroke-miterlimit="10"/>
<path d="M168.879 213.689H145.064L144.616 212.215C144.25 211.016 144.981 210.035 146.237 210.035H165.5C166.75 210.035 168.077 211.016 168.436 212.215L168.885 213.689H168.879Z" fill="#00D763"/>
<path d="M75.3978 42.834L17.4678 98.7576L22.8396 120.771L103.565 42.834H75.3978Z" fill="#32D27E"/>
<path d="M24.9297 126.713L110.725 43.8789" stroke="#32D27E" stroke-width="0.904522" stroke-linecap="round" stroke-linejoin="round"/>
<path d="M210.238 62.4255C209.802 60.6306 207.924 59.1562 206.078 59.1562H26.807C24.9544 59.1562 23.8006 60.6242 24.2429 62.4255L57.974 200.677C58.4099 202.472 60.2881 203.946 62.1343 203.946H241.399C243.251 203.946 244.405 202.478 243.963 200.677L210.232 62.4255H210.238Z" fill="#FFE600" stroke="black" stroke-width="0.904522" stroke-miterlimit="10"/>
<path d="M57.6025 263.246C60.1089 273.516 70.8526 281.843 81.5963 281.843H259.957C270.701 281.843 277.38 273.516 274.874 263.246L264.335 220.066H47.0703L57.6089 263.246H57.6025Z" fill="#EBE9E9" stroke="black" stroke-width="0.904522" stroke-miterlimit="10"/>
<path d="M81.5968 281.84L74.7634 291.18C64.0197 291.18 53.276 282.853 50.7695 272.584L57.6029 263.244C60.1094 273.513 70.8531 281.84 81.5968 281.84Z" fill="black" stroke="black" stroke-width="0.904522" stroke-miterlimit="10"/>
<path d="M240.535 235.316C248.202 235.316 255.868 241.259 257.657 248.579C259.445 255.906 254.676 261.842 247.009 261.842H219.195C211.528 261.842 203.861 255.9 202.073 248.579C200.284 241.252 205.054 235.316 212.72 235.316H240.535Z" stroke="black" stroke-width="0.904522" stroke-miterlimit="10"/>
<path d="M61.4742 171.965L63.6986 181.086H54.1472L51.9229 171.965H61.4742Z" fill="black"/>
<path d="M71.026 171.965L72.6093 178.458C72.9619 179.907 72.0324 181.086 70.5452 181.086H63.699L61.4746 171.965H71.026Z" fill="black"/>
<path d="M51.9235 171.965L54.1479 181.086H44.5965L43.0132 174.593C42.6606 173.144 43.5901 171.965 45.0773 171.965H51.9171H51.9235Z" fill="black"/>
<path d="M87.9049 162.832L89.4882 169.326C89.8408 170.774 88.9113 171.954 87.4241 171.954H80.5779L78.3535 162.832H87.9049Z" fill="black"/>
<path d="M78.3464 162.832L80.5708 171.954H71.0194L69.436 165.46C69.0835 164.012 70.013 162.832 71.5002 162.832H78.34H78.3464Z" fill="black"/>
<path d="M95.2247 153.707L96.8081 160.207C97.1607 161.656 96.2312 162.835 94.744 162.835H87.9042L86.3208 156.335C85.9682 154.887 86.8977 153.707 88.3849 153.707H95.2247Z" fill="black"/>
<path d="M99.8409 144.586C101.328 144.586 102.841 145.772 103.193 147.214L104.777 153.708H95.2255L93.6421 147.214C93.2895 145.765 94.219 144.586 95.7062 144.586H99.8409Z" fill="black"/>
<path d="M116.552 162.832L118.777 171.954H111.937C110.45 171.954 108.937 170.768 108.584 169.326L107.001 162.832H116.552Z" fill="black"/>
<path d="M111.616 153.707C113.103 153.707 114.616 154.893 114.969 156.335L116.552 162.835H107.001L104.776 153.707H111.616Z" fill="black"/>
<path d="M126.11 162.832L127.693 169.326C128.046 170.774 127.116 171.954 125.629 171.954H118.783L116.559 162.832H126.11Z" fill="black"/>
<path d="M128.975 135.457L131.2 144.585H121.648L120.065 138.085C119.712 136.637 120.642 135.457 122.129 135.457H128.969H128.975Z" fill="black"/>
<path d="M131.207 144.586L133.431 153.708H123.88L121.655 144.586H131.207Z" fill="black"/>
<path d="M133.431 153.707L135.014 160.207C135.367 161.656 134.437 162.835 132.95 162.835H126.11L123.886 153.707H133.437H133.431Z" fill="black"/>
<path d="M139.168 98.9492L140.751 105.449C141.104 106.898 140.174 108.078 138.687 108.078H131.841L130.257 101.577C129.905 100.129 130.834 98.9492 132.321 98.9492H139.168Z" fill="black"/>
<path d="M143.783 89.8203C145.27 89.8203 146.783 91.0062 147.136 92.4485L148.719 98.9422H139.168L137.584 92.4485C137.232 90.9998 138.161 89.8203 139.649 89.8203H143.783Z" fill="black"/>
<path d="M184.059 126.326L185.643 132.82C185.995 134.269 185.066 135.448 183.578 135.448H176.732L174.508 126.326H184.059Z" fill="black"/>
<path d="M174.502 126.326L176.726 135.448H169.886C168.399 135.448 166.886 134.262 166.534 132.82L164.95 126.326H174.502Z" fill="black"/>
<path d="M191.38 117.199L193.604 126.328H184.053L182.469 119.827C182.117 118.379 183.046 117.199 184.533 117.199H191.373H191.38Z" fill="black"/>
<path d="M200.931 117.199L202.515 123.699C202.867 125.148 201.938 126.328 200.45 126.328H193.604L191.38 117.199H200.931Z" fill="black"/>
<path d="M208.252 108.076L209.835 114.57C210.188 116.019 209.259 117.198 207.771 117.198H200.932L199.348 110.704C198.996 109.256 199.925 108.076 201.412 108.076H208.252Z" fill="black"/>
<path d="M212.867 98.9498C214.354 98.9498 215.867 100.136 216.219 101.578L217.162 105.443C217.514 106.892 216.585 108.072 215.097 108.072H208.258L206.674 101.572C206.322 100.123 207.251 98.9434 208.738 98.9434H212.873L212.867 98.9498Z" fill="black"/>
<path d="M136.296 126.33L137.879 132.824C138.232 134.272 137.302 135.452 135.815 135.452H128.975L126.751 126.33H136.302H136.296Z" fill="black"/>
<path d="M155.565 98.9512C157.053 98.9512 158.565 100.137 158.918 101.579L160.501 108.079H150.95L148.726 98.9512H155.572H155.565Z" fill="black"/>
<path d="M160.502 108.08L162.726 117.202H153.175L150.95 108.08H160.502Z" fill="black"/>
<path d="M162.726 117.201L164.95 126.329H158.104C156.617 126.329 155.104 125.144 154.751 123.701L153.168 117.201H162.719H162.726Z" fill="black"/>
<path d="M131.847 108.08L134.072 117.202H124.52L122.937 110.708C122.584 109.26 123.514 108.08 125.001 108.08H131.841H131.847Z" fill="black"/>
<path d="M134.072 117.201L136.296 126.329H126.751L124.521 117.201H134.072Z" fill="black"/>
<path d="M31.9873 94.1719H34.5514" stroke="black" stroke-width="0.904522" stroke-miterlimit="10"/>
<path d="M39.7246 94.1719H212.835" stroke="black" stroke-width="0.904522" stroke-miterlimit="10" stroke-dasharray="5.43 7.24"/>
<path d="M215.419 94.1719H217.983" stroke="black" stroke-width="0.904522" stroke-miterlimit="10"/>
<path d="M133.931 58.8398L134.54 61.327" stroke="black" stroke-width="0.904522" stroke-miterlimit="10"/>
<path d="M135.719 66.1602L168.142 199.033" stroke="black" stroke-width="0.904522" stroke-miterlimit="10" stroke-dasharray="5.43 7.24"/>
<path d="M168.732 201.451L169.341 203.945" stroke="black" stroke-width="0.904522" stroke-miterlimit="10"/>
<path d="M226.35 253.052C229.248 249.092 227.507 242.889 222.462 239.196C217.417 235.504 210.977 235.72 208.079 239.68C205.181 243.64 206.922 249.843 211.967 253.536C217.013 257.228 223.452 257.012 226.35 253.052Z" fill="white" stroke="black" stroke-width="0.904522" stroke-miterlimit="10"/>
<path d="M226.355 253.081L224.662 255.389C223.259 257.305 220.88 258.504 217.919 258.504C212.252 258.504 206.592 254.113 205.271 248.703C204.643 246.119 205.111 243.767 206.393 242.017L208.085 239.709C206.803 241.459 206.329 243.812 206.964 246.395C208.284 251.812 213.951 256.196 219.611 256.196C222.573 256.196 224.951 254.998 226.355 253.081Z" fill="black" stroke="black" stroke-width="0.904522" stroke-miterlimit="10"/>
<path d="M254.159 253.052C257.057 249.092 255.316 242.889 250.271 239.196C245.225 235.504 238.786 235.72 235.888 239.68C232.99 243.64 234.731 249.843 239.776 253.536C244.821 257.228 251.261 257.012 254.159 253.052Z" fill="#A66CFF" stroke="black" stroke-width="0.904522" stroke-miterlimit="10"/>
<path d="M254.162 253.079L252.47 255.387C251.066 257.303 248.688 258.502 245.726 258.502C240.06 258.502 234.399 254.111 233.079 248.701C232.451 246.117 232.919 243.765 234.201 242.015L235.893 239.707C234.611 241.457 234.137 243.81 234.771 246.393C236.092 251.81 241.758 256.194 247.419 256.194C250.38 256.194 252.758 254.996 254.162 253.079Z" fill="black" stroke="black" stroke-width="0.904522" stroke-miterlimit="10"/>
<path d="M77.353 230.514C77.1992 229.873 77.3146 229.284 77.6351 228.848L75.5389 231.707C75.2184 232.143 75.0966 232.732 75.2569 233.373L77.7184 243.45L79.8146 240.591L77.353 230.514Z" fill="black" stroke="black" stroke-width="0.904522" stroke-linecap="round" stroke-linejoin="round"/>
<path d="M106.526 253.115H95.9751L93.8789 255.975H104.43C105.167 255.975 105.757 255.673 106.103 255.199L108.2 252.34C107.847 252.821 107.257 253.115 106.526 253.115Z" fill="black" stroke="black" stroke-width="0.904522" stroke-linecap="round" stroke-linejoin="round"/>
<path d="M72.3274 253.119C70.9235 253.119 69.5004 252.023 69.1671 250.67L67.3081 243.042C67.1543 242.401 67.2696 241.811 67.5902 241.375L65.494 244.234C65.1735 244.67 65.0517 245.26 65.2119 245.901L67.0709 253.529C67.3979 254.875 68.8209 255.978 70.2312 255.978H80.7762L82.8724 253.119H72.3274Z" fill="black" stroke="black" stroke-width="0.904522" stroke-linecap="round" stroke-linejoin="round"/>
<path d="M87.302 228.066C88.7123 228.066 90.1289 229.163 90.4623 230.515L92.9238 240.592H103.475C104.879 240.592 106.296 241.688 106.629 243.041L108.488 250.669C108.815 252.015 107.937 253.118 106.533 253.118H95.9816L98.4431 263.195C98.77 264.541 97.8918 265.644 96.4816 265.644H88.4943C87.0905 265.644 85.6674 264.548 85.334 263.195L82.8725 253.118H72.3275C70.9236 253.118 69.5005 252.022 69.1672 250.669L67.3082 243.041C66.9813 241.695 67.8659 240.592 69.2698 240.592H79.8147L77.3532 230.515C77.0262 229.169 77.9109 228.066 79.3147 228.066H87.302Z" fill="black" stroke="black" stroke-width="0.904522" stroke-linecap="round" stroke-linejoin="round"/>
<path d="M96.4748 265.637H88.4876C87.0837 265.637 85.6606 264.541 85.3273 263.188L82.8657 253.111L80.7695 255.97L83.2311 266.047C83.558 267.394 84.9811 268.496 86.3914 268.496H94.3786C95.1158 268.496 95.712 268.195 96.0581 267.714L98.1543 264.855C97.8017 265.336 97.212 265.637 96.4748 265.637Z" fill="black" stroke="black" stroke-width="0.904522" stroke-linecap="round" stroke-linejoin="round"/>
<path d="M96.4751 265.638H88.4879C87.084 265.638 85.6609 264.542 85.3276 263.189L82.866 253.112H72.321C70.9172 253.112 69.4941 252.016 69.1608 250.663L67.3018 243.035" stroke="#EBE9E9" stroke-width="0.904522" stroke-linecap="round" stroke-linejoin="round"/>
<path d="M106.526 253.119H95.9746" stroke="#EBE9E9" stroke-width="0.904522" stroke-linecap="round" stroke-linejoin="round"/>
<path d="M79.8151 240.593L77.3535 230.516" stroke="#EBE9E9" stroke-width="0.904522" stroke-linecap="round" stroke-linejoin="round"/>
<path d="M145.846 262.601C146.402 262.601 146.853 262.15 146.853 261.594C146.853 261.038 146.402 260.588 145.846 260.588C145.29 260.588 144.84 261.038 144.84 261.594C144.84 262.15 145.29 262.601 145.846 262.601Z" fill="black"/>
<path d="M159.597 262.601C160.153 262.601 160.604 262.15 160.604 261.594C160.604 261.038 160.153 260.588 159.597 260.588C159.041 260.588 158.591 261.038 158.591 261.594C158.591 262.15 159.041 262.601 159.597 262.601Z" fill="black"/>
<path d="M173.347 262.601C173.903 262.601 174.354 262.15 174.354 261.594C174.354 261.038 173.903 260.588 173.347 260.588C172.791 260.588 172.341 261.038 172.341 261.594C172.341 262.15 172.791 262.601 173.347 262.601Z" fill="black"/>
<path d="M187.09 262.601C187.646 262.601 188.097 262.15 188.097 261.594C188.097 261.038 187.646 260.588 187.09 260.588C186.535 260.588 186.084 261.038 186.084 261.594C186.084 262.15 186.535 262.601 187.09 262.601Z" fill="black"/>
<path d="M142.7 249.685C143.256 249.685 143.706 249.234 143.706 248.678C143.706 248.122 143.256 247.672 142.7 247.672C142.144 247.672 141.693 248.122 141.693 248.678C141.693 249.234 142.144 249.685 142.7 249.685Z" fill="black"/>
<path d="M156.443 249.685C156.999 249.685 157.449 249.234 157.449 248.678C157.449 248.122 156.999 247.672 156.443 247.672C155.887 247.672 155.437 248.122 155.437 248.678C155.437 249.234 155.887 249.685 156.443 249.685Z" fill="black"/>
<path d="M170.193 249.685C170.749 249.685 171.199 249.234 171.199 248.678C171.199 248.122 170.749 247.672 170.193 247.672C169.637 247.672 169.187 248.122 169.187 248.678C169.187 249.234 169.637 249.685 170.193 249.685Z" fill="black"/>
<path d="M183.944 249.685C184.5 249.685 184.95 249.234 184.95 248.678C184.95 248.122 184.5 247.672 183.944 247.672C183.388 247.672 182.938 248.122 182.938 248.678C182.938 249.234 183.388 249.685 183.944 249.685Z" fill="black"/>
<path d="M139.545 236.767C140.101 236.767 140.552 236.316 140.552 235.76C140.552 235.205 140.101 234.754 139.545 234.754C138.99 234.754 138.539 235.205 138.539 235.76C138.539 236.316 138.99 236.767 139.545 236.767Z" fill="black"/>
<path d="M153.295 236.767C153.851 236.767 154.302 236.316 154.302 235.76C154.302 235.205 153.851 234.754 153.295 234.754C152.74 234.754 152.289 235.205 152.289 235.76C152.289 236.316 152.74 236.767 153.295 236.767Z" fill="black"/>
<path d="M167.04 236.767C167.595 236.767 168.046 236.316 168.046 235.76C168.046 235.205 167.595 234.754 167.04 234.754C166.484 234.754 166.033 235.205 166.033 235.76C166.033 236.316 166.484 236.767 167.04 236.767Z" fill="black"/>
<path d="M180.79 236.767C181.345 236.767 181.796 236.316 181.796 235.76C181.796 235.205 181.345 234.754 180.79 234.754C180.234 234.754 179.783 235.205 179.783 235.76C179.783 236.316 180.234 236.767 180.79 236.767Z" fill="black"/>
<path d="M422.907 253.195C420.965 251.56 417.292 250.227 414.754 250.227H371.638C369.099 250.227 366.311 252.175 365.445 254.566L349.041 299.637C348.176 302.022 349.054 305.31 350.997 306.939L384.022 334.65C385.965 336.285 389.638 337.618 392.176 337.618H435.292C437.831 337.618 440.619 335.67 441.485 333.279L457.889 288.208C458.754 285.823 457.876 282.535 455.933 280.906L422.907 253.195Z" fill="black" stroke="black" stroke-width="0.904522" stroke-linecap="round" stroke-linejoin="round"/>
<path d="M389.145 333.285C388.279 335.67 385.978 336.285 384.029 334.657L351.003 306.945C349.061 305.311 348.176 302.029 349.048 299.644L365.452 254.573C366.317 252.188 368.619 251.573 370.567 253.201L403.593 280.913C405.536 282.548 406.42 285.83 405.549 288.214L389.145 333.285Z" fill="#EBE9E9" stroke="black" stroke-width="0.904522" stroke-linecap="round" stroke-linejoin="round"/>
<path d="M389.144 333.286C388.278 335.67 389.644 337.626 392.182 337.626H435.298C437.837 337.626 440.625 335.677 441.491 333.286L457.895 288.215C458.76 285.83 457.395 283.875 454.856 283.875H411.74C409.202 283.875 406.413 285.824 405.548 288.215L389.144 333.286Z" fill="#EBE9E9" stroke="black" stroke-width="0.904522" stroke-linecap="round" stroke-linejoin="round"/>
<path d="M370.567 253.195C368.625 251.56 369.106 250.227 371.644 250.227H414.76C417.299 250.227 420.965 251.56 422.914 253.195L455.94 280.906C457.882 282.541 457.402 283.874 454.863 283.874H411.747C409.209 283.874 405.542 282.541 403.593 280.906L370.567 253.195Z" fill="#EBE9E9" stroke="black" stroke-width="0.904522" stroke-linecap="round" stroke-linejoin="round"/>
<path d="M291.342 327.04C289.4 325.406 285.727 324.072 283.188 324.072H240.072C237.534 324.072 234.745 326.021 233.88 328.412L217.476 373.483C216.611 375.868 217.489 379.156 219.431 380.784L252.457 408.496C254.399 410.131 258.072 411.464 260.611 411.464H303.727C306.265 411.464 309.054 409.515 309.919 407.124L326.323 362.053C327.189 359.669 326.31 356.38 324.368 354.752L291.342 327.04Z" fill="black" stroke="black" stroke-width="0.904522" stroke-linecap="round" stroke-linejoin="round"/>
<path d="M257.579 407.131C256.714 409.516 254.412 410.131 252.464 408.503L219.438 380.791C217.495 379.156 216.611 375.874 217.483 373.49L233.887 328.419C234.752 326.034 237.053 325.419 239.002 327.047L272.028 354.759C273.97 356.393 274.855 359.676 273.983 362.06L257.579 407.131Z" fill="#32D27E" stroke="black" stroke-width="0.904522" stroke-miterlimit="10"/>
<path d="M257.578 407.131C256.713 409.516 258.078 411.471 260.617 411.471H303.733C306.271 411.471 309.06 409.522 309.925 407.131L326.329 362.061C327.195 359.676 325.829 357.721 323.291 357.721H280.175C277.636 357.721 274.848 359.669 273.982 362.061L257.578 407.131Z" fill="#EBE9E9" stroke="black" stroke-width="0.904522" stroke-linecap="round" stroke-linejoin="round"/>
<path d="M238.995 327.04C237.053 325.406 237.534 324.072 240.072 324.072H283.188C285.726 324.072 289.393 325.406 291.342 327.04L324.368 354.752C326.31 356.387 325.829 357.72 323.291 357.72H280.175C277.637 357.72 273.97 356.387 272.021 354.752L238.995 327.04Z" fill="#EBE9E9" stroke="black" stroke-width="0.904522" stroke-linecap="round" stroke-linejoin="round"/>
<path d="M310.907 273.296C308.964 271.661 305.291 270.328 302.753 270.328H259.637C257.098 270.328 254.31 272.277 253.444 274.668L237.04 319.739C236.175 322.124 237.053 325.412 238.996 327.04L272.021 354.752C273.964 356.387 277.637 357.72 280.175 357.72H323.291C325.83 357.72 328.618 355.771 329.484 353.38L345.888 308.309C346.753 305.925 345.875 302.636 343.932 301.008L310.907 273.296Z" fill="black" stroke="black" stroke-width="0.904522" stroke-linecap="round" stroke-linejoin="round"/>
<path d="M277.137 353.379C276.271 355.764 273.97 356.379 272.021 354.751L238.995 327.039C237.053 325.405 236.168 322.122 237.04 319.738L253.444 274.667C254.31 272.282 256.611 271.667 258.56 273.295L291.586 301.007C293.528 302.642 294.413 305.924 293.541 308.308L277.137 353.379Z" fill="#32D27E" stroke="black" stroke-width="0.904522" stroke-miterlimit="10"/>
<path d="M264.483 313.347L257.425 307.495L259.431 301.988C260.47 299.142 263.104 298.296 265.29 300.11L268.374 302.668L264.483 313.354V313.347Z" fill="black"/>
<path d="M273.021 320.423L265.963 314.571L269.854 303.885L272.937 306.442C275.123 308.257 276.066 312.071 275.033 314.917L273.027 320.423H273.021Z" fill="black"/>
<path d="M259.841 326.111L256.758 323.553C254.572 321.739 253.63 317.925 254.662 315.079L256.668 309.572L263.726 315.425L259.835 326.111H259.841Z" fill="black"/>
<path d="M264.399 329.892L261.315 327.334L265.206 316.648L272.264 322.501L270.258 328.008C269.219 330.854 266.585 331.7 264.399 329.886V329.892Z" fill="black"/>
<path d="M277.136 353.379C276.271 355.764 277.636 357.719 280.175 357.719H323.29C325.829 357.719 328.617 355.77 329.483 353.379L345.887 308.308C346.752 305.924 345.387 303.969 342.848 303.969H299.732C297.194 303.969 294.405 305.917 293.54 308.308L277.136 353.379Z" fill="#EBE9E9" stroke="black" stroke-width="0.904522" stroke-linecap="round" stroke-linejoin="round"/>
<path d="M258.56 273.296C256.617 271.661 257.098 270.328 259.636 270.328H302.752C305.291 270.328 308.957 271.661 310.906 273.296L343.932 301.008C345.874 302.643 345.394 303.976 342.855 303.976H299.739C297.201 303.976 293.534 302.643 291.586 301.008L258.56 273.296Z" fill="#EBE9E9" stroke="black" stroke-width="0.904522" stroke-linecap="round" stroke-linejoin="round"/>
<path d="M435.158 219.546C433.215 217.911 429.542 216.578 427.004 216.578H383.888C381.349 216.578 378.561 218.527 377.695 220.918L361.291 265.989C360.426 268.374 361.304 271.662 363.247 273.29L396.272 301.002C398.215 302.637 401.888 303.97 404.426 303.97H447.542C450.081 303.97 452.869 302.021 453.735 299.63L470.139 254.559C471.004 252.175 470.126 248.886 468.183 247.258L435.158 219.546Z" fill="black" stroke="black" stroke-width="0.904522" stroke-linecap="round" stroke-linejoin="round"/>
<path d="M401.388 299.637C400.522 302.022 398.221 302.637 396.272 301.009L363.246 273.297C361.304 271.662 360.419 268.38 361.291 265.996L377.695 220.925C378.561 218.54 380.862 217.925 382.811 219.553L415.837 247.265C417.779 248.899 418.664 252.181 417.792 254.566L401.388 299.637Z" fill="#EBE9E9" stroke="black" stroke-width="0.904522" stroke-linecap="round" stroke-linejoin="round"/>
<path d="M401.387 299.637C400.522 302.022 401.887 303.977 404.426 303.977H447.541C450.08 303.977 452.868 302.028 453.734 299.637L470.138 254.566C471.003 252.182 469.638 250.227 467.099 250.227H423.983C421.445 250.227 418.656 252.175 417.791 254.566L401.387 299.637Z" fill="#EBE9E9" stroke="black" stroke-width="0.904522" stroke-linecap="round" stroke-linejoin="round"/>
<path d="M382.811 219.546C380.868 217.911 381.349 216.578 383.887 216.578H427.003C429.542 216.578 433.208 217.911 435.157 219.546L468.183 247.258C470.125 248.893 469.645 250.226 467.106 250.226H423.99C421.452 250.226 417.785 248.893 415.837 247.258L382.811 219.546Z" fill="#EBE9E9" stroke="black" stroke-width="0.904522" stroke-linecap="round" stroke-linejoin="round"/>
<path d="M475.254 253.195C473.312 251.56 469.639 250.227 467.1 250.227H423.984C421.446 250.227 418.657 252.175 417.792 254.566L401.388 299.637C400.523 302.022 401.401 305.31 403.343 306.939L436.369 334.65C438.311 336.285 441.985 337.618 444.523 337.618H487.639C490.177 337.618 492.966 335.67 493.831 333.279L510.235 288.208C511.101 285.823 510.222 282.535 508.28 280.906L475.254 253.195Z" fill="black" stroke="black" stroke-width="0.904522" stroke-linecap="round" stroke-linejoin="round"/>
<path d="M441.491 333.285C440.626 335.67 438.325 336.285 436.376 334.657L403.35 306.945C401.408 305.311 400.523 302.029 401.395 299.644L417.799 254.573C418.664 252.188 420.965 251.573 422.914 253.201L455.94 280.913C457.882 282.548 458.767 285.83 457.895 288.214L441.491 333.285Z" fill="#32D27E" stroke="black" stroke-width="0.904522" stroke-miterlimit="10"/>
<path d="M441.491 333.286C440.625 335.67 441.991 337.626 444.529 337.626H487.645C490.183 337.626 492.972 335.677 493.837 333.286L510.241 288.215C511.107 285.83 509.741 283.875 507.203 283.875H464.087C461.548 283.875 458.76 285.824 457.895 288.215L441.491 333.286Z" fill="#EBE9E9" stroke="black" stroke-width="0.904522" stroke-linecap="round" stroke-linejoin="round"/>
<path d="M422.907 253.195C420.965 251.56 421.446 250.227 423.984 250.227H467.1C469.638 250.227 473.305 251.56 475.254 253.195L508.28 280.906C510.222 282.541 509.741 283.874 507.203 283.874H464.087C461.549 283.874 457.882 282.541 455.933 280.906L422.907 253.195Z" fill="#EBE9E9" stroke="black" stroke-width="0.904522" stroke-linecap="round" stroke-linejoin="round"/>
<path d="M382.811 219.546C380.868 217.911 377.195 216.578 374.657 216.578H331.541C329.003 216.578 326.214 218.527 325.349 220.918L308.945 265.989C308.079 268.374 308.957 271.662 310.9 273.29L343.926 301.002C345.868 302.637 349.541 303.97 352.08 303.97H395.196C397.734 303.97 400.522 302.021 401.388 299.63L417.792 254.559C418.657 252.175 417.779 248.886 415.837 247.258L382.811 219.546Z" fill="black" stroke="black" stroke-width="0.904522" stroke-linecap="round" stroke-linejoin="round"/>
<path d="M349.048 299.637C348.182 302.022 345.881 302.637 343.932 301.009L310.906 273.297C308.964 271.662 308.08 268.38 308.951 265.996L325.355 220.925C326.221 218.54 328.522 217.925 330.471 219.553L363.497 247.265C365.439 248.899 366.324 252.181 365.452 254.566L349.048 299.637Z" fill="#EBE9E9" stroke="black" stroke-width="0.904522" stroke-linecap="round" stroke-linejoin="round"/>
<path d="M349.047 299.637C348.182 302.022 349.547 303.977 352.086 303.977H395.201C397.74 303.977 400.528 302.028 401.394 299.637L417.798 254.566C418.663 252.182 417.298 250.227 414.759 250.227H371.644C369.105 250.227 366.317 252.175 365.451 254.566L349.047 299.637Z" fill="black" stroke="black" stroke-width="0.904522" stroke-linecap="round" stroke-linejoin="round"/>
<path d="M330.464 219.546C328.522 217.911 329.002 216.578 331.541 216.578H374.657C377.195 216.578 380.862 217.911 382.81 219.546L415.836 247.258C417.779 248.893 417.298 250.226 414.76 250.226H371.644C369.105 250.226 365.439 248.893 363.49 247.258L330.464 219.546Z" fill="#EBE9E9" stroke="black" stroke-width="0.904522" stroke-linecap="round" stroke-linejoin="round"/>
<path d="M330.464 219.546C328.522 217.911 324.849 216.578 322.31 216.578H279.194C276.656 216.578 273.867 218.527 273.002 220.918L256.598 265.989C255.733 268.374 256.611 271.662 258.553 273.29L291.579 301.002C293.521 302.637 297.195 303.97 299.733 303.97H342.849C345.387 303.97 348.176 302.021 349.041 299.63L365.445 254.559C366.311 252.175 365.432 248.886 363.49 247.258L330.464 219.546Z" fill="black" stroke="black" stroke-width="0.904522" stroke-linecap="round" stroke-linejoin="round"/>
<path d="M296.701 299.637C295.836 302.022 293.535 302.637 291.586 301.009L258.56 273.297C256.617 271.662 255.733 268.38 256.605 265.996L273.009 220.925C273.874 218.54 276.175 217.925 278.124 219.553L311.15 247.265C313.092 248.899 313.977 252.181 313.105 254.566L296.701 299.637Z" fill="#32D27E" stroke="black" stroke-width="0.904522" stroke-miterlimit="10"/>
<path d="M296.701 299.637C295.835 302.022 297.201 303.977 299.739 303.977H342.855C345.393 303.977 348.182 302.028 349.047 299.637L365.451 254.566C366.317 252.182 364.951 250.227 362.413 250.227H319.297C316.758 250.227 313.97 252.175 313.105 254.566L296.701 299.637Z" fill="#EBE9E9" stroke="black" stroke-width="0.904522" stroke-linecap="round" stroke-linejoin="round"/>
<path d="M278.124 219.546C276.182 217.911 276.662 216.578 279.201 216.578H322.317C324.855 216.578 328.522 217.911 330.471 219.546L363.497 247.258C365.439 248.893 364.958 250.226 362.42 250.226H319.304C316.765 250.226 313.099 248.893 311.15 247.258L278.124 219.546Z" fill="#EBE9E9" stroke="black" stroke-width="0.904522" stroke-linecap="round" stroke-linejoin="round"/>
<path d="M331.439 360.691C329.496 359.056 325.823 357.723 323.285 357.723H280.169C277.631 357.723 274.842 359.671 273.977 362.062L257.573 407.133C256.707 409.518 257.585 412.807 259.528 414.435L292.554 442.147C294.496 443.781 298.169 445.115 300.708 445.115H343.823C346.362 445.115 349.15 443.166 350.016 440.775L366.42 395.704C367.285 393.319 366.407 390.031 364.465 388.402L331.439 360.691Z" fill="black" stroke="black" stroke-width="0.904522" stroke-linecap="round" stroke-linejoin="round"/>
<path d="M297.675 440.776C296.809 443.16 294.508 443.776 292.559 442.147L259.533 414.436C257.591 412.801 256.706 409.519 257.578 407.134L273.982 362.063C274.848 359.679 277.149 359.063 279.098 360.692L312.124 388.403C314.066 390.038 314.951 393.32 314.079 395.705L297.675 440.776Z" fill="#32D27E" stroke="black" stroke-width="0.904522" stroke-miterlimit="10"/>
<path d="M297.675 440.775C296.81 443.159 298.175 445.115 300.714 445.115H343.829C346.368 445.115 349.156 443.166 350.022 440.775L366.426 395.704C367.291 393.319 365.926 391.364 363.387 391.364H320.272C317.733 391.364 314.945 393.313 314.079 395.704L297.675 440.775Z" fill="#EBE9E9" stroke="black" stroke-width="0.904522" stroke-linecap="round" stroke-linejoin="round"/>
<path d="M279.099 360.691C277.156 359.056 277.637 357.723 280.176 357.723H323.291C325.83 357.723 329.497 359.056 331.445 360.691L364.471 388.402C366.414 390.037 365.933 391.37 363.394 391.37H320.279C317.74 391.37 314.073 390.037 312.125 388.402L279.099 360.691Z" fill="#EBE9E9" stroke="black" stroke-width="0.904522" stroke-linecap="round" stroke-linejoin="round"/>
<path d="M351.003 306.948C349.061 305.314 345.388 303.98 342.849 303.98H299.733C297.195 303.98 294.406 305.929 293.541 308.32L277.137 353.391C276.272 355.776 277.15 359.064 279.092 360.693L312.118 388.404C314.061 390.039 317.734 391.372 320.272 391.372H363.388C365.926 391.372 368.715 389.424 369.58 387.033L385.984 341.962C386.85 339.577 385.971 336.288 384.029 334.66L351.003 306.948Z" fill="black" stroke="black" stroke-width="0.904522" stroke-linecap="round" stroke-linejoin="round"/>
<path d="M317.239 387.03C316.374 389.414 314.073 390.03 312.124 388.401L279.098 360.69C277.156 359.055 276.271 355.773 277.143 353.388L293.547 308.317C294.412 305.933 296.713 305.317 298.662 306.945L331.688 334.657C333.63 336.292 334.515 339.574 333.643 341.959L317.239 387.03Z" fill="black" stroke="black" stroke-width="0.904522" stroke-linecap="round" stroke-linejoin="round"/>
<path d="M317.24 387.03C316.374 389.415 317.74 391.37 320.278 391.37H363.394C365.932 391.37 368.721 389.421 369.586 387.03L385.99 341.959C386.856 339.574 385.49 337.619 382.952 337.619H339.836C337.297 337.619 334.509 339.568 333.644 341.959L317.24 387.03Z" fill="#EBE9E9" stroke="black" stroke-width="0.904522" stroke-linecap="round" stroke-linejoin="round"/>
<path d="M298.656 306.941C296.714 305.306 297.195 303.973 299.733 303.973H342.849C345.387 303.973 349.054 305.306 351.003 306.941L384.029 334.652C385.971 336.287 385.49 337.62 382.952 337.62H339.836C337.298 337.62 333.631 336.287 331.682 334.652L298.656 306.941Z" fill="#EBE9E9" stroke="black" stroke-width="0.904522" stroke-linecap="round" stroke-linejoin="round"/>
<path d="M370.568 253.195C368.625 251.56 364.952 250.227 362.414 250.227H319.298C316.759 250.227 313.971 252.175 313.106 254.566L296.702 299.637C295.836 302.022 296.714 305.31 298.657 306.939L331.683 334.65C333.625 336.285 337.298 337.618 339.837 337.618H382.952C385.491 337.618 388.279 335.67 389.145 333.279L405.549 288.208C406.414 285.823 405.536 282.535 403.594 280.906L370.568 253.195Z" fill="black" stroke="black" stroke-width="0.904522" stroke-linecap="round" stroke-linejoin="round"/>
<path d="M336.798 333.285C335.932 335.67 333.631 336.285 331.682 334.657L298.656 306.945C296.714 305.311 295.83 302.029 296.701 299.644L313.105 254.573C313.971 252.188 316.272 251.573 318.221 253.201L351.247 280.913C353.189 282.548 354.074 285.83 353.202 288.214L336.798 333.285Z" fill="#A66CFF" stroke="black" stroke-width="0.904522" stroke-miterlimit="10"/>
<path d="M330.574 299.054C328.17 297.035 327.311 292.458 328.651 288.823C329.003 287.868 329.477 287.073 330.022 286.451C329.285 284.829 328.298 283.426 327.08 282.406C322.875 278.881 317.567 281.176 315.221 287.535C312.875 293.894 314.381 301.913 318.586 305.439C322.791 308.964 328.099 306.669 330.445 300.31C330.574 299.958 330.695 299.592 330.798 299.233C330.721 299.176 330.651 299.118 330.574 299.054Z" fill="black"/>
<path d="M339.067 295.746C338.003 294.195 336.439 293.516 334.913 294.176C333.388 294.836 332.298 296.663 331.933 298.83C332.997 300.381 334.561 301.061 336.086 300.4C337.612 299.74 338.702 297.913 339.067 295.746Z" fill="black"/>
<path d="M336.798 333.286C335.933 335.67 337.298 337.626 339.837 337.626H382.952C385.491 337.626 388.279 335.677 389.145 333.286L405.549 288.215C406.414 285.83 405.049 283.875 402.51 283.875H359.395C356.856 283.875 354.068 285.824 353.202 288.215L336.798 333.286Z" fill="#EBE9E9" stroke="black" stroke-width="0.904522" stroke-linecap="round" stroke-linejoin="round"/>
<path d="M318.221 253.195C316.278 251.56 316.759 250.227 319.298 250.227H362.413C364.952 250.227 368.619 251.56 370.567 253.195L403.593 280.906C405.536 282.541 405.055 283.874 402.516 283.874H359.401C356.862 283.874 353.195 282.541 351.247 280.906L318.221 253.195Z" fill="#EBE9E9" stroke="black" stroke-width="0.904522" stroke-linecap="round" stroke-linejoin="round"/>
<path d="M476.229 394.337C474.286 392.702 470.613 391.369 468.075 391.369H424.959C422.421 391.369 419.632 393.318 418.767 395.709L402.363 440.78C401.497 443.165 402.375 446.453 404.318 448.081L437.344 475.793C439.286 477.428 442.959 478.761 445.498 478.761H488.613C491.152 478.761 493.94 476.812 494.806 474.421L511.21 429.35C512.075 426.966 511.197 423.677 509.255 422.049L476.229 394.337Z" fill="black" stroke="black" stroke-width="0.904522" stroke-linecap="round" stroke-linejoin="round"/>
<path d="M442.466 474.422C441.6 476.807 439.299 477.422 437.35 475.794L404.324 448.082C402.382 446.448 401.498 443.165 402.369 440.781L418.773 395.71C419.639 393.325 421.94 392.71 423.889 394.338L456.915 422.05C458.857 423.684 459.742 426.967 458.87 429.351L442.466 474.422Z" fill="#EBE9E9" stroke="black" stroke-width="0.904522" stroke-linecap="round" stroke-linejoin="round"/>
<path d="M442.465 474.421C441.6 476.806 442.965 478.761 445.504 478.761H488.619C491.158 478.761 493.946 476.813 494.812 474.421L511.216 429.351C512.081 426.966 510.716 425.011 508.177 425.011H465.062C462.523 425.011 459.735 426.959 458.869 429.351L442.465 474.421Z" fill="#EBE9E9" stroke="black" stroke-width="0.904522" stroke-linecap="round" stroke-linejoin="round"/>
<path d="M423.882 394.337C421.939 392.702 422.42 391.369 424.959 391.369H468.075C470.613 391.369 474.28 392.702 476.228 394.337L509.254 422.049C511.197 423.684 510.716 425.017 508.178 425.017H465.062C462.523 425.017 458.857 423.684 456.908 422.049L423.882 394.337Z" fill="#EBE9E9" stroke="black" stroke-width="0.904522" stroke-linecap="round" stroke-linejoin="round"/>
<path d="M423.882 394.337C421.94 392.702 418.267 391.369 415.728 391.369H372.612C370.074 391.369 367.285 393.318 366.42 395.709L350.016 440.78C349.151 443.165 350.029 446.453 351.971 448.081L384.997 475.793C386.939 477.428 390.613 478.761 393.151 478.761H436.267C438.805 478.761 441.594 476.812 442.459 474.421L458.863 429.35C459.729 426.966 458.85 423.677 456.908 422.049L423.882 394.337Z" fill="black" stroke="black" stroke-width="0.904522" stroke-linecap="round" stroke-linejoin="round"/>
<path d="M390.118 474.422C389.253 476.807 386.951 477.422 385.003 475.794L351.977 448.082C350.034 446.448 349.15 443.165 350.022 440.781L366.426 395.71C367.291 393.325 369.592 392.71 371.541 394.338L404.567 422.05C406.509 423.684 407.394 426.967 406.522 429.351L390.118 474.422Z" fill="#EBE9E9" stroke="black" stroke-width="0.904522" stroke-linecap="round" stroke-linejoin="round"/>
<path d="M390.118 474.421C389.253 476.806 390.618 478.761 393.157 478.761H436.273C438.811 478.761 441.6 476.813 442.465 474.421L458.869 429.351C459.735 426.966 458.369 425.011 455.831 425.011H412.715C410.176 425.011 407.388 426.959 406.522 429.351L390.118 474.421Z" fill="#EBE9E9" stroke="black" stroke-width="0.904522" stroke-linecap="round" stroke-linejoin="round"/>
<path d="M371.542 394.337C369.6 392.702 370.08 391.369 372.619 391.369H415.735C418.273 391.369 421.94 392.702 423.889 394.337L456.915 422.049C458.857 423.684 458.376 425.017 455.838 425.017H412.722C410.183 425.017 406.517 423.684 404.568 422.049L371.542 394.337Z" fill="#EBE9E9" stroke="black" stroke-width="0.904522" stroke-linecap="round" stroke-linejoin="round"/>
<path d="M371.542 394.337C369.6 392.702 365.927 391.369 363.388 391.369H320.273C317.734 391.369 314.946 393.318 314.08 395.709L297.676 440.78C296.811 443.165 297.689 446.453 299.631 448.081L332.657 475.793C334.6 477.428 338.273 478.761 340.811 478.761H383.927C386.465 478.761 389.254 476.812 390.119 474.421L406.523 429.35C407.389 426.966 406.511 423.677 404.568 422.049L371.542 394.337Z" fill="black" stroke="black" stroke-width="0.904522" stroke-linecap="round" stroke-linejoin="round"/>
<path d="M337.772 474.422C336.907 476.807 334.606 477.422 332.657 475.794L299.631 448.082C297.689 446.448 296.804 443.165 297.676 440.781L314.08 395.71C314.945 393.325 317.247 392.71 319.195 394.338L352.221 422.05C354.164 423.684 355.048 426.967 354.177 429.351L337.772 474.422Z" fill="#FFE500" stroke="black" stroke-width="0.904522" stroke-miterlimit="10"/>
<path d="M337.772 474.421C336.906 476.806 338.272 478.761 340.81 478.761H383.926C386.465 478.761 389.253 476.813 390.118 474.421L406.522 429.351C407.388 426.966 406.022 425.011 403.484 425.011H360.368C357.83 425.011 355.041 426.959 354.176 429.351L337.772 474.421Z" fill="#EBE9E9" stroke="black" stroke-width="0.904522" stroke-linecap="round" stroke-linejoin="round"/>
<path d="M360.689 453.703L366.997 463.678L387.465 440.235C387.465 440.235 378.017 448.223 371.081 453.78C366.561 457.402 360.689 453.71 360.689 453.71V453.703Z" fill="black"/>
<path d="M319.195 394.337C317.253 392.702 317.734 391.369 320.272 391.369H363.388C365.927 391.369 369.593 392.702 371.542 394.337L404.568 422.049C406.51 423.684 406.029 425.017 403.491 425.017H360.375C357.837 425.017 354.17 423.684 352.221 422.049L319.195 394.337Z" fill="#EBE9E9" stroke="black" stroke-width="0.904522" stroke-linecap="round" stroke-linejoin="round"/>
<path d="M495.793 340.585C493.851 338.95 490.178 337.617 487.639 337.617H444.523C441.985 337.617 439.196 339.566 438.331 341.957L421.927 387.028C421.062 389.412 421.94 392.701 423.882 394.329L456.908 422.041C458.851 423.675 462.524 425.009 465.062 425.009H508.178C510.716 425.009 513.505 423.06 514.37 420.669L530.774 375.598C531.64 373.213 530.762 369.925 528.819 368.297L495.793 340.585Z" fill="black" stroke="black" stroke-width="0.904522" stroke-linecap="round" stroke-linejoin="round"/>
<path d="M462.023 420.674C461.158 423.058 458.857 423.674 456.908 422.046L423.882 394.334C421.94 392.699 421.055 389.417 421.927 387.032L438.331 341.962C439.196 339.577 441.498 338.962 443.446 340.59L476.472 368.302C478.415 369.936 479.299 373.218 478.427 375.603L462.023 420.674Z" fill="black" stroke="black" stroke-width="0.904522" stroke-linecap="round" stroke-linejoin="round"/>
<path d="M462.024 420.676C461.158 423.061 462.524 425.016 465.062 425.016H508.178C510.717 425.016 513.505 423.067 514.37 420.676L530.774 375.605C531.64 373.221 530.274 371.265 527.736 371.265H484.62C482.082 371.265 479.293 373.214 478.428 375.605L462.024 420.676Z" fill="#EBE9E9" stroke="black" stroke-width="0.904522" stroke-linecap="round" stroke-linejoin="round"/>
<path d="M443.446 340.585C441.504 338.95 441.985 337.617 444.523 337.617H487.639C490.177 337.617 493.844 338.95 495.793 340.585L528.819 368.297C530.761 369.931 530.28 371.265 527.742 371.265H484.626C482.088 371.265 478.421 369.931 476.472 368.297L443.446 340.585Z" fill="#EBE9E9" stroke="black" stroke-width="0.904522" stroke-linecap="round" stroke-linejoin="round"/>
<path d="M431.254 340.585C429.311 338.95 425.638 337.617 423.1 337.617H327.644C325.105 337.617 322.317 339.566 321.451 341.957L305.047 387.028C304.182 389.412 305.06 392.701 307.002 394.329L340.028 422.041C341.971 423.675 345.644 425.009 348.182 425.009H443.638C446.177 425.009 448.965 423.06 449.831 420.669L466.235 375.598C467.1 373.213 466.222 369.925 464.28 368.297L431.254 340.585Z" fill="black" stroke="black" stroke-width="0.904522" stroke-linecap="round" stroke-linejoin="round"/>
<path d="M345.144 420.674C344.278 423.058 341.977 423.674 340.028 422.046L307.002 394.334C305.06 392.699 304.175 389.417 305.047 387.032L321.451 341.962C322.316 339.577 324.618 338.962 326.566 340.59L359.592 368.302C361.535 369.936 362.419 373.218 361.548 375.603L345.144 420.674Z" fill="#4C35F5" stroke="black" stroke-width="0.904522" stroke-miterlimit="10"/>
<path d="M320.944 370.168L322.726 371.661L323.989 368.213L324.931 369.001L323.668 372.45L325.463 373.956L324.842 375.655L323.047 374.149L321.784 377.597L320.841 376.809L322.104 373.36L320.322 371.867L320.944 370.168Z" fill="white"/>
<path d="M328.868 377.612C330.227 373.887 332.118 372.387 333.688 373.708C335.291 375.054 335.413 378.221 334.047 381.958C332.695 385.663 330.842 387.221 329.233 385.868C327.65 384.541 327.515 381.317 328.868 377.612ZM332.759 380.874C333.663 378.413 333.881 376.445 332.97 375.676C332.047 374.9 331.06 376.208 330.156 378.689C329.252 381.15 329.041 383.124 329.964 383.9C330.887 384.676 331.848 383.374 332.765 380.874H332.759Z" fill="white"/>
<path d="M333.239 385.656L334.56 386.765L333.662 389.227L332.342 388.118L333.239 385.656Z" fill="white"/>
<path d="M337.791 382.079L336.387 380.9L336.945 379.367C337.72 379.957 338.598 379.996 339.265 378.611L340.342 379.515L336.054 391.239L334.816 390.201L337.784 382.079H337.791Z" fill="white"/>
<path d="M338.156 388.604C338.682 387.162 339.547 386.418 340.406 386.495L340.425 386.444C340.047 385.508 339.989 384.527 340.4 383.406C341.118 381.431 342.445 381.079 343.784 382.2C345.124 383.322 345.592 385.156 344.874 387.111C344.477 388.2 343.868 388.688 343.163 388.72L343.143 388.771C343.663 389.809 343.695 391.277 343.175 392.688C342.297 395.085 340.759 395.521 339.355 394.342C337.951 393.162 337.297 390.95 338.15 388.604H338.156ZM341.906 391.643C342.342 390.45 342.182 389.297 341.425 388.662C340.663 388.021 339.9 388.406 339.464 389.591C339.047 390.733 339.265 391.822 340.015 392.45C340.739 393.059 341.502 392.745 341.906 391.643ZM343.592 386.329C343.925 385.412 343.772 384.482 343.131 383.944C342.477 383.399 341.874 383.688 341.541 384.611C341.207 385.534 341.348 386.495 342.002 387.04C342.643 387.579 343.259 387.252 343.598 386.335L343.592 386.329Z" fill="white"/>
<path d="M345.144 420.676C344.278 423.061 345.644 425.016 348.182 425.016H443.638C446.177 425.016 448.965 423.067 449.831 420.676L466.235 375.605C467.1 373.221 465.735 371.265 463.196 371.265H367.74C365.202 371.265 362.413 373.214 361.548 375.605L345.144 420.676Z" fill="#EBE9E9" stroke="black" stroke-width="0.904522" stroke-linecap="round" stroke-linejoin="round"/>
<path d="M389.471 395.655H385.195L387.003 390.687H391.279L389.471 395.655Z" fill="black"/>
<path d="M395.549 390.686H391.279L393.087 385.718H397.356L395.549 390.686Z" fill="black"/>
<path d="M387.663 400.622H383.388L385.195 395.654H389.471L387.663 400.622Z" fill="black"/>
<path d="M391.932 400.622H387.663L389.471 395.654H393.74L391.932 400.622Z" fill="black"/>
<path d="M396.202 400.622H391.933L393.74 395.654H398.01L396.202 400.622Z" fill="black"/>
<path d="M385.856 405.591H381.58L383.388 400.623H387.663L385.856 405.591Z" fill="black"/>
<path d="M388.317 410.559H384.048L385.856 405.591H390.125L388.317 410.559Z" fill="black"/>
<path d="M392.587 410.559H388.317L390.125 405.591H394.394L392.587 410.559Z" fill="black"/>
<path d="M399.817 390.686H395.548L397.356 385.718H401.625L399.817 390.686Z" fill="black"/>
<path d="M408.362 390.686H404.093L405.9 385.718H410.17L408.362 390.686Z" fill="black"/>
<path d="M412.638 390.686H408.362L410.17 385.718H414.446L412.638 390.686Z" fill="black"/>
<path d="M410.83 395.655H406.555L408.362 390.687H412.638L410.83 395.655Z" fill="black"/>
<path d="M409.023 400.622H404.747L406.555 395.654H410.83L409.023 400.622Z" fill="black"/>
<path d="M407.215 405.591H402.939L404.747 400.623H409.023L407.215 405.591Z" fill="black"/>
<path d="M405.408 410.559H401.132L402.94 405.591H407.215L405.408 410.559Z" fill="black"/>
<path d="M429.721 390.686H425.452L427.26 385.718H431.529L429.721 390.686Z" fill="black"/>
<path d="M433.997 390.686H429.722L431.529 385.718H435.805L433.997 390.686Z" fill="black"/>
<path d="M426.106 400.622H421.837L423.645 395.654H427.914L426.106 400.622Z" fill="black"/>
<path d="M430.382 400.622H426.106L427.914 395.654H432.19L430.382 400.622Z" fill="black"/>
<path d="M423.644 395.655H419.375L421.183 390.687H425.452L423.644 395.655Z" fill="black"/>
<path d="M421.837 400.622H417.567L419.375 395.654H423.644L421.837 400.622Z" fill="black"/>
<path d="M420.029 405.591H415.76L417.567 400.623H421.837L420.029 405.591Z" fill="black"/>
<path d="M418.221 410.559H413.952L415.76 405.591H420.029L418.221 410.559Z" fill="black"/>
<path d="M416.907 390.686H412.638L414.445 385.718H418.715L416.907 390.686Z" fill="black"/>
<path d="M326.56 340.585C324.617 338.95 325.098 337.617 327.636 337.617H423.093C425.631 337.617 429.298 338.95 431.246 340.585L464.272 368.297C466.215 369.931 465.734 371.265 463.196 371.265H367.739C365.201 371.265 361.534 369.931 359.586 368.297L326.56 340.585Z" fill="#4C35F5" stroke="black" stroke-width="0.904522" stroke-miterlimit="10"/>
<path d="M515.351 286.843C513.408 285.208 509.735 283.875 507.197 283.875H464.081C461.543 283.875 458.754 285.824 457.889 288.215L441.485 333.286C440.619 335.67 441.498 338.959 443.44 340.587L476.466 368.299C478.408 369.934 482.081 371.267 484.62 371.267H527.736C530.274 371.267 533.063 369.318 533.928 366.927L550.332 321.856C551.197 319.472 550.319 316.183 548.377 314.555L515.351 286.843Z" fill="black" stroke="black" stroke-width="0.904522" stroke-linecap="round" stroke-linejoin="round"/>
<path d="M481.588 366.936C480.723 369.32 478.421 369.936 476.472 368.308L443.447 340.596C441.504 338.961 440.62 335.679 441.491 333.294L457.895 288.224C458.761 285.839 461.062 285.223 463.011 286.852L496.037 314.563C497.979 316.198 498.864 319.48 497.992 321.865L481.588 366.936Z" fill="#EBE9E9" stroke="black" stroke-width="0.904522" stroke-linecap="round" stroke-linejoin="round"/>
<path d="M481.587 366.934C480.722 369.319 482.087 371.274 484.626 371.274H527.742C530.28 371.274 533.068 369.325 533.934 366.934L550.338 321.863C551.203 319.479 549.838 317.523 547.299 317.523H504.184C501.645 317.523 498.857 319.472 497.991 321.863L481.587 366.934Z" fill="#EBE9E9" stroke="black" stroke-width="0.904522" stroke-linecap="round" stroke-linejoin="round"/>
<path d="M517.787 355.03C515.908 355.03 515.004 353.485 514.722 351.133C512.748 353.492 510.729 355.03 508.851 355.03C506.03 355.03 505.094 351.568 506.068 344.741C506.735 340.062 508.049 335.459 508.107 335.267L510.556 335.023C508.562 341.979 506.959 352.28 509.851 352.28C510.985 352.28 512.684 350.652 514.671 347.78C514.857 344.761 515.549 341.197 516.351 337.902C516.601 336.863 517.254 335.812 518.133 335.017C519.011 334.222 520.037 333.773 520.94 333.773H521.037C521.934 333.773 522.62 334.222 522.928 335.011C523.235 335.799 523.126 336.838 522.633 337.876C521.062 341.177 519.184 344.748 517.197 347.767C517.113 350.645 517.645 352.28 518.78 352.28C521.472 352.28 526.678 343.37 529.819 336.53H526.69L527.697 333.773H533.408L532.761 335.261C532.678 335.453 530.678 340.056 527.979 344.735C524.037 351.568 520.601 355.036 517.774 355.036L517.787 355.03ZM519.94 336.523C519.646 336.523 519.396 336.709 519.267 336.818C519.146 336.927 518.921 337.171 518.838 337.511C518.383 339.395 518.017 341.139 517.748 342.716C518.62 341.132 519.511 339.389 520.408 337.504C520.569 337.165 520.524 336.927 520.479 336.818C520.434 336.709 520.319 336.523 520.024 336.523H519.928H519.94Z" fill="black"/>
<path d="M463.011 286.843C461.068 285.209 461.549 283.875 464.088 283.875H507.203C509.742 283.875 513.409 285.209 515.357 286.843L548.383 314.555C550.326 316.19 549.845 317.523 547.306 317.523H504.191C501.652 317.523 497.985 316.19 496.037 314.555L463.011 286.843Z" fill="#EBE9E9" stroke="black" stroke-width="0.904522" stroke-linecap="round" stroke-linejoin="round"/>
<path d="M463.011 286.843C461.069 285.208 457.396 283.875 454.857 283.875H411.741C409.203 283.875 406.414 285.824 405.549 288.215L389.145 333.286C388.279 335.67 389.158 338.959 391.1 340.587L424.126 368.299C426.068 369.934 429.741 371.267 432.28 371.267H475.396C477.934 371.267 480.723 369.318 481.588 366.927L497.992 321.856C498.857 319.472 497.979 316.183 496.037 314.555L463.011 286.843Z" fill="black" stroke="black" stroke-width="0.904522" stroke-linecap="round" stroke-linejoin="round"/>
<path d="M429.241 366.936C428.376 369.32 426.075 369.936 424.126 368.308L391.1 340.596C389.158 338.961 388.273 335.679 389.145 333.294L405.549 288.224C406.414 285.839 408.715 285.223 410.664 286.852L443.69 314.563C445.632 316.198 446.517 319.48 445.645 321.865L429.241 366.936Z" fill="#EBE9E9" stroke="black" stroke-width="0.904522" stroke-linecap="round" stroke-linejoin="round"/>
<path d="M429.241 366.934C428.375 369.319 429.741 371.274 432.279 371.274H475.395C477.933 371.274 480.722 369.325 481.587 366.934L497.991 321.863C498.857 319.479 497.491 317.523 494.953 317.523H451.837C449.298 317.523 446.51 319.472 445.645 321.863L429.241 366.934Z" fill="#EBE9E9" stroke="black" stroke-width="0.904522" stroke-linecap="round" stroke-linejoin="round"/>
<path d="M443.985 344.138H446.69L447.876 340.894H449.305L448.119 344.138H450.844L450.26 345.734H447.536L446.35 348.978H444.921L446.107 345.734H443.401L443.985 344.138Z" fill="black"/>
<path d="M453.831 344.716C455.114 341.216 457.479 338.998 459.87 338.998C462.261 338.998 462.979 341.203 461.697 344.716C460.421 348.197 458.12 350.434 455.671 350.434C453.223 350.434 452.562 348.197 453.831 344.716ZM459.742 344.716C460.588 342.402 460.582 340.85 459.191 340.85C457.8 340.85 456.639 342.382 455.78 344.716C454.934 347.03 454.953 348.581 456.357 348.581C457.761 348.581 458.876 347.062 459.735 344.716H459.742Z" fill="black"/>
<path d="M461.17 347.863H463.177L462.331 350.177H460.324L461.17 347.863Z" fill="black"/>
<path d="M467.036 345.836C468.613 344.753 470.19 343.984 470.703 342.58C471.075 341.554 470.863 340.868 470.023 340.868C469.075 340.868 468.222 341.67 467.671 343.086H465.914C466.825 340.593 468.504 339.016 470.748 339.016C472.793 339.016 473.357 340.631 472.671 342.516C471.914 344.573 470.35 345.548 468.87 346.445C467.94 346.99 466.831 347.689 466.261 348.394H470.6L469.946 350.182H463.184C464.017 348.093 465.613 346.811 467.043 345.836H467.036Z" fill="black"/>
<path d="M472.703 344.877C473.395 342.941 474.299 341.377 475.543 340.274C476.44 339.473 477.434 339.011 478.71 339.011C480.594 339.011 481.28 340.21 480.921 341.838H479.12C479.229 341.165 478.998 340.672 478.171 340.672C476.799 340.672 475.697 341.87 474.992 343.8H475.017C475.754 343.127 476.543 342.665 477.645 342.665C479.389 342.665 480.338 344.249 479.485 346.582C478.658 348.832 476.543 350.415 474.575 350.415C471.883 350.415 471.639 347.845 472.703 344.871V344.877ZM477.684 346.621C478.139 345.377 477.729 344.435 476.71 344.435C475.556 344.435 474.549 345.345 474.088 346.608C473.639 347.839 474.068 348.717 475.126 348.717C476.184 348.717 477.248 347.806 477.677 346.627L477.684 346.621Z" fill="black"/>
<path d="M410.664 286.843C408.722 285.208 409.202 283.875 411.741 283.875H454.857C457.395 283.875 461.062 285.208 463.011 286.843L496.037 314.555C497.979 316.189 497.498 317.523 494.96 317.523H451.844C449.305 317.523 445.639 316.189 443.69 314.555L410.664 286.843Z" fill="#EBE9E9" stroke="black" stroke-width="0.904522" stroke-linecap="round" stroke-linejoin="round"/>
<path d="M410.664 286.843C408.722 285.208 405.049 283.875 402.51 283.875H359.395C356.856 283.875 354.068 285.824 353.202 288.215L336.798 333.286C335.933 335.67 336.811 338.959 338.753 340.587L371.779 368.299C373.722 369.934 377.395 371.267 379.933 371.267H423.049C425.588 371.267 428.376 369.318 429.241 366.927L445.645 321.856C446.511 319.472 445.633 316.183 443.69 314.555L410.664 286.843Z" fill="black" stroke="black" stroke-width="0.904522" stroke-linecap="round" stroke-linejoin="round"/>
<path d="M376.901 366.936C376.036 369.32 373.735 369.936 371.786 368.308L338.76 340.596C336.818 338.961 335.933 335.679 336.805 333.294L353.209 288.224C354.074 285.839 356.376 285.223 358.324 286.852L391.35 314.563C393.293 316.198 394.177 319.48 393.305 321.865L376.901 366.936Z" fill="#FFE500" stroke="black" stroke-width="0.904522" stroke-miterlimit="10"/>
<path d="M376.901 366.934C376.035 369.319 377.401 371.274 379.939 371.274H423.055C425.594 371.274 428.382 369.325 429.247 366.934L445.651 321.863C446.517 319.479 445.151 317.523 442.613 317.523H399.497C396.959 317.523 394.17 319.472 393.305 321.863L376.901 366.934Z" fill="#EBE9E9" stroke="black" stroke-width="0.904522" stroke-linecap="round" stroke-linejoin="round"/>
<path d="M358.317 286.843C356.375 285.209 356.856 283.875 359.394 283.875H402.51C405.049 283.875 408.715 285.209 410.664 286.843L443.69 314.555C445.632 316.19 445.152 317.523 442.613 317.523H399.497C396.959 317.523 393.292 316.19 391.343 314.555L358.317 286.843Z" fill="#EBE9E9" stroke="black" stroke-width="0.904522" stroke-linecap="round" stroke-linejoin="round"/>
<path d="M530.562 133.215L506.857 171.35C504.389 175.318 504.107 181.965 506.222 186.126C507.748 189.119 511.613 192.408 514.819 193.427L547.659 203.882C552.101 205.299 557.55 205.901 562.21 205.76C571.396 205.472 575.883 205.363 588.153 208.485C591.14 209.248 594.287 208.113 596.114 205.632C598.294 202.658 598.287 197.799 596.095 194.837L592.839 190.427C590.024 186.613 583.845 183.376 579.108 183.235L560.774 178.363L551.454 171.799L577.037 144.382L530.562 133.221V133.215Z" fill="black"/>
<path d="M589.64 208.721C592.941 207.067 594.364 204.728 594.986 203.08C595.364 202.074 594.736 200.978 593.678 200.785L583.236 198.913C582.306 198.747 581.242 199.324 580.87 200.189L578.96 204.651" stroke="#32D27E" stroke-width="0.904522" stroke-miterlimit="10"/>
<path d="M485.805 117.119L456.542 153.876C453.497 157.696 452.395 164.575 454.093 169.158C455.311 172.459 458.933 176.344 462.145 177.793L495.01 192.646C499.459 194.652 504.491 194.94 509.139 193.447C516.658 191.03 529.402 187.722 542.645 187.844C545.87 187.876 548.793 185.94 550.024 182.966C551.498 179.395 550.287 174.466 547.325 171.998L542.915 168.325C539.107 165.152 532.017 163.395 527.171 164.427L511.735 167.709L502.844 159.754L532.754 134.363L485.805 117.132V117.119Z" fill="black"/>
<path d="M531.414 188.253L530.222 186.189C529.639 185.183 530.113 183.888 531.209 183.497C534.523 182.317 541.055 180.132 545.607 179.51" stroke="#32D27E" stroke-width="0.904522" stroke-miterlimit="10"/>
<path d="M512.529 192.395C520.177 190.171 531.222 187.729 542.639 187.831" stroke="#32D27E" stroke-width="0.904522" stroke-miterlimit="10"/>
<path d="M511.735 167.697C506.062 168.896 504.786 173.434 504.786 173.434" stroke="#32D27E" stroke-width="0.904522" stroke-miterlimit="10"/>
<path d="M489.946 155.433L485.407 154.85" stroke="#32D27E" stroke-width="0.904522" stroke-miterlimit="10"/>
<path d="M502.844 159.74C502.844 159.74 499.742 156.682 492.44 155.746" stroke="#32D27E" stroke-width="0.904522" stroke-miterlimit="10"/>
<path d="M542.915 168.31C539.108 165.137 532.018 163.381 527.172 164.413L511.736 167.695L510.062 166.195" stroke="#32D27E" stroke-width="0.904522" stroke-miterlimit="10"/>
<path d="M481.562 133.837L443.792 139.78L436.638 153.44C432.58 161.197 425.49 164.934 425.49 164.934L422.112 174.819C417.67 187.812 408.785 193.325 399.625 193.37L393.811 193.396C389.073 193.415 386.234 189.703 387.503 185.139L402.612 130.632L402.99 121.03C403.24 114.574 408.535 107.856 414.76 106.1L447.818 96.7793" fill="black"/>
<path d="M481.562 133.837L443.792 139.78L436.638 153.44C432.58 161.197 425.49 164.934 425.49 164.934L422.112 174.819C417.67 187.812 408.785 193.325 399.625 193.37L393.811 193.396C389.073 193.415 386.234 189.703 387.503 185.139L402.612 130.632L402.99 121.03C403.24 114.574 408.535 107.856 414.76 106.1L447.818 96.7793" stroke="black" stroke-width="0.904522" stroke-linecap="round" stroke-linejoin="round"/>
<path d="M470.748 188.539C469.158 186.565 465.818 184.539 463.324 184.052L421.029 175.706C418.536 175.212 415.427 176.59 414.112 178.763L389.292 219.809C387.978 221.982 388.208 225.373 389.798 227.354L416.837 260.937C418.427 262.912 421.766 264.937 424.26 265.425L466.555 273.771C469.049 274.264 472.158 272.886 473.472 270.713L498.293 229.668C499.607 227.495 499.376 224.104 497.786 222.123L470.748 188.539Z" fill="black" stroke="black" stroke-width="0.904522" stroke-linecap="round" stroke-linejoin="round"/>
<path d="M422.119 260.579C420.805 262.752 418.427 262.912 416.837 260.931L389.798 227.348C388.208 225.373 387.978 221.976 389.292 219.803L414.112 178.757C415.427 176.584 417.805 176.424 419.395 178.405L446.433 211.989C448.023 213.963 448.254 217.36 446.94 219.534L422.119 260.579Z" fill="#32D27E" stroke="black" stroke-width="0.904522" stroke-miterlimit="10"/>
<path d="M422.119 260.582C420.805 262.755 421.766 264.934 424.26 265.422L466.555 273.768C469.049 274.262 472.158 272.883 473.472 270.71L498.293 229.665C499.607 227.492 498.645 225.312 496.151 224.825L453.856 216.479C451.363 215.985 448.254 217.364 446.939 219.537L422.119 260.582Z" fill="#EBE9E9" stroke="black" stroke-width="0.904522" stroke-linecap="round" stroke-linejoin="round"/>
<path d="M443.119 241.806L445.773 242.332L447.561 239.383L448.965 239.658L447.177 242.607L449.85 243.133L448.965 244.588L446.292 244.062L444.504 247.011L443.1 246.735L444.888 243.787L442.234 243.261L443.119 241.806Z" fill="black"/>
<path d="M455.921 242.702L453.831 242.292L454.626 240.984C455.786 241.164 457.069 240.914 458.036 239.67L459.639 239.984L453.549 250.016L451.703 249.651L455.921 242.702Z" fill="black"/>
<path d="M456.292 248.197L458.26 248.588L456.978 250.697L455.01 250.306L456.292 248.197Z" fill="black"/>
<path d="M463.165 249.493L458.908 248.653L460.203 246.519L467.902 241.576L469.761 241.942L465.921 248.269L467.325 248.544L466.363 250.128L464.96 249.852L463.645 252.019L461.851 251.666L463.165 249.499V249.493ZM461.351 247.358L464.126 247.903L466.472 244.038H466.447L461.376 247.313L461.351 247.358Z" fill="black"/>
<path d="M474.921 245.017L474.94 244.985L470.357 244.081L471.389 242.383L477.966 243.684L476.979 245.312C474.216 246.806 470.921 249.395 468.594 252.985L466.601 252.594C468.947 248.953 472.581 246.299 474.928 245.024L474.921 245.017Z" fill="black"/>
<path d="M419.394 178.406C417.805 176.432 418.535 175.214 421.029 175.707L463.324 184.054C465.818 184.547 469.158 186.567 470.748 188.541L497.786 222.125C499.376 224.099 498.645 225.317 496.152 224.823L453.856 216.477C451.363 215.984 448.023 213.964 446.433 211.99L419.394 178.406Z" fill="#FFE600" stroke="black" stroke-width="0.904522" stroke-linecap="round" stroke-linejoin="round"/>
<path d="M462.421 194.144C453.498 188.561 444.543 186.779 442.427 190.157C440.312 193.542 445.831 200.805 454.761 206.388C463.684 211.971 472.639 213.753 474.754 210.375C476.87 206.99 471.35 199.728 462.421 194.144ZM469.203 207.202L457.254 204.843C456.549 204.702 455.607 204.132 455.158 203.574L447.523 194.087C447.075 193.529 447.28 193.183 447.985 193.324L459.934 195.683C460.639 195.824 461.581 196.394 462.03 196.952L469.665 206.439C470.113 206.997 469.908 207.343 469.203 207.202Z" fill="black"/>
<path d="M447.812 96.7718C454.427 94.9064 464.735 90.6115 470.722 87.2268L477.312 83.5024C484.081 79.6755 495.953 75.8613 503.684 75.0216L543.729 70.6818L604.384 58.5535C616.095 56.2137 634.922 57.4381 646.23 61.2714L721 86.6499C721 86.6499 702.237 91.182 692.602 116.131C676.666 157.407 689.846 185.606 689.846 185.606L647.583 153.401C642.711 149.689 634.429 149.234 629.179 152.381L619.698 158.074C615.653 160.503 611.595 166.106 609.14 169.837L593.941 192.895C590.377 198.298 583.172 205.811 577.922 209.6L547.614 231.453C544.986 233.35 540.396 235.933 537.409 237.196L525.485 242.241C522.248 243.607 517.575 246.767 515.094 249.254L505.427 258.953C502.511 261.882 497.261 261.312 494.376 258.344L492.261 256.171C487.735 251.523 488.158 241.639 490.729 235.683C494.049 227.991 501.94 219.44 510.556 212.081L537.146 189.369C545.915 181.882 546.46 172.849 543.389 166.234L535.415 149.048C533.8 145.561 528.575 142.945 524.735 142.785L499.761 141.759C491.447 141.42 481.543 133.83 481.543 133.83" fill="black"/>
<path d="M447.812 96.7718C454.427 94.9064 464.735 90.6115 470.722 87.2268L477.312 83.5024C484.081 79.6755 495.953 75.8613 503.684 75.0216L543.729 70.6818L604.384 58.5535C616.095 56.2137 634.922 57.4381 646.23 61.2714L721 86.6499C721 86.6499 702.237 91.182 692.602 116.131C676.666 157.407 689.846 185.606 689.846 185.606L647.583 153.401C642.711 149.689 634.429 149.234 629.179 152.381L619.698 158.074C615.653 160.503 611.595 166.106 609.14 169.837L593.941 192.895C590.377 198.298 583.172 205.811 577.922 209.6L547.614 231.453C544.986 233.35 540.396 235.933 537.409 237.196L525.485 242.241C522.248 243.607 517.575 246.767 515.094 249.254L505.427 258.953C502.511 261.882 497.261 261.312 494.376 258.344L492.261 256.171C487.735 251.523 488.158 241.639 490.729 235.683C494.049 227.991 501.94 219.44 510.556 212.081L537.146 189.369C545.915 181.882 546.46 172.849 543.389 166.234L535.415 149.048C533.8 145.561 528.575 142.945 524.735 142.785L499.761 141.759C491.447 141.42 481.543 133.83 481.543 133.83" stroke="black" stroke-width="0.904522" stroke-linecap="round" stroke-linejoin="round"/>
<path d="M618.807 155.913L623.486 148.438C624.64 146.592 627.307 144.598 629.403 144.015L635.82 142.227" stroke="#32D27E" stroke-width="0.904522" stroke-miterlimit="10"/>
<path d="M481.562 133.836C481.562 133.836 491.472 141.426 499.78 141.765L524.754 142.791C528.594 142.951 533.812 145.567 535.434 149.054L543.408 166.24C546.479 172.856 545.934 181.888 537.165 189.375L528.139 197.087" stroke="#32D27E" stroke-width="0.904522" stroke-linecap="round" stroke-linejoin="round"/>
<path d="M423.215 163.553L418.119 160.867" stroke="#32D27E" stroke-width="0.904522" stroke-linecap="round" stroke-linejoin="round"/>
<path d="M443.792 139.772C436.542 140.913 428.677 135.445 428.677 135.445" stroke="#32D27E" stroke-width="0.904522" stroke-linecap="round" stroke-linejoin="round"/>
<path d="M481.561 133.836L472.452 135.496" stroke="#32D27E" stroke-width="0.904522" stroke-linecap="round" stroke-linejoin="round"/>
<path d="M473.818 119.657L472.934 116.131" stroke="#32D27E" stroke-width="0.904522" stroke-linecap="round" stroke-linejoin="round"/>
<path d="M480.113 132.351C480.113 132.351 476.735 128.921 475.049 123.633" stroke="#32D27E" stroke-width="0.904522" stroke-linecap="round" stroke-linejoin="round"/>
<path d="M502.209 259.954C499.017 258.576 494.421 255.217 493.036 247.153C492.825 245.903 493.446 244.659 494.581 244.095L505.145 238.768C506.658 238.006 508.793 238.435 509.889 239.724L516.081 246.993" stroke="#32D27E" stroke-width="0.904522" stroke-linecap="round" stroke-linejoin="round"/>
<path d="M535.671 226.639L541.107 233.408" stroke="#32D27E" stroke-width="0.904522" stroke-linecap="round" stroke-linejoin="round"/>
<path d="M541.106 225.707L545.01 230.566" stroke="#32D27E" stroke-width="0.904522" stroke-linecap="round" stroke-linejoin="round"/>
<path d="M180.335 286.112C180.206 285.58 179.655 285.24 178.758 285.24H165.54C163.982 285.24 161.956 286.266 161.04 287.522C160.649 288.054 160.52 288.542 160.616 288.933L164.251 303.772L183.976 300.958L180.341 286.118L180.335 286.112Z" fill="#EBE9E9" stroke="black" stroke-width="0.904522" stroke-miterlimit="10"/>
<path d="M182.386 300.074C183.943 300.074 184.463 301.1 183.546 302.356C182.629 303.613 180.604 304.638 179.046 304.638H165.828C164.27 304.638 163.751 303.613 164.668 302.356C165.584 301.1 167.61 300.074 169.168 300.074H182.386Z" fill="#EBE9E9" stroke="black" stroke-width="0.904522" stroke-miterlimit="10"/>
<path d="M308.104 356.487C312.437 356.487 315.95 351.617 315.95 345.609C315.95 339.601 312.437 334.73 308.104 334.73C303.771 334.73 300.258 339.601 300.258 345.609C300.258 351.617 303.771 356.487 308.104 356.487Z" stroke="#32D27E" stroke-width="0.904522" stroke-miterlimit="10"/>
<path d="M308.105 338.652H297.874V352.556H308.105C310.874 352.556 313.118 349.447 313.118 345.608C313.118 341.768 310.874 338.659 308.105 338.659V338.652Z" fill="#EBE9E9" stroke="black" stroke-width="0.904522" stroke-miterlimit="10"/>
<path d="M297.88 352.558C300.649 352.558 302.893 349.447 302.893 345.609C302.893 341.771 300.649 338.66 297.88 338.66C295.112 338.66 292.867 341.771 292.867 345.609C292.867 349.447 295.112 352.558 297.88 352.558Z" fill="#EBE9E9" stroke="black" stroke-width="0.904522" stroke-miterlimit="10"/>
<path d="M195.078 549.793C184.796 549.793 174.251 546.973 164.321 541.453C148.155 532.46 134.744 517.011 125.539 496.773C115.244 474.151 113.911 455.638 121.34 438.529C128.347 422.388 143.033 408.215 157.238 394.51C177.161 375.291 187.219 364.009 179.911 337.118L171.334 305.547C170.834 303.701 171.924 301.804 173.77 301.297C175.616 300.797 177.514 301.887 178.02 303.733L186.597 335.304C190.591 349.996 190.104 361.253 185.027 371.817C180.437 381.356 172.61 389.304 162.052 399.49C147.706 413.33 134.154 426.407 127.699 441.286C121.02 456.683 122.295 472.914 131.847 493.908C140.436 512.786 152.828 527.133 167.693 535.402C180.969 542.787 195.399 544.774 208.315 541.005C220.219 537.524 229.784 529.562 235.969 517.979C242.905 504.991 245.123 487.978 242.386 468.786L232.534 399.689C230.463 385.189 234.957 370.836 245.188 359.266C254.95 348.227 268.643 341.522 280.899 341.74L297.605 342.195C299.515 342.233 300.502 343.81 300.464 345.721C300.425 347.612 299.425 349.118 297.541 349.118C297.521 349.118 297.496 349.118 297.476 349.118L280.771 348.663C270.476 348.471 258.835 354.291 250.38 363.849C241.521 373.875 237.617 386.253 239.393 398.708L249.245 467.805C252.194 488.466 249.713 506.947 242.085 521.242C235.104 534.319 223.803 543.697 210.264 547.652C205.347 549.088 200.258 549.8 195.097 549.8L195.078 549.793Z" fill="black"/>
<path d="M293.906 349.01L280.752 348.652C279.976 348.632 279.201 348.651 278.412 348.709" stroke="#32D27E" stroke-width="0.904522" stroke-miterlimit="10"/>
<path d="M280.88 341.729L293.81 342.081" stroke="#32D27E" stroke-width="0.904522" stroke-miterlimit="10"/>
<path d="M170.783 303.754C170.565 302.837 171.899 301.741 173.764 301.299C175.623 300.856 177.309 301.241 177.527 302.158L178.008 303.735L171.328 305.549L170.783 303.754Z" fill="black"/>
</svg>
