<svg width="340" height="344" viewBox="0 0 340 344" fill="none" xmlns="http://www.w3.org/2000/svg">
<g clip-path="url(#clip0_3395_38821)">
<path d="M170.57 220.513L63.6249 282.256L170.57 344L277.515 282.256L170.57 220.513Z" fill="url(#paint0_linear_3395_38821)"/>
<path d="M63.6249 282.256L170.57 344L277.515 282.256" stroke="#040919" stroke-linecap="round" stroke-linejoin="round"/>
<path d="M181.938 283.246C182.484 283.246 182.927 282.803 182.927 282.256C182.927 281.71 182.484 281.267 181.938 281.267C181.391 281.267 180.948 281.71 180.948 282.256C180.948 282.803 181.391 283.246 181.938 283.246Z" fill="#00D763"/>
<path d="M170.57 289.807C171.117 289.807 171.56 289.363 171.56 288.817C171.56 288.27 171.117 287.827 170.57 287.827C170.024 287.827 169.58 288.27 169.58 288.817C169.58 289.363 170.024 289.807 170.57 289.807Z" fill="#00D763"/>
<path d="M193.305 289.807C193.852 289.807 194.295 289.363 194.295 288.817C194.295 288.27 193.852 287.827 193.305 287.827C192.759 287.827 192.316 288.27 192.316 288.817C192.316 289.363 192.759 289.807 193.305 289.807Z" fill="#00D763"/>
<path d="M181.938 296.367C182.484 296.367 182.927 295.924 182.927 295.377C182.927 294.831 182.484 294.388 181.938 294.388C181.391 294.388 180.948 294.831 180.948 295.377C180.948 295.924 181.391 296.367 181.938 296.367Z" fill="#00D763"/>
<path d="M170.57 302.927C171.117 302.927 171.56 302.484 171.56 301.937C171.56 301.39 171.117 300.947 170.57 300.947C170.024 300.947 169.58 301.39 169.58 301.937C169.58 302.484 170.024 302.927 170.57 302.927Z" fill="#00D763"/>
<path d="M204.673 296.367C205.219 296.367 205.662 295.924 205.662 295.377C205.662 294.831 205.219 294.388 204.673 294.388C204.126 294.388 203.683 294.831 203.683 295.377C203.683 295.924 204.126 296.367 204.673 296.367Z" fill="#00D763"/>
<path d="M193.305 302.927C193.852 302.927 194.295 302.484 194.295 301.937C194.295 301.39 193.852 300.947 193.305 300.947C192.759 300.947 192.316 301.39 192.316 301.937C192.316 302.484 192.759 302.927 193.305 302.927Z" fill="#00D763"/>
<path d="M181.938 309.502C182.484 309.502 182.927 309.059 182.927 308.512C182.927 307.966 182.484 307.522 181.938 307.522C181.391 307.522 180.948 307.966 180.948 308.512C180.948 309.059 181.391 309.502 181.938 309.502Z" fill="#00D763"/>
<path d="M170.57 316.061C171.117 316.061 171.56 315.618 171.56 315.072C171.56 314.525 171.117 314.082 170.57 314.082C170.024 314.082 169.58 314.525 169.58 315.072C169.58 315.618 170.024 316.061 170.57 316.061Z" fill="#00D763"/>
<path d="M204.673 309.502C205.219 309.502 205.662 309.059 205.662 308.512C205.662 307.966 205.219 307.522 204.673 307.522C204.126 307.522 203.683 307.966 203.683 308.512C203.683 309.059 204.126 309.502 204.673 309.502Z" fill="#00D763"/>
<path d="M193.305 316.061C193.852 316.061 194.295 315.618 194.295 315.072C194.295 314.525 193.852 314.082 193.305 314.082C192.759 314.082 192.316 314.525 192.316 315.072C192.316 315.618 192.759 316.061 193.305 316.061Z" fill="#00D763"/>
<path d="M216.054 302.927C216.601 302.927 217.044 302.484 217.044 301.937C217.044 301.39 216.601 300.947 216.054 300.947C215.508 300.947 215.065 301.39 215.065 301.937C215.065 302.484 215.508 302.927 216.054 302.927Z" fill="#00D763"/>
<path d="M181.938 322.623C182.484 322.623 182.927 322.18 182.927 321.633C182.927 321.087 182.484 320.644 181.938 320.644C181.391 320.644 180.948 321.087 180.948 321.633C180.948 322.18 181.391 322.623 181.938 322.623Z" fill="#00D763"/>
<path d="M170.57 329.196C171.117 329.196 171.56 328.753 171.56 328.207C171.56 327.66 171.117 327.217 170.57 327.217C170.024 327.217 169.58 327.66 169.58 328.207C169.58 328.753 170.024 329.196 170.57 329.196Z" fill="#00D763"/>
<path d="M159.203 283.246C159.749 283.246 160.192 282.803 160.192 282.256C160.192 281.71 159.749 281.267 159.203 281.267C158.656 281.267 158.213 281.71 158.213 282.256C158.213 282.803 158.656 283.246 159.203 283.246Z" fill="#00D763"/>
<path d="M204.673 270.11C205.219 270.11 205.662 269.667 205.662 269.121C205.662 268.574 205.219 268.131 204.673 268.131C204.126 268.131 203.683 268.574 203.683 269.121C203.683 269.667 204.126 270.11 204.673 270.11Z" fill="#00D763"/>
<path d="M193.305 276.672C193.852 276.672 194.295 276.229 194.295 275.682C194.295 275.135 193.852 274.692 193.305 274.692C192.759 274.692 192.316 275.135 192.316 275.682C192.316 276.229 192.759 276.672 193.305 276.672Z" fill="#00D763"/>
<path d="M216.054 276.672C216.601 276.672 217.044 276.229 217.044 275.682C217.044 275.135 216.601 274.692 216.054 274.692C215.508 274.692 215.065 275.135 215.065 275.682C215.065 276.229 215.508 276.672 216.054 276.672Z" fill="#00D763"/>
<path d="M204.673 283.246C205.219 283.246 205.662 282.803 205.662 282.256C205.662 281.71 205.219 281.267 204.673 281.267C204.126 281.267 203.683 281.71 203.683 282.256C203.683 282.803 204.126 283.246 204.673 283.246Z" fill="#00D763"/>
<path d="M227.422 283.246C227.969 283.246 228.412 282.803 228.412 282.256C228.412 281.71 227.969 281.267 227.422 281.267C226.875 281.267 226.432 281.71 226.432 282.256C226.432 282.803 226.875 283.246 227.422 283.246Z" fill="#00D763"/>
<path d="M216.054 289.807C216.601 289.807 217.044 289.363 217.044 288.817C217.044 288.27 216.601 287.827 216.054 287.827C215.508 287.827 215.065 288.27 215.065 288.817C215.065 289.363 215.508 289.807 216.054 289.807Z" fill="#00D763"/>
<path d="M227.422 296.367C227.969 296.367 228.412 295.924 228.412 295.377C228.412 294.831 227.969 294.388 227.422 294.388C226.875 294.388 226.432 294.831 226.432 295.377C226.432 295.924 226.875 296.367 227.422 296.367Z" fill="#00D763"/>
<path d="M238.789 289.807C239.336 289.807 239.779 289.363 239.779 288.817C239.779 288.27 239.336 287.827 238.789 287.827C238.243 287.827 237.8 288.27 237.8 288.817C237.8 289.363 238.243 289.807 238.789 289.807Z" fill="#00D763"/>
<path d="M216.054 263.551C216.601 263.551 217.044 263.108 217.044 262.561C217.044 262.014 216.601 261.571 216.054 261.571C215.508 261.571 215.065 262.014 215.065 262.561C215.065 263.108 215.508 263.551 216.054 263.551Z" fill="#00D763"/>
<path d="M227.422 270.11C227.969 270.11 228.412 269.667 228.412 269.121C228.412 268.574 227.969 268.131 227.422 268.131C226.875 268.131 226.432 268.574 226.432 269.121C226.432 269.667 226.875 270.11 227.422 270.11Z" fill="#00D763"/>
<path d="M238.789 276.672C239.336 276.672 239.779 276.229 239.779 275.682C239.779 275.135 239.336 274.692 238.789 274.692C238.243 274.692 237.8 275.135 237.8 275.682C237.8 276.229 238.243 276.672 238.789 276.672Z" fill="#00D763"/>
<path d="M250.157 283.246C250.704 283.246 251.147 282.803 251.147 282.256C251.147 281.71 250.704 281.267 250.157 281.267C249.61 281.267 249.167 281.71 249.167 282.256C249.167 282.803 249.61 283.246 250.157 283.246Z" fill="#00D763"/>
<path d="M147.835 289.807C148.382 289.807 148.825 289.363 148.825 288.817C148.825 288.27 148.382 287.827 147.835 287.827C147.289 287.827 146.845 288.27 146.845 288.817C146.845 289.363 147.289 289.807 147.835 289.807Z" fill="#00D763"/>
<path d="M159.203 296.367C159.749 296.367 160.192 295.924 160.192 295.377C160.192 294.831 159.749 294.388 159.203 294.388C158.656 294.388 158.213 294.831 158.213 295.377C158.213 295.924 158.656 296.367 159.203 296.367Z" fill="#00D763"/>
<path d="M136.468 296.367C137.014 296.367 137.457 295.924 137.457 295.377C137.457 294.831 137.014 294.388 136.468 294.388C135.921 294.388 135.478 294.831 135.478 295.377C135.478 295.924 135.921 296.367 136.468 296.367Z" fill="#00D763"/>
<path d="M147.835 302.941C148.382 302.941 148.825 302.498 148.825 301.952C148.825 301.405 148.382 300.962 147.835 300.962C147.289 300.962 146.845 301.405 146.845 301.952C146.845 302.498 147.289 302.941 147.835 302.941Z" fill="#00D763"/>
<path d="M159.203 309.502C159.749 309.502 160.192 309.059 160.192 308.512C160.192 307.966 159.749 307.522 159.203 307.522C158.656 307.522 158.213 307.966 158.213 308.512C158.213 309.059 158.656 309.502 159.203 309.502Z" fill="#00D763"/>
<path d="M136.468 309.502C137.014 309.502 137.457 309.059 137.457 308.512C137.457 307.966 137.014 307.522 136.468 307.522C135.921 307.522 135.478 307.966 135.478 308.512C135.478 309.059 135.921 309.502 136.468 309.502Z" fill="#00D763"/>
<path d="M147.835 316.061C148.382 316.061 148.825 315.618 148.825 315.072C148.825 314.525 148.382 314.082 147.835 314.082C147.289 314.082 146.845 314.525 146.845 315.072C146.845 315.618 147.289 316.061 147.835 316.061Z" fill="#00D763"/>
<path d="M125.086 302.941C125.633 302.941 126.076 302.498 126.076 301.952C126.076 301.405 125.633 300.962 125.086 300.962C124.539 300.962 124.096 301.405 124.096 301.952C124.096 302.498 124.539 302.941 125.086 302.941Z" fill="#00D763"/>
<path d="M159.203 322.623C159.749 322.623 160.192 322.18 160.192 321.633C160.192 321.087 159.749 320.644 159.203 320.644C158.656 320.644 158.213 321.087 158.213 321.633C158.213 322.18 158.656 322.623 159.203 322.623Z" fill="#00D763"/>
<path d="M136.468 283.246C137.014 283.246 137.457 282.803 137.457 282.256C137.457 281.71 137.014 281.267 136.468 281.267C135.921 281.267 135.478 281.71 135.478 282.256C135.478 282.803 135.921 283.246 136.468 283.246Z" fill="#00D763"/>
<path d="M125.086 289.807C125.633 289.807 126.076 289.363 126.076 288.817C126.076 288.27 125.633 287.827 125.086 287.827C124.539 287.827 124.096 288.27 124.096 288.817C124.096 289.363 124.539 289.807 125.086 289.807Z" fill="#00D763"/>
<path d="M147.835 276.672C148.382 276.672 148.825 276.229 148.825 275.682C148.825 275.135 148.382 274.692 147.835 274.692C147.289 274.692 146.845 275.135 146.845 275.682C146.845 276.229 147.289 276.672 147.835 276.672Z" fill="#00D763"/>
<path d="M113.718 296.367C114.265 296.367 114.708 295.924 114.708 295.377C114.708 294.831 114.265 294.388 113.718 294.388C113.172 294.388 112.729 294.831 112.729 295.377C112.729 295.924 113.172 296.367 113.718 296.367Z" fill="#00D763"/>
<path d="M125.086 263.551C125.633 263.551 126.076 263.108 126.076 262.561C126.076 262.014 125.633 261.571 125.086 261.571C124.539 261.571 124.096 262.014 124.096 262.561C124.096 263.108 124.539 263.551 125.086 263.551Z" fill="#00D763"/>
<path d="M113.718 270.11C114.265 270.11 114.708 269.667 114.708 269.121C114.708 268.574 114.265 268.131 113.718 268.131C113.172 268.131 112.729 268.574 112.729 269.121C112.729 269.667 113.172 270.11 113.718 270.11Z" fill="#00D763"/>
<path d="M102.351 276.672C102.897 276.672 103.341 276.229 103.341 275.682C103.341 275.135 102.897 274.692 102.351 274.692C101.804 274.692 101.361 275.135 101.361 275.682C101.361 276.229 101.804 276.672 102.351 276.672Z" fill="#00D763"/>
<path d="M136.468 270.11C137.014 270.11 137.457 269.667 137.457 269.121C137.457 268.574 137.014 268.131 136.468 268.131C135.921 268.131 135.478 268.574 135.478 269.121C135.478 269.667 135.921 270.11 136.468 270.11Z" fill="#00D763"/>
<path d="M125.086 276.672C125.633 276.672 126.076 276.229 126.076 275.682C126.076 275.135 125.633 274.692 125.086 274.692C124.539 274.692 124.096 275.135 124.096 275.682C124.096 276.229 124.539 276.672 125.086 276.672Z" fill="#00D763"/>
<path d="M113.718 283.246C114.265 283.246 114.708 282.803 114.708 282.256C114.708 281.71 114.265 281.267 113.718 281.267C113.172 281.267 112.729 281.71 112.729 282.256C112.729 282.803 113.172 283.246 113.718 283.246Z" fill="#00D763"/>
<path d="M102.351 289.807C102.897 289.807 103.341 289.363 103.341 288.817C103.341 288.27 102.897 287.827 102.351 287.827C101.804 287.827 101.361 288.27 101.361 288.817C101.361 289.363 101.804 289.807 102.351 289.807Z" fill="#00D763"/>
<path d="M90.9833 283.246C91.53 283.246 91.9731 282.803 91.9731 282.256C91.9731 281.71 91.53 281.267 90.9833 281.267C90.4367 281.267 89.9936 281.71 89.9936 282.256C89.9936 282.803 90.4367 283.246 90.9833 283.246Z" fill="#00D763"/>
<path d="M192.556 76.6357H181.499V87.6922H192.556V76.6357Z" fill="#238651"/>
<path d="M192.556 65.5801H181.499V76.6366H192.556V65.5801Z" fill="#238651"/>
<path d="M203.598 76.6357H192.542V87.6922H203.598V76.6357Z" fill="#238651"/>
<path d="M113.294 147.175H102.238V158.231H113.294V147.175Z" fill="#238651"/>
<path d="M124.351 136.118H113.294V147.175H124.351V136.118Z" fill="#238651"/>
<path d="M170.57 121.229L143.834 136.655L170.57 152.094L197.307 136.655L170.57 121.229Z" fill="#00D763" stroke="#00D763" stroke-linecap="round" stroke-linejoin="round"/>
<path d="M143.834 196.999V136.655L170.57 152.095V212.439L143.834 196.999Z" fill="#4331E8" stroke="#00D763" stroke-linecap="round" stroke-linejoin="round"/>
<path d="M197.307 196.999V136.655L170.57 152.095V212.439L197.307 196.999Z" fill="#15224B" stroke="#00D763" stroke-linecap="round" stroke-linejoin="round"/>
<path d="M90.3613 166.656L63.625 182.096L90.3613 197.521L117.098 182.096L90.3613 166.656Z" fill="#00D763" stroke="#00D763" stroke-linecap="round" stroke-linejoin="round"/>
<path d="M63.625 242.426V182.096L90.3613 197.521V257.865L63.625 242.426Z" fill="#4331E8" stroke="#00D763" stroke-linecap="round" stroke-linejoin="round"/>
<path d="M117.098 242.426V182.096L90.3613 197.521V257.865L117.098 242.426Z" fill="#15224B" stroke="#00D763" stroke-linecap="round" stroke-linejoin="round"/>
<path d="M117.098 93.8584L90.3613 109.284L117.098 124.723L143.834 109.284L117.098 93.8584Z" stroke="#00D763" stroke-linecap="round" stroke-linejoin="round"/>
<path d="M90.3613 169.628V109.284L117.098 124.724V185.068L90.3613 169.628Z" stroke="#00D763" stroke-linecap="round" stroke-linejoin="round"/>
<path d="M143.834 169.628V109.284L117.098 124.724V185.068L143.834 169.628Z" stroke="#00D763" stroke-linecap="round" stroke-linejoin="round"/>
<path d="M197.307 20.9297L170.57 36.355L197.307 51.7945L224.043 36.355L197.307 20.9297Z" stroke="#00D763" stroke-linecap="round" stroke-linejoin="round"/>
<path d="M170.57 96.6995V36.3555L197.307 51.7949V112.139L170.57 96.6995Z" stroke="#00D763" stroke-linecap="round" stroke-linejoin="round"/>
<path d="M224.043 96.6995V36.3555L197.307 51.7949V112.139L224.043 96.6995Z" stroke="#00D763" stroke-linecap="round" stroke-linejoin="round"/>
<path d="M170.57 113.553L143.834 128.992L170.57 144.432L197.307 128.992L170.57 113.553Z" fill="#00D763" stroke="#00D763" stroke-linecap="round" stroke-linejoin="round"/>
<path d="M143.834 189.322V128.992L170.57 144.432V204.762L143.834 189.322Z" fill="#4331E8" stroke="#00D763" stroke-linecap="round" stroke-linejoin="round"/>
<path d="M197.307 189.322V128.992L170.57 144.432V204.762L197.307 189.322Z" fill="#15224B" stroke="#00D763" stroke-linecap="round" stroke-linejoin="round"/>
<path d="M117.098 166.656L90.3613 182.096L117.098 197.521L143.834 182.096L117.098 166.656Z" fill="#00D763" stroke="#00D763" stroke-linecap="round" stroke-linejoin="round"/>
<path d="M90.3613 242.426V182.096L117.098 197.521V257.865L90.3613 242.426Z" fill="#4331E8" stroke="#00D763" stroke-linecap="round" stroke-linejoin="round"/>
<path d="M143.834 242.426V182.096L117.098 197.521V257.865L143.834 242.426Z" fill="#15224B" stroke="#00D763" stroke-linecap="round" stroke-linejoin="round"/>
<path d="M224.043 152.094L197.307 167.533L224.043 182.973L250.779 167.533L224.043 152.094Z" fill="#00D763" stroke="#00D763" stroke-linecap="round" stroke-linejoin="round"/>
<path d="M197.307 227.863V167.533L224.043 182.973V243.303L197.307 227.863Z" fill="#4331E8" stroke="#00D763" stroke-linecap="round" stroke-linejoin="round"/>
<path d="M250.779 227.863V167.533L224.043 182.973V243.303L250.779 227.863Z" fill="#15224B" stroke="#00D763" stroke-linecap="round" stroke-linejoin="round"/>
<path d="M197.307 167.533L170.57 182.973L197.307 198.398L224.043 182.973L197.307 167.533Z" fill="#00D763" stroke="#00D763" stroke-linecap="round" stroke-linejoin="round"/>
<path d="M170.57 243.303V182.973L197.307 198.398V258.742L170.57 243.303Z" fill="#4331E8" stroke="#00D763" stroke-linecap="round" stroke-linejoin="round"/>
<path d="M224.043 243.303V182.973L197.307 198.398V258.742L224.043 243.303Z" fill="#15224B" stroke="#00D763" stroke-linecap="round" stroke-linejoin="round"/>
<path d="M170.57 170.277L143.834 185.703L170.57 201.142L197.307 185.703L170.57 170.277Z" fill="#00D763" stroke="#00D763" stroke-linecap="round" stroke-linejoin="round"/>
<path d="M143.834 246.047V185.703L170.57 201.143V261.487L143.834 246.047Z" fill="#4331E8" stroke="#00D763" stroke-linecap="round" stroke-linejoin="round"/>
<path d="M197.307 246.047V185.703L170.57 201.143V261.487L197.307 246.047Z" fill="#15224B" stroke="#00D763" stroke-linecap="round" stroke-linejoin="round"/>
<path d="M143.834 198.398L117.098 213.838L143.834 229.277L170.57 213.838L143.834 198.398Z" fill="#00D763" stroke="#00D763" stroke-linecap="round" stroke-linejoin="round"/>
<path d="M117.098 274.182V213.838L143.834 229.277V289.607L117.098 274.182Z" fill="#4331E8" stroke="#00D763" stroke-linecap="round" stroke-linejoin="round"/>
<path d="M170.57 274.182V213.838L143.834 229.277V289.607L170.57 274.182Z" fill="#15224B" stroke="#00D763" stroke-linecap="round" stroke-linejoin="round"/>
<path d="M250.779 167.533L224.043 182.973L250.779 198.398L277.515 182.973L250.779 167.533Z" fill="#00D763" stroke="#00D763" stroke-linecap="round" stroke-linejoin="round"/>
<path d="M224.043 243.303V182.973L250.779 198.398V258.742L224.043 243.303Z" fill="#4331E8" stroke="#00D763" stroke-linecap="round" stroke-linejoin="round"/>
<path d="M277.515 243.303V182.973L250.779 198.398V258.742L277.515 243.303Z" fill="#15224B" stroke="#00D763" stroke-linecap="round" stroke-linejoin="round"/>
<path d="M224.043 175.253L197.307 190.678L224.043 206.118L250.779 190.678L224.043 175.253Z" fill="#00D763" stroke="#00D763" stroke-linecap="round" stroke-linejoin="round"/>
<path d="M197.307 251.023V190.679L224.043 206.118V266.462L197.307 251.023Z" fill="#4331E8" stroke="#00D763" stroke-linecap="round" stroke-linejoin="round"/>
<path d="M250.779 251.023V190.679L224.043 206.118V266.462L250.779 251.023Z" fill="#15224B" stroke="#00D763" stroke-linecap="round" stroke-linejoin="round"/>
<path d="M197.307 198.398L170.57 213.838L197.307 229.277L224.043 213.838L197.307 198.398Z" fill="#00D763" stroke="#00D763" stroke-linecap="round" stroke-linejoin="round"/>
<path d="M170.57 274.182V213.838L197.307 229.277V289.607L170.57 274.182Z" fill="#4331E8" stroke="#00D763" stroke-linecap="round" stroke-linejoin="round"/>
<path d="M224.043 274.182V213.838L197.307 229.277V289.607L224.043 274.182Z" fill="#15224B" stroke="#00D763" stroke-linecap="round" stroke-linejoin="round"/>
<path d="M170.57 227.991L143.834 243.417L170.57 258.856L197.307 243.417L170.57 227.991Z" fill="#00D763" stroke="#00D763" stroke-linecap="round" stroke-linejoin="round"/>
<path d="M143.834 303.761V243.417L170.57 258.856V319.186L143.834 303.761Z" fill="#4331E8" stroke="#00D763" stroke-linecap="round" stroke-linejoin="round"/>
<path d="M197.307 303.761V243.417L170.57 258.856V319.186L197.307 303.761Z" fill="#15224B" stroke="#00D763" stroke-linecap="round" stroke-linejoin="round"/>
<path d="M277.515 243.303L250.779 258.742L244.092 254.882L224.043 266.462V274.182L197.307 289.607V303.76L170.57 319.185L143.834 303.76V289.607L117.098 274.182V257.866" stroke="white" stroke-linecap="round" stroke-linejoin="round"/>
<path d="M136.001 18.4697H124.945V29.5262H136.001V18.4697Z" fill="#238651"/>
<path d="M256.307 110.357H245.251V121.414H256.307V110.357Z" fill="#238651"/>
<path d="M256.307 99.3008H245.251V110.357H256.307V99.3008Z" fill="#238651"/>
<path d="M217.991 172.328H206.935V183.385H217.991V172.328Z" fill="#238651"/>
</g>
<defs>
<linearGradient id="paint0_linear_3395_38821" x1="124.393" y1="282.256" x2="106.211" y2="282.256" gradientUnits="userSpaceOnUse">
<stop stop-color="#080D07"/>
<stop offset="0.05" stop-color="#080C28"/>
<stop offset="0.24" stop-color="#1A1762"/>
<stop offset="0.42" stop-color="#282092"/>
<stop offset="0.59" stop-color="#3427B7"/>
<stop offset="0.75" stop-color="#3C2CD2"/>
<stop offset="0.89" stop-color="#412FE2"/>
<stop offset="1" stop-color="#4331E8"/>
</linearGradient>
<clipPath id="clip0_3395_38821">
<rect width="340" height="344" fill="white"/>
</clipPath>
</defs>
</svg>
