<svg width="72" height="31" viewBox="0 0 72 31" fill="none" xmlns="http://www.w3.org/2000/svg">
<g id="Intel_logo">
<g id="Vector">
<path d="M4.95882 2.83305H0V7.77212H4.95882V2.83305Z" fill="#161519"/>
<path d="M4.83532 28.5654V10.7777H0.141208V28.5654H4.83532ZM36.0353 28.7412V24.3821C35.3471 24.3821 34.7647 24.347 34.3412 24.2767C33.8471 24.2064 33.4765 24.0306 33.2294 23.7845C32.9824 23.5385 32.8235 23.1869 32.7353 22.7299C32.6647 22.2905 32.6294 21.7105 32.6294 21.0074V14.7852H36.0353V10.7777H32.6294V3.83492H27.9177V21.0426C27.9177 22.5014 28.0412 23.7318 28.2882 24.7161C28.5353 25.6828 28.9588 26.4738 29.5412 27.0714C30.1235 27.669 30.9 28.0908 31.8353 28.3545C32.7882 28.6181 33.9882 28.7412 35.4177 28.7412H36.0353ZM63 28.5654V2.46393H58.2882V28.5654H63ZM23.3824 12.5178C22.0765 11.1117 20.2412 10.4086 17.9118 10.4086C16.7824 10.4086 15.7588 10.6371 14.8236 11.0941C13.9059 11.5511 13.1118 12.1839 12.4941 12.9924L12.2294 13.3264V10.7777H7.58826V28.5654H12.2647V19.0915V19.7419C12.2647 19.6364 12.2647 19.531 12.2647 19.4255C12.3177 17.7557 12.7236 16.5253 13.5 15.7344C14.3294 14.8907 15.3353 14.4689 16.4824 14.4689C17.8412 14.4689 18.8824 14.8907 19.5706 15.6992C20.2412 16.5078 20.5941 17.6502 20.5941 19.1091V28.5478H25.3412V18.4588C25.3588 15.9277 24.6883 13.924 23.3824 12.5178ZM55.8529 19.6364C55.8529 18.3533 55.6235 17.1581 55.1824 16.0332C54.7235 14.9258 54.0882 13.9415 53.2941 13.0979C52.4824 12.2542 51.5118 11.6038 50.3824 11.1293C49.2529 10.6547 48 10.4262 46.6412 10.4262C45.353 10.4262 44.1353 10.6723 43.0059 11.1468C41.8765 11.639 40.8882 12.2893 40.0588 13.1154C39.2294 13.9415 38.5588 14.9258 38.0824 16.0508C37.5882 17.1757 37.3588 18.3885 37.3588 19.6716C37.3588 20.9547 37.5882 22.1675 38.0471 23.2924C38.5059 24.4173 39.1588 25.4016 39.9706 26.2277C40.7824 27.0538 41.7882 27.7217 42.953 28.1963C44.1177 28.6884 45.4059 28.9345 46.7824 28.9345C50.7706 28.9345 53.2412 27.1241 54.7235 25.4367L51.3353 22.8705C50.6294 23.7142 48.9353 24.8567 46.8177 24.8567C45.4941 24.8567 44.4 24.5579 43.5706 23.9427C42.7412 23.3451 42.1765 22.5014 41.8765 21.4644L41.8235 21.3062H55.8529V19.6364ZM41.8588 18.0018C41.8588 16.7011 43.3588 14.4337 46.5882 14.4161C49.8177 14.4161 51.3353 16.6835 51.3353 17.9842L41.8588 18.0018Z" fill="#161519"/>
</g>
</g>
</svg>
