<svg width="117" height="29" viewBox="0 0 117 29" fill="none" xmlns="http://www.w3.org/2000/svg">
<g id="LinkedIn_Logo" clip-path="url(#clip0_3535_2524)">
<g id="Vector">
<path d="M115.241 27.0724C115.242 27.0724 115.243 27.0724 115.246 27.0724C115.533 27.0724 115.77 26.8387 115.77 26.5547C115.77 26.5447 115.77 26.5348 115.769 26.5248C115.769 26.1364 115.532 25.9508 115.045 25.9508H114.258V27.9845H114.555V27.098H114.918L114.926 27.1087L115.49 27.9845H115.807L115.2 27.0781L115.241 27.0724ZM114.898 26.8687H114.555V26.1813H114.99C115.214 26.1813 115.47 26.2175 115.47 26.508C115.47 26.8421 115.212 26.8687 114.897 26.8687H114.898ZM0 4.83682H4.36623V20.5462H12.4497V24.5262H0V4.83682ZM14.3801 11.1762H18.5748V24.5188H14.3801V11.1762ZM16.4774 4.54291C17.8121 4.54316 18.9103 5.62801 18.9103 6.94636C18.9103 8.26483 17.8119 9.3498 16.477 9.3498C15.1421 9.3498 14.0437 8.26483 14.0437 6.94636C14.0437 5.62788 15.1425 4.54291 16.4774 4.54291C16.4775 4.54291 16.4772 4.54291 16.4774 4.54291ZM36.1213 4.83382H40.316V16.6007L45.07 11.1702H50.2128L44.7073 17.3473L50.0969 24.5244H44.8248L40.372 17.929H40.3169V24.5235H36.1222L36.1213 4.83382ZM20.9006 11.1776H24.9287V13.0009H24.986C25.8046 11.6156 27.3348 10.7852 28.9578 10.8456C33.2114 10.8456 33.9943 13.6099 33.9943 17.201V24.5179H29.7997V18.031C29.7997 16.4825 29.7709 14.492 27.615 14.492C25.4347 14.492 25.0983 16.1782 25.0983 17.9183V24.5163H20.9036L20.9006 11.1776Z" fill="#161519"/>
<path d="M59.0453 16.2957C59.0457 16.2762 59.046 16.2566 59.046 16.2371C59.046 14.8743 57.9107 13.753 56.531 13.753C56.5106 13.753 56.4903 13.7532 56.47 13.7537C54.9549 13.6605 53.6251 14.8009 53.5058 16.2957H59.0453ZM62.5985 22.2082C61.1878 23.8979 59.0795 24.8736 56.8624 24.863C52.6677 24.863 49.3094 22.0973 49.3094 17.8148C49.3094 13.5323 52.6673 10.7681 56.8624 10.7681C60.783 10.7681 63.2416 13.5301 63.2416 17.8148V19.1139H53.5058C53.7553 20.6302 55.112 21.7451 56.667 21.7116C57.8789 21.7041 59.0075 21.0894 59.6605 20.0811L62.5985 22.2082ZM71.9849 14.4014C69.8876 14.4014 68.6292 15.7847 68.6292 17.8002C68.6292 19.8157 69.8871 21.2001 71.9849 21.2001C74.0826 21.2001 75.3437 19.819 75.3437 17.8002C75.3437 15.7812 74.0848 14.4014 71.9849 14.4014ZM79.2053 24.5164H75.3437V22.7469H75.2864C74.3051 24.0505 72.7608 24.8286 71.1162 24.8478C67.0859 24.8478 64.431 21.9747 64.431 17.9119C64.431 14.1806 66.7805 10.7542 70.6425 10.7542C72.3785 10.7542 74.0001 11.2233 74.9513 12.5237H75.0064V4.83255H79.2048L79.2053 24.5164ZM107.523 24.5241H103.328V18.0358C103.328 16.4886 103.3 14.4969 101.147 14.4969C98.962 14.4969 98.6277 16.1825 98.6277 17.9231V24.5236H94.4332V11.181H98.4599V13.0044H98.5164C99.3363 11.6198 100.866 10.7897 102.489 10.8492C106.741 10.8492 107.525 13.6113 107.525 17.2046L107.523 24.5241ZM89.7002 9.35716C89.7 9.35716 89.7004 9.35716 89.7002 9.35716C88.3649 9.35716 87.2655 8.27194 87.2655 6.95297C87.2655 5.63399 88.3644 4.54864 89.6997 4.54864C91.035 4.54864 92.1337 5.63374 92.1339 6.95247C92.1339 6.95222 92.1339 6.95259 92.1339 6.95247C92.1339 8.27119 91.0354 9.35704 89.7002 9.35716ZM91.7975 24.5241H87.5985V11.181H91.7975V24.5241ZM109.614 0.701148H85.4906C84.3583 0.688516 83.4156 1.59801 83.4017 2.71651V26.6427C83.415 27.7618 84.3576 28.6723 85.4906 28.6603H109.614C110.75 28.6744 111.696 27.7641 111.711 26.6427V2.71488C111.696 1.59401 110.749 0.684638 109.614 0.699396V0.701148ZM114.934 25.0451C113.881 25.0551 113.021 25.9125 113.021 26.9516C113.021 27.9977 113.893 28.8584 114.951 28.8584C116.011 28.8584 116.882 27.9977 116.882 26.9516C116.882 25.9125 116.022 25.0551 114.97 25.0451H114.934ZM114.934 28.64C114.923 28.6402 114.915 28.6403 114.904 28.6403C113.976 28.6403 113.213 27.8856 113.213 26.9684C113.213 26.0512 113.976 25.2964 114.904 25.2964C115.822 25.2964 116.582 26.034 116.597 26.9405V26.9686C116.616 27.8657 115.886 28.6198 114.978 28.6392H114.934" fill="#161519"/>
</g>
</g>
<defs>
<clipPath id="clip0_3535_2524">
<rect width="117" height="28" fill="white" transform="translate(0 0.699219)"/>
</clipPath>
</defs>
</svg>
