<svg width="112" height="48" viewBox="0 0 112 48" fill="none" xmlns="http://www.w3.org/2000/svg">
<g clip-path="url(#clip0_3050_26600)">
<path d="M87.2417 30.4434C87.0544 27.0218 84.1682 24.1496 80.215 23.1015C79.2871 22.842 78.5276 22.6622 78.0187 22.5445C77.5744 22.4432 77.168 22.3597 76.7858 22.2875C74.892 21.9267 72.8565 21.8027 71.0312 21.1685C70.0565 20.8305 69.0818 20.2634 68.6691 19.2862C68.1083 17.9545 68.5704 16.4342 69.8071 15.6759C71.8489 14.424 75.0047 14.5721 77.1389 15.5202C77.8415 15.8316 78.4124 16.2228 78.9073 16.7165C79.201 17.0228 79.4605 17.4 79.6643 17.8026C79.8567 18.1823 80.0023 18.5849 80.0782 18.9773L80.1821 18.9507L80.4934 18.8469L86.2126 16.9228L86.3949 16.8709L86.5506 16.819C86.186 15.181 85.4062 13.7772 84.2632 12.5809C83.3011 11.5936 82.1315 10.8125 80.7276 10.1885C80.4416 10.0581 80.1555 9.95428 79.8441 9.85048C78.0757 9.20109 75.9959 8.88843 73.63 8.88843C71.0299 8.88843 68.8197 9.27831 66.9741 10.0328C66.4019 10.2669 65.8564 10.5264 65.3627 10.8125C64.3753 11.41 63.569 12.1126 62.9449 12.8923C62.6715 13.267 62.4385 13.6721 62.2461 14.1012C62.2309 14.1303 62.217 14.1607 62.2044 14.1898C61.8246 15.0063 61.617 15.8899 61.617 16.8152C61.617 16.8697 61.617 16.9216 61.6195 16.9735C61.6195 17.0076 61.6221 17.038 61.6221 17.0722C61.6221 21.3926 65.9943 23.466 69.6096 24.2547C69.9033 24.3192 70.197 24.3787 70.4919 24.4369C71.5919 24.6521 72.6996 24.8293 73.811 24.9737C76.0921 25.2711 79.6352 25.5281 80.2238 28.3573C80.2719 28.5902 80.2947 28.8295 80.2947 29.0674C80.2947 30.2143 79.6732 31.2409 78.6883 31.9346C78.6516 31.9637 78.6149 31.989 78.5795 32.0131C78.1503 32.3169 77.6617 32.5435 77.168 32.7017C76.1541 33.0131 74.9844 33.1182 73.9186 33.0663C72.8008 33.0144 71.735 32.7802 70.7983 32.3903C70.3299 32.1827 69.8881 31.9485 69.4982 31.6878C69.1083 31.427 67.8868 30.5434 67.3146 28.9573C67.2627 28.8269 67.2361 28.6978 67.2108 28.6193C67.1589 28.6459 67.107 28.6459 67.0804 28.6712C67.0336 28.6864 66.9766 28.713 66.9222 28.7358C66.8855 28.751 66.8526 28.7649 66.8209 28.775C66.6652 28.8535 66.483 28.9054 66.3273 28.9826L60.841 31.2966C61.1005 32.4663 61.5689 33.5321 62.2714 34.4942C62.974 35.4562 63.8829 36.2879 65.0019 36.9904C65.6513 37.3803 66.3804 37.7449 67.1855 38.031C67.7577 38.2386 68.3817 38.4208 69.0311 38.5765C70.5907 38.9411 72.3325 39.1221 74.2566 39.1221C75.6009 39.1221 76.8402 39.0386 77.9769 38.8728C77.9845 38.8728 77.9896 38.8702 77.9946 38.8702C83.1973 38.4487 87.2557 34.9942 87.2557 30.7953C87.2557 30.6763 87.2531 30.5586 87.2455 30.4396L87.2417 30.4434Z" fill="#014227"/>
<path d="M59.5055 23.9829C59.4739 20.941 59.0055 18.284 58.0245 16.0118C57.0624 13.7244 55.6586 11.956 53.8383 10.7078C52.88 10.0509 51.8142 9.56731 50.6471 9.25718C49.5977 8.97616 48.4673 8.83691 47.2609 8.83691C45.5457 8.83691 44.0115 9.1749 42.7114 9.82428C41.3861 10.4749 40.3202 11.4623 39.5139 12.7876C38.7113 14.0421 38.1265 15.6092 37.7607 17.446C37.7467 17.5131 37.7328 17.5814 37.7202 17.6498L36.9239 17.6055V9.61668H30.206V48H36.9239V30.5185H37.7607C38.1265 32.3552 38.7113 33.9224 39.5139 35.1768C40.3202 36.5022 41.3861 37.4896 42.7114 38.1402C44.0115 38.7896 45.5457 39.1276 47.2609 39.1276C48.4673 39.1276 49.5977 38.9883 50.6471 38.7073C52.0269 38.3883 53.2395 37.8225 54.2801 37.0187C55.9966 35.6933 57.2966 33.8983 58.1802 31.6628C59.065 29.4273 59.5068 26.8792 59.5068 24.0449C59.5068 24.0247 59.5068 24.0031 59.5055 23.9829ZM50.485 28.621C49.9648 29.9476 49.2635 30.9615 48.3533 31.6894C47.4432 32.3907 46.3254 32.7553 44.9988 32.7553C44.557 32.7553 44.1342 32.7097 43.7279 32.6223C43.514 32.5755 43.3051 32.5173 43.1 32.4489C42.9152 32.3856 42.7342 32.3147 42.5557 32.235C41.8013 31.897 41.1519 31.4286 40.605 30.8565C40.0595 30.2856 39.5911 29.6615 39.2012 28.9336C38.8113 28.2311 38.5252 27.5032 38.3442 26.7488C38.3227 26.6589 38.3012 26.569 38.2822 26.4804C38.2683 26.4146 38.2543 26.3475 38.2417 26.2817C38.1227 25.7019 38.0581 25.1462 38.0581 24.5918V23.5512C38.0581 22.9436 38.1189 22.3233 38.2417 21.6828C38.2531 21.617 38.267 21.5512 38.2822 21.4841C38.3303 21.2575 38.3847 21.0284 38.448 20.7955C38.7075 19.8334 39.0974 18.9233 39.6696 18.0916C40.2152 17.2599 40.9177 16.584 41.776 16.0637C42.1785 15.8194 42.6203 15.6384 43.1 15.5156C43.6431 15.3763 44.2342 15.3105 44.8697 15.3105C46.1432 15.3105 47.2609 15.6738 48.223 16.3764C49.185 17.0776 49.9129 18.0916 50.4331 19.4182C50.9395 20.6841 51.2243 22.2221 51.2382 23.9829C51.2395 24.0297 51.2395 24.0766 51.2395 24.1234C51.2648 25.7867 51.0053 27.2956 50.485 28.621Z" fill="#014227"/>
<path d="M26.9596 9.64123V38.3167H20.2417V30.4278H19.4949C18.5632 34.3216 16.9391 36.8938 14.6264 38.1534C13.9568 38.5205 13.2289 38.7762 12.4441 38.9217C11.9225 39.0179 11.3757 39.066 10.801 39.066C9.97438 39.066 9.19714 38.9825 8.47054 38.8129C8.46548 38.8129 8.46168 38.8129 8.45661 38.8103C6.25023 38.3812 4.50082 37.3141 3.21597 35.6217C1.50074 33.3342 0.642487 29.8759 0.642487 25.2226V9.59692H8.59712V24.234C8.59712 27.5822 9.17309 32.2013 13.4238 32.3266C15.4112 32.3849 17.2682 31.1304 18.1948 29.4202C19.5898 26.8467 20.0101 23.8378 20.0063 20.9479C20.0037 18.9605 20.0012 16.9743 20 14.9895C20 13.2603 20 11.3704 20 9.64123H26.9596Z" fill="#014227"/>
<path d="M111.358 0V18.8428H105.903V9.01702H104.853C104.765 9.38429 104.629 9.91507 104.447 10.5503C104.102 11.7451 103.922 12.3753 103.621 13.0683C102.983 14.5613 102.131 15.5612 101.768 15.9876C101.14 16.7247 100.433 17.3045 99.6458 17.7297C99.2568 17.9384 98.8427 18.1183 98.4059 18.2604C97.6506 18.5573 96.85 18.756 96.0217 18.8428C95.7033 18.873 95.3798 18.8918 95.0487 18.8918C94.7176 18.8918 94.3967 18.873 94.0794 18.8428C93.5331 18.7849 93.0044 18.6831 92.4984 18.5371C92.4871 18.5346 92.477 18.5321 92.4657 18.5283V11.554C92.477 11.5628 92.4871 11.5703 92.4984 11.5779C95.4477 13.7865 99.6659 13.1425 101.947 10.2937C102.575 9.50881 103.058 8.61704 103.422 7.68629C103.484 7.52907 103.843 6.24487 104.043 5.45373H92.4984V0H111.358Z" fill="#02E56A"/>
</g>
<defs>
<clipPath id="clip0_3050_26600">
<rect width="110.715" height="48" fill="white" transform="translate(0.642487)"/>
</clipPath>
</defs>
</svg>
