<svg width="210" height="52" viewBox="0 0 210 52" fill="none" xmlns="http://www.w3.org/2000/svg">
<g id="Artboard 1 copy 8 1">
<g id="Group 1">
<g id="Group">
<path id="Vector" d="M93.2388 36.6393C92.662 36.155 91.8345 35.9092 90.7782 35.9092H87.9062V45.9586H89.0331V41.6385H90.7782C91.8345 41.6385 92.662 41.3878 93.2388 40.8937C93.8205 40.3948 94.115 39.6792 94.115 38.7665C94.115 37.8538 93.8205 37.1285 93.2364 36.6393H93.2388ZM89.0331 36.9509H90.6784C91.4232 36.9509 92 37.1066 92.3919 37.4157C92.7837 37.7224 92.9736 38.1629 92.9736 38.7665C92.9736 39.3701 92.7788 39.8374 92.3797 40.1441C91.9781 40.4532 91.4037 40.609 90.6784 40.609H89.0331V36.9509Z" fill="white"/>
<path id="Vector_2" d="M99.3746 38.9708C99.1872 38.8735 98.9901 38.8004 98.7905 38.7566C98.5909 38.7128 98.3913 38.6909 98.1966 38.6909C97.8729 38.6909 97.5298 38.7712 97.1793 38.9343C96.8288 39.0949 96.5173 39.3286 96.2544 39.6304C96.2252 39.6645 96.1984 39.6985 96.1717 39.7326V38.7883H95.0569V45.9584H96.1717V42.4512C96.1717 42.0886 96.1838 41.8038 96.2057 41.6018C96.2276 41.3998 96.2593 41.2294 96.2934 41.0956C96.381 40.7767 96.5221 40.5188 96.712 40.3289C96.9018 40.1391 97.116 39.9955 97.3448 39.9078C97.576 39.8178 97.8121 39.774 98.0409 39.774C98.1723 39.774 98.311 39.791 98.4522 39.8275C98.5958 39.864 98.7272 39.9078 98.844 39.9614L98.9341 40.0028L99.4695 39.0171L99.3746 38.9684V38.9708Z" fill="white"/>
<path id="Vector_3" d="M104.576 39.1631C104.067 38.8491 103.471 38.6885 102.806 38.6885C102.142 38.6885 101.541 38.8491 101.022 39.1631C100.504 39.4771 100.098 39.9176 99.8128 40.4676C99.528 41.0177 99.3844 41.6554 99.3844 42.366C99.3844 43.0767 99.5304 43.7168 99.8201 44.2718C100.11 44.8291 100.519 45.2696 101.037 45.5836C101.555 45.8976 102.149 46.0582 102.806 46.0582C103.464 46.0582 104.057 45.8976 104.569 45.5836C105.082 45.2696 105.491 44.8291 105.785 44.2718C106.08 43.7168 106.228 43.0767 106.228 42.366C106.228 41.6554 106.08 41.0177 105.785 40.4676C105.491 39.9176 105.085 39.4795 104.576 39.1631ZM104.026 44.7196C103.683 44.9435 103.271 45.0555 102.806 45.0555C102.342 45.0555 101.925 44.9435 101.58 44.7196C101.232 44.4957 100.957 44.1817 100.764 43.7801C100.57 43.3785 100.472 42.9015 100.472 42.3636C100.472 41.8257 100.57 41.3389 100.764 40.9422C100.957 40.5479 101.232 40.234 101.58 40.0101C101.928 39.7862 102.342 39.6742 102.806 39.6742C103.271 39.6742 103.685 39.7861 104.028 40.0028C104.371 40.2218 104.642 40.5358 104.829 40.9325C105.019 41.3365 105.116 41.816 105.116 42.3636C105.116 42.9112 105.019 43.3761 104.829 43.7801C104.642 44.1793 104.371 44.4957 104.026 44.7172V44.7196Z" fill="white"/>
<path id="Vector_4" d="M111.683 42.2541C111.427 42.1056 111.145 41.9815 110.843 41.8841C110.544 41.7892 110.239 41.7089 109.938 41.6407C109.614 41.5677 109.329 41.4826 109.091 41.3901C108.862 41.3024 108.687 41.1905 108.567 41.0566C108.453 40.9301 108.397 40.767 108.397 40.5553C108.397 40.2705 108.519 40.049 108.767 39.8811C109.025 39.7058 109.358 39.6158 109.76 39.6158C110.137 39.6158 110.483 39.6961 110.792 39.8519C111.096 40.0052 111.344 40.2583 111.529 40.6064L111.588 40.7134L112.337 40.1658L112.296 40.0855C112.053 39.6158 111.702 39.2604 111.257 39.0317C110.814 38.8029 110.322 38.6885 109.789 38.6885C109.081 38.6885 108.497 38.8661 108.051 39.2191C107.599 39.5768 107.37 40.0514 107.37 40.6283C107.37 40.9666 107.436 41.2538 107.567 41.485C107.696 41.7162 107.876 41.906 108.102 42.0521C108.322 42.1932 108.567 42.3101 108.838 42.4025C109.103 42.4926 109.371 42.5705 109.638 42.6386C109.972 42.7141 110.283 42.8017 110.563 42.9039C110.836 43.0013 111.06 43.1351 111.232 43.2982C111.396 43.454 111.476 43.6706 111.476 43.9627C111.476 44.3156 111.342 44.5857 111.067 44.7877C110.785 44.9946 110.402 45.0993 109.93 45.0993C109.426 45.0993 108.988 44.98 108.626 44.7415C108.263 44.5054 107.993 44.1939 107.825 43.8191L107.769 43.6949L106.961 44.3423L107 44.4178C107.156 44.7196 107.375 44.997 107.652 45.2453C107.93 45.4935 108.263 45.6931 108.645 45.8367C109.027 45.9828 109.461 46.0558 109.933 46.0558C110.454 46.0558 110.914 45.9682 111.303 45.7929C111.697 45.6152 112.006 45.3573 112.223 45.0287C112.44 44.6977 112.552 44.3058 112.552 43.8629C112.552 43.4686 112.474 43.1376 112.318 42.8772C112.165 42.6192 111.95 42.4099 111.688 42.2541H111.683Z" fill="white"/>
<path id="Vector_5" d="M118.846 39.1801C118.354 38.854 117.782 38.6885 117.142 38.6885C116.677 38.6885 116.251 38.7737 115.871 38.944C115.492 39.1144 115.166 39.3651 114.9 39.6864C114.861 39.7326 114.825 39.7813 114.791 39.83V38.7858H113.691V48.8352H114.791V44.8924C114.822 44.9386 114.856 44.9824 114.893 45.0263C115.151 45.3475 115.477 45.6031 115.862 45.7832C116.246 45.9633 116.677 46.0533 117.142 46.0533C117.753 46.0533 118.31 45.8976 118.799 45.5934C119.288 45.2891 119.683 44.851 119.972 44.2961C120.262 43.7412 120.408 43.0962 120.408 42.3758C120.408 41.6554 120.269 41.042 119.994 40.4944C119.719 39.9444 119.332 39.5014 118.843 39.1752L118.846 39.1801ZM115.818 40.0612C116.156 39.8348 116.555 39.718 117.001 39.718C117.446 39.718 117.848 39.8324 118.191 40.0612C118.536 40.29 118.811 40.6064 119.009 41.0006C119.208 41.3974 119.308 41.8622 119.308 42.3806C119.308 42.8991 119.208 43.3615 119.009 43.7582C118.811 44.1525 118.536 44.4665 118.191 44.6904C117.848 44.9143 117.446 45.0263 116.998 45.0263C116.55 45.0263 116.151 44.9143 115.813 44.6904C115.472 44.4665 115.202 44.1525 115.01 43.7582C114.815 43.3615 114.718 42.8966 114.718 42.3782C114.718 41.8598 114.815 41.3949 115.01 40.9982C115.202 40.6039 115.475 40.2875 115.813 40.0587L115.818 40.0612Z" fill="white"/>
<path id="Vector_6" d="M127.045 39.7545C126.797 39.4284 126.471 39.1655 126.077 38.9757C125.682 38.7858 125.21 38.6909 124.67 38.6909C124.156 38.6909 123.699 38.7907 123.304 38.9854C122.91 39.1801 122.574 39.4527 122.309 39.7983C122.044 40.1415 121.839 40.5431 121.705 40.9909C121.572 41.4363 121.503 41.9182 121.503 42.4269C121.503 42.9356 121.574 43.4004 121.713 43.841C121.851 44.2839 122.061 44.6758 122.331 45.0068C122.603 45.3378 122.952 45.6006 123.365 45.7832C123.777 45.9682 124.254 46.0607 124.784 46.0607C125.157 46.0607 125.507 46.0193 125.821 45.9365C126.135 45.8538 126.437 45.7272 126.717 45.5568C126.997 45.3889 127.274 45.1626 127.542 44.8827L127.617 44.8048L126.821 44.099L126.751 44.1768C126.471 44.4835 126.176 44.7074 125.877 44.8364C125.578 44.9678 125.208 45.0336 124.782 45.0336C124.12 45.0336 123.587 44.8218 123.2 44.4032C122.827 44.0016 122.623 43.4345 122.589 42.7165H127.717L127.736 42.6338C127.756 42.5413 127.768 42.4342 127.775 42.3052C127.78 42.1811 127.783 42.0813 127.783 42.0058C127.783 41.6115 127.722 41.2173 127.603 40.8303C127.481 40.4433 127.296 40.0831 127.05 39.7594L127.045 39.7545ZM126.707 41.6894V41.8379H122.591C122.628 41.446 122.725 41.0907 122.883 40.7767C123.054 40.4384 123.295 40.161 123.604 39.9565C123.91 39.7521 124.273 39.6499 124.682 39.6499C125.04 39.6499 125.354 39.7131 125.609 39.8373C125.867 39.9614 126.079 40.1245 126.237 40.3167C126.398 40.5114 126.517 40.7329 126.593 40.9739C126.668 41.2173 126.707 41.4582 126.707 41.6894Z" fill="white"/>
<path id="Vector_7" d="M132.663 38.7542C132.463 38.7104 132.263 38.6885 132.069 38.6885C131.745 38.6885 131.402 38.7688 131.051 38.9319C130.701 39.0925 130.389 39.3261 130.126 39.6279C130.097 39.662 130.071 39.6961 130.044 39.7302V38.7858H128.929V45.956H130.044V42.4488C130.044 42.0861 130.056 41.8014 130.078 41.5994C130.1 41.3974 130.131 41.227 130.165 41.0931C130.253 40.7743 130.394 40.5163 130.584 40.3265C130.774 40.1366 130.988 39.993 131.217 39.9054C131.448 39.8153 131.684 39.7715 131.913 39.7715C132.044 39.7715 132.183 39.7886 132.324 39.8251C132.468 39.8616 132.599 39.9054 132.716 39.959L132.806 40.0003L133.342 39.0146L133.247 38.9659C133.059 38.8686 132.862 38.7956 132.663 38.7518V38.7542Z" fill="white"/>
<path id="Vector_8" d="M135.267 35.9092H133.996V37.6445H135.267V35.9092Z" fill="white"/>
<path id="Vector_9" d="M135.182 38.7886H134.082V45.9587H135.182V38.7886Z" fill="white"/>
<path id="Vector_10" d="M138.84 36.1987L137.725 36.8437V38.7908H136.187V39.7059H137.725V44.2183C137.725 44.6272 137.793 44.9728 137.927 45.2454C138.063 45.5229 138.263 45.7322 138.516 45.8636C138.764 45.9926 139.056 46.0583 139.382 46.0583C139.548 46.0583 139.721 46.0437 139.894 46.0145C140.069 45.9853 140.244 45.9415 140.417 45.8831L140.49 45.8587V44.9412L140.358 44.9728C140.208 45.0093 140.069 45.0409 139.942 45.0629C139.818 45.0848 139.701 45.0969 139.594 45.0969C139.312 45.0969 139.122 45.0093 139.015 44.8316C138.898 44.6369 138.84 44.3595 138.84 44.0041V39.7035H140.492V38.7884H138.84V36.1987Z" fill="white"/>
<path id="Vector_11" d="M144.479 44.4327L142.308 38.7886H141.103L143.9 45.6277L142.571 48.8234H143.773L147.869 38.7886H146.667L144.479 44.4327Z" fill="white"/>
<path id="Vector_12" d="M155.093 35.9092L151.359 45.9586H152.615L153.509 43.4323H157.617L158.51 45.9586H159.739L156.018 35.9092H155.095H155.093ZM153.876 42.3881L155.563 37.6129L157.249 42.3881H153.879H153.876Z" fill="white"/>
<path id="Vector_13" d="M161.596 36.1987L160.482 36.8437V38.7908H158.943V39.7059H160.482V44.2183C160.482 44.6272 160.55 44.9728 160.684 45.2454C160.82 45.5229 161.02 45.7322 161.273 45.8636C161.521 45.9926 161.813 46.0583 162.139 46.0583C162.305 46.0583 162.477 46.0437 162.65 46.0145C162.826 45.9853 163.001 45.9415 163.174 45.8831L163.247 45.8587V44.9412L163.115 44.9728C162.964 45.0093 162.825 45.0409 162.699 45.0629C162.575 45.0848 162.458 45.0969 162.351 45.0969C162.069 45.0969 161.879 45.0093 161.772 44.8316C161.655 44.6369 161.596 44.3595 161.596 44.0041V39.7035H163.249V38.7884H161.596V36.1987Z" fill="white"/>
<path id="Vector_14" d="M173.247 36.6393C172.67 36.155 171.843 35.9092 170.787 35.9092H167.915V45.9586H169.041V41.6385H170.787C171.843 41.6385 172.67 41.3878 173.247 40.8937C173.829 40.3948 174.123 39.6792 174.123 38.7665C174.123 37.8538 173.829 37.1285 173.245 36.6393H173.247ZM169.041 36.9509H170.687C171.432 36.9509 172.008 37.1066 172.4 37.4157C172.792 37.7224 172.982 38.1629 172.982 38.7665C172.982 39.3701 172.787 39.8374 172.388 40.1441C171.986 40.4532 171.412 40.609 170.687 40.609H169.041V36.9509Z" fill="white"/>
<path id="Vector_15" d="M177.09 44.9948C176.772 45.0629 176.538 45.0289 176.387 44.8536C176.282 44.7319 176.229 44.5226 176.229 44.2306V35.9092H175.129V44.3863C175.129 44.9583 175.258 45.3842 175.511 45.6519C175.766 45.9221 176.11 46.0584 176.533 46.0584C176.669 46.0584 176.827 46.0413 176.998 46.0073C177.166 45.9732 177.336 45.927 177.499 45.8685L177.57 45.8442V44.8658L177.434 44.9072C177.314 44.9437 177.2 44.9729 177.09 44.9972V44.9948Z" fill="white"/>
<path id="Vector_16" d="M181.401 38.6885C180.804 38.6885 180.262 38.798 179.782 39.0146C179.303 39.2312 178.867 39.5768 178.482 40.0393L178.417 40.1196L179.23 40.8084L179.298 40.7232C179.597 40.3435 179.916 40.0709 180.249 39.9127C180.583 39.7545 180.953 39.6766 181.347 39.6766C181.956 39.6766 182.418 39.8324 182.727 40.1391C183.034 40.4457 183.19 40.9106 183.19 41.5191V41.7113H181.079C180.697 41.7113 180.337 41.7454 180.006 41.8111C179.67 41.8793 179.364 42.0034 179.103 42.1786C178.855 42.3393 178.65 42.5583 178.497 42.8309C178.344 43.1035 178.263 43.4418 178.263 43.8361C178.263 44.2791 178.371 44.6709 178.585 45.0019C178.796 45.3329 179.106 45.5958 179.505 45.7807C179.899 45.9657 180.366 46.0582 180.897 46.0582C181.427 46.0582 181.87 45.9438 182.287 45.7223C182.654 45.5252 182.966 45.2502 183.214 44.9046L183.25 45.9609H184.275V41.5215C184.275 40.6112 184.022 39.9054 183.523 39.4211C183.024 38.9367 182.311 38.6933 181.403 38.6933L181.401 38.6885ZM182.082 44.8218C181.751 45.0141 181.381 45.1114 180.977 45.1114C180.478 45.1114 180.079 44.9946 179.794 44.761C179.512 44.5297 179.373 44.2279 179.373 43.8337C179.373 43.6243 179.41 43.4442 179.483 43.2933C179.553 43.1473 179.658 43.0256 179.799 42.9283C179.962 42.7993 180.169 42.7117 180.41 42.6678C180.661 42.6216 180.924 42.5997 181.189 42.5997H183.187V42.8747C183.187 43.2958 183.085 43.6828 182.885 44.0211C182.683 44.3618 182.413 44.632 182.082 44.8242V44.8218Z" fill="white"/>
<path id="Vector_17" d="M190.245 38.7886L188.06 44.4327L185.886 38.7886H184.684L187.48 45.6277L186.152 48.8234H187.354L191.45 38.7886H190.245Z" fill="white"/>
</g>
<g id="Group_2">
<g id="Group_3">
<path id="Vector_18" d="M39.9008 19.6992C39.8838 17.6475 39.5576 15.8513 38.9005 14.3131C38.2507 12.7652 37.3014 11.5774 36.0699 10.7305C35.4201 10.2851 34.7021 9.96135 33.9159 9.74717C33.2053 9.55977 32.4459 9.46484 31.6257 9.46484C30.472 9.46484 29.4279 9.69607 28.5566 10.1317C27.6585 10.5674 26.9405 11.2343 26.3929 12.1324C25.855 12.9793 25.4534 14.0381 25.2125 15.2793C25.2027 15.3232 25.1954 15.3743 25.1857 15.4156L24.6478 15.3889V9.99542H20.1086V35.9161H24.6478V24.1094H25.2125C25.4607 25.3482 25.8526 26.4094 26.3929 27.2564C26.9405 28.1545 27.6585 28.8214 28.5566 29.257C29.4376 29.6927 30.472 29.9239 31.6257 29.9239C32.4386 29.9239 33.2077 29.829 33.9159 29.6416C34.8481 29.4274 35.6683 29.0428 36.3693 28.505C37.5327 27.6069 38.404 26.4021 39.0027 24.8882C39.6014 23.3744 39.9008 21.6561 39.9008 19.7406V19.6968V19.6992ZM33.8064 22.8365C33.4559 23.7346 32.9765 24.4185 32.3704 24.9053C31.7547 25.375 31.0026 25.6233 30.1045 25.6233C29.8052 25.6233 29.5228 25.5892 29.2502 25.5283C29.1042 25.4943 28.9679 25.4602 28.8219 25.4091C28.6929 25.3653 28.5736 25.3142 28.4544 25.263C27.9408 25.0318 27.5052 24.7154 27.1376 24.3309C26.7701 23.9463 26.4537 23.5277 26.1884 23.0312C25.9231 22.5517 25.7357 22.065 25.6067 21.5514C25.5897 21.4906 25.58 21.4321 25.5629 21.3713C25.5532 21.3275 25.5459 21.2861 25.5362 21.235C25.4583 20.8407 25.4072 20.4659 25.4072 20.0887V19.3877C25.4072 18.9764 25.451 18.5578 25.5362 18.1221C25.5459 18.0783 25.5532 18.0369 25.5629 17.9858C25.597 17.8325 25.6311 17.6791 25.6749 17.5234C25.855 16.8735 26.1105 16.2578 26.4951 15.6931C26.8626 15.1284 27.3421 14.6757 27.914 14.3253C28.1866 14.1622 28.486 14.0356 28.8121 13.9578C29.1797 13.8628 29.5812 13.8215 30.0096 13.8215C30.8736 13.8215 31.6257 14.0697 32.2755 14.5394C32.9254 15.0092 33.4219 15.6931 33.7723 16.5912C34.1155 17.4455 34.3029 18.4799 34.32 19.6773V19.7723C34.337 20.9186 34.1569 21.936 33.8064 22.8316V22.8365Z" fill="white"/>
<path id="Vector_19" d="M17.9207 10.0151V29.3789H13.3815V24.0536H12.8777C12.2449 26.687 11.1497 28.4224 9.58714 29.2694C9.13444 29.5176 8.64767 29.688 8.11709 29.7902C7.76661 29.8583 7.3991 29.8851 7.00481 29.8851C6.44989 29.8851 5.91931 29.8243 5.43254 29.7148H5.4228C3.93571 29.4251 2.75529 28.7071 1.88396 27.5608C0.730313 26.0128 0.148621 23.6788 0.148621 20.5415V9.99316H5.51772V19.8746C5.51772 22.1308 5.90227 25.251 8.77423 25.3362C10.1153 25.38 11.3736 24.5233 11.9967 23.3697C12.9361 21.6343 13.2185 19.5996 13.2185 17.6501V10.0151H17.9207Z" fill="white"/>
</g>
<path id="Vector_20" d="M209.166 2.98389V15.7909H205.464V9.11479H204.754C204.693 9.36304 204.6 9.72082 204.481 10.1589C204.25 10.9718 204.121 11.3978 203.916 11.8699C203.481 12.8873 202.909 13.5615 202.66 13.8535C202.232 14.3573 201.755 14.7516 201.215 15.0339C200.949 15.18 200.667 15.2992 200.368 15.3942C199.854 15.5986 199.307 15.7276 198.752 15.7884C198.537 15.8055 198.316 15.8225 198.094 15.8225C197.873 15.8225 197.649 15.8128 197.437 15.7884C197.07 15.7446 196.71 15.6765 196.359 15.584C196.349 15.584 196.342 15.584 196.332 15.5743V10.838C196.332 10.838 196.349 10.8477 196.359 10.855C198.36 12.3591 201.224 11.9162 202.78 9.98368C203.208 9.4531 203.532 8.84707 203.78 8.21426C203.824 8.11204 204.062 7.23098 204.199 6.7004H196.359V2.99119H209.166V2.98389Z" fill="#02E56A"/>
<g id="Group_4">
<path id="Vector_21" d="M62.4849 24.0683C62.4581 23.6837 62.39 23.2992 62.2707 22.9268C62.188 22.6664 62.0857 22.423 61.9689 22.1966C61.3045 20.9237 60.1119 20.2033 58.6978 19.7506C58.5274 19.6946 58.3522 19.6435 58.1794 19.5948C57.2351 19.332 56.2542 19.0959 55.232 18.8866C54.1854 18.6773 53.2216 18.4412 52.3454 18.1807C50.8486 17.7329 49.4443 16.774 49.4443 15.0484C49.4443 14.0943 49.858 13.3398 50.688 12.7873C50.8948 12.6486 51.1212 12.5269 51.367 12.4247C51.3694 12.4247 51.3719 12.4222 51.3767 12.4222C51.5155 12.3662 51.6566 12.3103 51.8075 12.264C51.8562 12.247 51.9073 12.2324 51.9584 12.2178C52.231 12.1399 52.5231 12.0791 52.8322 12.0352C52.9855 12.0133 53.1437 11.9987 53.3044 11.9841C53.5526 11.9647 53.8155 11.9549 54.0856 11.9549C54.2511 11.9549 54.4118 11.9574 54.57 11.9671C54.7306 11.9744 54.8888 11.9841 55.0397 12.0012C55.2101 12.0182 55.3731 12.0377 55.5338 12.062C56.0108 12.135 56.4465 12.2519 56.8359 12.4076C57.5904 12.7094 58.1843 13.1621 58.6248 13.7633C59.0629 14.3669 59.2965 15.1579 59.3209 16.1363L61.8083 15.5351C61.7839 14.3547 61.47 13.313 60.8664 12.4076C60.2652 11.5047 59.4109 10.8013 58.3035 10.2999C57.5149 9.94212 56.6071 9.7109 55.5776 9.60868C55.4729 9.59894 55.3683 9.58921 55.2612 9.58191C55.1882 9.57704 55.1152 9.57218 55.0421 9.56731C54.9886 9.56244 54.9351 9.56001 54.8791 9.55757C54.7866 9.5527 54.6965 9.55027 54.604 9.54783C54.497 9.5454 54.3874 9.54297 54.2755 9.54297H54.2657C53.8763 9.54297 53.5015 9.55757 53.1389 9.58678C52.8663 9.60868 52.6034 9.63789 52.3454 9.67683C51.5788 9.79122 50.8802 9.98106 50.245 10.239C49.1157 10.7039 48.2492 11.3513 47.6456 12.1788C47.0445 13.0064 46.7427 14.0115 46.7427 15.192C46.7427 15.4329 46.7548 15.6641 46.7792 15.8856C46.7792 15.9002 46.784 15.9124 46.784 15.927C47.0323 17.5723 48.1324 18.7259 49.7363 19.3782C50.9679 19.8771 52.3965 20.2106 53.6986 20.4515C54.8231 20.6609 55.8331 20.8969 56.7239 21.1574C57.6147 21.4202 58.3011 21.7731 58.7879 22.2185C58.9266 22.3451 59.0434 22.4862 59.1408 22.6396C59.5618 23.0582 59.7711 23.6277 59.7711 24.3433C59.7711 25.2974 59.3306 26.0567 58.4544 26.6238C58.1624 26.8088 57.8338 26.967 57.4663 27.0911C57.3446 27.1325 57.2204 27.1714 57.089 27.2055C56.6485 27.3223 56.1544 27.4027 55.6165 27.4416C55.5411 27.4465 55.4656 27.4513 55.3878 27.4562C55.1857 27.4659 54.9789 27.4708 54.7622 27.4708C53.5064 27.4708 52.4209 27.3004 51.5033 26.9646C50.5857 26.6262 49.897 26.1297 49.4297 25.475C48.9648 24.8228 48.7822 24.0318 48.8845 23.102H48.8747L48.13 23.2383L46.3995 23.5523C46.3752 24.482 46.5309 25.3363 46.8717 26.1151C47.21 26.894 47.7235 27.5584 48.4147 28.1109C49.106 28.6634 49.97 29.0918 51.0141 29.3936C51.6396 29.5737 52.3284 29.7002 53.078 29.7732C53.2654 29.7927 53.4577 29.8073 53.6548 29.817C53.7303 29.8219 53.8057 29.8268 53.8812 29.8292C53.9883 29.8341 54.1002 29.8389 54.2122 29.8389C54.3509 29.8438 54.4897 29.8438 54.6333 29.8438H54.6406C55.12 29.8438 55.5825 29.8243 56.0254 29.783C56.2688 29.7611 56.5098 29.7319 56.7458 29.6978C57.4517 29.5931 58.1088 29.4374 58.7197 29.2232C59.9001 28.807 60.8226 28.1864 61.487 27.3588C61.6963 27.1009 61.8716 26.821 62.0127 26.5167C62.0225 26.4997 62.0298 26.4826 62.0371 26.4632C62.3364 25.8085 62.4873 25.0515 62.4873 24.1948C62.4873 24.151 62.4873 24.1048 62.4873 24.061L62.4849 24.0683Z" fill="white"/>
<path id="Vector_22" d="M72.9603 29.8511C71.4537 29.8511 70.1297 29.6175 68.9858 29.155C67.8419 28.6902 66.8878 28.0257 66.1236 27.1593C65.3569 26.2928 64.7801 25.2511 64.3906 24.0318C64.0012 22.8148 63.8065 21.4762 63.8065 20.0208C63.8065 18.5653 64.0061 17.1196 64.4101 15.8394C64.8117 14.5592 65.3885 13.4469 66.143 12.505C66.8975 11.5631 67.82 10.8354 68.9128 10.3194C70.0056 9.80584 71.2663 9.54785 72.6974 9.54785C73.9265 9.54785 75.0461 9.74986 76.0488 10.1515C77.054 10.553 77.9132 11.1883 78.6287 12.0547C79.3443 12.9212 79.8968 14.014 80.2862 15.3307C80.6756 16.6499 80.8314 18.2124 80.7559 20.0208L65.5759 20.1327V17.9861L79.023 17.9106L78.0811 19.5291C78.1809 17.8473 78.013 16.4527 77.5724 15.3477C77.1319 14.2428 76.4918 13.408 75.6521 12.8433C74.81 12.2786 73.8121 11.9963 72.6585 11.9963C71.4269 11.9963 70.3536 12.3176 69.4385 12.9577C68.5209 13.5978 67.8127 14.5081 67.3113 15.6885C66.8075 16.8689 66.5568 18.3122 66.5568 20.0208C66.5568 22.3816 67.0898 24.2094 68.1583 25.5018C69.2243 26.7966 70.8525 27.4416 73.0357 27.4416C73.8657 27.4416 74.5934 27.3467 75.2213 27.1593C75.8493 26.9719 76.3823 26.7017 76.8228 26.3488C77.2609 25.9983 77.626 25.5821 77.9156 25.1051C78.2052 24.6281 78.4243 24.1145 78.5752 23.5596L81.0602 24.1243C80.8095 25.0272 80.4517 25.8328 79.9868 26.5338C79.522 27.2372 78.95 27.8408 78.2734 28.3421C77.5943 28.8459 76.8228 29.2208 75.9564 29.4715C75.0899 29.7221 74.092 29.8487 72.9627 29.8487L72.9603 29.8511Z" fill="white"/>
<path id="Vector_23" d="M91.791 29.8511C90.0825 29.8511 88.6465 29.5737 87.4782 29.0236C86.31 28.4711 85.3802 27.7191 84.6914 26.7626C84.0002 25.8085 83.4916 24.7424 83.1654 23.5596C82.8393 22.3792 82.6762 21.1476 82.6762 19.8674C82.6762 18.4874 82.8587 17.1731 83.2214 15.9319C83.584 14.6882 84.139 13.5832 84.8789 12.6169C85.6187 11.6507 86.5412 10.8962 87.6486 10.3559C88.7536 9.81557 90.0581 9.54541 91.5671 9.54541C93.0761 9.54541 94.3028 9.79609 95.4102 10.2999C96.5152 10.8037 97.4181 11.5193 98.1215 12.4466C98.8249 13.3763 99.263 14.4813 99.4407 15.7615L96.7293 16.4405C96.705 15.7615 96.503 15.0849 96.1257 14.4058C95.7485 13.7268 95.1887 13.1621 94.4488 12.7119C93.7089 12.2592 92.7597 12.0328 91.6061 12.0328C90.5522 12.0328 89.6468 12.2348 88.8947 12.6364C88.1402 13.038 87.5123 13.6027 87.0109 14.3304C86.5071 15.0581 86.1323 15.8881 85.8816 16.8154C85.6309 17.7451 85.5044 18.7624 85.5044 19.8674C85.5044 21.3496 85.7234 22.6615 86.1639 23.803C86.602 24.9469 87.2884 25.8377 88.2157 26.4778C89.1454 27.1179 90.3502 27.4392 91.8324 27.4392C92.8619 27.4392 93.7649 27.2566 94.5437 26.894C95.3226 26.5313 95.9432 26.0081 96.4081 25.3314C96.8729 24.6524 97.1918 23.8249 97.3694 22.8465L99.9688 23.4111C99.7668 24.5161 99.4285 25.4823 98.9514 26.3123C98.4744 27.1398 97.8708 27.814 97.1431 28.3275C96.4154 28.8435 95.6049 29.2256 94.7141 29.4763C93.8233 29.727 92.8498 29.8536 91.7959 29.8536L91.791 29.8511Z" fill="white"/>
<path id="Vector_24" d="M107.913 29.8511C105.778 29.8511 104.17 29.116 103.091 27.6484C102.011 26.1784 101.473 23.9757 101.473 21.0381V10.0005H104.26V20.8872C104.26 23.0216 104.598 24.6231 105.277 25.6892C105.956 26.7576 107.047 27.2906 108.553 27.2906C109.356 27.2906 110.084 27.1032 110.739 26.726C111.391 26.3487 111.968 25.7963 112.472 25.0685C112.973 24.3408 113.389 23.4743 113.715 22.4692C114.041 21.464 114.28 20.359 114.431 19.1542V10.0005H117.181V21.2255L117.218 29.3984H114.582L115.034 23.1458H114.431C114.129 24.6767 113.676 25.9472 113.075 26.9499C112.472 27.9551 111.732 28.6901 110.853 29.1526C109.974 29.6174 108.994 29.8486 107.915 29.8486L107.913 29.8511Z" fill="white"/>
<path id="Vector_25" d="M120.021 29.3984V18.5118L120.058 9.9981H122.733L122.28 16.8154H122.884C123.134 15.3842 123.492 14.1284 123.957 13.0477C124.422 11.9671 125.042 11.1153 125.821 10.4873C126.6 9.85938 127.542 9.54541 128.647 9.54541C128.922 9.54541 129.236 9.56488 129.589 9.60138C129.939 9.63789 130.317 9.73281 130.718 9.88371L130.606 12.8214C130.229 12.6461 129.866 12.5196 129.513 12.4441C129.161 12.3687 128.81 12.3322 128.46 12.3322C127.454 12.3322 126.6 12.6778 125.899 13.369C125.196 14.0602 124.592 14.9875 124.091 16.1558C123.587 17.324 123.173 18.5848 122.847 19.9404V29.396H120.021V29.3984Z" fill="white"/>
<path id="Vector_26" d="M134.177 6.4591C133.473 6.4591 132.945 6.32038 132.595 6.04535C132.242 5.77032 132.067 5.34196 132.067 4.76514C132.067 4.18831 132.242 3.78672 132.595 3.48492C132.945 3.18312 133.461 3.03223 134.14 3.03223C134.868 3.03223 135.401 3.17582 135.742 3.46545C136.08 3.75508 136.25 4.18831 136.25 4.76514C136.25 5.34196 136.075 5.73868 135.722 6.02587C135.369 6.3155 134.856 6.4591 134.177 6.4591ZM132.746 29.3983V10.0004H135.532V29.3983H132.746Z" fill="white"/>
<path id="Vector_27" d="M145.579 29.7757C143.946 29.7757 142.717 29.3109 141.887 28.3811C141.06 27.4514 140.643 26.0714 140.643 24.2387V12.4101H137.667L137.703 10.0371H139.512C140.064 10.0128 140.473 9.89352 140.736 9.67934C140.999 9.46516 141.157 9.10738 141.206 8.606L141.544 5.62939H143.352V9.99817H149.077V12.4466H143.352V24.2363C143.352 25.2901 143.584 26.0373 144.048 26.4779C144.513 26.9184 145.185 27.1374 146.064 27.1374C146.541 27.1374 147.049 27.0742 147.59 26.95C148.13 26.8235 148.663 26.5484 149.191 26.1225V29.0237C148.512 29.3011 147.867 29.4934 147.251 29.6078C146.636 29.7198 146.078 29.7782 145.574 29.7782L145.579 29.7757Z" fill="white"/>
<path id="Vector_28" d="M152.847 6.4591C152.144 6.4591 151.615 6.32038 151.265 6.04535C150.912 5.77032 150.737 5.34196 150.737 4.76514C150.737 4.18831 150.912 3.78672 151.265 3.48492C151.615 3.18312 152.131 3.03223 152.81 3.03223C153.538 3.03223 154.071 3.17582 154.412 3.46545C154.75 3.75508 154.921 4.18831 154.921 4.76514C154.921 5.34196 154.745 5.73868 154.392 6.02587C154.039 6.3155 153.526 6.4591 152.847 6.4591ZM151.416 29.3983V10.0004H154.203V29.3983H151.416Z" fill="white"/>
<path id="Vector_29" d="M165.7 29.8511C164.194 29.8511 162.87 29.6175 161.726 29.155C160.582 28.6902 159.628 28.0257 158.863 27.1593C158.097 26.2928 157.52 25.2511 157.131 24.0318C156.741 22.8148 156.546 21.4762 156.546 20.0208C156.546 18.5653 156.746 17.1196 157.15 15.8394C157.552 14.5592 158.128 13.4469 158.883 12.505C159.637 11.5631 160.56 10.8354 161.653 10.3194C162.745 9.80584 164.006 9.54785 165.437 9.54785C166.666 9.54785 167.786 9.74986 168.789 10.1515C169.794 10.553 170.653 11.1883 171.369 12.0547C172.084 12.9212 172.637 14.014 173.026 15.3307C173.415 16.6499 173.571 18.2124 173.496 20.0208L158.316 20.1327V17.9861L171.763 17.9106L170.821 19.5291C170.921 17.8473 170.753 16.4527 170.312 15.3477C169.872 14.2428 169.232 13.408 168.392 12.8433C167.55 12.2786 166.552 11.9963 165.398 11.9963C164.167 11.9963 163.093 12.3176 162.178 12.9577C161.261 13.5978 160.553 14.5081 160.051 15.6885C159.547 16.8689 159.297 18.3122 159.297 20.0208C159.297 22.3816 159.83 24.2094 160.898 25.5018C161.964 26.7966 163.592 27.4416 165.776 27.4416C166.606 27.4416 167.333 27.3467 167.961 27.1593C168.589 26.9719 169.122 26.7017 169.563 26.3488C170.001 25.9983 170.366 25.5821 170.655 25.1051C170.945 24.6281 171.164 24.1145 171.315 23.5596L173.8 24.1243C173.549 25.0272 173.192 25.8328 172.727 26.5338C172.262 27.2372 171.69 27.8408 171.013 28.3421C170.334 28.8459 169.563 29.2208 168.696 29.4715C167.83 29.7221 166.832 29.8487 165.703 29.8487L165.7 29.8511Z" fill="white"/>
<path id="Vector_30" d="M191.455 24.0366C191.429 23.6618 191.36 23.287 191.246 22.9268C191.163 22.6664 191.061 22.423 190.944 22.1966C190.28 20.9237 189.087 20.2033 187.673 19.7506C187.503 19.6946 187.327 19.6435 187.155 19.5948C186.21 19.332 185.229 19.0959 184.207 18.8866C183.161 18.6773 182.197 18.4412 181.321 18.1807C179.824 17.7329 178.417 16.774 178.417 15.0484C178.417 14.0943 178.831 13.3398 179.661 12.7873C179.868 12.6486 180.094 12.5269 180.34 12.4247C180.342 12.4247 180.345 12.4222 180.35 12.4222C180.41 12.3979 180.474 12.3711 180.535 12.3492C180.595 12.3273 180.656 12.3054 180.72 12.2835C180.724 12.2835 180.729 12.2811 180.734 12.2786C180.749 12.2738 180.763 12.2689 180.778 12.264C180.827 12.247 180.878 12.2324 180.929 12.2178C181.201 12.1399 181.493 12.0791 181.803 12.0352C181.956 12.0133 182.114 11.9987 182.275 11.9841C182.336 11.9793 182.399 11.9744 182.46 11.972C182.523 11.9671 182.586 11.9647 182.652 11.9622C182.715 11.9574 182.781 11.9574 182.847 11.9574C182.881 11.9574 182.915 11.9574 182.951 11.9574C182.985 11.9574 183.02 11.9574 183.056 11.9574C183.222 11.9574 183.382 11.9598 183.54 11.9695C183.621 11.9695 183.701 11.9768 183.779 11.9841C183.857 11.989 183.935 11.9939 184.01 12.0036C184.18 12.0182 184.344 12.0401 184.502 12.0644H184.504C184.565 12.0742 184.623 12.0839 184.682 12.0937C184.733 12.1034 184.784 12.1131 184.833 12.1229C184.933 12.1423 185.027 12.1642 185.122 12.191C185.122 12.191 185.123 12.191 185.125 12.191C185.366 12.2519 185.59 12.3249 185.804 12.4076C186.558 12.7094 187.155 13.1621 187.595 13.7633C188.033 14.3669 188.267 15.1579 188.291 16.1363L190.779 15.5351C190.754 14.3547 190.44 13.313 189.837 12.4076C189.233 11.5047 188.379 10.8013 187.274 10.2999C186.485 9.94212 185.578 9.7109 184.548 9.60868C184.443 9.59894 184.339 9.58921 184.232 9.58191C184.159 9.57704 184.086 9.57218 184.013 9.56731C183.959 9.56244 183.905 9.56001 183.849 9.55757C183.757 9.5527 183.667 9.55027 183.574 9.54783C183.467 9.5454 183.358 9.54297 183.246 9.54297H183.236C182.847 9.54297 182.472 9.55757 182.109 9.58678C182.022 9.59408 181.934 9.60382 181.849 9.61112C181.761 9.62085 181.671 9.63059 181.584 9.64032C181.408 9.66223 181.238 9.689 181.068 9.71577C180.396 9.8326 179.778 10.0078 179.213 10.239C178.084 10.7039 177.217 11.3513 176.614 12.1788C176.01 13.0064 175.711 14.0115 175.711 15.192C175.711 15.4329 175.723 15.6641 175.747 15.8856C175.747 15.9002 175.752 15.9124 175.752 15.927C176 17.5723 177.1 18.7259 178.704 19.3782C179.936 19.8771 181.364 20.2106 182.667 20.4515C183.791 20.6609 184.801 20.8969 185.692 21.1574C186.583 21.4202 187.269 21.7731 187.756 22.2185C187.892 22.3426 188.011 22.4838 188.106 22.6371C188.106 22.6371 188.109 22.6371 188.109 22.6396C188.53 23.0606 188.739 23.6277 188.739 24.3433C188.739 25.2974 188.299 26.0567 187.422 26.6238C187.169 26.7869 186.887 26.9256 186.575 27.04C186.529 27.057 186.48 27.0741 186.432 27.0911C186.422 27.0936 186.41 27.0984 186.398 27.1008C186.349 27.1179 186.298 27.1349 186.247 27.1495C186.242 27.1495 186.24 27.1495 186.237 27.152C186.176 27.169 186.115 27.186 186.055 27.2031C185.999 27.2177 185.943 27.2323 185.887 27.2445C185.845 27.2542 185.806 27.2639 185.767 27.2712C185.578 27.3126 185.378 27.3467 185.169 27.3759C185.105 27.3856 185.042 27.3929 184.979 27.4002C184.918 27.4075 184.855 27.4148 184.791 27.4197C184.723 27.427 184.653 27.4343 184.582 27.4367C184.546 27.4392 184.507 27.4416 184.47 27.444C184.417 27.4465 184.363 27.4489 184.307 27.4538C184.215 27.4586 184.12 27.4635 184.022 27.4635C183.927 27.4635 183.828 27.4659 183.73 27.4659C182.474 27.4659 181.389 27.2956 180.471 26.9597C179.554 26.6214 178.865 26.1249 178.398 25.4702C177.933 24.8179 177.75 24.0269 177.852 23.0971H177.843L177.098 23.2334L175.367 23.5474C175.343 24.4771 175.499 25.3314 175.837 26.1103C176.175 26.8891 176.691 27.5535 177.383 28.106C178.074 28.6585 178.938 29.0869 179.98 29.3887C180.595 29.5664 181.267 29.6905 182 29.7635C182.014 29.7659 182.029 29.7659 182.044 29.7684C182.121 29.7757 182.202 29.783 182.282 29.7903C182.394 29.8 182.506 29.8073 182.62 29.8122C182.696 29.817 182.771 29.8219 182.847 29.8243H182.856C182.939 29.8292 183.022 29.8316 183.105 29.8341C183.129 29.8341 183.153 29.8341 183.178 29.8341C183.316 29.8389 183.455 29.8389 183.599 29.8389H183.606C183.706 29.8389 183.803 29.8389 183.901 29.8365C183.993 29.8365 184.083 29.8341 184.173 29.8292H184.19C184.258 29.8292 184.324 29.8243 184.392 29.8195C184.48 29.817 184.57 29.8097 184.658 29.8049C184.769 29.7976 184.881 29.7878 184.993 29.7781C185.239 29.7562 185.478 29.727 185.714 29.6929C185.716 29.6929 185.719 29.6929 185.724 29.6929C185.853 29.6734 185.979 29.6515 186.103 29.6296H186.108C186.235 29.6053 186.361 29.581 186.483 29.5542C186.588 29.5323 186.692 29.5055 186.794 29.4812C187.101 29.4057 187.4 29.3181 187.685 29.2159C188.866 28.7997 189.788 28.1791 190.455 27.3515C190.638 27.1252 190.793 26.8818 190.925 26.6214C190.942 26.5849 190.961 26.5484 190.981 26.5094C190.99 26.4924 190.998 26.4753 191.005 26.4559C191.304 25.8012 191.453 25.0442 191.453 24.1875C191.453 24.1315 191.453 24.0756 191.45 24.022L191.455 24.0366Z" fill="white"/>
</g>
</g>
</g>
</g>
</svg>
