<svg width="20" height="19" viewBox="0 0 20 19" fill="none" xmlns="http://www.w3.org/2000/svg">
<path id="Vector" d="M19.3575 0V18.8428H13.9032V9.01702H12.8534C12.7653 9.38429 12.6293 9.91507 12.4468 10.5503C12.1019 11.7451 11.9219 12.3753 11.621 13.0683C10.9828 14.5613 10.1306 15.5612 9.7681 15.9876C9.13996 16.7247 8.43253 17.3045 7.64579 17.7297C7.25682 17.9384 6.84268 18.1183 6.40588 18.2604C5.65061 18.5573 4.85002 18.756 4.02174 18.8428C3.70327 18.873 3.37976 18.8918 3.0487 18.8918C2.71764 18.8918 2.39665 18.873 2.07944 18.8428C1.53313 18.7849 1.00444 18.6831 0.498405 18.5371C0.487076 18.5346 0.477004 18.5321 0.465675 18.5283V11.554C0.477004 11.5628 0.487076 11.5703 0.498405 11.5779C3.44774 13.7865 7.66592 13.1425 9.94684 10.2937C10.575 9.50881 11.0584 8.61704 11.4221 7.68629C11.4838 7.52907 11.8426 6.24487 12.0427 5.45373H0.498405V0H19.3575Z" fill="#02E56A"/>
</svg>
