<svg width="111" height="48" viewBox="0 0 111 48" fill="none" xmlns="http://www.w3.org/2000/svg">
<g clip-path="url(#clip0_3050_26567)">
<path d="M86.5992 30.4435C86.4119 27.0219 83.5257 24.1496 79.5725 23.1015C78.6446 22.842 77.8851 22.6623 77.3762 22.5445C76.9319 22.4433 76.5256 22.3597 76.1433 22.2876C74.2496 21.9268 72.2141 21.8027 70.3887 21.1686C69.414 20.8306 68.4393 20.2635 68.0266 19.2862C67.4658 17.9545 67.9279 16.4343 69.1646 15.676C71.2064 14.4241 74.3622 14.5722 76.4964 15.5203C77.199 15.8317 77.7699 16.2229 78.2648 16.7165C78.5585 17.0229 78.818 17.4001 79.0218 17.8026C79.2142 18.1824 79.3598 18.5849 79.4358 18.9774L79.5396 18.9508L79.851 18.847L85.5701 16.9229L85.7524 16.871L85.9081 16.8191C85.5435 15.1811 84.7638 13.7772 83.6207 12.581C82.6586 11.5936 81.489 10.8126 80.0851 10.1885C79.7991 10.0581 79.513 9.95434 79.2016 9.85054C77.4332 9.20116 75.3534 8.88849 72.9875 8.88849C70.3874 8.88849 68.1772 9.27837 66.3316 10.0328C65.7595 10.267 65.2139 10.5265 64.7202 10.8126C63.7328 11.4101 62.9265 12.1126 62.3024 12.8924C62.029 13.2671 61.7961 13.6722 61.6037 14.1013C61.5885 14.1304 61.5745 14.1608 61.5619 14.1899C61.1821 15.0064 60.9745 15.8899 60.9745 16.8153C60.9745 16.8697 60.9745 16.9216 60.9771 16.9735C60.9771 17.0077 60.9796 17.0381 60.9796 17.0722C60.9796 21.3926 65.3518 23.4661 68.9671 24.2547C69.2608 24.3193 69.5545 24.3788 69.8494 24.437C70.9495 24.6522 72.0571 24.8294 73.1685 24.9737C75.4496 25.2712 78.9927 25.5282 79.5813 28.3574C79.6294 28.5903 79.6522 28.8295 79.6522 29.0675C79.6522 30.2144 79.0307 31.241 78.0458 31.9347C78.0091 31.9638 77.9724 31.9891 77.937 32.0131C77.5079 32.3169 77.0192 32.5435 76.5256 32.7018C75.5116 33.0132 74.342 33.1182 73.2761 33.0663C72.1584 33.0144 71.0925 32.7803 70.1558 32.3904C69.6874 32.1828 69.2456 31.9486 68.8557 31.6878C68.4659 31.4271 67.2443 30.5435 66.6721 28.9574C66.6202 28.827 66.5937 28.6979 66.5683 28.6194C66.5164 28.646 66.4645 28.646 66.438 28.6713C66.3911 28.6865 66.3342 28.7131 66.2797 28.7358C66.243 28.751 66.2101 28.765 66.1784 28.7751C66.0227 28.8536 65.8405 28.9055 65.6848 28.9827L60.1985 31.2967C60.458 32.4663 60.9264 33.5322 61.629 34.4942C62.3315 35.4563 63.2404 36.2879 64.3594 36.9905C65.0088 37.3804 65.7379 37.7449 66.543 38.031C67.1152 38.2386 67.7393 38.4209 68.3886 38.5766C69.9482 38.9412 71.69 39.1222 73.6141 39.1222C74.9584 39.1222 76.1977 39.0386 77.3344 38.8728C77.342 38.8728 77.3471 38.8703 77.3522 38.8703C82.5548 38.4488 86.6132 34.9942 86.6132 30.7954C86.6132 30.6764 86.6106 30.5587 86.603 30.4397L86.5992 30.4435Z" fill="white"/>
<path d="M58.863 23.983C58.8314 20.9411 58.363 18.2841 57.382 16.0119C56.4199 13.7245 55.0161 11.9561 53.1958 10.708C52.2376 10.051 51.1717 9.56743 50.0046 9.2573C48.9552 8.97628 47.8248 8.83704 46.6184 8.83704C44.9032 8.83704 43.369 9.17502 42.0689 9.8244C40.7436 10.4751 39.6777 11.4624 38.8714 12.7878C38.0688 14.0422 37.484 15.6094 37.1182 17.4461C37.1042 17.5132 37.0903 17.5816 37.0777 17.6499L36.2814 17.6056V9.6168H29.5635V48.0001H36.2814V30.5186H37.1182C37.484 32.3554 38.0688 33.9225 38.8714 35.177C39.6777 36.5023 40.7436 37.4897 42.0689 38.1403C43.369 38.7897 44.9032 39.1277 46.6184 39.1277C47.8248 39.1277 48.9552 38.9885 50.0046 38.7074C51.3844 38.3884 52.5971 37.8226 53.6376 37.0188C55.3541 35.6934 56.6541 33.8985 57.5377 31.663C58.4225 29.4274 58.8643 26.8793 58.8643 24.045C58.8643 24.0248 58.8643 24.0033 58.863 23.983ZM49.8425 28.6211C49.3223 29.9477 48.621 30.9617 47.7108 31.6895C46.8007 32.3908 45.6829 32.7554 44.3563 32.7554C43.9145 32.7554 43.4918 32.7098 43.0854 32.6225C42.8715 32.5756 42.6626 32.5174 42.4575 32.449C42.2727 32.3858 42.0917 32.3149 41.9132 32.2351C41.1588 31.8971 40.5094 31.4288 39.9625 30.8566C39.417 30.2857 38.9486 29.6616 38.5587 28.9338C38.1688 28.2312 37.8827 27.5033 37.7017 26.7489C37.6802 26.659 37.6587 26.5691 37.6397 26.4805C37.6258 26.4147 37.6119 26.3476 37.5992 26.2818C37.4802 25.702 37.4156 25.1463 37.4156 24.5919V23.5513C37.4156 22.9437 37.4764 22.3235 37.5992 21.6829C37.6106 21.6171 37.6245 21.5513 37.6397 21.4842C37.6878 21.2576 37.7422 21.0285 37.8055 20.7956C38.065 19.8335 38.4549 18.9234 39.0271 18.0917C39.5727 17.26 40.2752 16.5841 41.1335 16.0638C41.536 15.8195 41.9778 15.6385 42.4575 15.5157C43.0006 15.3764 43.5918 15.3106 44.2272 15.3106C45.5007 15.3106 46.6184 15.6739 47.5805 16.3765C48.5425 17.0778 49.2704 18.0917 49.7906 19.4183C50.297 20.6842 50.5818 22.2222 50.5957 23.983C50.597 24.0298 50.597 24.0767 50.597 24.1235C50.6223 25.7868 50.3628 27.2957 49.8425 28.6211Z" fill="white"/>
<path d="M26.3171 9.64123V38.3167H19.5992V30.4278H18.8524C17.9207 34.3216 16.2966 36.8938 13.9839 38.1534C13.3143 38.5205 12.5864 38.7762 11.8016 38.9217C11.28 39.0179 10.7332 39.066 10.1585 39.066C9.33189 39.066 8.55465 38.9825 7.82805 38.8129C7.82299 38.8129 7.81919 38.8129 7.81413 38.8103C5.60774 38.3812 3.85833 37.3141 2.57349 35.6217C0.85825 33.3342 0 29.8759 0 25.2226V9.59692H7.95464V24.234C7.95464 27.5822 8.5306 32.2013 12.7813 32.3266C14.7687 32.3849 16.6257 31.1304 17.5524 29.4202C18.9473 26.8467 19.3676 23.8378 19.3638 20.9479C19.3613 18.9605 19.3587 16.9743 19.3575 14.9895C19.3575 13.2603 19.3575 11.3704 19.3575 9.64123H26.3171Z" fill="white"/>
<path d="M110.715 0V18.8428H105.261V9.01702H104.211C104.123 9.38429 103.987 9.91507 103.804 10.5503C103.459 11.7451 103.279 12.3753 102.979 13.0683C102.34 14.5613 101.488 15.5612 101.126 15.9876C100.497 16.7247 99.79 17.3045 99.0033 17.7297C98.6143 17.9384 98.2002 18.1183 97.7634 18.2604C97.0081 18.5573 96.2075 18.756 95.3792 18.8428C95.0608 18.873 94.7373 18.8918 94.4062 18.8918C94.0751 18.8918 93.7542 18.873 93.4369 18.8428C92.8906 18.7849 92.3619 18.6831 91.8559 18.5371C91.8446 18.5346 91.8345 18.5321 91.8232 18.5283V11.554C91.8345 11.5628 91.8446 11.5703 91.8559 11.5779C94.8052 13.7865 99.0234 13.1425 101.304 10.2937C101.932 9.50881 102.416 8.61704 102.78 7.68629C102.841 7.52907 103.2 6.24487 103.4 5.45373H91.8559V0H110.715Z" fill="#02E56A"/>
</g>
<defs>
<clipPath id="clip0_3050_26567">
<rect width="110.715" height="48" fill="white"/>
</clipPath>
</defs>
</svg>
