<svg width="57" height="41" viewBox="0 0 57 41" fill="none" xmlns="http://www.w3.org/2000/svg">
<g id="Lyft_logo" clip-path="url(#clip0_3535_2507)">
<path id="logo_standard" fill-rule="evenodd" clip-rule="evenodd" d="M0.212891 1.64758H8.82304V24.5338C8.82304 28.1557 10.4958 30.3131 11.8186 31.2379C10.4182 32.4708 6.13888 33.5497 2.94889 30.9296C1.06818 29.3852 0.212891 26.8456 0.212891 24.4567V1.64758ZM54.0229 20.6586V18.2535H56.6489V9.81581H53.7651C52.658 4.74999 48.1043 0.953964 42.6584 0.953964C36.3847 0.953964 31.2991 5.99113 31.2991 12.2045V31.9091C33.0864 32.1579 35.2158 31.8782 37.0274 30.3903C38.9079 28.8456 39.7632 26.3063 39.7632 23.9174V23.1914H44.0634V14.7537H39.7632V12.2045H39.7735C39.7735 10.6266 41.065 9.34744 42.6584 9.34744C44.2515 9.34744 45.5482 10.6266 45.5482 12.2045V20.6586C45.5482 26.872 50.6393 31.9091 56.9127 31.9091V23.5157C55.3196 23.5157 54.0229 22.2365 54.0229 20.6586ZM21.4132 9.81581V22.1991C21.4132 22.9021 20.8243 23.472 20.0976 23.472C19.3709 23.472 18.782 22.9021 18.782 22.1991V9.81581H10.2624V24.3798C10.2624 26.9996 11.1595 30.3131 15.242 31.392C19.3288 32.472 21.6996 30.2362 21.6996 30.2362C21.4836 31.7091 20.083 32.788 17.8267 33.0192C16.1196 33.194 13.9364 32.634 12.8474 32.1716V39.8876C15.6224 40.6981 18.5574 40.9599 21.4298 40.4079C26.6426 39.4062 29.9325 35.091 29.9325 29.35V9.81581H21.4132Z" fill="#161519"/>
</g>
<defs>
<clipPath id="clip0_3535_2507">
<rect width="57" height="40" fill="white" transform="translate(0 0.699219)"/>
</clipPath>
</defs>
</svg>
