<svg width="122" height="37" viewBox="0 0 122 37" fill="none" xmlns="http://www.w3.org/2000/svg">
<g id="national-geographic 1">
<g id="national-geographic 1_2">
<path fill-rule="evenodd" clip-rule="evenodd" d="M0 0.699219H25.0153V36.6992H0V0.699219ZM3.60555 33.0751H21.3973V4.32474H3.60555V33.0751Z" fill="#161519"/>
<path fill-rule="evenodd" clip-rule="evenodd" d="M40.0845 16.8509C38.0519 13.9672 36.0361 11.1017 34.0229 7.8631H34.0084V16.8509H32.2979V4.31916H33.8466C35.8792 7.18262 37.8923 10.028 39.8866 13.2498H39.922V4.31916H41.6325V16.8509H40.0845ZM45.6976 11.8909C46.1939 10.2434 46.6937 8.72207 47.1401 6.788H47.1762C47.6746 8.72207 48.121 10.2441 48.584 11.8909H45.6976ZM46.5153 4.31916L42.2045 16.8509H44.0579L45.1422 13.4304H48.9054L49.8849 16.8509H52.2749L48.2987 4.31916H46.5153ZM54.2873 16.8509V6.00015H51.0066V4.31916H59.704V6.00015H56.4261V16.8509H54.2873ZM60.3975 4.31916H62.5216V16.8509H60.3975V4.31916ZM69.1163 15.2731C66.8859 15.2731 66.1022 12.8029 66.1022 10.4038C66.1022 8.09528 66.9928 5.89278 69.1163 5.89278C71.237 5.89278 72.1249 8.09528 72.1249 10.4038C72.1249 12.8029 71.3425 15.2731 69.1163 15.2731ZM69.1163 17.0629C72.3768 17.0629 74.408 14.1464 74.408 10.4031C74.408 6.89537 72.1658 4.10302 69.1163 4.10302C66.0696 4.10302 63.8177 6.89537 63.8177 10.4031C63.8184 14.1471 65.853 17.0629 69.1163 17.0629ZM83.4989 16.8509C81.465 13.9672 79.4505 11.1017 77.4388 7.8631H77.4214V16.8509H75.7131V4.31916H77.2625C79.2922 7.18262 81.3067 10.028 83.2997 13.2498H83.3365V4.31916H85.049V16.8509H83.4989ZM89.112 11.8909C89.6125 10.2434 90.1089 8.72207 90.5573 6.788H90.5927C91.0918 8.72207 91.5361 10.2441 91.9984 11.8909H89.112ZM89.9339 4.31916L85.621 16.8509H87.4759L88.5602 13.4304H92.3226L93.3028 16.8509H95.69L91.7145 4.31916H89.9339ZM96.3113 4.31916H98.4362V15.1671H102.658V16.8509H96.3113V4.31916ZM40.317 27.3328V32.5048C39.1751 32.9545 37.9804 33.2745 36.7719 33.2745C33.099 33.2745 30.7825 30.4103 30.7825 26.7221C30.7825 23.3015 33.099 20.3133 36.842 20.3133C37.9985 20.3133 39.1578 20.7448 39.8714 21.281L39.1758 22.7668C38.6066 22.4119 37.7132 22.1072 36.8947 22.1072C34.6151 22.1072 33.0629 23.9158 33.0629 26.7625C33.0629 29.7319 34.8462 31.4848 36.6823 31.4848C37.2502 31.4848 37.734 31.4164 38.1817 31.1815V27.3328H40.317ZM47.9669 22.2146H44.3981V25.6498H47.8912V27.3328H44.3981V31.376H48.6041V33.0611H42.2579V20.5287H47.9669V22.2146ZM54.5608 31.484C52.3304 31.484 51.5453 29.0159 51.5453 26.6154C51.5453 24.3083 52.4366 22.1065 54.5608 22.1065C56.6801 22.1065 57.5694 24.3083 57.5694 26.6154C57.5694 29.0159 56.7836 31.484 54.5608 31.484ZM54.5608 33.2745C57.8207 33.2745 59.8511 30.3567 59.8511 26.6147C59.8511 23.107 57.6069 20.3126 54.5608 20.3126C51.5092 20.3126 49.2663 23.107 49.2663 26.6147C49.2657 30.3574 51.294 33.2745 54.5608 33.2745ZM70.1159 27.3328V32.5048C68.974 32.9545 67.7828 33.2745 66.5694 33.2745C62.8993 33.2745 60.5807 30.4103 60.5807 26.7221C60.5807 23.3015 62.8993 20.3133 66.6423 20.3133C67.8015 20.3133 68.958 20.7448 69.6696 21.281L68.974 22.7668C68.4034 22.4119 67.5176 22.1072 66.6964 22.1072C64.4119 22.1072 62.8611 23.9158 62.8611 26.7625C62.8611 29.7319 64.6451 31.4848 66.4812 31.4848C67.0532 31.4848 67.5322 31.4164 67.9792 31.1815V27.3328H70.1159ZM74.2199 22.2146H75.1619C76.4239 22.2146 77.1389 22.9453 77.1389 24.2358C77.1389 25.9168 76.1247 26.6677 75.1077 26.7214C74.8932 26.743 74.3934 26.7611 74.2199 26.7765V22.2146ZM79.6365 33.0611L77.1188 27.8718C78.4911 27.1397 79.2797 25.6498 79.2797 24.1459C79.2797 21.7091 77.7977 20.5287 75.409 20.5287H72.0763V33.0611H74.2199V28.3354H75.1813L77.1917 33.0611H79.6365ZM83.1643 28.1019C83.6621 26.4522 84.1612 24.9323 84.6082 22.9989H84.6436C85.1427 24.9323 85.587 26.4522 86.0507 28.1019H83.1643ZM83.9828 20.5287L79.6685 33.0611H81.5219L82.6104 29.6406H86.3728L87.3474 33.0611H89.7403L85.7633 20.5287H83.9828ZM93.7491 20.5287H90.4164V33.0611H92.5558V28.3354H93.5159C96.0663 28.3354 97.6185 26.2584 97.6185 24.1459C97.6185 21.7084 96.1378 20.5287 93.7491 20.5287ZM93.4492 26.7221C93.2271 26.7423 92.7051 26.759 92.5558 26.7737V22.2146H93.5159C94.7633 22.2146 95.479 22.9453 95.479 24.2358C95.479 25.9168 94.4662 26.6684 93.4492 26.7221ZM107.526 33.0611H105.388V27.0302H100.947V33.0611H98.8319V20.5287H100.947V25.3444H105.388V20.5643H107.526V33.0611ZM109.574 20.5287H111.7V33.0611H109.574V20.5287ZM121.32 22.8037C120.803 22.4809 119.951 22.1065 119.127 22.1065C116.949 22.1065 115.369 23.9151 115.369 26.7618C115.369 29.7313 117.114 31.484 119.182 31.484C119.94 31.4805 120.68 31.263 121.32 30.8566L121.91 32.4155C121.265 32.8624 120.128 33.2745 119.096 33.2745C115.423 33.2745 113.104 30.4103 113.104 26.7221C113.104 23.3015 115.403 20.3133 119.127 20.3133C120.235 20.3133 121.265 20.7818 122 21.281L121.32 22.8037Z" fill="#161519"/>
</g>
</g>
</svg>
