<svg width="23" height="18" viewBox="0 0 23 18" fill="none" xmlns="http://www.w3.org/2000/svg">
<path id="Path-3" fillRule="evenodd" clipRule="evenodd" d="M2.05312 7.74889C7.88351 5.20865 11.7714 3.53397 13.7166 2.7249C19.2709 0.414748 20.425 0.0134203 21.1772 0.000139045C21.3427 -0.00275158 21.7126 0.0382644 21.9522 0.232718C22.3077 0.521155 22.3097 1.14725 22.2702 1.56162C21.9692 4.72412 20.6669 12.3986 20.0043 15.9406C19.7239 17.4394 19.1719 17.9419 18.6375 17.9911C17.4761 18.098 16.5941 17.2235 15.4692 16.4862C13.709 15.3322 12.7145 14.614 11.0059 13.488C9.03125 12.1868 10.3113 11.4716 11.4366 10.3028C11.7312 9.99694 16.8484 5.34233 16.9475 4.92006C16.9599 4.86725 16.9714 4.67037 16.8545 4.56647C16.7375 4.46256 16.5649 4.49803 16.4404 4.52631C16.2638 4.56639 13.4518 6.42506 8.00429 10.1022C7.20609 10.6504 6.48312 10.9174 5.83539 10.9034C5.12125 10.888 3.74765 10.4997 2.72648 10.1677C1.47398 9.76061 0.478514 9.54529 0.565233 8.85389C0.610389 8.49365 1.10633 8.12537 2.05312 7.74889Z" fill="#66BFFF"/>
</svg>
