<svg width="118" height="31" viewBox="0 0 118 31" fill="none" xmlns="http://www.w3.org/2000/svg">
<g id="Slack_Technologies_Logo" clip-path="url(#clip0_3535_2521)">
<g id="Vector">
<path d="M37.7933 24.2032L39.2624 20.8016C40.85 21.9827 42.9588 22.5969 45.0439 22.5969C46.5841 22.5969 47.5556 22.0063 47.5556 21.1087C47.5319 18.6047 38.3383 20.5654 38.2672 14.2819C38.2435 11.0929 41.0869 8.63622 45.115 8.63622C47.5082 8.63622 49.9014 9.22678 51.6074 10.5732L50.2331 14.0457C48.6692 13.0535 46.7263 12.3449 44.8781 12.3449C43.6222 12.3449 42.7929 12.9354 42.7929 13.6913C42.8166 16.148 52.0813 14.8016 52.1761 20.8016C52.1761 24.0614 49.4038 26.3528 45.4231 26.3528C42.5086 26.3528 39.8311 25.6677 37.7933 24.2032ZM94.1632 19.5732C93.4287 20.8488 92.0544 21.7228 90.4668 21.7228C88.121 21.7228 86.2255 19.8331 86.2255 17.4945C86.2255 15.1559 88.121 13.2661 90.4668 13.2661C92.0544 13.2661 93.4287 14.1402 94.1632 15.4158L98.215 13.1717C96.6986 10.4787 93.7841 8.63622 90.4668 8.63622C85.562 8.63622 81.5813 12.6047 81.5813 17.4945C81.5813 22.3843 85.562 26.3528 90.4668 26.3528C93.8078 26.3528 96.6986 24.5339 98.215 21.8173L94.1632 19.5732ZM54.2138 1.28977H59.2845V26.0221H54.2138V1.28977ZM100.205 1.28977V26.0221H105.276V18.6047L111.295 26.0221H117.787L110.133 17.211L117.218 8.99056H111.01L105.276 15.8173V1.28977H100.205ZM74.3544 19.6205C73.6198 20.8252 72.1034 21.7228 70.3974 21.7228C68.0516 21.7228 66.156 19.8331 66.156 17.4945C66.156 15.1559 68.0516 13.2661 70.3974 13.2661C72.1034 13.2661 73.6198 14.211 74.3544 15.4394V19.6205ZM74.3544 8.99056V10.9984C73.5251 9.60473 71.4636 8.63622 69.3074 8.63622C64.8528 8.63622 61.3459 12.5575 61.3459 17.4709C61.3459 22.3843 64.8528 26.3528 69.3074 26.3528C71.4636 26.3528 73.5251 25.3843 74.3544 23.9906V25.9984H79.4251V8.99056H74.3544Z" fill="#161519"/>
<path d="M6.44538 19.5969C6.44538 21.3213 5.04739 22.715 3.31767 22.715C1.58795 22.715 0.189962 21.3213 0.189962 19.5969C0.189962 17.8724 1.58795 16.4787 3.31767 16.4787H6.44538V19.5969ZM8.00924 19.5969C8.00924 17.8724 9.40723 16.4787 11.137 16.4787C12.8667 16.4787 14.2647 17.8724 14.2647 19.5969V27.3921C14.2647 29.1165 12.8667 30.5102 11.137 30.5102C9.40723 30.5102 8.00924 29.1165 8.00924 27.3921V19.5969Z" fill="#161519"/>
<path d="M11.1367 7.07717C9.40698 7.07717 8.00899 5.68347 8.00899 3.95906C8.00899 2.23465 9.40698 0.840947 11.1367 0.840947C12.8664 0.840947 14.2644 2.23465 14.2644 3.95906V7.07717H11.1367ZM11.1367 8.65985C12.8664 8.65985 14.2644 10.0535 14.2644 11.778C14.2644 13.5024 12.8664 14.8961 11.1367 14.8961H3.29373C1.56401 14.8961 0.166016 13.5024 0.166016 11.778C0.166016 10.0535 1.56401 8.65985 3.29373 8.65985H11.1367Z" fill="#161519"/>
<path d="M23.6712 11.778C23.6712 10.0535 25.0692 8.65985 26.7989 8.65985C28.5287 8.65985 29.9267 10.0535 29.9267 11.778C29.9267 13.5024 28.5287 14.8961 26.7989 14.8961H23.6712V11.778ZM22.1074 11.778C22.1074 13.5024 20.7094 14.8961 18.9797 14.8961C17.2499 14.8961 15.852 13.5024 15.852 11.778V3.95906C15.852 2.23465 17.2499 0.840947 18.9797 0.840947C20.7094 0.840947 22.1074 2.23465 22.1074 3.95906V11.778Z" fill="#161519"/>
<path d="M18.9797 24.274C20.7094 24.274 22.1074 25.6677 22.1074 27.3921C22.1074 29.1165 20.7094 30.5102 18.9797 30.5102C17.2499 30.5102 15.852 29.1165 15.852 27.3921V24.274H18.9797ZM18.9797 22.715C17.2499 22.715 15.852 21.3213 15.852 19.5969C15.852 17.8724 17.2499 16.4787 18.9797 16.4787H26.8226C28.5524 16.4787 29.9503 17.8724 29.9503 19.5969C29.9503 21.3213 28.5524 22.715 26.8226 22.715H18.9797Z" fill="#161519"/>
</g>
</g>
<defs>
<clipPath id="clip0_3535_2521">
<rect width="118" height="30" fill="white" transform="translate(0 0.699219)"/>
</clipPath>
</defs>
</svg>
