<svg width="127" height="39" viewBox="0 0 127 39" fill="none" xmlns="http://www.w3.org/2000/svg">
<g id="Spotify_logo_with_text 1" clip-path="url(#clip0_3535_2517)">
<path id="Vector" d="M19.0823 0.761871C8.57496 0.761871 0.0566406 9.24243 0.0566406 19.7035C0.0566406 30.165 8.57496 38.6449 19.0823 38.6449C29.5908 38.6449 38.1082 30.165 38.1082 19.7035C38.1082 9.24311 29.5908 0.762776 19.0821 0.762776L19.0823 0.761871ZM27.8074 28.0812C27.4666 28.6376 26.735 28.814 26.1762 28.4725C21.7091 25.7559 16.0857 25.1407 9.46305 26.6471C8.82487 26.7919 8.18873 26.3938 8.04333 25.7582C7.89724 25.1226 8.29551 24.4892 8.93528 24.3445C16.1827 22.696 22.3993 23.4058 27.4144 26.4571C27.9732 26.7987 28.1504 27.5247 27.8074 28.0812ZM30.1361 22.9236C29.7067 23.6184 28.7934 23.8378 28.0959 23.4103C22.9818 20.2807 15.1862 19.3744 9.13725 21.2025C8.35276 21.4384 7.5242 20.9982 7.2861 20.2185C7.04982 19.4375 7.49216 18.6142 8.27529 18.3767C15.1849 16.2894 23.7747 17.3005 29.6476 20.8935C30.3451 21.321 30.5655 22.2303 30.1361 22.9238V22.9236ZM30.336 17.5529C24.2041 13.9268 14.0873 13.5934 8.23281 15.3625C7.29269 15.6463 6.2985 15.118 6.0136 14.182C5.7287 13.2455 6.25897 12.2564 7.19977 11.9719C13.9203 9.94068 25.0925 10.3331 32.1522 14.5057C32.9996 15.0053 33.2768 16.0926 32.7747 16.9334C32.2749 17.7752 31.1798 18.0528 30.3369 17.5529H30.336ZM51.8192 18.2477C48.5341 17.4678 47.9502 16.9205 47.9502 15.7703C47.9502 14.6837 48.9771 13.9524 50.5061 13.9524C51.9874 13.9524 53.455 14.5077 54.9954 15.6509C55.0408 15.6855 55.0999 15.6993 55.1567 15.6902C55.2158 15.6816 55.2657 15.6502 55.2998 15.6029L56.9038 13.3519C56.9697 13.2591 56.9515 13.1313 56.8629 13.0605C55.0295 11.5964 52.9666 10.8846 50.5538 10.8846C47.0073 10.8846 44.5287 13.0037 44.5287 16.0358C44.5287 19.2873 46.6665 20.4386 50.3607 21.3273C53.5027 22.0482 54.0344 22.6521 54.0344 23.7315C54.0344 24.9281 52.962 25.6722 51.2354 25.6722C49.3179 25.6722 47.7525 25.0276 46.0032 23.5212C45.96 23.4827 45.9009 23.4669 45.8464 23.4691C45.7873 23.4737 45.7351 23.5008 45.6987 23.5438L43.8994 25.6745C43.8244 25.765 43.8335 25.8962 43.9198 25.9731C45.9554 27.7826 48.4591 28.7371 51.1627 28.7371C54.984 28.7371 57.4536 26.6584 57.4536 23.4397C57.4604 20.7239 55.8269 19.2197 51.8261 18.2507L51.8192 18.2477ZM66.1005 15.0223C64.4443 15.0223 63.0857 15.6719 61.9633 17.003V15.5047C61.9633 15.3864 61.8679 15.2901 61.7498 15.2901H58.8077C58.6895 15.2901 58.5941 15.3864 58.5941 15.5047V32.1526C58.5941 32.2702 58.6895 32.3675 58.8077 32.3675H61.7498C61.8679 32.3675 61.9633 32.2702 61.9633 32.1526V26.8982C63.0857 28.149 64.4443 28.762 66.1005 28.762C69.179 28.762 72.296 26.4028 72.296 21.8928C72.3006 17.3819 69.1835 15.022 66.1028 15.022L66.1005 15.0223ZM68.8745 21.8928C68.8745 24.1884 67.4546 25.7921 65.4189 25.7921C63.4083 25.7921 61.8907 24.116 61.8907 21.8928C61.8907 19.6694 63.4083 17.9937 65.4189 17.9937C67.4205 17.9935 68.8745 19.6329 68.8745 21.8926V21.8928ZM80.2818 15.0223C76.3173 15.0223 73.2116 18.0614 73.2116 21.9419C73.2116 25.7808 76.2969 28.7869 80.2341 28.7869C84.2122 28.7869 87.327 25.7582 87.327 21.8928C87.327 18.0406 84.2327 15.0227 80.2818 15.0227V15.0223ZM80.2818 25.8147C78.1735 25.8147 76.5831 24.1273 76.5831 21.8917C76.5831 19.6458 78.1189 18.0161 80.2341 18.0161C82.3561 18.0161 83.9555 19.7028 83.9555 21.9408C83.9555 24.1862 82.4106 25.8147 80.2818 25.8147ZM95.7922 15.2901H92.5547V11.9954C92.5547 11.8773 92.4593 11.781 92.3411 11.781H89.399C89.2808 11.781 89.1832 11.8773 89.1832 11.9954V15.2901H87.77C87.6519 15.2901 87.5565 15.3864 87.5565 15.5047V18.0216C87.5565 18.1396 87.6519 18.2362 87.77 18.2362H89.1832V24.7494C89.1832 27.38 90.4986 28.7145 93.0954 28.7145C94.1496 28.7145 95.0242 28.4973 95.849 28.0314C95.9171 27.9952 95.958 27.9228 95.958 27.8459V25.4483C95.958 25.3759 95.9194 25.3058 95.8558 25.2673C95.7922 25.2266 95.7126 25.2244 95.6468 25.2583C95.081 25.541 94.5335 25.6722 93.9201 25.6722C92.9772 25.6722 92.5547 25.2447 92.5547 24.2902V18.2373H95.7922C95.9103 18.2373 96.0057 18.141 96.0057 18.0227V15.5061C96.0103 15.3878 95.9148 15.2914 95.7944 15.2914L95.7922 15.2901ZM107.07 15.303V14.8983C107.07 13.7079 107.529 13.177 108.556 13.177C109.169 13.177 109.662 13.2982 110.214 13.4815C110.282 13.5027 110.353 13.4921 110.407 13.4516C110.464 13.4111 110.496 13.3462 110.496 13.2774V10.8097C110.496 10.7154 110.437 10.6319 110.344 10.6041C109.762 10.4315 109.017 10.2544 107.899 10.2544C105.184 10.2544 103.746 11.7776 103.746 14.6577V15.2774H102.333C102.215 15.2774 102.117 15.3738 102.117 15.4918V18.0216C102.117 18.1396 102.215 18.2362 102.333 18.2362H103.746V28.2802C103.746 28.4001 103.844 28.4951 103.962 28.4951H106.902C107.022 28.4951 107.118 28.4001 107.118 28.2802V18.2369H109.864L114.072 28.2802C113.595 29.3342 113.125 29.5446 112.484 29.5446C111.966 29.5446 111.418 29.3908 110.862 29.0854C110.81 29.0583 110.746 29.0538 110.691 29.0696C110.635 29.09 110.587 29.1307 110.564 29.185L109.567 31.3632C109.519 31.4672 109.56 31.5871 109.66 31.6414C110.7 32.2023 111.639 32.4421 112.8 32.4421C114.972 32.4421 116.173 31.4333 117.23 28.7235L122.333 15.5961C122.36 15.5301 122.351 15.4554 122.31 15.3968C122.271 15.3387 122.205 15.3037 122.135 15.3037H119.072C118.979 15.3037 118.898 15.3618 118.868 15.4475L115.73 24.3671L112.295 15.4416C112.264 15.3586 112.184 15.3037 112.095 15.3037H107.07V15.303ZM100.531 15.2901H97.5892C97.4711 15.2901 97.3734 15.3864 97.3734 15.5047V28.2802C97.3734 28.4001 97.4711 28.4951 97.5892 28.4951H100.531C100.65 28.4951 100.747 28.4001 100.747 28.2802V15.5056C100.747 15.3873 100.652 15.291 100.531 15.291V15.2901ZM99.0773 9.47269C97.9118 9.47269 96.9667 10.4118 96.9667 11.572C96.9667 12.7328 97.9118 13.673 99.0773 13.673C100.243 13.673 101.186 12.7328 101.186 11.572C101.186 10.4121 100.241 9.47269 99.0773 9.47269ZM124.845 19.3979C123.682 19.3979 122.776 18.4672 122.776 17.3369C122.776 16.2066 123.694 15.2652 124.857 15.2652C126.02 15.2652 126.926 16.1957 126.926 17.3251C126.926 18.4554 126.009 19.3979 124.845 19.3979ZM124.857 15.4701C123.796 15.4701 122.994 16.3093 122.994 17.3369C122.994 18.364 123.791 19.1919 124.845 19.1919C125.906 19.1919 126.708 18.3534 126.708 17.3251C126.708 16.298 125.911 15.4701 124.857 15.4701ZM125.316 17.5371L125.902 18.3532H125.407L124.879 17.6045H124.427V18.3532H124.014V16.1899H124.982C125.488 16.1899 125.82 16.447 125.82 16.88C125.822 17.2346 125.616 17.4513 125.318 17.5371H125.316ZM124.966 16.561H124.427V17.2453H124.966C125.234 17.2453 125.395 17.1143 125.395 16.9028C125.395 16.6802 125.234 16.561 124.966 16.561Z" fill="#161519"/>
</g>
<defs>
<clipPath id="clip0_3535_2517">
<rect width="127" height="38" fill="white" transform="translate(0 0.699219)"/>
</clipPath>
</defs>
</svg>
