<svg width="81" height="81" viewBox="0 0 81 81" fill="none" xmlns="http://www.w3.org/2000/svg">
<circle cx="40.5057" cy="40.5057" r="38.5057" fill="#002013" stroke="white" stroke-width="3.9779"/>
<path d="M48.5765 26.4167L56.0447 49.0203L49.5017 51.1821L45.6074 39.3952L44.348 39.8113C44.3879 40.2868 44.4352 40.9774 44.468 41.8117C44.5278 43.3817 44.5616 44.209 44.4754 45.1596C44.3015 47.2035 43.6756 48.7408 43.4097 49.396C42.9483 50.5291 42.3295 51.5051 41.5542 52.3269C41.1704 52.7315 40.7448 53.1114 40.2772 53.455C39.4888 54.1104 38.6072 54.6661 37.648 55.0985C37.2779 55.261 36.8973 55.4118 36.5002 55.543C36.1031 55.6742 35.7105 55.7788 35.318 55.8683C34.6398 56.0155 33.9652 56.1028 33.3003 56.1283C33.2857 56.1298 33.2726 56.1308 33.2576 56.1307L30.4933 47.7643C30.5104 47.7704 30.5255 47.7755 30.5421 47.78C34.9554 49.2606 39.7603 46.8162 41.3673 42.4947C41.8098 41.3042 42.0362 40.0429 42.1037 38.7822C42.1154 38.5691 42.0367 36.8864 41.9633 35.8581L28.1148 40.4336L25.9533 33.8913L48.5765 26.4167Z" fill="#02E56A"/>
</svg>
