<svg width="180" height="181" viewBox="0 0 180 181" fill="none" xmlns="http://www.w3.org/2000/svg">
<g id="Frame">
<g id="Group 47223">
<path id="Vector" d="M64.4434 98.2431V27.8911" stroke="#666BFF" stroke-miterlimit="10"/>
<path id="Vector_2" d="M89.9493 161.926L22.4511 122.956L10 130.143L89.9493 176.301L169.899 130.143L157.447 122.956L89.9493 161.926Z" fill="#0F1B0E"/>
<path id="Vector_3" d="M89.9493 69.6094L10 115.767L89.9493 161.925L169.899 115.767L89.9493 69.6094Z" fill="url(#paint0_linear_3535_3676)"/>
<path id="Vector_4" d="M79.9295 88.3076L43.6543 109.246L101.449 142.615L137.714 121.676L79.9295 88.3076Z" fill="#BCC0E5"/>
<path id="Vector_5" d="M89.9492 161.925L169.899 115.767" stroke="#5D688C" stroke-linecap="round" stroke-linejoin="round"/>
<path id="Vector_6" d="M10 115.767L89.9493 161.925" stroke="#5D688C" stroke-linecap="round" stroke-linejoin="round"/>
<g id="Group">
<path id="Vector_7" d="M89.9488 111.604C90.3575 111.604 90.6887 111.273 90.6887 110.864C90.6887 110.455 90.3575 110.124 89.9488 110.124C89.5402 110.124 89.209 110.455 89.209 110.864C89.209 111.273 89.5402 111.604 89.9488 111.604Z" fill="#02E56A"/>
<path id="Vector_8" d="M98.4469 116.508C98.8555 116.508 99.1868 116.176 99.1868 115.768C99.1868 115.359 98.8555 115.028 98.4469 115.028C98.0383 115.028 97.707 115.359 97.707 115.768C97.707 116.176 98.0383 116.508 98.4469 116.508Z" fill="#02E56A"/>
<path id="Vector_9" d="M89.9488 121.412C90.3575 121.412 90.6887 121.08 90.6887 120.672C90.6887 120.263 90.3575 119.932 89.9488 119.932C89.5402 119.932 89.209 120.263 89.209 120.672C89.209 121.08 89.5402 121.412 89.9488 121.412Z" fill="#02E56A"/>
<path id="Vector_10" d="M106.945 121.412C107.354 121.412 107.685 121.08 107.685 120.672C107.685 120.263 107.354 119.932 106.945 119.932C106.536 119.932 106.205 120.263 106.205 120.672C106.205 121.08 106.536 121.412 106.945 121.412Z" fill="#02E56A"/>
<path id="Vector_11" d="M98.4469 126.317C98.8555 126.317 99.1868 125.985 99.1868 125.577C99.1868 125.168 98.8555 124.837 98.4469 124.837C98.0383 124.837 97.707 125.168 97.707 125.577C97.707 125.985 98.0383 126.317 98.4469 126.317Z" fill="#02E56A"/>
<path id="Vector_12" d="M89.9488 131.231C90.3575 131.231 90.6887 130.9 90.6887 130.491C90.6887 130.082 90.3575 129.751 89.9488 129.751C89.5402 129.751 89.209 130.082 89.209 130.491C89.209 130.9 89.5402 131.231 89.9488 131.231Z" fill="#02E56A"/>
<path id="Vector_13" d="M115.443 126.317C115.852 126.317 116.183 125.985 116.183 125.577C116.183 125.168 115.852 124.837 115.443 124.837C115.034 124.837 114.703 125.168 114.703 125.577C114.703 125.985 115.034 126.317 115.443 126.317Z" fill="#02E56A"/>
<path id="Vector_14" d="M106.945 131.231C107.354 131.231 107.685 130.9 107.685 130.491C107.685 130.082 107.354 129.751 106.945 129.751C106.536 129.751 106.205 130.082 106.205 130.491C106.205 130.9 106.536 131.231 106.945 131.231Z" fill="#02E56A"/>
<path id="Vector_15" d="M98.4469 136.136C98.8555 136.136 99.1868 135.805 99.1868 135.396C99.1868 134.988 98.8555 134.656 98.4469 134.656C98.0383 134.656 97.707 134.988 97.707 135.396C97.707 135.805 98.0383 136.136 98.4469 136.136Z" fill="#02E56A"/>
<path id="Vector_16" d="M89.9488 141.04C90.3575 141.04 90.6887 140.709 90.6887 140.3C90.6887 139.892 90.3575 139.56 89.9488 139.56C89.5402 139.56 89.209 139.892 89.209 140.3C89.209 140.709 89.5402 141.04 89.9488 141.04Z" fill="#02E56A"/>
<path id="Vector_17" d="M115.443 136.136C115.852 136.136 116.183 135.805 116.183 135.396C116.183 134.988 115.852 134.656 115.443 134.656C115.034 134.656 114.703 134.988 114.703 135.396C114.703 135.805 115.034 136.136 115.443 136.136Z" fill="#02E56A"/>
<path id="Vector_18" d="M106.945 141.04C107.354 141.04 107.685 140.709 107.685 140.3C107.685 139.892 107.354 139.56 106.945 139.56C106.536 139.56 106.205 139.892 106.205 140.3C106.205 140.709 106.536 141.04 106.945 141.04Z" fill="#02E56A"/>
<path id="Vector_19" d="M123.941 131.231C124.35 131.231 124.681 130.9 124.681 130.491C124.681 130.082 124.35 129.751 123.941 129.751C123.532 129.751 123.201 130.082 123.201 130.491C123.201 130.9 123.532 131.231 123.941 131.231Z" fill="#02E56A"/>
<path id="Vector_20" d="M98.4469 145.955C98.8555 145.955 99.1868 145.624 99.1868 145.215C99.1868 144.807 98.8555 144.476 98.4469 144.476C98.0383 144.476 97.707 144.807 97.707 145.215C97.707 145.624 98.0383 145.955 98.4469 145.955Z" fill="#02E56A"/>
<path id="Vector_21" d="M89.9488 150.859C90.3575 150.859 90.6887 150.528 90.6887 150.119C90.6887 149.711 90.3575 149.379 89.9488 149.379C89.5402 149.379 89.209 149.711 89.209 150.119C89.209 150.528 89.5402 150.859 89.9488 150.859Z" fill="#02E56A"/>
<path id="Vector_22" d="M81.4508 116.508C81.8594 116.508 82.1907 116.176 82.1907 115.768C82.1907 115.359 81.8594 115.028 81.4508 115.028C81.0422 115.028 80.7109 115.359 80.7109 115.768C80.7109 116.176 81.0422 116.508 81.4508 116.508Z" fill="#02E56A"/>
<path id="Vector_23" d="M106.945 101.784C107.354 101.784 107.685 101.453 107.685 101.045C107.685 100.636 107.354 100.305 106.945 100.305C106.536 100.305 106.205 100.636 106.205 101.045C106.205 101.453 106.536 101.784 106.945 101.784Z" fill="#02E56A"/>
<path id="Vector_24" d="M115.443 106.689C115.852 106.689 116.183 106.357 116.183 105.949C116.183 105.54 115.852 105.209 115.443 105.209C115.034 105.209 114.703 105.54 114.703 105.949C114.703 106.357 115.034 106.689 115.443 106.689Z" fill="#02E56A"/>
<path id="Vector_25" d="M106.945 111.604C107.354 111.604 107.685 111.273 107.685 110.864C107.685 110.455 107.354 110.124 106.945 110.124C106.536 110.124 106.205 110.455 106.205 110.864C106.205 111.273 106.536 111.604 106.945 111.604Z" fill="#02E56A"/>
<path id="Vector_26" d="M123.941 111.604C124.35 111.604 124.681 111.273 124.681 110.864C124.681 110.455 124.35 110.124 123.941 110.124C123.532 110.124 123.201 110.455 123.201 110.864C123.201 111.273 123.532 111.604 123.941 111.604Z" fill="#02E56A"/>
<path id="Vector_27" d="M115.443 116.508C115.852 116.508 116.183 116.176 116.183 115.768C116.183 115.359 115.852 115.028 115.443 115.028C115.034 115.028 114.703 115.359 114.703 115.768C114.703 116.176 115.034 116.508 115.443 116.508Z" fill="#02E56A"/>
<path id="Vector_28" d="M132.451 116.508C132.859 116.508 133.191 116.176 133.191 115.768C133.191 115.359 132.859 115.028 132.451 115.028C132.042 115.028 131.711 115.359 131.711 115.768C131.711 116.176 132.042 116.508 132.451 116.508Z" fill="#02E56A"/>
<path id="Vector_29" d="M123.941 121.412C124.35 121.412 124.681 121.08 124.681 120.672C124.681 120.263 124.35 119.932 123.941 119.932C123.532 119.932 123.201 120.263 123.201 120.672C123.201 121.08 123.532 121.412 123.941 121.412Z" fill="#02E56A"/>
<path id="Vector_30" d="M132.451 126.317C132.859 126.317 133.191 125.985 133.191 125.577C133.191 125.168 132.859 124.837 132.451 124.837C132.042 124.837 131.711 125.168 131.711 125.577C131.711 125.985 132.042 126.317 132.451 126.317Z" fill="#02E56A"/>
<path id="Vector_31" d="M140.949 121.412C141.357 121.412 141.689 121.08 141.689 120.672C141.689 120.263 141.357 119.932 140.949 119.932C140.54 119.932 140.209 120.263 140.209 120.672C140.209 121.08 140.54 121.412 140.949 121.412Z" fill="#02E56A"/>
<path id="Vector_32" d="M98.4469 106.689C98.8555 106.689 99.1868 106.357 99.1868 105.949C99.1868 105.54 98.8555 105.209 98.4469 105.209C98.0383 105.209 97.707 105.54 97.707 105.949C97.707 106.357 98.0383 106.689 98.4469 106.689Z" fill="#02E56A"/>
<path id="Vector_33" d="M123.941 101.784C124.35 101.784 124.681 101.453 124.681 101.045C124.681 100.636 124.35 100.305 123.941 100.305C123.532 100.305 123.201 100.636 123.201 101.045C123.201 101.453 123.532 101.784 123.941 101.784Z" fill="#02E56A"/>
<path id="Vector_34" d="M132.451 106.689C132.859 106.689 133.191 106.357 133.191 105.949C133.191 105.54 132.859 105.209 132.451 105.209C132.042 105.209 131.711 105.54 131.711 105.949C131.711 106.357 132.042 106.689 132.451 106.689Z" fill="#02E56A"/>
<path id="Vector_35" d="M140.949 111.604C141.357 111.604 141.689 111.273 141.689 110.864C141.689 110.455 141.357 110.124 140.949 110.124C140.54 110.124 140.209 110.455 140.209 110.864C140.209 111.273 140.54 111.604 140.949 111.604Z" fill="#02E56A"/>
<path id="Vector_36" d="M149.447 116.508C149.856 116.508 150.187 116.176 150.187 115.768C150.187 115.359 149.856 115.028 149.447 115.028C149.038 115.028 148.707 115.359 148.707 115.768C148.707 116.176 149.038 116.508 149.447 116.508Z" fill="#02E56A"/>
<path id="Vector_37" d="M115.443 96.8794C115.852 96.8794 116.183 96.5482 116.183 96.1396C116.183 95.7309 115.852 95.3997 115.443 95.3997C115.034 95.3997 114.703 95.7309 114.703 96.1396C114.703 96.5482 115.034 96.8794 115.443 96.8794Z" fill="#02E56A"/>
<path id="Vector_38" d="M72.9528 121.412C73.3614 121.412 73.6926 121.08 73.6926 120.672C73.6926 120.263 73.3614 119.932 72.9528 119.932C72.5442 119.932 72.2129 120.263 72.2129 120.672C72.2129 121.08 72.5442 121.412 72.9528 121.412Z" fill="#02E56A"/>
<path id="Vector_39" d="M81.4508 126.317C81.8594 126.317 82.1907 125.985 82.1907 125.577C82.1907 125.168 81.8594 124.837 81.4508 124.837C81.0422 124.837 80.7109 125.168 80.7109 125.577C80.7109 125.985 81.0422 126.317 81.4508 126.317Z" fill="#02E56A"/>
<path id="Vector_40" d="M64.4449 126.317C64.8536 126.317 65.1848 125.985 65.1848 125.577C65.1848 125.168 64.8536 124.837 64.4449 124.837C64.0363 124.837 63.7051 125.168 63.7051 125.577C63.7051 125.985 64.0363 126.317 64.4449 126.317Z" fill="#02E56A"/>
<path id="Vector_41" d="M72.9528 131.231C73.3614 131.231 73.6926 130.9 73.6926 130.491C73.6926 130.082 73.3614 129.751 72.9528 129.751C72.5442 129.751 72.2129 130.082 72.2129 130.491C72.2129 130.9 72.5442 131.231 72.9528 131.231Z" fill="#02E56A"/>
<path id="Vector_42" d="M81.4508 136.136C81.8594 136.136 82.1907 135.805 82.1907 135.396C82.1907 134.988 81.8594 134.656 81.4508 134.656C81.0422 134.656 80.7109 134.988 80.7109 135.396C80.7109 135.805 81.0422 136.136 81.4508 136.136Z" fill="#02E56A"/>
<path id="Vector_43" d="M64.4449 136.136C64.8536 136.136 65.1848 135.805 65.1848 135.396C65.1848 134.988 64.8536 134.656 64.4449 134.656C64.0363 134.656 63.7051 134.988 63.7051 135.396C63.7051 135.805 64.0363 136.136 64.4449 136.136Z" fill="#02E56A"/>
<path id="Vector_44" d="M72.9528 141.04C73.3614 141.04 73.6926 140.709 73.6926 140.3C73.6926 139.892 73.3614 139.56 72.9528 139.56C72.5442 139.56 72.2129 139.892 72.2129 140.3C72.2129 140.709 72.5442 141.04 72.9528 141.04Z" fill="#02E56A"/>
<path id="Vector_45" d="M55.9469 131.231C56.3555 131.231 56.6868 130.9 56.6868 130.491C56.6868 130.082 56.3555 129.751 55.9469 129.751C55.5383 129.751 55.207 130.082 55.207 130.491C55.207 130.9 55.5383 131.231 55.9469 131.231Z" fill="#02E56A"/>
<path id="Vector_46" d="M81.4508 145.955C81.8594 145.955 82.1907 145.624 82.1907 145.215C82.1907 144.807 81.8594 144.476 81.4508 144.476C81.0422 144.476 80.7109 144.807 80.7109 145.215C80.7109 145.624 81.0422 145.955 81.4508 145.955Z" fill="#02E56A"/>
<path id="Vector_47" d="M64.4449 116.508C64.8536 116.508 65.1848 116.176 65.1848 115.768C65.1848 115.359 64.8536 115.028 64.4449 115.028C64.0363 115.028 63.7051 115.359 63.7051 115.768C63.7051 116.176 64.0363 116.508 64.4449 116.508Z" fill="#02E56A"/>
<path id="Vector_48" d="M55.9469 121.412C56.3555 121.412 56.6868 121.08 56.6868 120.672C56.6868 120.263 56.3555 119.932 55.9469 119.932C55.5383 119.932 55.207 120.263 55.207 120.672C55.207 121.08 55.5383 121.412 55.9469 121.412Z" fill="#02E56A"/>
<path id="Vector_49" d="M81.4508 106.689C81.8594 106.689 82.1907 106.357 82.1907 105.949C82.1907 105.54 81.8594 105.209 81.4508 105.209C81.0422 105.209 80.7109 105.54 80.7109 105.949C80.7109 106.357 81.0422 106.689 81.4508 106.689Z" fill="#02E56A"/>
<path id="Vector_50" d="M72.9528 111.604C73.3614 111.604 73.6926 111.273 73.6926 110.864C73.6926 110.455 73.3614 110.124 72.9528 110.124C72.5442 110.124 72.2129 110.455 72.2129 110.864C72.2129 111.273 72.5442 111.604 72.9528 111.604Z" fill="#02E56A"/>
<path id="Vector_51" d="M89.9488 101.784C90.3575 101.784 90.6887 101.453 90.6887 101.045C90.6887 100.636 90.3575 100.305 89.9488 100.305C89.5402 100.305 89.209 100.636 89.209 101.045C89.209 101.453 89.5402 101.784 89.9488 101.784Z" fill="#02E56A"/>
<path id="Vector_52" d="M47.4489 126.317C47.8575 126.317 48.1887 125.985 48.1887 125.577C48.1887 125.168 47.8575 124.837 47.4489 124.837C47.0403 124.837 46.709 125.168 46.709 125.577C46.709 125.985 47.0403 126.317 47.4489 126.317Z" fill="#02E56A"/>
<path id="Vector_53" d="M64.4449 96.8794C64.8536 96.8794 65.1848 96.5482 65.1848 96.1396C65.1848 95.7309 64.8536 95.3997 64.4449 95.3997C64.0363 95.3997 63.7051 95.7309 63.7051 96.1396C63.7051 96.5482 64.0363 96.8794 64.4449 96.8794Z" fill="#02E56A"/>
<path id="Vector_54" d="M55.9469 101.784C56.3555 101.784 56.6868 101.453 56.6868 101.045C56.6868 100.636 56.3555 100.305 55.9469 100.305C55.5383 100.305 55.207 100.636 55.207 101.045C55.207 101.453 55.5383 101.784 55.9469 101.784Z" fill="#02E56A"/>
<path id="Vector_55" d="M47.4489 106.689C47.8575 106.689 48.1887 106.357 48.1887 105.949C48.1887 105.54 47.8575 105.209 47.4489 105.209C47.0403 105.209 46.709 105.54 46.709 105.949C46.709 106.357 47.0403 106.689 47.4489 106.689Z" fill="#02E56A"/>
<path id="Vector_56" d="M38.9508 111.604C39.3594 111.604 39.6907 111.273 39.6907 110.864C39.6907 110.455 39.3594 110.124 38.9508 110.124C38.5422 110.124 38.2109 110.455 38.2109 110.864C38.2109 111.273 38.5422 111.604 38.9508 111.604Z" fill="#02E56A"/>
<path id="Vector_57" d="M64.4449 106.689C64.8536 106.689 65.1848 106.357 65.1848 105.949C65.1848 105.54 64.8536 105.209 64.4449 105.209C64.0363 105.209 63.7051 105.54 63.7051 105.949C63.7051 106.357 64.0363 106.689 64.4449 106.689Z" fill="#02E56A"/>
<path id="Vector_58" d="M55.9469 111.604C56.3555 111.604 56.6868 111.273 56.6868 110.864C56.6868 110.455 56.3555 110.124 55.9469 110.124C55.5383 110.124 55.207 110.455 55.207 110.864C55.207 111.273 55.5383 111.604 55.9469 111.604Z" fill="#02E56A"/>
<path id="Vector_59" d="M72.9528 101.784C73.3614 101.784 73.6926 101.453 73.6926 101.045C73.6926 100.636 73.3614 100.305 72.9528 100.305C72.5442 100.305 72.2129 100.636 72.2129 101.045C72.2129 101.453 72.5442 101.784 72.9528 101.784Z" fill="#02E56A"/>
<path id="Vector_60" d="M47.4489 116.508C47.8575 116.508 48.1887 116.176 48.1887 115.768C48.1887 115.359 47.8575 115.028 47.4489 115.028C47.0403 115.028 46.709 115.359 46.709 115.768C46.709 116.176 47.0403 116.508 47.4489 116.508Z" fill="#02E56A"/>
<path id="Vector_61" d="M38.9508 121.412C39.3594 121.412 39.6907 121.08 39.6907 120.672C39.6907 120.263 39.3594 119.932 38.9508 119.932C38.5422 119.932 38.2109 120.263 38.2109 120.672C38.2109 121.08 38.5422 121.412 38.9508 121.412Z" fill="#02E56A"/>
<path id="Vector_62" d="M98.4469 96.8794C98.8555 96.8794 99.1868 96.5482 99.1868 96.1396C99.1868 95.7309 98.8555 95.3997 98.4469 95.3997C98.0383 95.3997 97.707 95.7309 97.707 96.1396C97.707 96.5482 98.0383 96.8794 98.4469 96.8794Z" fill="#02E56A"/>
<path id="Vector_63" d="M81.4508 87.0601C81.8594 87.0601 82.1907 86.7288 82.1907 86.3202C82.1907 85.9116 81.8594 85.5803 81.4508 85.5803C81.0422 85.5803 80.7109 85.9116 80.7109 86.3202C80.7109 86.7288 81.0422 87.0601 81.4508 87.0601Z" fill="#02E56A"/>
<path id="Vector_64" d="M72.9528 91.9754C73.3614 91.9754 73.6926 91.6441 73.6926 91.2355C73.6926 90.8269 73.3614 90.4956 72.9528 90.4956C72.5442 90.4956 72.2129 90.8269 72.2129 91.2355C72.2129 91.6441 72.5442 91.9754 72.9528 91.9754Z" fill="#02E56A"/>
<path id="Vector_65" d="M81.4508 96.8794C81.8594 96.8794 82.1907 96.5482 82.1907 96.1396C82.1907 95.7309 81.8594 95.3997 81.4508 95.3997C81.0422 95.3997 80.7109 95.7309 80.7109 96.1396C80.7109 96.5482 81.0422 96.8794 81.4508 96.8794Z" fill="#02E56A"/>
<path id="Vector_66" d="M89.9488 91.9754C90.3575 91.9754 90.6887 91.6441 90.6887 91.2355C90.6887 90.8269 90.3575 90.4956 89.9488 90.4956C89.5402 90.4956 89.209 90.8269 89.209 91.2355C89.209 91.6441 89.5402 91.9754 89.9488 91.9754Z" fill="#02E56A"/>
<path id="Vector_67" d="M106.945 91.9754C107.354 91.9754 107.685 91.6441 107.685 91.2355C107.685 90.8269 107.354 90.4956 106.945 90.4956C106.536 90.4956 106.205 90.8269 106.205 91.2355C106.205 91.6441 106.536 91.9754 106.945 91.9754Z" fill="#02E56A"/>
<path id="Vector_68" d="M89.9488 82.156C90.3575 82.156 90.6887 81.8248 90.6887 81.4161C90.6887 81.0075 90.3575 80.6763 89.9488 80.6763C89.5402 80.6763 89.209 81.0075 89.209 81.4161C89.209 81.8248 89.5402 82.156 89.9488 82.156Z" fill="#02E56A"/>
<path id="Vector_69" d="M98.4469 87.0601C98.8555 87.0601 99.1868 86.7288 99.1868 86.3202C99.1868 85.9116 98.8555 85.5803 98.4469 85.5803C98.0383 85.5803 97.707 85.9116 97.707 86.3202C97.707 86.7288 98.0383 87.0601 98.4469 87.0601Z" fill="#02E56A"/>
<path id="Vector_70" d="M30.4528 116.508C30.8614 116.508 31.1926 116.176 31.1926 115.768C31.1926 115.359 30.8614 115.028 30.4528 115.028C30.0441 115.028 29.7129 115.359 29.7129 115.768C29.7129 116.176 30.0441 116.508 30.4528 116.508Z" fill="#02E56A"/>
</g>
<g id="Group_2">
<path id="Vector_71" d="M130.686 5.59958C133.127 4.19381 135.125 5.34591 135.125 8.15745V45.1726C135.125 47.9947 133.127 51.451 130.686 52.8568L81.3885 81.321C78.9469 82.7267 76.9492 81.5746 76.9492 78.7631V41.748C76.9492 38.9259 78.9469 35.4696 81.3885 34.0638L130.686 5.59958Z" fill="#02E56A"/>
<path id="Vector_72" d="M76.9492 48.8406V78.774C76.9492 81.5961 78.9469 82.7482 81.3885 81.3319L107.316 66.3652L76.9492 48.8406Z" fill="#040919"/>
<path id="Vector_73" d="M135.125 29.8459L76.9492 63.4365V71.2264L135.125 37.6358V29.8459Z" fill="#040919"/>
<g id="Group_3">
<path id="Vector_74" d="M97.5488 76.7763L64.4551 57.6663V104.934L97.5488 124.044C99.9904 125.45 101.988 124.298 101.988 121.486V84.471C101.988 81.6489 99.9904 78.1926 97.5488 76.7869V76.7763Z" fill="#4331E8"/>
<path id="Vector_75" d="M48.2518 48.3125C45.8102 46.9067 43.8125 48.0588 43.8125 50.8703V87.8855C43.8125 90.7076 45.8102 94.1639 48.2518 95.5696L64.4446 104.924V57.6561L48.2518 48.3019V48.3125Z" fill="#666BFF"/>
</g>
<path id="Vector_76" d="M82.8047 47.9734L110.254 63.8174" stroke="#040919" stroke-miterlimit="10" stroke-linecap="round"/>
<path id="Vector_77" d="M82.5195 88.4553L92.6559 94.3215V103.2L82.5195 97.3445V88.4553Z" fill="white"/>
<path id="Vector_78" d="M53.5684 62.6121L59.6248 66.1001" stroke="white" stroke-miterlimit="10"/>
<path id="Vector_79" d="M63.1133 68.1189L69.1592 71.6069" stroke="white" stroke-miterlimit="10"/>
<path id="Vector_80" d="M72.6465 73.6267L78.6924 77.1147" stroke="white" stroke-miterlimit="10"/>
<path id="Vector_81" d="M82.1797 79.1335L88.2361 82.6215" stroke="white" stroke-miterlimit="10"/>
</g>
<path id="Vector_82" d="M123.941 120.672V85.5806" stroke="#666BFF" stroke-miterlimit="10"/>
<path id="Vector_83" d="M55.9473 130.491V117.532" stroke="#666BFF" stroke-miterlimit="10"/>
<path id="Vector_84" d="M60.1632 113.316H51.7285V121.75H60.1632V113.316Z" fill="#040919"/>
<path id="Vector_85" d="M128.159 81.363H119.725V89.7977H128.159V81.363Z" fill="#040919"/>
<path id="Vector_86" d="M68.6612 23.6736H60.2266V32.1082H68.6612V23.6736Z" fill="#040919"/>
</g>
</g>
<defs>
<linearGradient id="paint0_linear_3535_3676" x1="10" y1="115.767" x2="169.899" y2="115.767" gradientUnits="userSpaceOnUse">
<stop stop-color="#D0D3F5"/>
<stop offset="0.06" stop-color="#D0D3F5" stop-opacity="0.78"/>
<stop offset="0.14" stop-color="#D0D3F5" stop-opacity="0.55"/>
<stop offset="0.21" stop-color="#D0D3F5" stop-opacity="0.35"/>
<stop offset="0.28" stop-color="#D0D3F5" stop-opacity="0.2"/>
<stop offset="0.35" stop-color="#D0D3F5" stop-opacity="0.09"/>
<stop offset="0.4" stop-color="#D0D3F5" stop-opacity="0.02"/>
<stop offset="0.45" stop-color="#D0D3F5" stop-opacity="0"/>
</linearGradient>
</defs>
</svg>
