<svg width="180" height="181" viewBox="0 0 180 181" fill="none" xmlns="http://www.w3.org/2000/svg">
<g id="Frame 47223">
<g id="Group">
<path id="Vector" d="M90.4885 160.649L21.6801 120.928L9 128.254L90.4885 175.301L171.977 128.254L159.286 120.928L90.4885 160.649Z" fill="#0F1B0E"/>
<path id="Vector_2" d="M122.162 142.26L134.853 149.586" stroke="#02E56A" stroke-linecap="round" stroke-linejoin="round"/>
<path id="Vector_3" d="M90.4885 66.5562L9 113.603L90.4885 160.649L171.977 113.603L90.4885 66.5562Z" fill="url(#paint0_linear_3535_3771)"/>
<path id="Vector_4" d="M9 113.603L90.4885 160.649L171.977 113.603" stroke="#5D688C" stroke-linecap="round" stroke-linejoin="round"/>
<g id="Group_2">
<path id="Vector_5" d="M90.9488 109.604C91.3575 109.604 91.6887 109.273 91.6887 108.864C91.6887 108.456 91.3575 108.124 90.9488 108.124C90.5402 108.124 90.209 108.456 90.209 108.864C90.209 109.273 90.5402 109.604 90.9488 109.604Z" fill="#02E56A"/>
<path id="Vector_6" d="M99.4469 114.508C99.8555 114.508 100.187 114.177 100.187 113.768C100.187 113.359 99.8555 113.028 99.4469 113.028C99.0383 113.028 98.707 113.359 98.707 113.768C98.707 114.177 99.0383 114.508 99.4469 114.508Z" fill="#02E56A"/>
<path id="Vector_7" d="M90.9488 119.412C91.3575 119.412 91.6887 119.081 91.6887 118.672C91.6887 118.263 91.3575 117.932 90.9488 117.932C90.5402 117.932 90.209 118.263 90.209 118.672C90.209 119.081 90.5402 119.412 90.9488 119.412Z" fill="#02E56A"/>
<path id="Vector_8" d="M107.945 119.412C108.354 119.412 108.685 119.081 108.685 118.672C108.685 118.263 108.354 117.932 107.945 117.932C107.536 117.932 107.205 118.263 107.205 118.672C107.205 119.081 107.536 119.412 107.945 119.412Z" fill="#02E56A"/>
<path id="Vector_9" d="M99.4469 124.317C99.8555 124.317 100.187 123.986 100.187 123.577C100.187 123.168 99.8555 122.837 99.4469 122.837C99.0383 122.837 98.707 123.168 98.707 123.577C98.707 123.986 99.0383 124.317 99.4469 124.317Z" fill="#02E56A"/>
<path id="Vector_10" d="M90.9488 129.231C91.3575 129.231 91.6887 128.9 91.6887 128.491C91.6887 128.083 91.3575 127.751 90.9488 127.751C90.5402 127.751 90.209 128.083 90.209 128.491C90.209 128.9 90.5402 129.231 90.9488 129.231Z" fill="#02E56A"/>
<path id="Vector_11" d="M116.443 124.317C116.852 124.317 117.183 123.986 117.183 123.577C117.183 123.168 116.852 122.837 116.443 122.837C116.034 122.837 115.703 123.168 115.703 123.577C115.703 123.986 116.034 124.317 116.443 124.317Z" fill="#02E56A"/>
<path id="Vector_12" d="M107.945 129.231C108.354 129.231 108.685 128.9 108.685 128.491C108.685 128.083 108.354 127.751 107.945 127.751C107.536 127.751 107.205 128.083 107.205 128.491C107.205 128.9 107.536 129.231 107.945 129.231Z" fill="#02E56A"/>
<path id="Vector_13" d="M99.4469 134.136C99.8555 134.136 100.187 133.805 100.187 133.396C100.187 132.988 99.8555 132.656 99.4469 132.656C99.0383 132.656 98.707 132.988 98.707 133.396C98.707 133.805 99.0383 134.136 99.4469 134.136Z" fill="#02E56A"/>
<path id="Vector_14" d="M90.9488 139.04C91.3575 139.04 91.6887 138.709 91.6887 138.3C91.6887 137.892 91.3575 137.561 90.9488 137.561C90.5402 137.561 90.209 137.892 90.209 138.3C90.209 138.709 90.5402 139.04 90.9488 139.04Z" fill="#02E56A"/>
<path id="Vector_15" d="M116.443 134.136C116.852 134.136 117.183 133.805 117.183 133.396C117.183 132.988 116.852 132.656 116.443 132.656C116.034 132.656 115.703 132.988 115.703 133.396C115.703 133.805 116.034 134.136 116.443 134.136Z" fill="#02E56A"/>
<path id="Vector_16" d="M107.945 139.04C108.354 139.04 108.685 138.709 108.685 138.3C108.685 137.892 108.354 137.561 107.945 137.561C107.536 137.561 107.205 137.892 107.205 138.3C107.205 138.709 107.536 139.04 107.945 139.04Z" fill="#02E56A"/>
<path id="Vector_17" d="M124.941 129.231C125.35 129.231 125.681 128.9 125.681 128.491C125.681 128.083 125.35 127.751 124.941 127.751C124.532 127.751 124.201 128.083 124.201 128.491C124.201 128.9 124.532 129.231 124.941 129.231Z" fill="#02E56A"/>
<path id="Vector_18" d="M99.4469 143.956C99.8555 143.956 100.187 143.624 100.187 143.216C100.187 142.807 99.8555 142.476 99.4469 142.476C99.0383 142.476 98.707 142.807 98.707 143.216C98.707 143.624 99.0383 143.956 99.4469 143.956Z" fill="#02E56A"/>
<path id="Vector_19" d="M90.9488 148.859C91.3575 148.859 91.6887 148.528 91.6887 148.12C91.6887 147.711 91.3575 147.38 90.9488 147.38C90.5402 147.38 90.209 147.711 90.209 148.12C90.209 148.528 90.5402 148.859 90.9488 148.859Z" fill="#02E56A"/>
<path id="Vector_20" d="M82.4508 114.508C82.8594 114.508 83.1907 114.177 83.1907 113.768C83.1907 113.359 82.8594 113.028 82.4508 113.028C82.0422 113.028 81.7109 113.359 81.7109 113.768C81.7109 114.177 82.0422 114.508 82.4508 114.508Z" fill="#02E56A"/>
<path id="Vector_21" d="M107.945 99.7847C108.354 99.7847 108.685 99.4534 108.685 99.0448C108.685 98.6362 108.354 98.3049 107.945 98.3049C107.536 98.3049 107.205 98.6362 107.205 99.0448C107.205 99.4534 107.536 99.7847 107.945 99.7847Z" fill="#02E56A"/>
<path id="Vector_22" d="M116.443 104.689C116.852 104.689 117.183 104.358 117.183 103.949C117.183 103.54 116.852 103.209 116.443 103.209C116.034 103.209 115.703 103.54 115.703 103.949C115.703 104.358 116.034 104.689 116.443 104.689Z" fill="#02E56A"/>
<path id="Vector_23" d="M107.945 109.604C108.354 109.604 108.685 109.273 108.685 108.864C108.685 108.456 108.354 108.124 107.945 108.124C107.536 108.124 107.205 108.456 107.205 108.864C107.205 109.273 107.536 109.604 107.945 109.604Z" fill="#02E56A"/>
<path id="Vector_24" d="M124.941 109.604C125.35 109.604 125.681 109.273 125.681 108.864C125.681 108.456 125.35 108.124 124.941 108.124C124.532 108.124 124.201 108.456 124.201 108.864C124.201 109.273 124.532 109.604 124.941 109.604Z" fill="#02E56A"/>
<path id="Vector_25" d="M116.443 114.508C116.852 114.508 117.183 114.177 117.183 113.768C117.183 113.359 116.852 113.028 116.443 113.028C116.034 113.028 115.703 113.359 115.703 113.768C115.703 114.177 116.034 114.508 116.443 114.508Z" fill="#02E56A"/>
<path id="Vector_26" d="M133.451 114.508C133.859 114.508 134.191 114.177 134.191 113.768C134.191 113.359 133.859 113.028 133.451 113.028C133.042 113.028 132.711 113.359 132.711 113.768C132.711 114.177 133.042 114.508 133.451 114.508Z" fill="#02E56A"/>
<path id="Vector_27" d="M124.941 119.412C125.35 119.412 125.681 119.081 125.681 118.672C125.681 118.263 125.35 117.932 124.941 117.932C124.532 117.932 124.201 118.263 124.201 118.672C124.201 119.081 124.532 119.412 124.941 119.412Z" fill="#02E56A"/>
<path id="Vector_28" d="M133.451 124.317C133.859 124.317 134.191 123.986 134.191 123.577C134.191 123.168 133.859 122.837 133.451 122.837C133.042 122.837 132.711 123.168 132.711 123.577C132.711 123.986 133.042 124.317 133.451 124.317Z" fill="#02E56A"/>
<path id="Vector_29" d="M141.949 119.412C142.357 119.412 142.689 119.081 142.689 118.672C142.689 118.263 142.357 117.932 141.949 117.932C141.54 117.932 141.209 118.263 141.209 118.672C141.209 119.081 141.54 119.412 141.949 119.412Z" fill="#02E56A"/>
<path id="Vector_30" d="M99.4469 104.689C99.8555 104.689 100.187 104.358 100.187 103.949C100.187 103.54 99.8555 103.209 99.4469 103.209C99.0383 103.209 98.707 103.54 98.707 103.949C98.707 104.358 99.0383 104.689 99.4469 104.689Z" fill="#02E56A"/>
<path id="Vector_31" d="M124.941 99.7847C125.35 99.7847 125.681 99.4534 125.681 99.0448C125.681 98.6362 125.35 98.3049 124.941 98.3049C124.532 98.3049 124.201 98.6362 124.201 99.0448C124.201 99.4534 124.532 99.7847 124.941 99.7847Z" fill="#02E56A"/>
<path id="Vector_32" d="M133.451 104.689C133.859 104.689 134.191 104.358 134.191 103.949C134.191 103.54 133.859 103.209 133.451 103.209C133.042 103.209 132.711 103.54 132.711 103.949C132.711 104.358 133.042 104.689 133.451 104.689Z" fill="#02E56A"/>
<path id="Vector_33" d="M141.949 109.604C142.357 109.604 142.689 109.273 142.689 108.864C142.689 108.456 142.357 108.124 141.949 108.124C141.54 108.124 141.209 108.456 141.209 108.864C141.209 109.273 141.54 109.604 141.949 109.604Z" fill="#02E56A"/>
<path id="Vector_34" d="M150.447 114.508C150.856 114.508 151.187 114.177 151.187 113.768C151.187 113.359 150.856 113.028 150.447 113.028C150.038 113.028 149.707 113.359 149.707 113.768C149.707 114.177 150.038 114.508 150.447 114.508Z" fill="#02E56A"/>
<path id="Vector_35" d="M116.443 94.8797C116.852 94.8797 117.183 94.5484 117.183 94.1398C117.183 93.7312 116.852 93.3999 116.443 93.3999C116.034 93.3999 115.703 93.7312 115.703 94.1398C115.703 94.5484 116.034 94.8797 116.443 94.8797Z" fill="#02E56A"/>
<path id="Vector_36" d="M73.9528 119.412C74.3614 119.412 74.6926 119.081 74.6926 118.672C74.6926 118.263 74.3614 117.932 73.9528 117.932C73.5442 117.932 73.2129 118.263 73.2129 118.672C73.2129 119.081 73.5442 119.412 73.9528 119.412Z" fill="#02E56A"/>
<path id="Vector_37" d="M82.4508 124.317C82.8594 124.317 83.1907 123.986 83.1907 123.577C83.1907 123.168 82.8594 122.837 82.4508 122.837C82.0422 122.837 81.7109 123.168 81.7109 123.577C81.7109 123.986 82.0422 124.317 82.4508 124.317Z" fill="#02E56A"/>
<path id="Vector_38" d="M65.4449 124.317C65.8536 124.317 66.1848 123.986 66.1848 123.577C66.1848 123.168 65.8536 122.837 65.4449 122.837C65.0363 122.837 64.7051 123.168 64.7051 123.577C64.7051 123.986 65.0363 124.317 65.4449 124.317Z" fill="#02E56A"/>
<path id="Vector_39" d="M73.9528 129.231C74.3614 129.231 74.6926 128.9 74.6926 128.491C74.6926 128.083 74.3614 127.751 73.9528 127.751C73.5442 127.751 73.2129 128.083 73.2129 128.491C73.2129 128.9 73.5442 129.231 73.9528 129.231Z" fill="#02E56A"/>
<path id="Vector_40" d="M82.4508 134.136C82.8594 134.136 83.1907 133.805 83.1907 133.396C83.1907 132.988 82.8594 132.656 82.4508 132.656C82.0422 132.656 81.7109 132.988 81.7109 133.396C81.7109 133.805 82.0422 134.136 82.4508 134.136Z" fill="#02E56A"/>
<path id="Vector_41" d="M65.4449 134.136C65.8536 134.136 66.1848 133.805 66.1848 133.396C66.1848 132.988 65.8536 132.656 65.4449 132.656C65.0363 132.656 64.7051 132.988 64.7051 133.396C64.7051 133.805 65.0363 134.136 65.4449 134.136Z" fill="#02E56A"/>
<path id="Vector_42" d="M73.9528 139.04C74.3614 139.04 74.6926 138.709 74.6926 138.3C74.6926 137.892 74.3614 137.561 73.9528 137.561C73.5442 137.561 73.2129 137.892 73.2129 138.3C73.2129 138.709 73.5442 139.04 73.9528 139.04Z" fill="#02E56A"/>
<path id="Vector_43" d="M56.9469 129.231C57.3555 129.231 57.6868 128.9 57.6868 128.491C57.6868 128.083 57.3555 127.751 56.9469 127.751C56.5383 127.751 56.207 128.083 56.207 128.491C56.207 128.9 56.5383 129.231 56.9469 129.231Z" fill="#02E56A"/>
<path id="Vector_44" d="M82.4508 143.956C82.8594 143.956 83.1907 143.624 83.1907 143.216C83.1907 142.807 82.8594 142.476 82.4508 142.476C82.0422 142.476 81.7109 142.807 81.7109 143.216C81.7109 143.624 82.0422 143.956 82.4508 143.956Z" fill="#02E56A"/>
<path id="Vector_45" d="M65.4449 114.508C65.8536 114.508 66.1848 114.177 66.1848 113.768C66.1848 113.359 65.8536 113.028 65.4449 113.028C65.0363 113.028 64.7051 113.359 64.7051 113.768C64.7051 114.177 65.0363 114.508 65.4449 114.508Z" fill="#02E56A"/>
<path id="Vector_46" d="M56.9469 119.412C57.3555 119.412 57.6868 119.081 57.6868 118.672C57.6868 118.263 57.3555 117.932 56.9469 117.932C56.5383 117.932 56.207 118.263 56.207 118.672C56.207 119.081 56.5383 119.412 56.9469 119.412Z" fill="#02E56A"/>
<path id="Vector_47" d="M82.4508 104.689C82.8594 104.689 83.1907 104.358 83.1907 103.949C83.1907 103.54 82.8594 103.209 82.4508 103.209C82.0422 103.209 81.7109 103.54 81.7109 103.949C81.7109 104.358 82.0422 104.689 82.4508 104.689Z" fill="#02E56A"/>
<path id="Vector_48" d="M73.9528 109.604C74.3614 109.604 74.6926 109.273 74.6926 108.864C74.6926 108.456 74.3614 108.124 73.9528 108.124C73.5442 108.124 73.2129 108.456 73.2129 108.864C73.2129 109.273 73.5442 109.604 73.9528 109.604Z" fill="#02E56A"/>
<path id="Vector_49" d="M90.9488 99.7847C91.3575 99.7847 91.6887 99.4534 91.6887 99.0448C91.6887 98.6362 91.3575 98.3049 90.9488 98.3049C90.5402 98.3049 90.209 98.6362 90.209 99.0448C90.209 99.4534 90.5402 99.7847 90.9488 99.7847Z" fill="#02E56A"/>
<path id="Vector_50" d="M48.4489 124.317C48.8575 124.317 49.1887 123.986 49.1887 123.577C49.1887 123.168 48.8575 122.837 48.4489 122.837C48.0403 122.837 47.709 123.168 47.709 123.577C47.709 123.986 48.0403 124.317 48.4489 124.317Z" fill="#02E56A"/>
<path id="Vector_51" d="M65.4449 94.8797C65.8536 94.8797 66.1848 94.5484 66.1848 94.1398C66.1848 93.7312 65.8536 93.3999 65.4449 93.3999C65.0363 93.3999 64.7051 93.7312 64.7051 94.1398C64.7051 94.5484 65.0363 94.8797 65.4449 94.8797Z" fill="#02E56A"/>
<path id="Vector_52" d="M56.9469 99.7847C57.3555 99.7847 57.6868 99.4534 57.6868 99.0448C57.6868 98.6362 57.3555 98.3049 56.9469 98.3049C56.5383 98.3049 56.207 98.6362 56.207 99.0448C56.207 99.4534 56.5383 99.7847 56.9469 99.7847Z" fill="#02E56A"/>
<path id="Vector_53" d="M48.4489 104.689C48.8575 104.689 49.1887 104.358 49.1887 103.949C49.1887 103.54 48.8575 103.209 48.4489 103.209C48.0403 103.209 47.709 103.54 47.709 103.949C47.709 104.358 48.0403 104.689 48.4489 104.689Z" fill="#02E56A"/>
<path id="Vector_54" d="M39.9508 109.604C40.3594 109.604 40.6907 109.273 40.6907 108.864C40.6907 108.456 40.3594 108.124 39.9508 108.124C39.5422 108.124 39.2109 108.456 39.2109 108.864C39.2109 109.273 39.5422 109.604 39.9508 109.604Z" fill="#02E56A"/>
<path id="Vector_55" d="M65.4449 104.689C65.8536 104.689 66.1848 104.358 66.1848 103.949C66.1848 103.54 65.8536 103.209 65.4449 103.209C65.0363 103.209 64.7051 103.54 64.7051 103.949C64.7051 104.358 65.0363 104.689 65.4449 104.689Z" fill="#02E56A"/>
<path id="Vector_56" d="M56.9469 109.604C57.3555 109.604 57.6868 109.273 57.6868 108.864C57.6868 108.456 57.3555 108.124 56.9469 108.124C56.5383 108.124 56.207 108.456 56.207 108.864C56.207 109.273 56.5383 109.604 56.9469 109.604Z" fill="#02E56A"/>
<path id="Vector_57" d="M73.9528 99.7847C74.3614 99.7847 74.6926 99.4534 74.6926 99.0448C74.6926 98.6362 74.3614 98.3049 73.9528 98.3049C73.5442 98.3049 73.2129 98.6362 73.2129 99.0448C73.2129 99.4534 73.5442 99.7847 73.9528 99.7847Z" fill="#02E56A"/>
<path id="Vector_58" d="M48.4489 114.508C48.8575 114.508 49.1887 114.177 49.1887 113.768C49.1887 113.359 48.8575 113.028 48.4489 113.028C48.0403 113.028 47.709 113.359 47.709 113.768C47.709 114.177 48.0403 114.508 48.4489 114.508Z" fill="#02E56A"/>
<path id="Vector_59" d="M39.9508 119.412C40.3594 119.412 40.6907 119.081 40.6907 118.672C40.6907 118.263 40.3594 117.932 39.9508 117.932C39.5422 117.932 39.2109 118.263 39.2109 118.672C39.2109 119.081 39.5422 119.412 39.9508 119.412Z" fill="#02E56A"/>
<path id="Vector_60" d="M99.4469 94.8797C99.8555 94.8797 100.187 94.5484 100.187 94.1398C100.187 93.7312 99.8555 93.3999 99.4469 93.3999C99.0383 93.3999 98.707 93.7312 98.707 94.1398C98.707 94.5484 99.0383 94.8797 99.4469 94.8797Z" fill="#02E56A"/>
<path id="Vector_61" d="M82.4508 85.0603C82.8594 85.0603 83.1907 84.7291 83.1907 84.3204C83.1907 83.9118 82.8594 83.5806 82.4508 83.5806C82.0422 83.5806 81.7109 83.9118 81.7109 84.3204C81.7109 84.7291 82.0422 85.0603 82.4508 85.0603Z" fill="#02E56A"/>
<path id="Vector_62" d="M73.9528 89.9756C74.3614 89.9756 74.6926 89.6444 74.6926 89.2357C74.6926 88.8271 74.3614 88.4958 73.9528 88.4958C73.5442 88.4958 73.2129 88.8271 73.2129 89.2357C73.2129 89.6444 73.5442 89.9756 73.9528 89.9756Z" fill="#02E56A"/>
<path id="Vector_63" d="M82.4508 94.8797C82.8594 94.8797 83.1907 94.5484 83.1907 94.1398C83.1907 93.7312 82.8594 93.3999 82.4508 93.3999C82.0422 93.3999 81.7109 93.7312 81.7109 94.1398C81.7109 94.5484 82.0422 94.8797 82.4508 94.8797Z" fill="#02E56A"/>
<path id="Vector_64" d="M90.9488 89.9756C91.3575 89.9756 91.6887 89.6444 91.6887 89.2357C91.6887 88.8271 91.3575 88.4958 90.9488 88.4958C90.5402 88.4958 90.209 88.8271 90.209 89.2357C90.209 89.6444 90.5402 89.9756 90.9488 89.9756Z" fill="#02E56A"/>
<path id="Vector_65" d="M107.945 89.9756C108.354 89.9756 108.685 89.6444 108.685 89.2357C108.685 88.8271 108.354 88.4958 107.945 88.4958C107.536 88.4958 107.205 88.8271 107.205 89.2357C107.205 89.6444 107.536 89.9756 107.945 89.9756Z" fill="#02E56A"/>
<path id="Vector_66" d="M90.9488 80.1563C91.3575 80.1563 91.6887 79.825 91.6887 79.4164C91.6887 79.0078 91.3575 78.6765 90.9488 78.6765C90.5402 78.6765 90.209 79.0078 90.209 79.4164C90.209 79.825 90.5402 80.1563 90.9488 80.1563Z" fill="#02E56A"/>
<path id="Vector_67" d="M99.4469 85.0603C99.8555 85.0603 100.187 84.7291 100.187 84.3204C100.187 83.9118 99.8555 83.5806 99.4469 83.5806C99.0383 83.5806 98.707 83.9118 98.707 84.3204C98.707 84.7291 99.0383 85.0603 99.4469 85.0603Z" fill="#02E56A"/>
<path id="Vector_68" d="M31.4528 114.508C31.8614 114.508 32.1926 114.177 32.1926 113.768C32.1926 113.359 31.8614 113.028 31.4528 113.028C31.0441 113.028 30.7129 113.359 30.7129 113.768C30.7129 114.177 31.0441 114.508 31.4528 114.508Z" fill="#02E56A"/>
</g>
<g id="Group_3">
<path id="Vector_69" d="M67.3691 117.912L112.326 143.864L142.577 126.401L97.6203 100.448" fill="#1B1D21"/>
<path id="Vector_70" d="M81.2864 113.323L72.0215 118.677" stroke="#040919" stroke-linecap="round" stroke-linejoin="round"/>
<g id="Group_4">
<path id="Vector_71" d="M45.8652 105.49L67.3685 117.912V60.5768L45.8652 48.1553V105.49Z" fill="#4331E8"/>
<path id="Vector_72" d="M45.8652 48.1552L67.3685 60.5767L97.6197 43.1134L76.1056 30.6919L45.8652 48.1552Z" fill="#666BFF"/>
<path id="Vector_73" d="M97.6203 100.449L67.3691 117.912V60.5771L97.6203 43.1138V100.449Z" fill="#040919"/>
<path id="Vector_74" d="M67.3691 117.912V60.5771L97.6203 43.1138" stroke="#666BFF" stroke-linecap="round" stroke-linejoin="round"/>
<path id="Vector_75" d="M48.5898 54.2424L64.6419 63.5074V71.0055L48.5898 61.7406V54.2424Z" fill="#040919"/>
<path id="Vector_76" d="M48.5898 64.6602L64.6419 73.9251V81.4232L48.5898 72.1583V64.6602Z" fill="#040919"/>
<path id="Vector_77" d="M48.5898 75.0881L64.6419 84.3531V91.8404L48.5898 82.5755V75.0881Z" fill="#040919"/>
<path id="Vector_78" d="M51.0137 58.3467L52.7805 59.3701" stroke="white" stroke-linecap="round" stroke-linejoin="round"/>
<path id="Vector_79" d="M58.5996 62.7212L60.3664 63.7447" stroke="white" stroke-linecap="round" stroke-linejoin="round"/>
<path id="Vector_80" d="M62.3809 64.9072L64.1477 65.9307" stroke="white" stroke-linecap="round" stroke-linejoin="round"/>
<path id="Vector_81" d="M54.8066 70.9724L56.5734 71.9851" stroke="white" stroke-linecap="round" stroke-linejoin="round"/>
<path id="Vector_82" d="M58.5996 73.1597L60.3664 74.1724" stroke="white" stroke-linecap="round" stroke-linejoin="round"/>
<path id="Vector_83" d="M62.3809 75.3469L64.1477 76.3596" stroke="white" stroke-linecap="round" stroke-linejoin="round"/>
<path id="Vector_84" d="M51.0137 79.2144L52.7805 80.2378" stroke="white" stroke-linecap="round" stroke-linejoin="round"/>
<path id="Vector_85" d="M54.8066 81.4016L56.5734 82.4251" stroke="white" stroke-linecap="round" stroke-linejoin="round"/>
<path id="Vector_86" d="M62.3809 85.7751L64.1477 86.7986" stroke="white" stroke-linecap="round" stroke-linejoin="round"/>
</g>
<g id="Group_5">
<path id="Vector_87" d="M76.6543 123.266L98.1576 135.688V78.3526L76.6543 65.9312V123.266Z" fill="#02E56A"/>
<path id="Vector_88" d="M76.6543 65.9311L98.1576 78.3526L128.409 60.8893L106.895 48.4678L76.6543 65.9311Z" fill="#040919"/>
<path id="Vector_89" d="M128.409 118.225L98.1582 135.688V78.353L128.409 60.8896V118.225Z" fill="#040919"/>
<path id="Vector_90" d="M98.1582 135.688V78.353L128.409 60.8896" stroke="#02E56A" stroke-linecap="round" stroke-linejoin="round"/>
<path id="Vector_91" d="M79.3789 72.0186L95.431 81.2835V88.7816L79.3789 79.5167V72.0186Z" fill="#040919"/>
<path id="Vector_92" d="M79.3789 82.436L95.431 91.701V99.1991L79.3789 89.9342V82.436Z" fill="#040919"/>
<path id="Vector_93" d="M79.3789 92.8643L95.431 102.129V109.617L79.3789 100.362V92.8643Z" fill="#040919"/>
<path id="Vector_94" d="M81.8027 76.1226L83.5803 77.146" stroke="white" stroke-linecap="round" stroke-linejoin="round"/>
<path id="Vector_95" d="M89.3887 80.4971L91.1555 81.5205" stroke="white" stroke-linecap="round" stroke-linejoin="round"/>
<path id="Vector_96" d="M93.1699 82.6833L94.9475 83.7068" stroke="white" stroke-linecap="round" stroke-linejoin="round"/>
<path id="Vector_97" d="M85.5957 88.7485L87.3625 89.7612" stroke="white" stroke-linecap="round" stroke-linejoin="round"/>
<path id="Vector_98" d="M89.3887 90.9358L91.1555 91.9485" stroke="white" stroke-linecap="round" stroke-linejoin="round"/>
<path id="Vector_99" d="M93.1699 93.123L94.9475 94.1357" stroke="white" stroke-linecap="round" stroke-linejoin="round"/>
<path id="Vector_100" d="M81.8027 96.9905L83.5803 98.0139" stroke="white" stroke-linecap="round" stroke-linejoin="round"/>
<path id="Vector_101" d="M85.5957 99.1777L87.3625 100.201" stroke="white" stroke-linecap="round" stroke-linejoin="round"/>
<path id="Vector_102" d="M93.1699 103.551L94.9475 104.574" stroke="white" stroke-linecap="round" stroke-linejoin="round"/>
</g>
<g id="Group_6">
<path id="Vector_103" d="M76.6543 61.3743L98.1576 73.785V35.8741L76.6543 23.4634V61.3743Z" fill="#4331E8"/>
<path id="Vector_104" d="M76.6543 23.4633L98.1576 35.8741L128.409 18.4215L106.895 6L76.6543 23.4633Z" fill="#666BFF"/>
<path id="Vector_105" d="M128.409 56.3328L98.1582 73.7854V35.8745L128.409 18.4219V56.3328Z" fill="#040919"/>
<path id="Vector_106" d="M98.1582 73.7854V35.8745L128.409 18.4219" stroke="#666BFF" stroke-linecap="round" stroke-linejoin="round"/>
<path id="Vector_107" d="M79.3789 29.5505L95.431 38.8155V46.3137L79.3789 37.0487V29.5505Z" fill="#040919"/>
<path id="Vector_108" d="M79.3789 39.9683L95.431 49.2332V56.7314L79.3789 47.4664V39.9683Z" fill="#040919"/>
<path id="Vector_109" d="M79.3789 50.3962L95.431 59.6504V67.1486L79.3789 57.8836V50.3962Z" fill="#040919"/>
<path id="Vector_110" d="M81.8027 33.6548L83.5803 34.6782" stroke="white" stroke-linecap="round" stroke-linejoin="round"/>
<path id="Vector_111" d="M89.3887 38.0293L91.1555 39.0527" stroke="white" stroke-linecap="round" stroke-linejoin="round"/>
<path id="Vector_112" d="M93.1699 40.2153L94.9475 41.2388" stroke="white" stroke-linecap="round" stroke-linejoin="round"/>
<path id="Vector_113" d="M85.5957 46.27L87.3625 47.2935" stroke="white" stroke-linecap="round" stroke-linejoin="round"/>
<path id="Vector_114" d="M89.3887 48.4573L91.1555 49.4807" stroke="white" stroke-linecap="round" stroke-linejoin="round"/>
<path id="Vector_115" d="M93.1699 50.6445L94.9475 51.668" stroke="white" stroke-linecap="round" stroke-linejoin="round"/>
<path id="Vector_116" d="M81.8027 54.5225L83.5803 55.5351" stroke="white" stroke-linecap="round" stroke-linejoin="round"/>
<path id="Vector_117" d="M85.5957 56.7097L87.3625 57.7332" stroke="white" stroke-linecap="round" stroke-linejoin="round"/>
<path id="Vector_118" d="M93.1699 61.0833L94.9475 62.1067" stroke="white" stroke-linecap="round" stroke-linejoin="round"/>
</g>
<path id="Vector_119" d="M74.7801 117.083L72.0222 118.677C64.6749 122.922 64.6749 129.86 72.0222 134.104L85.855 142.087C92.222 145.761 102.629 145.761 108.996 142.087L111.581 140.59C114.522 138.888 116.925 134.718 116.925 131.325V107.419C116.925 104.026 114.555 99.7917 111.668 98.0142" stroke="#040919" stroke-linecap="round" stroke-linejoin="round"/>
<path id="Vector_120" d="M116.925 124.85V107.408C116.925 104.015 114.555 99.781 111.668 98.0034" stroke="#02E56A" stroke-linecap="round" stroke-linejoin="round"/>
<path id="Vector_121" d="M121.58 122.168V104.726C121.58 101.332 119.209 97.0984 116.322 95.3208" stroke="#02E56A" stroke-linecap="round" stroke-linejoin="round"/>
<path id="Vector_122" d="M126.234 119.485V102.043C126.234 98.6494 123.864 94.4155 120.977 92.6379" stroke="#02E56A" stroke-linecap="round" stroke-linejoin="round"/>
<path id="Vector_123" d="M121.578 122.167V129.192C121.578 131.734 123.377 134.848 125.575 136.119L129.27 138.252" stroke="#040919" stroke-linecap="round" stroke-linejoin="round"/>
<path id="Vector_124" d="M126.234 119.485V126.509C126.234 129.051 128.033 132.165 130.231 133.436L133.926 135.569" stroke="#040919" stroke-linecap="round" stroke-linejoin="round"/>
</g>
</g>
</g>
<defs>
<linearGradient id="paint0_linear_3535_3771" x1="9" y1="113.603" x2="171.977" y2="113.603" gradientUnits="userSpaceOnUse">
<stop stop-color="#D0D3F5"/>
<stop offset="0.06" stop-color="#D0D3F5" stop-opacity="0.78"/>
<stop offset="0.14" stop-color="#D0D3F5" stop-opacity="0.55"/>
<stop offset="0.21" stop-color="#D0D3F5" stop-opacity="0.35"/>
<stop offset="0.28" stop-color="#D0D3F5" stop-opacity="0.2"/>
<stop offset="0.35" stop-color="#D0D3F5" stop-opacity="0.09"/>
<stop offset="0.4" stop-color="#D0D3F5" stop-opacity="0.02"/>
<stop offset="0.45" stop-color="#D0D3F5" stop-opacity="0"/>
</linearGradient>
</defs>
</svg>
