<svg width="180" height="181" viewBox="0 0 180 181" fill="none" xmlns="http://www.w3.org/2000/svg">
<g id="Frame 47223">
<g id="Group">
<g id="Group_2">
<path id="Vector" d="M89.64 175.902L165.28 132.232L89.64 88.5615L14 132.232L89.64 175.902Z" fill="url(#paint0_linear_3535_3907)"/>
<path id="Vector_2" d="M89.64 97.5315L157.51 136.712L165.28 132.232L89.64 88.5615L14 132.232L21.77 136.712L89.64 97.5315Z" fill="#D0D3F5"/>
<path id="Vector_3" d="M89.6395 106.551L149.7 141.232L157.51 136.712L89.6395 97.5315L21.7695 136.712L29.5795 141.232L89.6395 106.551Z" fill="#040919"/>
<path id="Vector_4" d="M89.64 88.5615V97.5315L21.77 136.712L14 132.232L89.64 88.5615Z" fill="#040919"/>
<path id="Vector_5" d="M89.6395 97.5315L21.7695 136.712" stroke="#02E56A" stroke-linecap="round" stroke-linejoin="round"/>
<g id="Group_3">
<path id="Vector_6" d="M85.9702 154.461H77.9902V162.441H85.9702V154.461Z" fill="#040919"/>
<path id="Vector_7" d="M109.92 154.461V162.441H112.95L117.9 159.591V154.461H109.92Z" fill="#040919"/>
<path id="Vector_8" d="M93.9488 146.481H85.9688V154.461H93.9488V146.481Z" fill="#040919"/>
<path id="Vector_9" d="M77.9897 122.542H70.0098V130.521H77.9897V122.542Z" fill="#040919"/>
<path id="Vector_10" d="M77.9897 130.521H70.0098V138.501H77.9897V130.521Z" fill="#040919"/>
</g>
</g>
<g id="Group_4">
<path id="Vector_11" d="M141.999 104.621L81.159 69.4913C78.759 68.1113 74.839 68.1113 72.449 69.4913L29.449 94.3113L26.959 94.0813V97.2213C26.959 98.1313 27.559 99.0413 28.759 99.7413L91.239 135.811C93.639 137.191 97.559 137.191 99.949 135.811L143.639 110.591C144.839 109.901 145.439 108.991 145.439 108.081V104.941L142.009 104.631L141.999 104.621Z" fill="#2E1FB1"/>
<path id="Vector_12" d="M81.1492 66.3514C78.7492 64.9714 74.8292 64.9714 72.4392 66.3514L28.7492 91.5714C27.5492 92.2614 26.9492 93.1714 26.9492 94.0914C26.9492 95.0114 27.5492 95.9114 28.7492 96.6114L91.2292 132.681C93.6292 134.061 97.5492 134.061 99.9392 132.681L143.629 107.461C144.829 106.771 145.429 105.861 145.429 104.941C145.429 104.021 144.829 103.121 143.629 102.421L81.1492 66.3514Z" fill="url(#paint1_linear_3535_3907)"/>
<path id="Vector_13" d="M160.05 41.3814C162.45 42.7614 163.82 46.0814 163.1 48.7514L149.29 100.081C148.57 102.751 146.02 103.811 143.63 102.421L81.15 66.3514C78.75 64.9714 77.38 61.6514 78.1 58.9814L91.91 7.65141C92.63 4.98141 95.1801 3.92141 97.5701 5.31141L160.05 41.3814Z" fill="url(#paint2_linear_3535_3907)"/>
<path id="Vector_14" d="M117.24 41.2213L108.899 72.2113L72.7695 51.3513L81.1095 20.3613L117.24 41.2213Z" stroke="#02E56A" stroke-linecap="round" stroke-linejoin="round"/>
<path id="Vector_15" d="M129.42 78.1415L128.01 83.4115L116.93 77.0215L118.35 71.7515L129.42 78.1415Z" fill="#666BFF"/>
<path id="Vector_16" d="M124.289 45.5015L144.849 57.3715" stroke="#666BFF" stroke-linecap="round" stroke-linejoin="round"/>
<path id="Vector_17" d="M123.439 49.7715L143.999 61.6315" stroke="#666BFF" stroke-linecap="round" stroke-linejoin="round"/>
<path id="Vector_18" d="M122.58 54.0315L131.92 59.4215" stroke="#666BFF" stroke-linecap="round" stroke-linejoin="round"/>
<path id="Vector_19" d="M59.8594 85.2914L82.5194 72.2114L133.479 101.631L110.819 114.711L59.8594 85.2914Z" fill="#02E56A"/>
<path id="Vector_20" d="M51.3398 105.391L75.9999 119.631" stroke="#BCC0E5" stroke-linecap="round" stroke-linejoin="round"/>
<path id="Vector_21" d="M95.0098 12.1914L158.47 48.8314" stroke="#4331E8" stroke-linecap="round" stroke-linejoin="round"/>
</g>
<g id="Group_5">
<path id="Vector_22" d="M118.199 159.412V156.192C118.199 145.562 131.909 147.472 131.909 138.502V128.912C131.909 127.232 130.719 125.162 129.259 124.322L124.559 121.612" stroke="#02E56A" stroke-linecap="round" stroke-linejoin="round"/>
<path id="Vector_23" d="M124.559 121.602L122.799 122.622L126.359 120.562" stroke="#02E56A" stroke-linecap="round" stroke-linejoin="round"/>
</g>
</g>
</g>
<defs>
<linearGradient id="paint0_linear_3535_3907" x1="127.54" y1="132.232" x2="114.87" y2="132.232" gradientUnits="userSpaceOnUse">
<stop stop-color="#040919"/>
<stop offset="0.05" stop-color="#080C28"/>
<stop offset="0.24" stop-color="#1A1762"/>
<stop offset="0.42" stop-color="#282092"/>
<stop offset="0.59" stop-color="#3427B7"/>
<stop offset="0.75" stop-color="#3C2CD2"/>
<stop offset="0.89" stop-color="#412FE2"/>
<stop offset="1" stop-color="#4331E8"/>
</linearGradient>
<linearGradient id="paint1_linear_3535_3907" x1="45.1992" y1="99.5114" x2="71.9392" y2="99.5114" gradientUnits="userSpaceOnUse">
<stop stop-color="#D0D3F5"/>
<stop offset="0.17" stop-color="#E9EAFA"/>
<stop offset="0.32" stop-color="#F9F9FD"/>
<stop offset="0.45" stop-color="white"/>
</linearGradient>
<linearGradient id="paint2_linear_3535_3907" x1="113.65" y1="41.7914" x2="118.72" y2="50.6014" gradientUnits="userSpaceOnUse">
<stop stop-color="#040919"/>
<stop offset="0.05" stop-color="#080C28"/>
<stop offset="0.24" stop-color="#1A1762"/>
<stop offset="0.42" stop-color="#282092"/>
<stop offset="0.59" stop-color="#3427B7"/>
<stop offset="0.75" stop-color="#3C2CD2"/>
<stop offset="0.89" stop-color="#412FE2"/>
<stop offset="1" stop-color="#4331E8"/>
</linearGradient>
</defs>
</svg>
