<svg width="28" height="28" viewBox="0 0 28 28" fill="none" xmlns="http://www.w3.org/2000/svg">
<g id="CirclesThreePlus">
<path id="Vector" d="M21.3125 17.0742V24.9492M25.25 21.0117H17.375M11.75 6.38672C11.75 9.18266 9.48344 11.4492 6.6875 11.4492C3.89156 11.4492 1.625 9.18266 1.625 6.38672C1.625 3.59078 3.89156 1.32422 6.6875 1.32422C9.48344 1.32422 11.75 3.59078 11.75 6.38672ZM26.375 6.38672C26.375 9.18266 24.1084 11.4492 21.3125 11.4492C18.5166 11.4492 16.25 9.18266 16.25 6.38672C16.25 3.59078 18.5166 1.32422 21.3125 1.32422C24.1084 1.32422 26.375 3.59078 26.375 6.38672ZM11.75 21.0117C11.75 23.8077 9.48344 26.0742 6.6875 26.0742C3.89156 26.0742 1.625 23.8077 1.625 21.0117C1.625 18.2158 3.89156 15.9492 6.6875 15.9492C9.48344 15.9492 11.75 18.2158 11.75 21.0117Z" stroke="#111013" stroke-width="2" stroke-linecap="round" stroke-linejoin="round"/>
</g>
</svg>
