<svg width="31" height="28" viewBox="0 0 31 28" fill="none" xmlns="http://www.w3.org/2000/svg">
<g id="TreeStructure">
<path id="Vector" d="M9.26172 14.2949H14.8867M20.5117 22.1699H18.2617C17.3666 22.1699 16.5082 21.8143 15.8752 21.1814C15.2423 20.5485 14.8867 19.69 14.8867 18.7949V9.79492C14.8867 8.89982 15.2423 8.04137 15.8752 7.40844C16.5082 6.7755 17.3666 6.41992 18.2617 6.41992H20.5117M2.51172 10.3574H8.13672C8.75804 10.3574 9.26172 10.8611 9.26172 11.4824V17.1074C9.26172 17.7287 8.75804 18.2324 8.13672 18.2324H2.51172C1.8904 18.2324 1.38672 17.7287 1.38672 17.1074V11.4824C1.38672 10.8611 1.8904 10.3574 2.51172 10.3574ZM21.6367 1.91992H28.3867C29.008 1.91992 29.5117 2.4236 29.5117 3.04492V9.79492C29.5117 10.4162 29.008 10.9199 28.3867 10.9199H21.6367C21.0154 10.9199 20.5117 10.4162 20.5117 9.79492V3.04492C20.5117 2.4236 21.0154 1.91992 21.6367 1.91992ZM21.6367 17.6699H28.3867C29.008 17.6699 29.5117 18.1736 29.5117 18.7949V25.5449C29.5117 26.1662 29.008 26.6699 28.3867 26.6699H21.6367C21.0154 26.6699 20.5117 26.1662 20.5117 25.5449V18.7949C20.5117 18.1736 21.0154 17.6699 21.6367 17.6699Z" stroke="#111013" stroke-width="2" stroke-linecap="round" stroke-linejoin="round"/>
</g>
</svg>
