<svg xmlns="http://www.w3.org/2000/svg" width="18" height="14" viewBox="0 0 18 14" fill="none">
<path fillRule="evenodd" clipRule="evenodd" d="M1.97216 6.06167C6.34495 4.15649 9.26087 2.90048 10.7198 2.29368C14.8855 0.561061 15.7511 0.260065 16.3152 0.250104C16.4393 0.247936 16.7168 0.278698 16.8965 0.424538C17.1631 0.640866 17.1646 1.11044 17.135 1.42122C16.9092 3.79309 15.9325 9.54893 15.4355 12.2055C15.2252 13.3295 14.8112 13.7065 14.4104 13.7433C13.5394 13.8235 12.8779 13.1676 12.0342 12.6146C10.7141 11.7492 9.96822 11.2105 8.68671 10.366C7.20576 9.39008 8.16581 8.85372 9.0098 7.9771C9.2307 7.7477 13.0686 4.25675 13.1429 3.94005C13.1523 3.90044 13.1609 3.75278 13.0732 3.67485C12.9854 3.59692 12.856 3.62352 12.7626 3.64473C12.6302 3.67479 10.5212 5.0688 6.43554 7.82669C5.83689 8.23778 5.29466 8.43805 4.80886 8.42756C4.27326 8.41602 3.24306 8.12475 2.47718 7.87579C1.53781 7.57046 0.791205 7.40897 0.856244 6.89042C0.890112 6.62024 1.26206 6.34403 1.97216 6.06167Z" fill="white"/>
</svg>