<svg width="86" height="33" viewBox="0 0 86 33" fill="none" xmlns="http://www.w3.org/2000/svg">
<g id="tinder-1 1" clip-path="url(#clip0_3535_2491)">
<path id="Vector" d="M12.6298 0.710949C12.8365 0.809757 12.9674 1.01443 13.1327 1.17676C13.4014 1.41672 13.6012 1.73432 13.863 1.98134C14.1868 2.29894 14.3935 2.70123 14.6622 3.06117C15.1306 3.78812 15.544 4.56447 15.7575 5.4114C15.978 5.99013 16.0124 6.61827 15.9986 7.23935C16.0124 7.80397 15.8609 8.36153 15.6128 8.86968C15.1857 9.63898 14.4142 10.1542 13.6081 10.4294C12.6023 10.6765 11.4931 10.7188 10.5218 10.2812C10.1704 10.0836 9.77087 9.94952 9.48842 9.63898C8.83396 9.08847 8.45506 8.19214 8.57906 7.32404C8.77195 5.7784 9.67442 4.45155 10.6389 3.30819C10.7284 3.47758 10.6526 3.67519 10.7147 3.85164C10.7973 4.2257 10.9282 4.62093 11.2038 4.88912C11.5414 4.57153 11.8997 4.25393 12.189 3.88693C12.4508 3.49169 12.6643 3.05412 12.7538 2.58831C12.7746 1.99546 12.8297 1.37437 12.6092 0.809757L12.6298 0.710949ZM0.00908166 7.76162C1.62112 7.77573 3.24005 7.7475 4.85215 7.77574C4.85215 9.42019 4.86586 11.0646 4.8452 12.7091C5.98885 12.7303 7.13236 12.7161 8.28283 12.7161C8.29661 12.8432 8.3035 12.9702 8.3035 13.0973C8.28972 14.4523 8.31039 15.8004 8.28972 17.1555C7.13925 17.1696 5.99567 17.1555 4.8452 17.1625C4.86586 19.5974 4.83831 22.0253 4.85897 24.4602C4.90031 24.6719 4.92786 24.8837 4.92097 25.1025C4.90024 25.3001 5.01735 25.4625 5.05876 25.6459C5.14831 26.0694 5.37565 26.4505 5.63737 26.7823C6.02322 27.1775 6.51917 27.4528 7.04962 27.5727C7.53186 27.6504 8.01409 27.6926 8.50328 27.6574C8.53077 27.742 8.54462 27.8267 8.54462 27.9185C8.53773 29.1889 8.53773 30.4593 8.54462 31.7226C8.54462 31.8991 8.51017 32.0755 8.48261 32.2448C7.78682 32.2448 7.09109 32.2942 6.39523 32.2448C5.98189 32.1531 5.54106 32.1954 5.14143 32.0119C4.03229 31.7437 2.97137 31.1791 2.17913 30.3251C1.01488 29.1748 0.38798 27.5515 0.133085 25.9423C0.0641942 25.7659 0.105528 25.5612 0.0779033 25.3707C-0.0184745 24.9825 0.0227909 24.5731 0.00901281 24.1779C0.00219265 18.7082 0.00219261 13.2314 0.00908166 7.76162ZM23.5421 12.335C23.8314 12.2574 24.1414 12.3139 24.4307 12.2503C25.0369 12.1727 25.6363 12.2715 26.2356 12.2927C26.6559 12.2856 27.0623 12.4127 27.4757 12.4974C29.0119 12.8785 30.4655 13.7183 31.5195 14.9464C31.7055 15.264 31.988 15.4969 32.167 15.8215C32.6148 16.5485 32.9111 17.3601 33.1659 18.1788C33.3245 18.7787 33.4071 19.3998 33.4829 20.0138C33.5174 21.376 33.4967 22.7452 33.5036 24.1073C33.4967 26.8245 33.5105 29.5418 33.4967 32.259C31.8847 32.2378 30.2795 32.2519 28.6744 32.2449C28.6606 32.2378 28.6261 32.2096 28.6124 32.1955C28.6055 28.3914 28.6124 24.5872 28.6124 20.7902C28.6192 20.3244 28.5366 19.8727 28.4401 19.428C28.2679 18.9764 28.0475 18.5458 27.7443 18.1788C27.5651 17.96 27.3172 17.8189 27.1174 17.6283C26.8074 17.4166 26.4422 17.3178 26.091 17.219C25.905 17.2049 25.719 17.219 25.5467 17.1555C24.8096 17.1061 24.0587 17.1696 23.3698 17.4589C22.8668 17.706 22.3984 18.0447 22.0678 18.5176C21.5235 19.181 21.3444 20.0844 21.3582 20.9313C21.3582 24.7002 21.3651 28.4761 21.3582 32.2449C19.7323 32.259 18.1066 32.2378 16.4807 32.259C16.4532 28.6243 16.4807 24.9825 16.467 21.3477C16.4738 20.8819 16.4601 20.4161 16.4945 19.9502C16.5841 19.7173 16.522 19.4633 16.5909 19.2374C16.7149 18.3764 17.0318 17.5577 17.3831 16.7743C17.7276 16.0897 18.1409 15.4333 18.6783 14.8899C19.0986 14.4523 19.5325 13.9935 20.063 13.69C21.0896 12.9561 22.3021 12.5115 23.5421 12.335ZM81.2723 12.2927C81.8716 12.2786 82.4641 12.1586 83.0635 12.2574C83.3872 12.2997 83.7179 12.2927 84.0417 12.3068C84.1037 12.9208 84.0554 13.5419 84.0692 14.1559V16.6261C84.0692 16.7814 84.0899 16.9437 84.0279 17.0919C83.8694 16.972 83.6559 17.0143 83.4768 16.9649C82.7465 16.9014 81.9956 16.9367 81.3067 17.219C80.4869 17.5084 79.7704 18.1224 79.3708 18.92C79.2537 19.0682 79.2537 19.2799 79.1228 19.4211C78.9092 20.2115 78.8955 21.0373 78.9092 21.8489C78.9023 25.3213 78.9299 28.7867 78.8955 32.2591C77.2903 32.2379 75.6783 32.2591 74.0662 32.245C74.0524 32.2308 74.0317 32.2026 74.018 32.1885V20.8608C73.9973 20.388 74.1006 19.9292 74.0938 19.4634C74.204 19.2376 74.1765 18.9764 74.2454 18.7435C74.5898 16.9579 75.5061 15.2711 76.8977 14.1207C77.1663 13.8102 77.5521 13.662 77.869 13.4149C78.8956 12.7726 80.0874 12.4621 81.2723 12.2927ZM9.86731 12.7091C11.4931 12.7373 13.1189 12.702 14.7448 12.7232C14.7448 19.181 14.7379 25.6317 14.7448 32.0826C14.7448 32.1461 14.7448 32.2731 14.6483 32.2519H9.88116C9.83976 31.1862 9.8742 30.1134 9.86042 29.0477C9.86731 23.6062 9.86042 18.1577 9.86731 12.7091ZM60.8807 25.8082C61.2941 25.6459 61.6936 25.4342 62.1138 25.286C62.72 25.0461 63.3125 24.7567 63.9187 24.5167C65.1725 23.924 66.4677 23.4299 67.7353 22.8723C68.0383 22.7029 68.3828 22.6253 68.679 22.4418C69.0166 22.3077 69.3542 22.1876 69.6849 22.0323C69.9742 21.8559 70.3049 21.7853 70.6011 21.6301C70.9938 21.4677 71.3727 21.2843 71.7723 21.1361C72.1787 20.9031 72.6334 20.7903 73.0398 20.5643C73.1501 20.4867 73.3291 20.5079 73.398 20.3738C73.281 20.2045 73.3429 19.9927 73.281 19.8092C73.1913 19.4775 73.1018 19.1528 73.0261 18.8282C72.7161 17.8472 72.2683 16.9085 71.662 16.0898C70.9249 14.9959 69.9122 14.1136 68.7893 13.4643C68.0522 13.0056 67.2255 12.7444 66.3988 12.5186C65.889 12.4551 65.3999 12.2716 64.8832 12.2786C64.4147 12.2151 63.9325 12.1869 63.471 12.2716C62.6512 12.2857 61.8658 12.4904 61.0873 12.7233C59.7302 13.2103 58.4419 13.9513 57.4017 14.9747C57.0917 15.2711 56.8368 15.6169 56.5406 15.9204C56.079 16.5274 55.6587 17.1696 55.3419 17.8613C54.8941 18.8988 54.467 19.9857 54.4187 21.1361C54.2672 21.6866 54.3154 22.2653 54.3085 22.8299C54.2947 23.1899 54.3498 23.5428 54.4187 23.8886C54.3981 24.2555 54.5359 24.5944 54.5841 24.9473C54.7012 25.6954 55.025 26.387 55.3212 27.0786C56.1341 28.7866 57.4154 30.2687 59.0206 31.2356C60.0746 31.8991 61.2458 32.3719 62.472 32.5484C63.471 32.7108 64.4974 32.7389 65.5032 32.6049C65.8477 32.6331 66.1783 32.4778 66.5228 32.4566C67.9902 32.1037 69.43 31.4685 70.5391 30.4028C70.8699 30.1346 71.1799 29.817 71.4417 29.4782C71.8825 29.0194 72.1995 28.4619 72.5163 27.9114C72.8195 27.3256 73.0675 26.7045 73.2467 26.0623C73.1502 26.0199 73.04 26.0341 72.9435 26.0341C71.3315 26.0412 69.7263 26.027 68.1143 26.0341C67.9627 26.0341 67.9628 26.2458 67.8662 26.3305C67.5907 26.7399 67.2393 27.0857 66.8673 27.4103C66.33 27.8056 65.6962 28.0174 65.0693 28.2079C64.9039 28.2291 64.7455 28.222 64.5939 28.2856C64.2082 28.3137 63.8155 28.2997 63.4228 28.2926C62.9888 28.2079 62.5548 28.1091 62.1345 27.968C61.487 27.6292 60.8532 27.241 60.3641 26.6904C60.2401 26.5352 60.0403 26.4153 59.9989 26.2105C60.1092 26.1611 60.2126 26.0835 60.3365 26.0623C60.5363 26.027 60.6878 25.8647 60.8807 25.8082ZM58.8966 22.237C58.8002 21.99 58.8897 21.7006 58.876 21.4395C58.9862 21.0795 59.0207 20.6984 59.1515 20.3384C59.4822 19.5409 59.8886 18.7576 60.4811 18.1294C60.7567 17.8964 60.9909 17.6141 61.3078 17.4377C61.542 17.3107 61.7694 17.1695 62.0105 17.0566C62.4583 16.9226 62.8923 16.7108 63.3608 16.7108C63.7878 16.605 64.2288 16.6614 64.6628 16.6684C65.7994 16.8308 66.9431 17.3318 67.6802 18.2564C67.756 18.44 67.501 18.4541 67.3977 18.5247C66.9499 18.7787 66.447 18.9057 65.9992 19.1669C65.7995 19.2022 65.6272 19.3292 65.4343 19.3928C64.0083 20.028 62.5547 20.5854 61.1425 21.2489C60.3847 21.5524 59.6338 21.8771 58.8966 22.237ZM53.7643 4.08454C52.2556 4.07043 50.7469 4.08454 49.2382 4.07749C49.1279 4.0916 48.9971 4.0422 48.9075 4.12689C48.9213 7.44402 48.9075 10.7682 48.9145 14.0853C48.9075 14.2053 48.9351 14.3253 48.8869 14.4382C48.7491 14.4171 48.6802 14.283 48.5769 14.2053C47.8811 13.5913 47.1027 13.069 46.2346 12.7655C45.649 12.5326 45.036 12.4127 44.416 12.2997C43.7133 12.2856 43.0037 12.2645 42.2941 12.3068C42.2183 12.328 42.1494 12.3491 42.0737 12.3562C40.4961 12.582 39.0218 13.3372 37.8094 14.3747C37.1342 15.024 36.4591 15.7016 35.9838 16.5203C35.4258 17.3319 35.0675 18.2635 34.7231 19.181C34.5646 19.7598 34.4061 20.3314 34.3372 20.9243C34.2063 21.8347 34.2614 22.7664 34.2752 23.6839C34.3097 23.9238 34.3854 24.1497 34.3923 24.3896C34.5163 25.166 34.7368 25.9282 35.0398 26.6552C35.2947 27.3539 35.7081 27.9891 36.087 28.6243C36.3556 28.9772 36.6174 29.3442 36.9412 29.6547C37.4235 30.1417 37.8987 30.671 38.505 31.0098C39.2214 31.5673 40.0688 31.8991 40.8955 32.2237C41.1986 32.2802 41.481 32.4566 41.791 32.4637C42.0528 32.4848 42.2939 32.6119 42.5558 32.5977C42.6936 32.5836 42.8176 32.6824 42.9622 32.6683C43.6304 32.6894 44.3055 32.6894 44.9738 32.6683C45.084 32.6683 45.1942 32.6189 45.3113 32.6118C45.7728 32.6189 46.2 32.4354 46.6477 32.3718C47.2333 32.1531 47.8603 32.0119 48.4045 31.6873C49.2105 31.3062 49.9407 30.7698 50.5952 30.1628C51.4219 29.4288 52.0901 28.5113 52.5861 27.5091C52.7997 27.0644 53.0408 26.6339 53.1786 26.154C53.4404 25.4906 53.5575 24.7848 53.6471 24.0861C53.7986 23.4721 53.7504 22.8298 53.7641 22.1946C53.7643 16.1603 53.7643 10.126 53.7643 4.08454ZM48.8662 23.1969C48.8249 23.9451 48.5493 24.6578 48.2255 25.3283C47.6813 26.3799 46.7651 27.1845 45.7248 27.6926C45.5663 27.7773 45.3596 27.7703 45.2495 27.9255C45.0566 27.9255 44.8637 27.9327 44.6777 28.0033C44.0852 28.0174 43.4721 28.0738 42.8934 27.9044C42.6454 27.7845 42.3699 27.7351 42.1219 27.601C41.8118 27.4245 41.4605 27.3045 41.2056 27.0363C40.7234 26.6905 40.3514 26.2177 40.0138 25.7307C39.7451 25.2578 39.4765 24.7708 39.3525 24.2344C39.2147 23.9521 39.2284 23.6345 39.1527 23.3381C39.132 22.583 39.0907 21.8066 39.2629 21.0726C39.3387 20.8397 39.387 20.5926 39.4696 20.3597C39.6693 19.9856 39.7934 19.5693 40.0551 19.2305C40.1929 18.9341 40.434 18.7152 40.627 18.4612C41.1437 17.8542 41.8532 17.4661 42.5696 17.1626C42.8383 17.0991 43.1001 16.958 43.3826 16.958C43.9544 16.8097 44.5468 16.9298 45.1118 17.0356C45.8558 17.3109 46.5929 17.692 47.1716 18.2566C47.3852 18.4613 47.5435 18.7154 47.7572 18.92C48.6389 20.1338 49.0453 21.6936 48.8662 23.1969ZM81.231 29.7747H83.0359C83.0428 29.9158 83.0428 30.057 83.0359 30.1981C82.8293 30.2264 82.6226 30.1911 82.4228 30.2193C82.3953 30.8545 82.4228 31.4826 82.4091 32.1178C82.2231 32.1037 82.0371 32.1037 81.858 32.1108C81.8372 31.6096 81.8442 31.1015 81.851 30.6004C81.851 30.4663 81.8786 30.3111 81.7615 30.2193C81.5823 30.1912 81.4032 30.2264 81.2241 30.1981C81.2172 30.057 81.2172 29.9158 81.231 29.7747ZM83.3666 29.7817C83.6215 29.7746 83.8764 29.7605 84.1314 29.7958C84.1176 30.0005 84.2829 30.1416 84.3311 30.3322C84.4 30.5721 84.5033 30.798 84.5722 31.038C84.6273 31.1439 84.7237 31.2356 84.6893 31.3697C84.8271 30.8192 85.0406 30.2969 85.2542 29.7817C85.4953 29.7746 85.7433 29.7676 85.9913 29.7817C86.005 30.5368 85.9913 31.3062 85.9913 32.0614C85.826 32.0755 85.6606 32.0755 85.4884 32.0614C85.4953 31.5321 85.4884 31.0027 85.5021 30.4804C85.4402 30.5369 85.3781 30.5863 85.3299 30.6569C85.2404 31.1368 84.9992 31.5744 84.8821 32.0543C84.7443 32.0756 84.6135 32.0756 84.4757 32.0614C84.4343 31.7933 84.2483 31.5745 84.2483 31.2992C84.0624 31.0662 84.0554 30.7346 83.9108 30.4735C83.8144 30.664 83.8902 30.8898 83.8694 31.0945C83.8419 31.4263 83.9039 31.765 83.8419 32.0967C83.6766 32.0967 83.4905 32.1532 83.3597 32.0332C83.3804 31.285 83.3597 30.5369 83.3666 29.7817Z" fill="#161519"/>
</g>
<defs>
<clipPath id="clip0_3535_2491">
<rect width="86" height="32" fill="white" transform="translate(0 0.699219)"/>
</clipPath>
</defs>
</svg>
