<svg width="31" height="27" viewBox="0 0 31 27" fill="none" xmlns="http://www.w3.org/2000/svg">
<g id="TreeStructure">
<path id="Vector" d="M8.927 13.5957H14.552M20.177 21.4707H17.927C17.0319 21.4707 16.1735 21.1151 15.5405 20.4822C14.9076 19.8493 14.552 18.9908 14.552 18.0957V9.0957C14.552 8.2006 14.9076 7.34215 15.5405 6.70922C16.1735 6.07628 17.0319 5.7207 17.927 5.7207H20.177M2.177 9.6582H7.802C8.42332 9.6582 8.927 10.1619 8.927 10.7832V16.4082C8.927 17.0295 8.42332 17.5332 7.802 17.5332H2.177C1.55568 17.5332 1.052 17.0295 1.052 16.4082V10.7832C1.052 10.1619 1.55568 9.6582 2.177 9.6582ZM21.302 1.2207H28.052C28.6733 1.2207 29.177 1.72438 29.177 2.3457V9.0957C29.177 9.71702 28.6733 10.2207 28.052 10.2207H21.302C20.6807 10.2207 20.177 9.71702 20.177 9.0957V2.3457C20.177 1.72438 20.6807 1.2207 21.302 1.2207ZM21.302 16.9707H28.052C28.6733 16.9707 29.177 17.4744 29.177 18.0957V24.8457C29.177 25.467 28.6733 25.9707 28.052 25.9707H21.302C20.6807 25.9707 20.177 25.467 20.177 24.8457V18.0957C20.177 17.4744 20.6807 16.9707 21.302 16.9707Z" stroke="#111013" stroke-width="2" stroke-linecap="round" stroke-linejoin="round"/>
</g>
</svg>
