<svg width="56" height="56" viewBox="0 0 56 56" fill="none" xmlns="http://www.w3.org/2000/svg">
<g id="Frame 3">
<rect width="56" height="56" rx="28" fill="#02E56A"/>
<path id="Vector" d="M40.5001 16V39.9377H33.571V27.4551H32.2373C32.1254 27.9217 31.9527 28.596 31.7208 29.4029C31.2826 30.9209 31.054 31.7214 30.6718 32.6019C29.861 34.4985 28.7784 35.7688 28.3178 36.3105C27.5198 37.2469 26.6211 37.9835 25.6217 38.5236C25.1275 38.7888 24.6014 39.0173 24.0465 39.1979C23.087 39.575 22.07 39.8274 21.0177 39.9377C20.6131 39.976 20.2022 40 19.7816 40C19.361 40 18.9532 39.976 18.5502 39.9377C17.8562 39.8642 17.1846 39.7348 16.5417 39.5494C16.5273 39.5462 16.5145 39.543 16.5001 39.5382V30.678C16.5145 30.6892 16.5273 30.6988 16.5417 30.7084C20.2885 33.5142 25.6472 32.6961 28.5449 29.077C29.3429 28.0799 29.9569 26.947 30.4191 25.7646C30.4975 25.5648 30.9532 23.9334 31.2075 22.9284H16.5417V16H40.5001Z" fill="#014227"/>
</g>
</svg>
