<svg width="24" height="24" viewBox="0 0 24 24" fill="none" xmlns="http://www.w3.org/2000/svg">
<g id="UPs">
<path id="Union" fillRule="evenodd" clipRule="evenodd" d="M18.7595 5.9894C18.7595 5.79048 18.6804 5.59972 18.5398 5.45906C18.3991 5.31841 18.2084 5.23939 18.0095 5.23939L9.42518 5.23939C9.01096 5.23939 8.67518 5.57518 8.67518 5.98939C8.67518 6.40361 9.01096 6.73939 9.42518 6.73939L16.1992 6.73939L5.45858 17.48C5.16569 17.7729 5.16569 18.2478 5.45858 18.5407C5.75148 18.8336 6.22635 18.8336 6.51925 18.5407L17.2595 7.8005V14.5737C17.2595 14.9879 17.5952 15.3237 18.0095 15.3237C18.4237 15.3237 18.7595 14.9879 18.7595 14.5737L18.7595 5.9894Z" fill="#014227"/>
</g>
</svg>
