<svg width="31" height="30" viewBox="0 0 31 30" fill="none" xmlns="http://www.w3.org/2000/svg">
<g id="Fingerprint">
<path id="Vector" d="M5.12793 23.0047C6.36364 20.518 7.00473 17.7782 7.00066 15.0014C6.99938 13.6519 7.30213 12.3196 7.8864 11.1032C8.47068 9.88688 9.32148 8.81778 10.3756 7.97534M16.001 15.0011C16.0081 19.5754 14.8476 24.0759 12.6294 28.0765M11.5 15.0011C11.5 13.8076 11.9741 12.663 12.818 11.8191C13.6619 10.9752 14.8065 10.5011 16 10.5011C17.1935 10.5011 18.3381 10.9752 19.182 11.8191C20.0259 12.663 20.5 13.8076 20.5 15.0011C20.5066 19.6394 19.4848 24.2215 17.5082 28.4176M28.7362 22.8761C29.2464 20.2822 29.5027 17.6447 29.5013 15.0011C29.5013 11.4207 28.079 7.9869 25.5473 5.45516C23.0155 2.92342 19.5818 1.5011 16.0013 1.5011C12.4209 1.5011 8.98714 2.92342 6.4554 5.45516C3.92366 7.9869 2.50134 11.4207 2.50134 15.0011C2.50302 16.5339 2.24323 18.0557 1.73315 19.5011M11.0503 19.5011C10.57 21.8667 9.70977 24.1388 8.50293 26.2293M14.875 6.07073C16.1417 5.9123 17.4277 6.02495 18.6476 6.40121C19.8675 6.77748 20.9935 7.40876 21.9509 8.25321C22.9083 9.09766 23.6753 10.136 24.2009 11.2993C24.7266 12.4627 24.999 13.7245 25 15.0011C25.0004 16.5054 24.9073 18.0083 24.7215 19.501M23.8675 24.0011C23.6533 24.8334 23.4104 25.6538 23.1389 26.462" stroke="#111013" stroke-width="2" stroke-linecap="round" stroke-linejoin="round"/>
</g>
</svg>
