<svg width="24" height="25" viewBox="0 0 24 25" fill="none" xmlns="http://www.w3.org/2000/svg">
<g id="vuesax/bulk/verify">
<g id="verify">
<path id="Vector" opacity="0.4" d="M10.75 2.62683C11.44 2.03683 12.57 2.03683 13.27 2.62683L14.85 3.98683C15.15 4.24683 15.71 4.45683 16.11 4.45683H17.81C18.87 4.45683 19.74 5.32683 19.74 6.38683V8.08683C19.74 8.47683 19.95 9.04683 20.21 9.34683L21.57 10.9268C22.16 11.6168 22.16 12.7468 21.57 13.4468L20.21 15.0268C19.95 15.3268 19.74 15.8868 19.74 16.2868V17.9868C19.74 19.0468 18.87 19.9168 17.81 19.9168H16.11C15.72 19.9168 15.15 20.1268 14.85 20.3868L13.27 21.7468C12.58 22.3368 11.45 22.3368 10.75 21.7468L9.17 20.3868C8.87 20.1268 8.31 19.9168 7.91 19.9168H6.18C5.12 19.9168 4.25 19.0468 4.25 17.9868V16.2768C4.25 15.8868 4.04 15.3268 3.79 15.0268L2.44 13.4368C1.86 12.7468 1.86 11.6268 2.44 10.9368L3.79 9.34683C4.04 9.04683 4.25 8.48683 4.25 8.09683V6.37683C4.25 5.31683 5.12 4.44683 6.18 4.44683H7.91C8.3 4.44683 8.87 4.23683 9.17 3.97683L10.75 2.62683Z" fill="#02E56A"/>
<path id="Vector_2" d="M10.79 15.3468C10.59 15.3468 10.4 15.2668 10.26 15.1268L7.84 12.7068C7.55 12.4168 7.55 11.9368 7.84 11.6468C8.13 11.3568 8.61 11.3568 8.9 11.6468L10.79 13.5368L15.09 9.23679C15.38 8.94679 15.86 8.94679 16.15 9.23679C16.44 9.52679 16.44 10.0068 16.15 10.2968L11.32 15.1268C11.18 15.2668 10.99 15.3468 10.79 15.3468Z" fill="#02E56A"/>
</g>
</g>
</svg>
