<svg width="133" height="33" viewBox="0 0 133 33" fill="none" xmlns="http://www.w3.org/2000/svg">
<g id="Walmart_logo" clip-path="url(#clip0_3535_2514)">
<g id="Vector">
<path d="M77.1401 17.7282C77.1401 14.568 75.792 11.7758 71.2326 11.7758C68.8935 11.7758 67.0353 12.4448 66.0278 13.0304L66.7662 15.5658C67.6938 14.9818 69.1739 14.5009 70.5708 14.5009C72.879 14.4977 73.2572 15.8078 73.2572 16.6502V16.8531C68.2186 16.8449 65.0335 18.5918 65.0335 22.1495C65.0335 24.3233 66.6505 26.3614 69.4771 26.3614C71.2017 26.3614 72.659 25.6629 73.5294 24.5605H73.6142C73.6142 24.5605 74.188 26.9699 77.3618 26.049C77.2004 25.0397 77.1401 23.9765 77.1401 22.6843V17.7282ZM73.3812 21.065C73.3812 21.3202 73.36 21.5851 73.285 21.8125C72.9948 22.7857 71.9939 23.6003 70.7485 23.6003C69.6972 23.6003 68.8723 23.0033 68.8723 21.752C68.8723 19.8382 70.9783 19.3115 73.3812 19.3246" fill="#161519"/>
<path d="M0 7.47609C0 7.47609 3.2911 20.987 3.81438 23.1755C4.43053 25.7338 5.5341 26.6792 8.71929 26.0494L10.7764 17.6714C11.2964 15.5957 11.6501 14.1072 11.986 11.9923H12.043C12.2761 14.1285 12.6119 15.5957 13.0373 17.6779C13.0373 17.6779 13.8768 21.4842 14.3121 23.4781C14.7359 25.472 15.9291 26.7299 19.054 26.0494L23.9507 7.47609H19.9978L18.3172 15.5106C17.8722 17.8382 17.4679 19.6719 17.1533 21.8048H17.0962C16.8126 19.6948 16.4524 17.9364 15.9894 15.6562L14.2485 7.47609H10.1244L8.2661 15.4468C7.7363 17.8808 7.24078 19.8322 6.92942 21.898H6.87565C6.55454 19.9597 6.11931 17.4915 5.65796 15.1492C5.65796 15.1492 4.5544 9.4422 4.16484 7.47609" fill="#161519"/>
<path d="M34.9669 17.7282C34.9669 14.568 33.6155 11.7758 29.0562 11.7758C26.7236 11.7758 24.862 12.4448 23.8547 13.0304L24.593 15.5658C25.5173 14.9818 26.9958 14.5009 28.3977 14.5009C30.7058 14.4977 31.084 15.8078 31.084 16.6502V16.8531C26.0455 16.8449 22.8571 18.5918 22.8571 22.1495C22.8571 24.3233 24.4806 26.3614 27.2941 26.3614C29.035 26.3614 30.4793 25.6629 31.3498 24.5605H31.4377C31.4377 24.5605 32.0148 26.9699 35.1853 26.049C35.0223 25.0397 34.9669 23.9765 34.9669 22.6843V17.7282ZM31.2047 21.065C31.2047 21.3202 31.1835 21.5851 31.1118 21.8125C30.8183 22.7857 29.8175 23.6003 28.5688 23.6003C27.5239 23.6003 26.6959 23.0033 26.6959 21.752C26.6959 19.8382 28.8019 19.3115 31.2047 19.3246" fill="#161519"/>
<path d="M37.0181 7.47609V26.0429H40.7803V7.47609H37.0181Z" fill="#161519"/>
<path d="M88.6868 7.47609V21.1751C88.6868 23.0659 89.0405 24.3843 89.8017 25.1923C90.4701 25.9006 91.5638 26.3619 92.8663 26.3619C93.9846 26.3619 95.0783 26.146 95.5951 25.9578L95.5494 23.0087C95.1631 23.0986 94.7213 23.1755 94.1149 23.1755C92.8305 23.1755 92.4066 22.3593 92.4066 20.6615V15.4174H95.6831V11.8696H92.4066V7.47609" fill="#161519"/>
<path d="M78.9628 12.0981V26.049H82.8521V18.9042C82.8521 18.5198 82.8765 18.1878 82.9369 17.8803C83.227 16.3738 84.3664 15.4202 86.0079 15.4202C86.466 15.4202 86.7773 15.4709 87.1229 15.5249V11.8674C86.8327 11.8151 86.6355 11.7873 86.2785 11.7873C84.8229 11.7873 83.1732 12.7147 82.4771 14.7348H82.381V12.0981" fill="#161519"/>
<path d="M42.9651 12.0981V26.049H46.7549V17.8606C46.7549 17.4763 46.7973 17.0837 46.9326 16.7287C47.2407 15.8994 48.0052 14.9393 49.2327 14.9393C50.7584 14.9393 51.4789 16.2315 51.4789 18.0962V26.049H55.2591V17.7625C55.2591 17.401 55.3096 16.9577 55.4155 16.6371C55.7187 15.6966 56.5468 14.9393 57.6912 14.9393C59.2332 14.9393 59.9798 16.2037 59.9798 18.4021V26.049H63.7566V17.823C63.7566 13.5015 61.5658 11.7873 59.0783 11.7873C57.9846 11.7873 57.1141 12.0572 56.3316 12.5414C55.6698 12.9486 55.0896 13.5228 54.5695 14.2736H54.5125C53.9143 12.772 52.5091 11.7873 50.6736 11.7873C48.3198 11.7873 47.2505 12.9797 46.6213 13.9873H46.5642V12.0981" fill="#161519"/>
<path d="M116.038 11.4719C116.781 11.4719 117.407 11.0826 117.488 10.5821L118.225 2.20733C118.225 1.37804 117.252 0.699219 116.038 0.699219C114.817 0.699219 113.85 1.37804 113.85 2.20733L114.593 10.5821C114.672 11.0826 115.294 11.4719 116.038 11.4719Z" fill="#161519"/>
<path d="M111.517 14.0925C111.885 13.4382 111.864 12.712 111.466 12.3881L104.587 7.56114C103.872 7.14241 102.801 7.64129 102.188 8.69796C101.577 9.75298 101.7 10.9372 102.401 11.3478L110.017 14.8907C110.505 15.0739 111.142 14.7337 111.517 14.0859" fill="#161519"/>
<path d="M120.557 14.0856C120.947 14.7334 121.584 15.0736 122.059 14.9002L129.674 11.3475C130.382 10.9287 130.488 9.75592 129.889 8.70089C129.278 7.64423 128.201 7.14862 127.487 7.55918L120.606 12.3812C120.225 12.71 120.197 13.4395 120.565 14.0922" fill="#161519"/>
<path d="M116.038 21.933C116.781 21.933 117.407 22.3223 117.488 22.8229L118.225 31.1976C118.225 32.0269 117.252 32.6992 116.038 32.6992C114.817 32.6992 113.85 32.0269 113.85 31.1976L114.593 22.8229C114.672 22.3223 115.294 21.933 116.038 21.933Z" fill="#161519"/>
<path d="M120.557 19.3199C120.947 18.6705 121.584 18.3237 122.059 18.5118L129.674 22.058C130.382 22.4686 130.488 23.6512 129.889 24.7078C129.278 25.7563 128.201 26.2552 127.487 25.8447L120.606 21.0161C120.225 20.6906 120.197 19.9643 120.565 19.3199" fill="#161519"/>
<path d="M111.517 19.3127C111.885 19.9653 111.864 20.6899 111.466 21.0171L104.587 25.8375C103.872 26.2562 102.801 25.7557 102.188 24.7072C101.577 23.6522 101.7 22.4679 102.401 22.0574L110.017 18.5112C110.505 18.3247 111.142 18.6682 111.517 19.3127Z" fill="#161519"/>
<path d="M131.903 25.1097H131.998C132.126 25.1097 132.178 25.1506 132.193 25.2537C132.221 25.3682 132.236 25.4451 132.263 25.4778H132.508C132.487 25.4532 132.459 25.3911 132.444 25.2471C132.416 25.1228 132.353 25.0525 132.263 25.028V25.0051C132.387 24.9772 132.459 24.8938 132.459 24.7908C132.459 24.6975 132.416 24.6305 132.374 24.5879C132.293 24.5487 132.214 24.5176 132.041 24.5176C131.888 24.5176 131.776 24.5307 131.686 24.552V25.4778H131.903V25.1097ZM131.909 24.6877L132.02 24.673C132.151 24.673 132.221 24.7335 132.221 24.8186C132.221 24.9135 132.126 24.9576 132.006 24.9576H131.909V24.6877ZM132.048 24.0596C131.513 24.0596 131.09 24.4784 131.09 24.992C131.09 25.5187 131.513 25.9374 132.048 25.9374C132.589 25.9374 133 25.5187 133 24.992C133 24.4784 132.589 24.0596 132.048 24.0596ZM132.048 24.2477C132.459 24.2477 132.764 24.5814 132.764 24.992C132.764 25.4058 132.459 25.7493 132.048 25.7428C131.637 25.7428 131.326 25.4058 131.326 24.992C131.326 24.5814 131.637 24.2477 132.041 24.2477" fill="#161519"/>
</g>
</g>
<defs>
<clipPath id="clip0_3535_2514">
<rect width="133" height="32" fill="white" transform="translate(0 0.699219)"/>
</clipPath>
</defs>
</svg>
