<svg xmlns="http://www.w3.org/2000/svg" width="24" height="25" viewBox="0 0 24 25" fill="none">
  <path d="M17.9976 7.66C17.9376 7.65 17.8676 7.65 17.8076 7.66C16.4276 7.61 15.3276 6.48 15.3276 5.08C15.3276 3.65 16.4776 2.5 17.9076 2.5C19.3376 2.5 20.4876 3.66 20.4876 5.08C20.4776 6.48 19.3776 7.61 17.9976 7.66Z" stroke="#00BF52" stroke-width="1.5" stroke-linecap="round" stroke-linejoin="round"/>
  <path d="M16.9675 14.9402C18.3375 15.1702 19.8475 14.9302 20.9075 14.2202C22.3175 13.2802 22.3175 11.7402 20.9075 10.8002C19.8375 10.0902 18.3075 9.85016 16.9375 10.0902" stroke="#00BF52" stroke-width="1.5" stroke-linecap="round" stroke-linejoin="round"/>
  <path d="M5.96754 7.66C6.02754 7.65 6.09754 7.65 6.15754 7.66C7.53754 7.61 8.63754 6.48 8.63754 5.08C8.63754 3.65 7.48754 2.5 6.05754 2.5C4.62754 2.5 3.47754 3.66 3.47754 5.08C3.48754 6.48 4.58754 7.61 5.96754 7.66Z" stroke="#00BF52" stroke-width="1.5" stroke-linecap="round" stroke-linejoin="round"/>
  <path d="M6.9975 14.9402C5.6275 15.1702 4.1175 14.9302 3.0575 14.2202C1.6475 13.2802 1.6475 11.7402 3.0575 10.8002C4.1275 10.0902 5.6575 9.85016 7.0275 10.0902" stroke="#00BF52" stroke-width="1.5" stroke-linecap="round" stroke-linejoin="round"/>
  <path d="M12.0001 15.1302C11.9401 15.1202 11.8701 15.1202 11.8101 15.1302C10.4301 15.0802 9.33008 13.9502 9.33008 12.5502C9.33008 11.1202 10.4801 9.97021 11.9101 9.97021C13.3401 9.97021 14.4901 11.1302 14.4901 12.5502C14.4801 13.9502 13.3801 15.0902 12.0001 15.1302Z" stroke="#111111" stroke-width="1.5" stroke-linecap="round" stroke-linejoin="round"/>
  <path d="M9.08997 18.2804C7.67997 19.2204 7.67997 20.7603 9.08997 21.7003C10.69 22.7703 13.31 22.7703 14.91 21.7003C16.32 20.7603 16.32 19.2204 14.91 18.2804C13.32 17.2204 10.69 17.2204 9.08997 18.2804Z" stroke="#111111" stroke-width="1.5" stroke-linecap="round" stroke-linejoin="round"/>
</svg>