<svg xmlns="http://www.w3.org/2000/svg" width="24" height="24" viewBox="0 0 24 24" fill="none">
  <path fill-rule="evenodd" clip-rule="evenodd" d="M3.60156 5.9998C3.60156 5.68154 3.72799 5.37632 3.95303 5.15127C4.17808 4.92624 4.4833 4.7998 4.80156 4.7998H19.2016C19.5198 4.7998 19.8251 4.92624 20.0501 5.15127C20.2751 5.37632 20.4016 5.68154 20.4016 5.9998C20.4016 6.31807 20.2751 6.62329 20.0501 6.84834C19.8251 7.07337 19.5198 7.1998 19.2016 7.1998H4.80156C4.4833 7.1998 4.17808 7.07337 3.95303 6.84834C3.72799 6.62329 3.60156 6.31807 3.60156 5.9998ZM3.60156 17.9998C3.60156 17.6816 3.72799 17.3763 3.95303 17.1513C4.17808 16.9263 4.4833 16.7998 4.80156 16.7998H16.2016C16.5198 16.7998 16.8251 16.9263 17.0501 17.1513C17.2751 17.3763 17.4016 17.6816 17.4016 17.9998C17.4016 18.318 17.2751 18.6233 17.0501 18.8483C16.8251 19.0733 16.5198 19.1998 16.2016 19.1998H4.80156C4.4833 19.1998 4.17808 19.0733 3.95303 18.8483C3.72799 18.6233 3.60156 18.318 3.60156 17.9998Z" fill="#15171E"/>
  <path d="M3.95303 11.1513C3.72799 11.3763 3.60156 11.6815 3.60156 11.9998C3.60156 12.318 3.72799 12.6233 3.95303 12.8483C4.17808 13.0733 4.4833 13.1998 4.80156 13.1998H12.0016C12.3198 13.1998 12.6251 13.0733 12.8501 12.8483C13.0751 12.6233 13.2016 12.318 13.2016 11.9998C13.2016 11.6815 13.0751 11.3763 12.8501 11.1513C12.6251 10.9262 12.3198 10.7998 12.0016 10.7998H4.80156C4.4833 10.7998 4.17808 10.9262 3.95303 11.1513Z" fill="#02E56A"/>
</svg>