<svg xmlns="http://www.w3.org/2000/svg" width="44" height="44" viewBox="0 0 44 44" fill="none">
  <path d="M40.3334 30.6903V8.56201C40.3334 6.36201 38.5367 4.73034 36.3551 4.91368H36.2451C32.3951 5.24368 26.5467 7.20535 23.2834 9.25868L22.9717 9.46034C22.4401 9.79034 21.5601 9.79034 21.0284 9.46034L20.5701 9.18535C17.3067 7.15035 11.4767 5.20701 7.62675 4.89534C5.44508 4.71201 3.66675 6.36201 3.66675 8.54368V30.6903C3.66675 32.4503 5.09675 34.1003 6.85675 34.3203L7.38841 34.3937C11.3667 34.9253 17.5084 36.942 21.0284 38.867L21.1017 38.9037C21.5967 39.1787 22.3851 39.1787 22.8617 38.9037C26.3817 36.9603 32.5417 34.9253 36.5384 34.3937L37.1434 34.3203C38.9034 34.1003 40.3334 32.4503 40.3334 30.6903Z" stroke="white" stroke-width="2.75" stroke-linecap="round" stroke-linejoin="round"/>
  <path d="M22 10.0654V37.5654" stroke="white" stroke-width="2.75" stroke-linecap="round" stroke-linejoin="round"/>
  <path d="M14.2083 15.5654H10.0833" stroke="white" stroke-width="2.75" stroke-linecap="round" stroke-linejoin="round"/>
  <path d="M15.5833 21.0654H10.0833" stroke="white" stroke-width="2.75" stroke-linecap="round" stroke-linejoin="round"/>
</svg>