<svg xmlns="http://www.w3.org/2000/svg" width="44" height="44" viewBox="0 0 44 44" fill="none">
  <path d="M38.3348 20.3863C38.3348 29.3513 31.8265 37.748 22.9348 40.2046C22.3298 40.3696 21.6698 40.3696 21.0648 40.2046C12.1731 37.748 5.66479 29.3513 5.66479 20.3863V12.3379C5.66479 10.8346 6.80149 9.12961 8.21315 8.56128L18.4248 4.38133C20.7164 3.44633 23.3015 3.44633 25.5931 4.38133L35.8048 8.56128C37.1981 9.12961 38.3532 10.8346 38.3532 12.3379L38.3348 20.3863Z" stroke="white" stroke-width="2.75" stroke-linecap="round" stroke-linejoin="round"/>
  <path d="M21.9999 22.9167C24.025 22.9167 25.6666 21.2751 25.6666 19.25C25.6666 17.225 24.025 15.5833 21.9999 15.5833C19.9749 15.5833 18.3333 17.225 18.3333 19.25C18.3333 21.2751 19.9749 22.9167 21.9999 22.9167Z" stroke="white" stroke-width="2.75" stroke-miterlimit="10" stroke-linecap="round" stroke-linejoin="round"/>
  <path d="M21.9998 22.9165V28.4165" stroke="white" stroke-width="2.75" stroke-miterlimit="10" stroke-linecap="round" stroke-linejoin="round"/>
</svg>