<svg width="550" height="544" viewBox="0 0 550 544" fill="none" xmlns="http://www.w3.org/2000/svg">
<path d="M33.6907 0H0V33.6842C0 15.0809 15.0838 0 33.6907 0Z" fill="white"/>
<path d="M516.309 0C534.916 0 550 15.0809 550 33.6842V0H516.309Z" fill="white"/>
<path d="M550 208.842C550 223.26 538.31 234.947 523.89 234.947H328.484C298.713 234.947 274.579 259.077 274.579 288.842C274.579 295.353 269.3 300.632 262.787 300.632H33.6907C15.0838 300.632 0 285.551 0 266.947V354.526C0 335.923 15.0838 320.842 33.6907 320.842H240.888C259.495 320.842 274.579 335.923 274.579 354.526V510.316C274.579 528.919 259.495 544 240.888 544H328.484C309.877 544 294.793 528.919 294.793 510.316V288.842C294.793 270.239 309.877 255.158 328.484 255.158H516.309C534.916 255.158 550 270.239 550 288.842V208.842Z" fill="white"/>
<path d="M550 510.316C550 528.919 534.916 544 516.309 544H550V510.316Z" fill="white"/>
<path d="M33.6907 544C15.0838 544 0 528.919 0 510.316V544H33.6907Z" fill="white"/>
</svg>
